<svg xmlns="http://www.w3.org/2000/svg" width="725" height="725" fill="none" viewBox="0 0 725 725"><path fill="#232323" fill-opacity=".5" d="M308.868 4.18409C206.837 19.6093 116.375 78.4177 58.0485 167.112C37.6423 198.284 17.8788 246.166 9.36285 285.211C3.73909 310.598 -1.08127 355.91 1.81095 355.91C2.45366 355.91 9.52353 353.018 17.3968 349.322C81.9897 319.275 173.577 291.478 243.633 280.391C255.201 278.623 265.967 276.856 267.734 276.374C269.823 275.892 271.912 273 273.679 268.019C284.284 238.293 315.135 208.567 346.788 197.641C405.275 177.235 469.547 204.39 496.22 260.467C503.129 275.249 503.289 275.249 510.038 276.374C585.878 287.943 655.934 307.064 722.937 334.54C725.508 335.664 725.508 330.523 722.295 309.474C713.297 248.094 686.463 185.912 649.507 139.797C588.931 64.1173 508.913 17.6811 415.88 4.02342C387.279 -0.31493 337.308 -0.154257 308.868 4.18409Z"/><path fill="#232323" fill-opacity=".5" d="M364.142 246.327C341.647 254.361 325.097 272.518 318.991 295.655C310.475 326.988 327.186 361.052 358.036 375.673C368.319 380.494 370.087 380.815 386.797 380.815C403.99 380.815 404.793 380.654 416.684 374.709C437.411 364.587 451.551 345.787 455.407 323.131C460.388 294.209 444.481 264.002 417.005 249.862C406.722 244.72 404.793 244.238 389.047 243.756C375.871 243.435 370.408 244.077 364.142 246.327Z"/><path fill="#232323" fill-opacity=".5" d="M246.204 356.873C170.685 370.531 94.5228 395.597 28.3231 428.536C17.7183 433.838 8.88099 438.498 8.55963 438.659C8.23827 438.98 9.84506 446.211 12.2552 454.887C39.0886 553.062 104.163 634.687 194.626 683.212C228.69 701.529 272.073 715.669 312.725 721.614C339.076 725.47 389.368 725.47 414.756 721.614C480.795 711.491 541.049 685.301 591.502 644.649C644.044 602.23 686.945 540.208 707.994 475.936C715.064 454.084 722.295 422.752 721.009 419.377C720.206 417.289 689.838 404.274 659.951 393.508C619.3 378.565 573.024 366.193 527.552 357.677C513.091 354.945 501.04 352.696 500.719 352.696C500.558 352.696 497.666 358.159 494.452 364.907C480.313 394.633 452.997 417.931 420.379 428.215C403.187 433.678 376.032 434.481 358.518 429.982C323.169 421.145 294.247 398.328 277.697 366.032C274.001 358.641 270.305 352.696 269.341 352.856C268.538 352.856 258.094 354.784 246.204 356.873Z"/></svg>