<svg xmlns="http://www.w3.org/2000/svg" xmlns:xlink="http://www.w3.org/1999/xlink" version="1.1"><metadata>Created by FontForge 20170731 at Tue Oct 3 10:35:19 2023 By Aleksey,,, Copyright 2021 Indian Type Foundry. All rights reserved.</metadata><defs><font id="ClashDisplay-Semibold" horiz-adv-x="1585"><font-face x-height="1026" ascent="1638" bbox="-475 -469 3258 1821" cap-height="1372" descent="-410" font-family="Clash Display Semibold" font-stretch="normal" font-weight="600" panose-1="0 0 0 0 0 0 0 0 0 0" underline-position="-307" underline-thickness="102" unicode-range="U+000D-FB04" units-per-em="2048"/><glyph d="M471 0h-307v772h-146v254h152q25 160 161 253t367 93h90v-223h-139q-107 0 -151.5 -25.5t-38.5 -97.5h329v-254h-317v-772zM1266 0h-310v772h-145v254h152q25 159 162 252.5t366 93.5h90v-223h-139q-107 0 -151.5 -25.5t-37.5 -97.5h328v-254h-315v-772z" glyph-name="f_f" horiz-adv-x="1601" unicode="ff"/><glyph d="M471 0h-307v772h-146v254h152q25 160 161 253t367 93h90v-223h-139q-107 0 -151.5 -25.5t-38.5 -97.5h329v-254h-317v-772zM1198 1130h-307v242h307v-242zM1198 0h-307v1026h307v-1026z" glyph-name="fi" horiz-adv-x="1277" unicode="fi"/><glyph d="M471 0h-307v772h-146v254h152q25 160 161 253t367 93h90v-223h-139q-107 0 -151.5 -25.5t-38.5 -97.5h329v-254h-317v-772zM1198 0h-307v1372h307v-1372z" glyph-name="fl" horiz-adv-x="1277" unicode="fl"/><glyph d="M471 0h-307v772h-146v254h152q25 160 161 253t367 93h90v-223h-139q-107 0 -151.5 -25.5t-38.5 -97.5h329v-254h-317v-772zM1266 0h-310v772h-145v254h152q25 159 162 252.5t366 93.5h90v-223h-139q-107 0 -151.5 -25.5t-37.5 -97.5h328v-254h-315v-772zM1991 1130h-308 v242h308v-242zM1991 0h-308v1026h308v-1026z" glyph-name="f_f_i" horiz-adv-x="2072" unicode="ffi"/><glyph d="M471 0h-307v772h-146v254h152q25 160 161 253t367 93h90v-223h-139q-107 0 -151.5 -25.5t-38.5 -97.5h329v-254h-317v-772zM1266 0h-310v772h-145v254h152q25 159 162 252.5t366 93.5h90v-223h-139q-107 0 -151.5 -25.5t-37.5 -97.5h328v-254h-315v-772zM1991 0h-308 v1372h308v-1372z" glyph-name="f_f_l" horiz-adv-x="2072" unicode="ffl"/><glyph d="M471 0h-307v772h-146v254h152q25 160 161 253t367 93h90v-223h-139q-107 0 -151.5 -25.5t-38.5 -97.5h329v-254h-317v-772zM1178 0h-287v1372h307v-618h16q28 136 128 214.5t276 78.5q228 0 353.5 -143t125.5 -392q0 -247 -128.5 -389.5t-364.5 -142.5q-354 0 -410 305 h-16v-285zM1198 506q0 -130 74.5 -188t224.5 -58q152 0 220.5 57.5t68.5 194.5q0 138 -68 196t-219 58q-153 0 -227 -57t-74 -187v-16z" glyph-name="f_b" horiz-adv-x="2142" unicode="fb"/><glyph d="M471 0h-307v772h-146v254h152q25 160 161 253t367 93h90v-223h-139q-107 0 -151.5 -25.5t-38.5 -97.5h329v-254h-317v-772zM1266 0h-310v772h-145v254h152q25 159 162 252.5t366 93.5h90v-223h-139q-107 0 -151.5 -25.5t-37.5 -97.5h328v-254h-315v-772zM1970 0h-287 v1372h308v-618h16q29 136 128.5 214.5t274.5 78.5q229 0 354.5 -143t125.5 -392q0 -247 -129 -389.5t-365 -142.5q-353 0 -409 305h-17v-285zM1991 506q0 -130 74.5 -188t224.5 -58q152 0 221 57.5t69 194.5q0 138 -68.5 196t-219.5 58q-153 0 -227 -57t-74 -187v-16z" glyph-name="f_f_b" horiz-adv-x="2936" unicode="ffb"/><glyph d="M471 0h-307v772h-146v254h152q25 160 161 253t367 93h90v-223h-139q-107 0 -151.5 -25.5t-38.5 -97.5h329v-254h-317v-772zM1266 0h-310v772h-145v254h152q25 159 162 252.5t366 93.5h90v-223h-139q-107 0 -151.5 -25.5t-37.5 -97.5h328v-254h-315v-772zM1991 0h-308 v1372h308v-659h16q14 69 43.5 126.5t78.5 105.5t124 75t170 27q201 0 306 -115.5t105 -302.5v-629h-307v537q0 129 -59.5 181t-204.5 52q-152 0 -212 -61t-60 -195v-514z" glyph-name="f_f_h" horiz-adv-x="2908" unicode="ffh"/><glyph d="M471 0h-307v772h-146v254h152q25 160 161 253t367 93h90v-223h-139q-107 0 -151.5 -25.5t-38.5 -97.5h329v-254h-317v-772zM1266 0h-310v772h-145v254h152q25 159 162 252.5t366 93.5h90v-223h-139q-107 0 -151.5 -25.5t-37.5 -97.5h328v-254h-315v-772zM1993 1130h-310 v242h310v-242zM1577 -348h-49v229h53q52 0 77 23t25 76v1046h310v-997q0 -107 -28 -181.5t-84 -116.5t-129.5 -60.5t-174.5 -18.5z" glyph-name="f_f_j" horiz-adv-x="2072" unicode="ffj"/><glyph d="M471 0h-307v772h-146v254h152q25 160 161 253t367 93h90v-223h-139q-107 0 -151.5 -25.5t-38.5 -97.5h329v-254h-317v-772zM1266 0h-310v772h-145v254h152q25 159 162 252.5t366 93.5h90v-223h-139q-107 0 -151.5 -25.5t-37.5 -97.5h328v-254h-315v-772zM1991 0h-308 v1372h308v-727h233l264 381h363l-375 -496l371 -530h-363l-258 371h-235v-371z" glyph-name="f_f_k" horiz-adv-x="2842" unicode="ffk"/><glyph d="M471 0h-307v772h-146v254h152q25 160 161 253t367 93h90v-223h-139q-107 0 -151.5 -25.5t-38.5 -97.5h329v-254h-317v-772zM1198 0h-307v1372h307v-659h16q13 68 43 126t78.5 106t124 75t170.5 27q200 0 306 -116t106 -302v-629h-307v537q0 128 -60.5 180.5t-206.5 52.5 q-150 0 -210 -61t-60 -195v-514z" glyph-name="f_h" horiz-adv-x="2115" unicode="fh"/><glyph d="M471 0h-307v772h-146v254h152q25 160 161 253t367 93h90v-223h-139q-107 0 -151.5 -25.5t-38.5 -97.5h329v-254h-317v-772zM1198 1130h-307v242h307v-242zM784 -348h-49v229h53q52 0 77.5 23t25.5 76v1046h307v-997q0 -107 -27.5 -181.5t-83 -116.5t-129 -60.5 t-174.5 -18.5z" glyph-name="f_j" horiz-adv-x="1280" unicode="fj"/><glyph d="M471 0h-307v772h-146v254h152q25 160 161 253t367 93h90v-223h-139q-107 0 -151.5 -25.5t-38.5 -97.5h329v-254h-317v-772zM1198 0h-307v1372h307v-727h234l264 381h362l-375 -496l369 -530h-362l-256 371h-236v-371z" glyph-name="f_k" horiz-adv-x="2050" unicode="fk"/><glyph d="M471 0h-307v772h-146v254h152q25 160 161 253t367 93h90v-223h-139q-107 0 -151.5 -25.5t-38.5 -97.5h432v199h307v-199h330v-254h-330v-366q0 -75 32 -102.5t113 -27.5h185v-276h-252q-185 0 -285 91t-100 280v401h-420v-772z" glyph-name="f_t" horiz-adv-x="1562" unicode="ft"/><glyph d="M774 -10q-291 0 -466 176.5t-175 458.5q0 184 77.5 328t224 226.5t339.5 82.5t339.5 -82.5t224 -226.5t77.5 -328q0 -282 -175 -458.5t-466 -176.5zM774 162q120 0 199.5 21t135 73.5t79.5 142t24 226.5t-24 226t-79.5 141.5t-135 73.5t-199.5 21t-199.5 -21t-135 -73.5 t-79.5 -141.5t-24 -226t24 -226.5t79.5 -142t135 -73.5t199.5 -21zM618 670q-51 0 -81.5 26.5t-30.5 69.5t30.5 69.5t81.5 26.5q49 0 80 -26.5t31 -69.5t-31 -69.5t-80 -26.5zM932 670q-49 0 -80 26.5t-31 69.5t31 69.5t80 26.5q51 0 80.5 -26.5t29.5 -69.5t-29.5 -69.5 t-80.5 -26.5zM774 324q-109 0 -190 48t-150 126l64 59q70 -69 123 -87.5t153 -18.5q102 0 155.5 18.5t123.5 87.5l61 -59q-150 -174 -340 -174z" glyph-name=".notdef" horiz-adv-x="1548"/><glyph glyph-name=".null" horiz-adv-x="1228"/><glyph glyph-name="nonmarkingreturn" horiz-adv-x="682"/><glyph glyph-name="CR" horiz-adv-x="1228"/><glyph glyph-name="space" horiz-adv-x="315"/><glyph d="M457 451h-310q0 85 -21.5 392.5t-21.5 385.5v143h396v-143q0 -78 -21.5 -386t-21.5 -392zM477 0h-350v334h350v-334z" glyph-name="exclam" horiz-adv-x="604" unicode="!"/><glyph d="M743 780h-190l-64 295v297h320v-297zM301 780h-190l-66 295v297h320v-297z" glyph-name="quotedbl" horiz-adv-x="854" unicode="&quot;"/><glyph d="M467 0h-301l108 272h-233v275h344l90 235h-297v277h408l123 313h301l-125 -313h295l123 313h301l-123 -313h252v-277h-363l-90 -235h313v-275h-424l-106 -272h-301l106 272h-293zM770 788l-96 -245h311l96 245h-311z" glyph-name="numbersign" horiz-adv-x="1773" unicode="#"/><glyph d="M848 -205h-287v193q-247 26 -376.5 146t-129.5 329v12h307v-37q0 -67 27.5 -103.5t102 -55.5t213.5 -19q122 0 188 13.5t90.5 40.5t24.5 75q0 62 -40.5 91t-148.5 48l-385 56q-189 30 -290 125.5t-101 259.5q0 74 29 141t88 126.5t162 100t239 52.5v188h287v-197 q221 -36 331.5 -159t110.5 -312v-12h-309v29q0 69 -28 107.5t-102.5 58.5t-209.5 20q-161 0 -225 -31.5t-64 -99.5q0 -59 35.5 -86.5t124.5 -42.5l385 -61q418 -67 418 -388q0 -159 -115.5 -273t-351.5 -142v-193z" glyph-name="dollar" horiz-adv-x="1357" unicode="$"/><glyph d="M391 711q-168 0 -264 93t-96 249t96 250t264 94q169 0 266 -94t97 -250t-96.5 -249t-266.5 -93zM399 0h-297l1166 1372h297zM391 911q81 0 112.5 32t31.5 110t-31.5 110.5t-112.5 32.5q-78 0 -109.5 -32.5t-31.5 -110.5q0 -77 31 -109.5t110 -32.5zM1274 -23 q-169 0 -266 93.5t-97 248.5t97.5 249t265.5 94t265 -93.5t97 -249.5q0 -155 -97 -248.5t-265 -93.5zM1274 178q79 0 111 32t32 109t-32 110.5t-111 33.5t-111.5 -33.5t-32.5 -110.5t32.5 -109t111.5 -32z" glyph-name="percent" horiz-adv-x="1667" unicode="%"/><glyph d="M657 -20q-620 0 -620 401q0 148 88 233t242 103v22q-132 15 -203.5 95t-71.5 198q0 184 139 273.5t400 89.5h248v-281h-291q-102 0 -145.5 -30.5t-43.5 -112.5q0 -78 46 -109t141 -31h397v195h303v-195h211v-251h-211v-86q0 -122 -33.5 -214t-106 -160.5t-195.5 -104 t-294 -35.5zM668 260q100 0 158 8.5t95 34t49.5 65.5t12.5 109v103h-444q-94 0 -142.5 -36.5t-48.5 -123.5q0 -60 28 -94t97 -50t195 -16z" glyph-name="ampersand" horiz-adv-x="1517" unicode="&amp;"/><glyph d="M301 780h-190l-66 295v297h320v-297z" glyph-name="quotesingle" horiz-adv-x="409" unicode="'"/><glyph d="M647 -4l-155 -143q-68 62 -123.5 120t-116.5 141t-102 166t-68 189.5t-27 216.5t27 216.5t68 190t102 166t116.5 141t123.5 120.5l155 -144q-100 -136 -149.5 -225t-77 -202t-27.5 -263t27.5 -263t77 -202t149.5 -225z" glyph-name="parenleft" horiz-adv-x="667" unicode="("/><glyph d="M68 1376l155 144q68 -62 123.5 -120.5t116 -141t101.5 -166t68 -190t27 -216.5t-27 -216.5t-68 -189.5t-101.5 -165.5t-116 -141t-123.5 -120.5l-155 143q100 136 149.5 225t77 202t27.5 263t-27.5 263t-77 202t-149.5 225z" glyph-name="parenright" horiz-adv-x="737" unicode=")"/><glyph d="M391 864l-110 -176l-179 129l134 160l-7 16l-198 54l67 208l195 -79l14 12l-14 207h219l-14 -207l14 -12l197 77l65 -209l-203 -51l-6 -16l135 -160l-180 -131l-106 178h-23z" glyph-name="asterisk" horiz-adv-x="804" unicode="*"/><glyph d="M655 229h-264v330h-325v254h325v330h264v-330h326v-254h-326v-330z" glyph-name="plus" horiz-adv-x="1046" unicode="+"/><glyph d="M182 -289h-108v191h100q33 0 47.5 12.5t14.5 50.5v35h-175v358h396v-391q0 -127 -71 -191.5t-204 -64.5z" glyph-name="comma" horiz-adv-x="518" unicode=","/><glyph d="M825 473h-764v264h764v-264z" glyph-name="hyphen" horiz-adv-x="886" unicode="-"/><glyph d="M457 0h-396v358h396v-358z" glyph-name="period" horiz-adv-x="518" unicode="."/><glyph d="M287 -41h-328l737 1454h328z" glyph-name="slash" horiz-adv-x="972" unicode="/"/><glyph d="M737 -20q-327 0 -506.5 190t-179.5 516q0 325 180 516t506 191q325 0 505.5 -191t180.5 -516q0 -326 -180 -516t-506 -190zM737 279q195 0 276 92.5t81 314.5t-81 315t-276 93q-196 0 -276 -93t-80 -315t80 -314.5t276 -92.5z" glyph-name="zero" horiz-adv-x="1472" unicode="0"/><glyph d="M680 0h-307v991h-353v211h58q121 0 196.5 36.5t124.5 133.5h281v-1372z" glyph-name="one" horiz-adv-x="761" unicode="1"/><glyph d="M1266 0h-1219v197q0 182 88.5 286t304.5 176l353 115q94 33 131 70.5t37 103.5q0 55 -23 89.5t-86.5 54.5t-173.5 20q-183 0 -255.5 -54t-72.5 -173v-27h-301v27q0 103 36.5 192t110.5 161t200.5 113.5t291.5 41.5q152 0 265 -33t181.5 -94t102 -141.5t33.5 -180.5 q0 -174 -104 -275.5t-300 -156.5l-299 -82q-107 -33 -151.5 -71.5t-44.5 -116.5l358 34h537v-276z" glyph-name="two" horiz-adv-x="1318" unicode="2"/><glyph d="M702 -20q-329 0 -490 126t-161 359v33h326v-33q0 -57 10.5 -89.5t43 -57.5t94 -34.5t163.5 -9.5q192 0 265 35t73 125q0 75 -48.5 110.5t-146.5 35.5h-395v251h367q172 0 172 130q0 50 -24 78.5t-88 43.5t-179 15q-123 0 -189.5 -19.5t-92 -59.5t-25.5 -112v-10h-326v10 q0 224 167.5 355t492.5 131q277 0 423 -93t146 -274q0 -120 -70 -195t-202 -92v-22q157 -23 244 -104.5t87 -227.5q0 -197 -167 -301t-470 -104z" glyph-name="three" horiz-adv-x="1374" unicode="3"/><glyph d="M1208 0h-307v262h-870v209l821 901h356v-833h209v-277h-209v-262zM459 539h442v479h-22l-420 -457v-22z" glyph-name="four" horiz-adv-x="1445" unicode="4"/><glyph d="M721 -20q-655 0 -655 446v18h317v-18q0 -90 75.5 -128t266.5 -38q175 0 241 45.5t66 159.5q0 115 -66 161t-239 46q-146 0 -225 -21t-115 -73l-22 2v-2l-289 8l78 786h1130v-276h-858l-43 -359l18 -2q44 71 160 125.5t291 54.5q250 0 378 -115.5t128 -330.5 q0 -230 -159.5 -359.5t-477.5 -129.5z" glyph-name="five" horiz-adv-x="1423" unicode="5"/><glyph d="M758 -20q-372 0 -538.5 168.5t-166.5 535.5q0 349 181 529t497 180q281 0 449 -125t168 -336v-17h-342v17q0 89 -63.5 127.5t-211.5 38.5q-98 0 -161.5 -17t-107.5 -58.5t-62.5 -110.5t-18.5 -175v-90h22q46 89 161 145t290 56q256 0 391 -105t135 -313 q0 -209 -160.5 -329.5t-461.5 -120.5zM741 274q178 0 248 42.5t70 136.5q0 98 -69 140t-247 42q-189 0 -263 -41.5t-74 -136.5t75 -139t260 -44z" glyph-name="six" horiz-adv-x="1441" unicode="6"/><glyph d="M631 0h-355q0 100 13 193t34 169t55 149t67.5 129t81 113t86.5 96.5t93 85t91.5 73.5t89.5 65v23h-867v276h1186v-248q-104 -98 -175.5 -173t-142 -162.5t-114 -169t-78 -178t-50 -205t-15.5 -236.5z" glyph-name="seven" horiz-adv-x="1210" unicode="7"/><glyph d="M696 -20q-204 0 -349 42t-226.5 132t-81.5 223q0 145 89 227t237 113v22q-137 24 -211 98.5t-74 194.5q0 169 158.5 265t455.5 96q301 0 459 -96t158 -265q0 -121 -74 -195.5t-213 -97.5v-22q326 -62 326 -340q0 -198 -174 -297.5t-480 -99.5zM694 813q118 0 186.5 15.5 t96 45.5t27.5 80q0 52 -25.5 82t-94 46t-190.5 16q-175 0 -241 -33.5t-66 -110.5q0 -74 68.5 -107.5t238.5 -33.5zM694 274q195 0 269.5 37.5t74.5 128.5q0 89 -74 125.5t-270 36.5t-270 -36.5t-74 -125.5q0 -91 74 -128.5t270 -37.5z" glyph-name="eight" horiz-adv-x="1388" unicode="8"/><glyph d="M715 -20q-283 0 -450 124.5t-167 335.5v17h342v-17q0 -89 63 -127.5t212 -38.5q186 0 262 78.5t76 286.5v90h-23q-46 -91 -160.5 -148t-289.5 -57q-257 0 -392 105t-135 313q0 209 161 330t462 121q372 0 538 -167.5t166 -531.5q0 -177 -47.5 -314t-135 -224t-209 -131.5 t-273.5 -44.5zM692 737q187 0 261.5 43t74.5 140q0 92 -75.5 135t-260.5 43q-178 0 -247.5 -42t-69.5 -136q0 -98 68.5 -140.5t248.5 -42.5z" glyph-name="nine" horiz-adv-x="1441" unicode="9"/><glyph d="M457 670h-396v356h396v-356zM457 0h-396v358h396v-358z" glyph-name="colon" horiz-adv-x="518" unicode=":"/><glyph d="M457 670h-396v356h396v-356zM182 -289h-108v191h100q33 0 47.5 12.5t14.5 50.5v35h-175v358h396v-391q0 -127 -71 -191.5t-204 -64.5z" glyph-name="semicolon" horiz-adv-x="518" unicode=";"/><glyph d="M55 868l916 289v-287l-637 -174v-20l637 -174v-287l-916 289v364z" glyph-name="less" horiz-adv-x="1042" unicode="&lt;"/><glyph d="M983 788h-917v252h917v-252zM981 328h-915v254h915v-254z" glyph-name="equal" horiz-adv-x="1046" unicode="="/><glyph d="M981 504l-915 -289v287l636 174v20l-636 174v287l915 -289v-364z" glyph-name="greater" horiz-adv-x="1042" unicode="&gt;"/><glyph d="M715 453h-307v71q0 104 61 165.5t170 103.5l143 57q80 32 113 60.5t33 78.5q0 29 -10.5 49t-39 38t-86 27t-143.5 9q-123 0 -195.5 -22.5t-101 -64.5t-28.5 -110v-79h-304v55q0 82 22.5 154.5t72.5 137t124.5 110.5t185 73t247.5 27q147 0 257.5 -30.5t176 -85.5 t97.5 -124.5t32 -153.5q0 -76 -23.5 -136t-67.5 -101t-88 -66.5t-102 -48.5l-151 -59q-54 -22 -71 -46t-17 -65v-24zM739 0h-352v334h352v-334z" glyph-name="question" horiz-adv-x="1280" unicode="?"/><glyph d="M799 84q-150 0 -244 103.5t-94 314.5q0 203 95 309.5t249 106.5q108 0 177.5 -55t84.5 -148h16v186h269v-493q0 -50 20.5 -72.5t65.5 -22.5q47 0 72.5 22t38 79.5t12.5 165.5q0 280 -139.5 398t-469.5 118q-178 0 -297.5 -30.5t-198 -101.5t-113 -183.5t-34.5 -280.5 q0 -161 32 -270.5t103.5 -177t177 -97t259.5 -29.5q182 0 329 45l50 -204q-203 -72 -412 -72q-379 0 -595 213.5t-216 591.5q0 388 252 619t680 231q400 0 625 -200.5t225 -543.5q0 -242 -109.5 -382t-292.5 -140q-141 0 -227.5 54.5t-112.5 148.5h-16q-22 -87 -85.5 -145 t-176.5 -58zM743 502q0 -113 37.5 -161t124.5 -48q162 0 162 176v66q0 174 -162 174q-87 0 -124.5 -47t-37.5 -160z" glyph-name="at" horiz-adv-x="1859" unicode="@"/><glyph d="M334 0h-344l600 1372h438l604 -1372h-352l-129 303h-686zM713 879l-129 -299h448l-129 299l-84 213h-22z" glyph-name="A" horiz-adv-x="1622" unicode="A"/><glyph d="M938 0h-862v1372h823q210 0 321 -86t111 -248q0 -134 -77 -215.5t-242 -93.5v-18q186 -13 281.5 -100.5t95.5 -229.5q0 -180 -113 -280.5t-338 -100.5zM383 1096v-269h481q85 0 122.5 31.5t37.5 102.5t-39 103t-125 32h-477zM383 573v-297h518q95 0 135.5 34t40.5 116 q0 81 -40.5 114t-135.5 33h-518z" glyph-name="B" horiz-adv-x="1419" unicode="B"/><glyph d="M784 -20q-338 0 -535.5 191.5t-197.5 514.5t197.5 515t535.5 192q321 0 511 -151t190 -411v-30h-342v30q0 137 -83.5 202t-268.5 65q-227 0 -320.5 -92t-93.5 -320t93.5 -320t320.5 -92q185 0 268.5 65t83.5 202v30h342v-30q0 -260 -189.5 -410.5t-511.5 -150.5z" glyph-name="C" horiz-adv-x="1536" unicode="C"/><glyph d="M760 0h-662v1372h662q332 0 525.5 -182.5t193.5 -503.5t-193.5 -503.5t-525.5 -182.5zM760 1096h-354v-820h354q109 0 179.5 17.5t120 63.5t70.5 125.5t21 203.5t-21 203.5t-70.5 125.5t-120 63.5t-179.5 17.5z" glyph-name="D" horiz-adv-x="1529" unicode="D"/><glyph d="M1243 0h-1161v1372h1161v-276h-854v-269h823v-274h-823v-277h854v-276z" glyph-name="E" horiz-adv-x="1300" unicode="E"/><glyph d="M389 0h-307v1372h1161v-276h-854v-310h823v-274h-823v-512z" glyph-name="F" horiz-adv-x="1292" unicode="F"/><glyph d="M729 -20q-313 0 -495.5 191.5t-182.5 514.5t205 515t557 192q324 0 513.5 -142t189.5 -389v-16h-342v16q0 122 -87 179t-282 57q-234 0 -331 -92t-97 -320t93.5 -320t320.5 -92q161 0 248.5 20t127 67.5t43.5 136.5h-465v227h773v-725h-285v295h-16q-38 -145 -157.5 -230 t-330.5 -85z" glyph-name="G" unicode="G"/><glyph d="M389 0h-307v1372h307v-545h717v545h307v-1372h-307v551h-717v-551z" glyph-name="H" horiz-adv-x="1495" unicode="H"/><glyph d="M389 0h-307v1372h307v-1372z" glyph-name="I" horiz-adv-x="468" unicode="I"/><glyph d="M641 -20q-322 0 -466 147t-144 430v59h325v-59q0 -82 10 -130t41 -84t86.5 -50t147.5 -14q121 0 183.5 27t84 81t21.5 156v829h325v-829q0 -135 -33.5 -237t-105.5 -176t-191 -112t-284 -38z" glyph-name="J" horiz-adv-x="1327" unicode="J"/><glyph d="M389 0h-307v1372h307v-545h342l365 545h368l-477 -676l471 -696h-368l-355 528h-346v-528z" glyph-name="K" horiz-adv-x="1460" unicode="K"/><glyph d="M1206 0h-1124v1372h307v-1096h817v-276z" glyph-name="L" horiz-adv-x="1247" unicode="L"/><glyph d="M389 0h-307v1372h416l321 -676l129 -321h23l125 321l311 676h418v-1372h-307v696l10 215h-23l-80 -215l-286 -614h-373l-287 614l-80 215h-22l12 -215v-696z" glyph-name="M" horiz-adv-x="1904" unicode="M"/><glyph d="M389 0h-307v1372h328l491 -649l189 -289h22l-14 277v661h307v-1372h-328l-506 655l-174 258h-20l12 -251v-662z" glyph-name="N" horiz-adv-x="1486" unicode="N"/><glyph d="M788 -20q-340 0 -538.5 192t-198.5 514q0 323 198.5 515t538.5 192q346 0 546 -192t200 -515t-200 -514.5t-546 -191.5zM788 274q227 0 322.5 92.5t95.5 319.5t-95.5 319.5t-322.5 92.5q-226 0 -318.5 -92t-92.5 -320t92.5 -320t318.5 -92z" glyph-name="O" unicode="O"/><glyph d="M389 0h-307v1372h717q241 0 381.5 -130.5t140.5 -364.5t-141 -366t-381 -132h-410v-379zM766 1096h-377v-441h377q132 0 191 48.5t59 173.5q0 122 -59 170.5t-191 48.5z" glyph-name="P" horiz-adv-x="1347" unicode="P"/><glyph d="M1339 -289h-399l-213 271q-314 19 -495 208t-181 496q0 323 198.5 515t538.5 192q346 0 546 -192t200 -515q0 -251 -122 -426t-345 -242zM788 274q227 0 322.5 92.5t95.5 319.5t-95.5 319.5t-322.5 92.5q-226 0 -318.5 -92t-92.5 -320t92.5 -320t318.5 -92z" glyph-name="Q" unicode="Q"/><glyph d="M389 0h-307v1372h758q253 0 391.5 -107t138.5 -304q0 -168 -97.5 -265t-289.5 -116v-17q85 -23 131 -67.5t90 -126.5l199 -369h-356l-189 356q-29 56 -59 85t-78.5 43t-128.5 14h-203v-498zM389 1096v-367h449q113 0 162 40t49 144q0 99 -50 141t-161 42h-449z" glyph-name="R" horiz-adv-x="1417" unicode="R"/><glyph d="M705 -20q-314 0 -482 123t-168 360v12h307v-37q0 -67 27.5 -103.5t102 -55.5t213.5 -19q122 0 188 13.5t90.5 40.5t24.5 75q0 62 -40.5 91t-148.5 48l-385 56q-189 30 -290 125.5t-101 259.5q0 82 34.5 154.5t106 134.5t197 98.5t291.5 36.5q307 0 462.5 -129.5 t155.5 -354.5v-12h-309v29q0 69 -28 107.5t-102.5 58.5t-209.5 20q-161 0 -225 -31.5t-64 -99.5q0 -59 35.5 -86.5t124.5 -42.5l385 -61q418 -67 418 -388q0 -86 -35 -160.5t-105.5 -134t-191 -94t-278.5 -34.5z" glyph-name="S" horiz-adv-x="1357" unicode="S"/><glyph d="M846 0h-307v1096h-510v276h1327v-276h-510v-1096z" glyph-name="T" horiz-adv-x="1384" unicode="T"/><glyph d="M745 -20q-330 0 -501.5 156t-171.5 437v799h307v-776q0 -176 79.5 -246.5t286.5 -70.5q209 0 288 70t79 247v776h307v-799q0 -282 -171.5 -437.5t-502.5 -155.5z" glyph-name="U" horiz-adv-x="1492" unicode="U"/><glyph d="M991 0h-438l-569 1372h370l412 -1061h20l406 1061h369z" glyph-name="V" horiz-adv-x="1544" unicode="V"/><glyph d="M803 0h-457l-323 1372h344l165 -778l48 -301h22l64 301l229 778h457l227 -778l63 -301h23l47 301l166 778h336l-326 -1372h-456l-205 686l-97 395h-22l-96 -395z" glyph-name="W" horiz-adv-x="2238" unicode="W"/><glyph d="M391 0h-401l534 678v22l-534 672h401l385 -489h23l370 489h402l-533 -678v-22l533 -672h-402l-383 496h-22z" glyph-name="X" horiz-adv-x="1560" unicode="X"/><glyph d="M895 0h-309v455l-609 917h379l262 -401l115 -185h23l114 185l263 401h380l-618 -919v-453z" glyph-name="Y" horiz-adv-x="1490" unicode="Y"/><glyph d="M1346 0h-1287v276l807 797v23h-788v276h1251v-276l-833 -797v-23h850v-276z" glyph-name="Z" horiz-adv-x="1402" unicode="Z"/><glyph d="M592 -123h-510v1618h510v-254h-225v-1110h225v-254z" glyph-name="bracketleft" horiz-adv-x="612" unicode="["/><glyph d="M1024 -41h-328l-737 1454h328z" glyph-name="backslash" horiz-adv-x="983" unicode="\"/><glyph d="M18 131h226v1110h-226v254h510v-1618h-510v254z" glyph-name="bracketright" horiz-adv-x="651" unicode="]"/><glyph d="M338 573h-287l289 799h362l287 -799h-287l-172 521h-20z" glyph-name="asciicircum" horiz-adv-x="1040" unicode="^"/><glyph d="M758 -219h-738v219h738v-219z" glyph-name="underscore" horiz-adv-x="778" unicode="_"/><glyph d="M397 -20q-166 0 -260 72.5t-94 201.5q0 114 84 182.5t248 85.5l440 45v39q0 98 -49 134t-174 36q-118 0 -168.5 -35.5t-50.5 -122.5v-8h-310v6q0 192 150 311.5t401 119.5q250 0 377 -119t127 -326v-602h-287v236h-16q-36 -122 -143 -189t-275 -67zM352 274 q0 -41 32.5 -59t100.5 -18q163 0 243.5 44.5t86.5 149.5l-356 -41q-56 -5 -81.5 -22.5t-25.5 -53.5z" glyph-name="a" horiz-adv-x="1191" unicode="a"/><glyph d="M367 0h-285v1372h307v-618h17q28 136 128 214.5t275 78.5q228 0 353.5 -143t125.5 -392q0 -247 -128.5 -389.5t-364.5 -142.5q-354 0 -410 305h-18v-285zM389 506q0 -130 74.5 -188t224.5 -58q152 0 220.5 57.5t68.5 194.5q0 138 -68 196t-219 58q-153 0 -227 -57 t-74 -187v-16z" glyph-name="b" horiz-adv-x="1333" unicode="b"/><glyph d="M629 -20q-264 0 -421 144.5t-157 387.5q0 246 157 390.5t421 144.5q248 0 401.5 -122t153.5 -321v-29h-305v17q0 95 -65 136.5t-191 41.5q-139 0 -203 -59t-64 -199q0 -138 64 -197t203 -59q126 0 191 41.5t65 136.5v17h305v-29q0 -198 -153.5 -320t-401.5 -122z" glyph-name="c" horiz-adv-x="1234" unicode="c"/><glyph d="M541 -20q-236 0 -366 143t-130 389q0 248 126 391.5t353 143.5q176 0 276 -78.5t128 -214.5h18v618h307v-1372h-286v285h-17q-59 -305 -409 -305zM356 512q0 -137 69 -194.5t220 -57.5t226 58t75 188v16q0 130 -74.5 187t-226.5 57q-151 0 -220 -58t-69 -196z" glyph-name="d" horiz-adv-x="1333" unicode="d"/><glyph d="M627 -20q-175 0 -302 56t-200.5 177t-73.5 299q0 244 157 389.5t413 145.5q257 0 408 -130.5t151 -367.5q0 -19 -9 -98h-835q6 -120 69.5 -173t210.5 -53q132 0 189 33.5t57 101.5v21h307v-23q0 -168 -149.5 -273t-392.5 -105zM614 807q-135 0 -199 -47t-75 -148h545 q-6 101 -71 148t-200 47z" glyph-name="e" horiz-adv-x="1228" unicode="e"/><glyph d="M471 0h-307v772h-146v254h152q25 160 161 253t367 93h90v-223h-139q-107 0 -151.5 -25.5t-38.5 -97.5h329v-254h-317v-772z" glyph-name="f" horiz-adv-x="808" unicode="f"/><glyph d="M532 104q-227 0 -354 126t-127 345q0 216 132.5 344t361.5 128q160 0 263.5 -69t127.5 -200h16v248h287v-876q0 -263 -151 -391t-433 -128q-251 0 -395.5 107t-144.5 299h307q0 -60 20 -91t74 -45t160 -14q78 0 124 9.5t77.5 36.5t43 73t11.5 123v231h-17 q-26 -119 -121.5 -187.5t-261.5 -68.5zM360 575q0 -112 66 -159t213 -47q150 0 221.5 46t71.5 150v23q0 102 -71.5 147t-217.5 45q-150 0 -216.5 -46.5t-66.5 -158.5z" glyph-name="g" horiz-adv-x="1320" unicode="g"/><glyph d="M389 0h-307v1372h307v-659h17q13 68 42.5 126t78.5 106t124 75t170 27q200 0 306 -116t106 -302v-629h-307v537q0 128 -60.5 180.5t-206.5 52.5q-150 0 -210 -61t-60 -195v-514z" glyph-name="h" horiz-adv-x="1306" unicode="h"/><glyph d="M389 1130h-307v242h307v-242zM389 0h-307v1026h307v-1026z" glyph-name="i" horiz-adv-x="468" unicode="i"/><glyph d="M389 1130h-307v242h307v-242zM-25 -348h-51v229h56q52 0 77 23t25 76v1046h307v-997q0 -208 -104.5 -292.5t-309.5 -84.5z" glyph-name="j" horiz-adv-x="471" unicode="j"/><glyph d="M389 0h-307v1372h307v-727h234l262 381h364l-375 -496l369 -530h-362l-256 371h-236v-371z" glyph-name="k" horiz-adv-x="1241" unicode="k"/><glyph d="M389 0h-307v1372h307v-1372z" glyph-name="l" horiz-adv-x="468" unicode="l"/><glyph d="M389 0h-307v1026h285v-311h16q10 68 35 125t69.5 105t116 75t164.5 27q171 0 267 -92.5t114 -243.5h18q10 69 35.5 126.5t71 106t119 76t168.5 27.5q191 0 292 -113t101 -295v-639h-307v537q0 128 -52.5 180.5t-183.5 52.5q-136 0 -188 -57.5t-52 -194.5v-518h-307v537 q0 128 -52 180.5t-183 52.5q-136 0 -188 -57.5t-52 -194.5v-518z" glyph-name="m" horiz-adv-x="2027" unicode="m"/><glyph d="M389 0h-307v1026h285v-315h18q11 67 40 125.5t78 106.5t126 76t174 28q103 0 183 -31.5t130 -87.5t75.5 -129t25.5 -160v-639h-308v537q0 124 -58.5 178.5t-197.5 54.5q-144 0 -204 -59.5t-60 -192.5v-518z" glyph-name="n" horiz-adv-x="1290" unicode="n"/><glyph d="M629 -20q-264 0 -425 145t-161 387q0 244 161 389.5t425 145.5t424.5 -145t160.5 -390q0 -242 -160.5 -387t-424.5 -145zM629 252q153 0 216.5 61.5t63.5 198.5q0 138 -64 201t-216 63q-153 0 -217 -63t-64 -201t63.5 -199t217.5 -61z" glyph-name="o" horiz-adv-x="1257" unicode="o"/><glyph d="M389 -348h-307v1374h285v-281h20q57 302 410 302q233 0 362 -143.5t129 -391.5q0 -247 -126 -389.5t-355 -142.5q-174 0 -275.5 78.5t-128.5 217.5h-14v-624zM389 498q0 -128 74.5 -183t224.5 -55q151 0 220 57.5t69 194.5q0 138 -68.5 195t-218.5 57q-153 0 -227 -58.5 t-74 -191.5v-16z" glyph-name="p" horiz-adv-x="1333" unicode="p"/><glyph d="M526 -20q-228 0 -354.5 142.5t-126.5 389.5q0 248 129 391.5t363 143.5q352 0 409 -302h21v281h286v-1374h-307v624h-16q-27 -139 -128.5 -217.5t-275.5 -78.5zM356 512q0 -137 69 -194.5t220 -57.5q152 0 226.5 55t74.5 183v16q0 133 -74.5 191.5t-226.5 58.5 q-151 0 -220 -57t-69 -195z" glyph-name="q" horiz-adv-x="1333" unicode="q"/><glyph d="M389 0h-307v1026h285v-272h18q23 132 109.5 212.5t234.5 80.5q163 0 243.5 -99t80.5 -260v-170h-308v107q0 86 -38.5 123.5t-131.5 37.5q-100 0 -143 -46.5t-43 -145.5v-594z" glyph-name="r" horiz-adv-x="1081" unicode="r"/><glyph d="M600 -20q-259 0 -398 96.5t-139 275.5v6h308v-18q0 -68 49.5 -92.5t181.5 -24.5q119 0 161 20t42 68q0 42 -30.5 60t-121.5 30l-288 35q-320 36 -320 287q0 144 127 234t379 90q254 0 390 -95.5t136 -281.5v-6h-307v12q0 45 -17.5 71t-68.5 41t-143 15 q-112 0 -152.5 -20.5t-40.5 -71.5q0 -41 33 -61t131 -32l219 -26q202 -23 289.5 -93t87.5 -200q0 -146 -136 -232.5t-372 -86.5z" glyph-name="s" horiz-adv-x="1150" unicode="s"/><glyph d="M805 0h-254q-185 0 -285 91t-100 280v401h-162v254h162v199h307v-199h332v-254h-332v-366q0 -75 32.5 -102.5t115.5 -27.5h184v-276z" glyph-name="t" horiz-adv-x="837" unicode="t"/><glyph d="M506 -20q-208 0 -317 113t-109 294v639h307v-537q0 -126 59.5 -180.5t204.5 -54.5q148 0 210.5 59.5t62.5 192.5v520h307v-1026h-287v313h-16q-11 -67 -40.5 -125t-79 -105.5t-127 -75t-175.5 -27.5z" glyph-name="u" horiz-adv-x="1306" unicode="u"/><glyph d="M846 0h-379l-467 1026h342l307 -727h21l309 727h336z" glyph-name="v" horiz-adv-x="1314" unicode="v"/><glyph d="M664 0h-383l-281 1026h317l121 -469l43 -319h21l82 350l155 438h396l153 -438l82 -350h21l45 319l118 469h314l-291 -1026h-383l-176 494l-76 282h-22l-78 -282z" glyph-name="w" horiz-adv-x="1867" unicode="w"/><glyph d="M362 0h-370l409 502v16l-409 508h375l272 -346h16l265 346h370l-409 -502v-18l409 -506h-375l-272 344h-16z" glyph-name="x" horiz-adv-x="1282" unicode="x"/><glyph d="M279 -348h-168v278h251q56 0 85.5 15.5t44.5 50.5l-502 1030h348l217 -469l86 -242h21l81 244l195 467h342l-508 -1100q-71 -157 -182 -215.5t-311 -58.5z" glyph-name="y" horiz-adv-x="1271" unicode="y"/><glyph d="M1128 0h-1089v262l440 350l215 136v20l-215 -12h-409v270h1028v-264l-475 -367l-195 -121v-20l195 14h505v-268z" glyph-name="z" horiz-adv-x="1167" unicode="z"/><glyph d="M668 -123h-52q-194 0 -292.5 94.5t-98.5 259.5v203q0 60 -26 83.5t-95 23.5h-63v290h63q69 0 95 23.5t26 83.5v203q0 165 98.5 259.5t292.5 94.5h52v-299h-62q-52 0 -74 -22t-22 -74v-182q0 -222 -227 -222v-20q227 0 227 -221v-183q0 -52 22 -74t74 -22h62v-299z" glyph-name="braceleft" horiz-adv-x="704" unicode="{"/><glyph d="M365 -205h-283v1782h283v-1782z" glyph-name="bar" horiz-adv-x="446" unicode="|"/><glyph d="M43 1495h53q193 0 292 -94.5t99 -259.5v-203q0 -60 26 -83.5t95 -23.5h64v-290h-64q-69 0 -95 -23.5t-26 -83.5v-203q0 -165 -99 -259.5t-292 -94.5h-53v299h61q53 0 76 22t23 74v183q0 221 225 221v20q-225 0 -225 222v182q0 52 -23 74t-76 22h-61v299z" glyph-name="braceright" horiz-adv-x="712" unicode="}"/><glyph d="M344 494h-258v112q0 32 3 59t11 60t25.5 58.5t43 47.5t67 34t94.5 12q68 0 174 -48l147 -45q10 -3 31 -11t30.5 -11.5t24.5 -8t26 -6.5t21 -2q26 0 38 13.5t12 46.5v55h256v-125q0 -250 -222 -250q-39 0 -82.5 9t-65 16t-77.5 27l-147 47q-66 32 -95 32 q-34 0 -45.5 -17.5t-11.5 -51.5v-53z" glyph-name="asciitilde" horiz-adv-x="1171" unicode="~"/><glyph glyph-name="nbspace" horiz-adv-x="315"/><glyph d="M90 1024h350v-334h-350v334zM111 573h309q0 -85 21.5 -392.5t21.5 -385.5v-143h-397v143q0 78 22.5 386t22.5 392z" glyph-name="exclamdown" horiz-adv-x="528" unicode="¡"/><glyph d="M770 -205h-285v197q-202 37 -318 175.5t-116 344.5q0 209 116 347t318 175v195h285v-195q190 -32 302 -147t112 -283v-29h-305v17q0 95 -65 136.5t-191 41.5q-139 0 -203 -59t-64 -199q0 -138 64 -197t203 -59q126 0 191 41.5t65 136.5v17h305v-29q0 -168 -112 -283 t-302 -147v-197z" glyph-name="cent" horiz-adv-x="1224" unicode="¢"/><glyph d="M944 512h-336q4 -28 4 -43q0 -69 -36.5 -112.5t-90.5 -63.5v-17h871v-276h-1295v276h113q85 0 131.5 32.5t46.5 88.5q0 44 -33 115h-258v254h134q-50 121 -50 215q0 182 157 297t446 115q159 0 276.5 -38t184.5 -106t98.5 -152.5t31.5 -187.5v-37h-301v39q0 113 -61 157 t-232 44q-165 0 -228.5 -40.5t-63.5 -129.5q0 -68 53 -176h438v-254z" glyph-name="sterling" horiz-adv-x="1402" unicode="£"/><glyph d="M930 0h-305v287h-578v254h518l-86 129h-432v254h260l-303 448h402l198 -328l166 -317h23l163 317l199 328h393l-301 -448h260v-254h-432l-86 -129h518v-254h-577v-287z" glyph-name="yen" horiz-adv-x="1554" unicode="¥"/><glyph d="M387 768h-285v809h285v-809zM387 -205h-285v809h285v-809z" glyph-name="brokenbar" horiz-adv-x="489" unicode="¦"/><glyph d="M600 -20q-245 0 -386.5 100t-141.5 274v8h307v-18q0 -48 16.5 -74t67 -40.5t145.5 -14.5q111 0 152 20.5t41 65.5q0 38 -29.5 56t-114.5 30l-340 47q-140 19 -208 69.5t-68 139.5q0 77 55.5 127t153.5 59v17q-41 9 -75.5 25.5t-66 43.5t-49.5 69.5t-18 96.5 q0 139 132 229.5t370 90.5q246 0 388 -101t142 -274v-8h-307v18q0 48 -17 73.5t-68.5 39.5t-148.5 14q-108 0 -148 -20.5t-40 -65.5q0 -40 29.5 -56.5t115.5 -27.5l381 -51q234 -29 234 -197q0 -80 -56.5 -133.5t-152.5 -60.5v-19q41 -9 75.5 -26t66 -44.5t49.5 -69.5 t18 -95q0 -139 -132.5 -228t-371.5 -89zM444 627l218 -27q139 -24 139 68q0 35 -24 52t-81 25l-215 27q-137 19 -137 -65q0 -37 23 -54.5t77 -25.5z" glyph-name="section" horiz-adv-x="1142" unicode="§"/><glyph d="M791 -12q-342 0 -544 189t-202 509t202 509t544 189q341 0 542 -189t201 -509t-201 -509t-542 -189zM791 205q271 0 386 108t115 373t-115 373t-386 108q-273 0 -388.5 -108t-115.5 -373t115.5 -373t388.5 -108zM797 315q-187 0 -294.5 101t-107.5 270q0 170 107 270.5 t295 100.5q170 0 276.5 -87t106.5 -227v-16h-222v12q0 115 -161 115q-97 0 -139 -38t-42 -130t42 -130t139 -38q161 0 161 115v12h222v-16q0 -140 -106.5 -227t-276.5 -87z" glyph-name="copyright" horiz-adv-x="1579" unicode="©"/><glyph d="M170 1073q-56 0 -87.5 21.5t-31.5 62.5q0 70 113 82l131 14q0 30 -13 41t-49 11q-35 0 -49 -9t-14 -32v-2h-111v4q0 57 48 92t133 35q166 0 166 -148v-166h-103v62h-6q-18 -68 -127 -68zM160 1163q0 -20 45 -20q94 0 94 53l-111 -14q-28 -3 -28 -19z" glyph-name="ordfeminine" horiz-adv-x="456" unicode="ª"/><glyph d="M543 795l409 274v-315l-202 -117v-25l202 -116v-316l-409 275v340zM51 795l410 274v-315l-203 -117v-25l203 -116v-316l-410 275v340z" glyph-name="guillemotleft" horiz-adv-x="1013" unicode="«"/><glyph d="M825 473h-764v264h764v-264z" glyph-name="softhyphen" horiz-adv-x="1228" unicode="­"/><glyph d="M424 680q-170 0 -276.5 98t-106.5 260t106.5 260.5t276.5 98.5q171 0 277 -98.5t106 -260.5t-106 -260t-277 -98zM424 805q135 0 191.5 53t56.5 180t-56.5 180.5t-191.5 53.5q-134 0 -190 -53.5t-56 -180.5t56 -180t190 -53zM371 899h-103v287h195q125 0 125 -92 q0 -39 -23.5 -60.5t-60.5 -21.5v-4q17 -6 28.5 -16t24.5 -31l41 -62h-115l-37 62q-13 24 -45 24h-30v-86zM371 1100v-47h90q26 0 26 24q0 23 -26 23h-90z" glyph-name="registered" horiz-adv-x="847" unicode="®"/><glyph d="M242 1012q-98 0 -154.5 51.5t-56.5 138.5t56.5 139t154.5 52t154.5 -52t56.5 -139t-56.5 -138.5t-154.5 -51.5zM242 1135q43 0 61.5 15t18.5 52t-18.5 53.5t-61.5 16.5q-42 0 -60 -16.5t-18 -53.5t17.5 -52t60.5 -15z" glyph-name="degree" horiz-adv-x="485" unicode="°"/><glyph d="M981 37h-915v254h327v268h-327v254h327v330h262v-330h328v-254h-328v-268h326v-254z" glyph-name="plusminus" horiz-adv-x="1048" unicode="±"/><glyph d="M721 696h-662v88q0 98 47 152t140 84l196 61q43 14 59.5 27.5t16.5 38.5q0 32 -24 45.5t-95 13.5q-76 0 -106.5 -19.5t-30.5 -68.5v-18h-215v26q0 113 93 190t272 77q157 0 241 -63.5t84 -168.5q0 -86 -55.5 -134t-177.5 -75l-193 -47q-41 -14 -41 -55l289 31h162v-185z" glyph-name="twosuperior" horiz-adv-x="778" unicode="²"/><glyph d="M418 686q-185 0 -279 64t-94 180v22h217v-14q0 -39 28 -53.5t113 -14.5q81 0 108.5 11.5t27.5 48.5q0 30 -20.5 40.5t-69.5 10.5h-150v133h125q51 0 69.5 9.5t18.5 39.5q0 27 -23.5 39t-95.5 12q-79 0 -105 -14t-26 -49v-10h-217v10q0 108 97.5 175t267.5 67 q153 0 236 -47.5t83 -133.5q0 -129 -156 -149v-10q185 -23 185 -164q0 -100 -91 -151.5t-249 -51.5z" glyph-name="threesuperior" horiz-adv-x="798" unicode="³"/><glyph d="M987 0h-307v553h-135q-229 0 -366.5 104t-137.5 304q0 203 137 307t367 104h442v-1372zM1442 0h-307v1372h307v-1372z" glyph-name="paragraph" horiz-adv-x="1523" unicode="¶"/><glyph d="M463 512h-397v358h397v-358z" glyph-name="periodcentered" horiz-adv-x="528" unicode="·"/><glyph d="M436 686h-217v432h-201v170h52q61 0 98.5 18t62.5 66h205v-686z" glyph-name="onesuperior" horiz-adv-x="512" unicode="¹"/><glyph d="M227 1073q-81 0 -128.5 43.5t-47.5 116.5t47.5 116.5t128.5 43.5q83 0 131 -43.5t48 -116.5t-48 -116.5t-131 -43.5zM227 1174q38 0 53 14t15 45t-15 45t-53 14q-36 0 -50.5 -14t-14.5 -45t14.5 -45t50.5 -14z" glyph-name="ordmasculine" horiz-adv-x="456" unicode="º"/><glyph d="M471 455l-410 -275v316l203 116v25l-203 117v315l410 -274v-340zM963 455l-410 -275v316l203 116v25l-203 117v315l410 -274v-340z" glyph-name="guillemotright" horiz-adv-x="1013" unicode="»"/><glyph d="M492 686h-218v432h-202v170h53q61 0 98.5 17.5t63.5 66.5h205v-686zM350 0h-299l1166 1372h299zM1458 0h-217v133h-412v170l373 383h256v-360h121v-193h-121v-133zM1073 326h168v170h-16l-152 -154v-16z" glyph-name="onequarter" horiz-adv-x="1634" unicode="¼"/><glyph d="M492 686h-218v432h-202v170h53q61 0 98.5 17.5t63.5 66.5h205v-686zM350 0h-299l1166 1372h299zM1642 0h-661v88q0 98 47 152t141 84l195 61q43 15 60.5 28t17.5 38q0 31 -25 45t-96 14q-76 0 -106.5 -19.5t-30.5 -68.5v-19h-215v27q0 113 93.5 189.5t272.5 76.5 q157 0 240.5 -63t83.5 -168q0 -86 -56 -134t-178 -75l-192 -47q-41 -14 -41 -55l289 30h161v-184z" glyph-name="onehalf" horiz-adv-x="1712" unicode="½"/><glyph d="M428 686q-185 0 -278 63.5t-93 180.5v22h215v-14q0 -39 28 -53.5t114 -14.5q80 0 107.5 11.5t27.5 48.5q0 30 -20.5 40.5t-69.5 10.5h-148v133h125q51 0 69.5 9.5t18.5 39.5q0 27 -24.5 39t-96.5 12q-79 0 -105 -14t-26 -49v-10h-215v10q0 108 97 175t268 67 q152 0 235.5 -47.5t83.5 -133.5q0 -130 -157 -149v-10q186 -23 186 -164q0 -100 -91.5 -151.5t-250.5 -51.5zM506 0h-297l1165 1372h297zM1589 0h-217v131h-411v172l372 383h256v-360h121v-195h-121v-131zM1204 326h168v168h-16l-152 -152v-16z" glyph-name="threequarters" horiz-adv-x="1775" unicode="¾"/><glyph d="M532 1024h351v-334h-351v334zM555 571h307v-71q0 -104 -60 -165.5t-169 -103.5l-146 -57q-79 -31 -111 -60t-32 -79q0 -23 6 -40t23.5 -33.5t47 -26.5t80 -16.5t120.5 -6.5q183 0 255 47.5t72 149.5v79h301v-55q0 -103 -36.5 -191t-112 -159t-204 -111.5t-298.5 -40.5 q-147 0 -257 30.5t-175.5 85.5t-97 124.5t-31.5 153.5q0 76 23.5 136t67 101t86.5 66.5t101 48.5l152 59q54 22 71 46t17 65v24z" glyph-name="questiondown" horiz-adv-x="1269" unicode="¿"/><glyph d="M975 1495h-328l-379 268h441zM334 0h-344l600 1372h438l604 -1372h-352l-129 303h-686zM713 879l-129 -299h448l-129 299l-84 213h-22z" glyph-name="Agrave" horiz-adv-x="1622" unicode="À"/><glyph d="M975 1495h-330l266 268h441zM334 0h-344l600 1372h438l604 -1372h-352l-129 303h-686zM713 879l-129 -299h448l-129 299l-84 213h-22z" glyph-name="Aacute" horiz-adv-x="1622" unicode="Á"/><glyph d="M684 1495h-328l271 266h366l273 -266h-332l-113 119h-20zM334 0h-344l600 1372h438l604 -1372h-352l-129 303h-686zM713 879l-129 -299h448l-129 299l-84 213h-22z" glyph-name="Acircumflex" horiz-adv-x="1622" unicode="Â"/><glyph d="M635 1483h-205v92q0 209 188 209q68 0 170 -45l62 -27q63 -29 88 -29q49 0 49 60v26h205v-90q0 -97 -43.5 -154t-132.5 -57q-77 0 -176 45l-80 31q-56 27 -82 27q-43 0 -43 -49v-39zM334 0h-344l600 1372h438l604 -1372h-352l-129 303h-686zM713 879l-129 -299h448 l-129 299l-84 213h-22z" glyph-name="Atilde" horiz-adv-x="1622" unicode="Ã"/><glyph d="M1174 1495h-291v270h291v-270zM739 1495h-293v270h293v-270zM334 0h-344l600 1372h438l604 -1372h-352l-129 303h-686zM713 879l-129 -299h448l-129 299l-84 213h-22z" glyph-name="Adieresis" horiz-adv-x="1622" unicode="Ä"/><glyph d="M334 0h-344l577 1323q-63 69 -63 174q0 122 84 195t221 73q136 0 220.5 -73t84.5 -195q0 -105 -63 -174l581 -1323h-352l-129 303h-686zM807 1413q67 0 92 19t25 65t-25 66t-92 20t-92 -20t-25 -66t25 -65t92 -19zM713 879l-129 -299h448l-129 299l-84 213h-22z" glyph-name="Aring" horiz-adv-x="1622" unicode="Å"/><glyph d="M369 0h-381l1013 1372h1352v-276h-854v-269h823v-274h-823v-277h854v-276h-1163v303h-600zM1174 1100l-381 -520h397v520h-16z" glyph-name="AE" horiz-adv-x="2410" unicode="Æ"/><glyph d="M872 -469h-202v164h209q32 0 32 26q0 17 -7.5 23t-24.5 6h-203v236q-291 31 -458 218t-167 482q0 323 197.5 515t535.5 192q321 0 511 -151t190 -411v-30h-342v30q0 137 -83.5 202t-268.5 65q-227 0 -320.5 -92t-93.5 -320t93.5 -320t320.5 -92q185 0 268.5 65t83.5 202 v30h342v-30q0 -249 -174 -398t-473 -161v-70h34q104 0 161 -50.5t57 -137.5q0 -89 -57 -141t-161 -52z" glyph-name="Ccedilla" horiz-adv-x="1536" unicode="Ç"/><glyph d="M825 1495h-327l-379 268h440zM1243 0h-1161v1372h1161v-276h-854v-269h823v-274h-823v-277h854v-276z" glyph-name="Egrave" horiz-adv-x="1300" unicode="È"/><glyph d="M825 1495h-329l266 268h440zM1243 0h-1161v1372h1161v-276h-854v-269h823v-274h-823v-277h854v-276z" glyph-name="Eacute" horiz-adv-x="1300" unicode="É"/><glyph d="M535 1495h-328l270 266h367l270 -266h-330l-112 119h-21zM1243 0h-1161v1372h1161v-276h-854v-269h823v-274h-823v-277h854v-276z" glyph-name="Ecircumflex" horiz-adv-x="1300" unicode="Ê"/><glyph d="M1024 1495h-291v270h291v-270zM588 1495h-291v270h291v-270zM1243 0h-1161v1372h1161v-276h-854v-269h823v-274h-823v-277h854v-276z" glyph-name="Edieresis" horiz-adv-x="1300" unicode="Ë"/><glyph d="M399 1495h-327l-379 268h440zM389 0h-307v1372h307v-1372z" glyph-name="Igrave" horiz-adv-x="468" unicode="Ì"/><glyph d="M399 1495h-329l266 268h440zM389 0h-307v1372h307v-1372z" glyph-name="Iacute" horiz-adv-x="468" unicode="Í"/><glyph d="M109 1495h-328l270 266h367l270 -266h-330l-112 119h-21zM389 0h-307v1372h307v-1372z" glyph-name="Icircumflex" horiz-adv-x="468" unicode="Î"/><glyph d="M598 1495h-291v270h291v-270zM162 1495h-291v270h291v-270zM389 0h-307v1372h307v-1372z" glyph-name="Idieresis" horiz-adv-x="468" unicode="Ï"/><glyph d="M893 0h-662v549h-211v274h211v549h662q332 0 525.5 -182.5t193.5 -503.5t-193.5 -503.5t-525.5 -182.5zM946 549h-407v-273h354q109 0 179.5 17.5t120 63.5t70.5 125.5t21 203.5t-21 203.5t-70.5 125.5t-120 63.5t-179.5 17.5h-354v-273h407v-274z" glyph-name="Eth" horiz-adv-x="1662" unicode="Ð"/><glyph d="M567 1483h-205v92q0 209 191 209q64 0 170 -45l59 -27q63 -29 88 -29q52 0 52 60v26h202v-90q0 -97 -43.5 -154t-132.5 -57q-77 0 -176 45l-80 31q-56 27 -82 27q-43 0 -43 -49v-39zM389 0h-307v1372h328l491 -649l189 -289h22l-14 277v661h307v-1372h-328l-506 655 l-174 258h-20l12 -251v-662z" glyph-name="Ntilde" horiz-adv-x="1486" unicode="Ñ"/><glyph d="M956 1495h-327l-379 268h440zM788 -20q-340 0 -538.5 192t-198.5 514q0 323 198.5 515t538.5 192q346 0 546 -192t200 -515t-200 -514.5t-546 -191.5zM788 274q227 0 322.5 92.5t95.5 319.5t-95.5 319.5t-322.5 92.5q-226 0 -318.5 -92t-92.5 -320t92.5 -320t318.5 -92z" glyph-name="Ograve" unicode="Ò"/><glyph d="M956 1495h-329l266 268h440zM788 -20q-340 0 -538.5 192t-198.5 514q0 323 198.5 515t538.5 192q346 0 546 -192t200 -515t-200 -514.5t-546 -191.5zM788 274q227 0 322.5 92.5t95.5 319.5t-95.5 319.5t-322.5 92.5q-226 0 -318.5 -92t-92.5 -320t92.5 -320t318.5 -92z" glyph-name="Oacute" unicode="Ó"/><glyph d="M666 1495h-328l270 266h367l272 -266h-332l-112 119h-21zM788 -20q-340 0 -538.5 192t-198.5 514q0 323 198.5 515t538.5 192q346 0 546 -192t200 -515t-200 -514.5t-546 -191.5zM788 274q227 0 322.5 92.5t95.5 319.5t-95.5 319.5t-322.5 92.5q-226 0 -318.5 -92 t-92.5 -320t92.5 -320t318.5 -92z" glyph-name="Ocircumflex" unicode="Ô"/><glyph d="M616 1483h-204v92q0 209 188 209q68 0 170 -45l61 -27q63 -29 89 -29q49 0 49 60v26h205v-90q0 -97 -44 -154t-133 -57q-77 0 -176 45l-80 31q-56 27 -82 27q-43 0 -43 -49v-39zM788 -20q-340 0 -538.5 192t-198.5 514q0 323 198.5 515t538.5 192q346 0 546 -192 t200 -515t-200 -514.5t-546 -191.5zM788 274q227 0 322.5 92.5t95.5 319.5t-95.5 319.5t-322.5 92.5q-226 0 -318.5 -92t-92.5 -320t92.5 -320t318.5 -92z" glyph-name="Otilde" unicode="Õ"/><glyph d="M1155 1495h-291v270h291v-270zM721 1495h-293v270h293v-270zM788 -20q-340 0 -538.5 192t-198.5 514q0 323 198.5 515t538.5 192q346 0 546 -192t200 -515t-200 -514.5t-546 -191.5zM788 274q227 0 322.5 92.5t95.5 319.5t-95.5 319.5t-322.5 92.5q-226 0 -318.5 -92 t-92.5 -320t92.5 -320t318.5 -92z" glyph-name="Odieresis" unicode="Ö"/><glyph d="M942 442l-186 -186l-248 248l-246 -246l-178 178l246 246l-248 248l184 186l250 -248l246 246l178 -178l-246 -246z" glyph-name="multiply" horiz-adv-x="1024" unicode="×"/><glyph d="M788 -20q-274 0 -460 129l-156 -146l-147 156l149 139q-123 177 -123 428q0 323 198.5 515t538.5 192q276 0 467 -127l152 141l147 -156l-145 -135q125 -175 125 -430q0 -323 -200 -514.5t-546 -191.5zM377 686q0 -130 29 -213l626 586q-88 39 -244 39q-226 0 -318.5 -92 t-92.5 -320zM788 274q227 0 322.5 92.5t95.5 319.5q0 127 -28 213l-629 -586q85 -39 239 -39z" glyph-name="Oslash" unicode="Ø"/><glyph d="M911 1495h-329l-377 268h440zM745 -20q-330 0 -501.5 156t-171.5 437v799h307v-776q0 -176 79.5 -246.5t286.5 -70.5q209 0 288 70t79 247v776h307v-799q0 -282 -171.5 -437.5t-502.5 -155.5z" glyph-name="Ugrave" horiz-adv-x="1492" unicode="Ù"/><glyph d="M909 1495h-327l266 268h440zM745 -20q-330 0 -501.5 156t-171.5 437v799h307v-776q0 -176 79.5 -246.5t286.5 -70.5q209 0 288 70t79 247v776h307v-799q0 -282 -171.5 -437.5t-502.5 -155.5z" glyph-name="Uacute" horiz-adv-x="1492" unicode="Ú"/><glyph d="M621 1495h-328l270 266h365l272 -266h-330l-114 119h-21zM745 -20q-330 0 -501.5 156t-171.5 437v799h307v-776q0 -176 79.5 -246.5t286.5 -70.5q209 0 288 70t79 247v776h307v-799q0 -282 -171.5 -437.5t-502.5 -155.5z" glyph-name="Ucircumflex" horiz-adv-x="1492" unicode="Û"/><glyph d="M1110 1495h-291v270h291v-270zM674 1495h-291v270h291v-270zM745 -20q-330 0 -501.5 156t-171.5 437v799h307v-776q0 -176 79.5 -246.5t286.5 -70.5q209 0 288 70t79 247v776h307v-799q0 -282 -171.5 -437.5t-502.5 -155.5z" glyph-name="Udieresis" horiz-adv-x="1492" unicode="Ü"/><glyph d="M909 1495h-329l268 268h438zM895 0h-309v455l-609 917h379l262 -401l115 -185h23l114 185l263 401h380l-618 -919v-453z" glyph-name="Yacute" horiz-adv-x="1490" unicode="Ý"/><glyph d="M389 0h-307v1372h307v-184h426q239 0 380.5 -132.5t141.5 -367.5q0 -237 -141.5 -370.5t-380.5 -133.5h-426v-184zM782 911h-393v-448h393q132 0 190 48.5t58 176.5q0 125 -58 174t-190 49z" glyph-name="Thorn" horiz-adv-x="1361" unicode="Þ"/><glyph d="M406 0h-304v874q0 248 160.5 381.5t487.5 133.5q277 0 422 -99t145 -260q0 -132 -83 -210.5t-259 -90.5v-18q195 -10 296 -102t101 -244q0 -173 -115 -269t-350 -96h-375v276h338q106 0 149.5 33.5t43.5 116.5q0 80 -47 113.5t-152 33.5h-332v254h295q94 0 137.5 30 t43.5 97q0 50 -20.5 78.5t-83 46t-175.5 17.5q-136 0 -205.5 -22t-93.5 -66.5t-24 -130.5v-877z" glyph-name="germandbls" horiz-adv-x="1398" unicode="ß"/><glyph d="M762 1147h-328l-379 266h441zM397 -20q-166 0 -260 72.5t-94 201.5q0 114 84 182.5t248 85.5l440 45v39q0 98 -49 134t-174 36q-118 0 -168.5 -35.5t-50.5 -122.5v-8h-310v6q0 192 150 311.5t401 119.5q250 0 377 -119t127 -326v-602h-287v236h-16q-36 -122 -143 -189 t-275 -67zM352 274q0 -41 32.5 -59t100.5 -18q163 0 243.5 44.5t86.5 149.5l-356 -41q-56 -5 -81.5 -22.5t-25.5 -53.5z" glyph-name="agrave" horiz-adv-x="1191" unicode="à"/><glyph d="M764 1147h-330l268 266h441zM397 -20q-166 0 -260 72.5t-94 201.5q0 114 84 182.5t248 85.5l440 45v39q0 98 -49 134t-174 36q-118 0 -168.5 -35.5t-50.5 -122.5v-8h-310v6q0 192 150 311.5t401 119.5q250 0 377 -119t127 -326v-602h-287v236h-16q-36 -122 -143 -189 t-275 -67zM352 274q0 -41 32.5 -59t100.5 -18q163 0 243.5 44.5t86.5 149.5l-356 -41q-56 -5 -81.5 -22.5t-25.5 -53.5z" glyph-name="aacute" horiz-adv-x="1191" unicode="á"/><glyph d="M473 1147h-328l271 266h366l273 -266h-332l-113 119h-20zM397 -20q-166 0 -260 72.5t-94 201.5q0 114 84 182.5t248 85.5l440 45v39q0 98 -49 134t-174 36q-118 0 -168.5 -35.5t-50.5 -122.5v-8h-310v6q0 192 150 311.5t401 119.5q250 0 377 -119t127 -326v-602h-287v236 h-16q-36 -122 -143 -189t-275 -67zM352 274q0 -41 32.5 -59t100.5 -18q163 0 243.5 44.5t86.5 149.5l-356 -41q-56 -5 -81.5 -22.5t-25.5 -53.5z" glyph-name="acircumflex" horiz-adv-x="1191" unicode="â"/><glyph d="M424 1135h-207v92q0 209 191 209q68 0 170 -45l61 -27q63 -29 86 -29q26 0 38.5 13.5t12.5 46.5v26h205v-90q0 -97 -44 -154t-134 -57q-75 0 -174 45l-80 31q-59 27 -82 27q-43 0 -43 -47v-41zM397 -20q-166 0 -260 72.5t-94 201.5q0 114 84 182.5t248 85.5l440 45v39 q0 98 -49 134t-174 36q-118 0 -168.5 -35.5t-50.5 -122.5v-8h-310v6q0 192 150 311.5t401 119.5q250 0 377 -119t127 -326v-602h-287v236h-16q-36 -122 -143 -189t-275 -67zM352 274q0 -41 32.5 -59t100.5 -18q163 0 243.5 44.5t86.5 149.5l-356 -41q-56 -5 -81.5 -22.5 t-25.5 -53.5z" glyph-name="atilde" horiz-adv-x="1191" unicode="ã"/><glyph d="M963 1147h-291v270h291v-270zM526 1147h-290v270h290v-270zM397 -20q-166 0 -260 72.5t-94 201.5q0 114 84 182.5t248 85.5l440 45v39q0 98 -49 134t-174 36q-118 0 -168.5 -35.5t-50.5 -122.5v-8h-310v6q0 192 150 311.5t401 119.5q250 0 377 -119t127 -326v-602h-287 v236h-16q-36 -122 -143 -189t-275 -67zM352 274q0 -41 32.5 -59t100.5 -18q163 0 243.5 44.5t86.5 149.5l-356 -41q-56 -5 -81.5 -22.5t-25.5 -53.5z" glyph-name="adieresis" horiz-adv-x="1191" unicode="ä"/><glyph d="M600 1114q-96 0 -154.5 49.5t-58.5 130.5q0 82 59 131.5t154 49.5t154 -49.5t59 -131.5q0 -81 -58.5 -130.5t-154.5 -49.5zM600 1235q44 0 62 15t18 44q0 60 -80 60q-45 0 -63.5 -15t-18.5 -45q0 -29 18.5 -44t63.5 -15zM397 -20q-166 0 -260 72.5t-94 201.5 q0 114 84 182.5t248 85.5l440 45v39q0 98 -49 134t-174 36q-118 0 -168.5 -35.5t-50.5 -122.5v-8h-310v6q0 192 150 311.5t401 119.5q250 0 377 -119t127 -326v-602h-287v236h-16q-36 -122 -143 -189t-275 -67zM352 274q0 -41 32.5 -59t100.5 -18q163 0 243.5 44.5 t86.5 149.5l-356 -41q-56 -5 -81.5 -22.5t-25.5 -53.5z" glyph-name="aring" horiz-adv-x="1191" unicode="å"/><glyph d="M410 -20q-173 0 -271 72.5t-98 201.5q0 118 84.5 187.5t247.5 84.5l463 47v33q0 98 -50 134t-178 36q-129 0 -184 -35.5t-55 -122.5v-16h-308v14q0 192 150 311.5t401 119.5q265 0 396 -134q153 134 397 134q257 0 408 -130.5t151 -367.5q0 -51 -8 -98h-836 q6 -120 70 -173t211 -53q132 0 189 33.5t57 101.5v21h307v-23q0 -168 -149 -273t-394 -105q-187 0 -320.5 66t-199.5 198h-14q-42 -128 -164.5 -196t-302.5 -68zM1399 807q-135 0 -199.5 -47t-75.5 -148h547q-8 101 -72.5 148t-199.5 47zM350 274q0 -41 33.5 -59t105.5 -18 q171 0 257.5 43.5t99.5 148.5v4l-391 -43q-54 -5 -79.5 -22.5t-25.5 -53.5z" glyph-name="ae" horiz-adv-x="1992" unicode="æ"/><glyph d="M741 -469h-202v164h206q35 0 35 26q0 18 -8 23.5t-27 5.5h-200v234q-228 23 -361 164.5t-133 363.5q0 246 157 390.5t421 144.5q248 0 401.5 -122t153.5 -321v-29h-305v17q0 95 -65 136.5t-191 41.5q-139 0 -203 -59t-64 -199q0 -138 64 -197t203 -59q126 0 191 41.5 t65 136.5v17h305v-29q0 -182 -130.5 -300.5t-346.5 -137.5v-72h34q104 0 160.5 -50t56.5 -138q0 -89 -56.5 -141t-160.5 -52z" glyph-name="ccedilla" horiz-adv-x="1234" unicode="ç"/><glyph d="M778 1147h-329l-379 266h440zM627 -20q-175 0 -302 56t-200.5 177t-73.5 299q0 244 157 389.5t413 145.5q257 0 408 -130.5t151 -367.5q0 -19 -9 -98h-835q6 -120 69.5 -173t210.5 -53q132 0 189 33.5t57 101.5v21h307v-23q0 -168 -149.5 -273t-392.5 -105zM614 807 q-135 0 -199 -47t-75 -148h545q-6 101 -71 148t-200 47z" glyph-name="egrave" horiz-adv-x="1228" unicode="è"/><glyph d="M780 1147h-331l268 266h442zM627 -20q-175 0 -302 56t-200.5 177t-73.5 299q0 244 157 389.5t413 145.5q257 0 408 -130.5t151 -367.5q0 -19 -9 -98h-835q6 -120 69.5 -173t210.5 -53q132 0 189 33.5t57 101.5v21h307v-23q0 -168 -149.5 -273t-392.5 -105zM614 807 q-135 0 -199 -47t-75 -148h545q-6 101 -71 148t-200 47z" glyph-name="eacute" horiz-adv-x="1228" unicode="é"/><glyph d="M489 1147h-329l270 266h367l272 -266h-330l-114 119h-21zM627 -20q-175 0 -302 56t-200.5 177t-73.5 299q0 244 157 389.5t413 145.5q257 0 408 -130.5t151 -367.5q0 -19 -9 -98h-835q6 -120 69.5 -173t210.5 -53q132 0 189 33.5t57 101.5v21h307v-23q0 -168 -149.5 -273 t-392.5 -105zM614 807q-135 0 -199 -47t-75 -148h545q-6 101 -71 148t-200 47z" glyph-name="ecircumflex" horiz-adv-x="1228" unicode="ê"/><glyph d="M979 1147h-293v270h293v-270zM543 1147h-291v270h291v-270zM627 -20q-175 0 -302 56t-200.5 177t-73.5 299q0 244 157 389.5t413 145.5q257 0 408 -130.5t151 -367.5q0 -19 -9 -98h-835q6 -120 69.5 -173t210.5 -53q132 0 189 33.5t57 101.5v21h307v-23 q0 -168 -149.5 -273t-392.5 -105zM614 807q-135 0 -199 -47t-75 -148h545q-6 101 -71 148t-200 47z" glyph-name="edieresis" horiz-adv-x="1228" unicode="ë"/><glyph d="M418 1147h-330l-379 266h443zM408 0h-308v1024h308v-1024z" glyph-name="igrave" horiz-adv-x="507" unicode="ì"/><glyph d="M420 1147h-330l268 266h441zM408 0h-308v1024h308v-1024z" glyph-name="iacute" horiz-adv-x="507" unicode="í"/><glyph d="M129 1147h-328l271 266h364l273 -266h-330l-115 119h-20zM408 0h-308v1024h308v-1024z" glyph-name="icircumflex" horiz-adv-x="507" unicode="î"/><glyph d="M618 1147h-290v270h290v-270zM182 1147h-291v270h291v-270zM408 0h-308v1024h308v-1024z" glyph-name="idieresis" horiz-adv-x="507" unicode="ï"/><glyph d="M637 -20q-298 0 -454 128t-156 353q0 214 136 325t376 111q178 0 285.5 -66.5t146.5 -181.5h22q-11 193 -223 412l-367 -72l-30 141l266 52q-106 91 -256 190h416q87 -46 180 -123l295 58l31 -142l-201 -39q219 -254 219 -567q0 -275 -172 -427t-514 -152zM655 279 q183 0 255.5 40.5t72.5 139.5q0 101 -71.5 141.5t-256.5 40.5q-177 0 -245 -40.5t-68 -141.5q0 -99 69 -139.5t244 -40.5z" glyph-name="eth" horiz-adv-x="1372" unicode="ð"/><glyph d="M473 1135h-207v92q0 209 191 209q68 0 170 -45l61 -27q63 -29 86 -29q26 0 38.5 13.5t12.5 46.5v26h205v-90q0 -97 -44 -154t-134 -57q-75 0 -174 45l-80 31q-59 27 -82 27q-43 0 -43 -47v-41zM389 0h-307v1026h285v-315h18q11 67 40 125.5t78 106.5t126 76t174 28 q103 0 183 -31.5t130 -87.5t75.5 -129t25.5 -160v-639h-308v537q0 124 -58.5 178.5t-197.5 54.5q-144 0 -204 -59.5t-60 -192.5v-518z" glyph-name="ntilde" horiz-adv-x="1290" unicode="ñ"/><glyph d="M791 1147h-328l-379 266h440zM629 -20q-264 0 -425 145t-161 387q0 244 161 389.5t425 145.5t424.5 -145t160.5 -390q0 -242 -160.5 -387t-424.5 -145zM629 252q153 0 216.5 61.5t63.5 198.5q0 138 -64 201t-216 63q-153 0 -217 -63t-64 -201t63.5 -199t217.5 -61z" glyph-name="ograve" horiz-adv-x="1257" unicode="ò"/><glyph d="M793 1147h-330l268 266h440zM629 -20q-264 0 -425 145t-161 387q0 244 161 389.5t425 145.5t424.5 -145t160.5 -390q0 -242 -160.5 -387t-424.5 -145zM629 252q153 0 216.5 61.5t63.5 198.5q0 138 -64 201t-216 63q-153 0 -217 -63t-64 -201t63.5 -199t217.5 -61z" glyph-name="oacute" horiz-adv-x="1257" unicode="ó"/><glyph d="M502 1147h-328l270 266h367l272 -266h-331l-113 119h-21zM629 -20q-264 0 -425 145t-161 387q0 244 161 389.5t425 145.5t424.5 -145t160.5 -390q0 -242 -160.5 -387t-424.5 -145zM629 252q153 0 216.5 61.5t63.5 198.5q0 138 -64 201t-216 63q-153 0 -217 -63t-64 -201 t63.5 -199t217.5 -61z" glyph-name="ocircumflex" horiz-adv-x="1257" unicode="ô"/><glyph d="M453 1135h-205v92q0 209 188 209q68 0 170 -45l62 -27q63 -29 88 -29q49 0 49 60v26h205v-90q0 -97 -43.5 -154t-132.5 -57q-78 0 -177 45l-79 31q-59 27 -82 27q-43 0 -43 -47v-41zM629 -20q-264 0 -425 145t-161 387q0 244 161 389.5t425 145.5t424.5 -145t160.5 -390 q0 -242 -160.5 -387t-424.5 -145zM629 252q153 0 216.5 61.5t63.5 198.5q0 138 -64 201t-216 63q-153 0 -217 -63t-64 -201t63.5 -199t217.5 -61z" glyph-name="otilde" horiz-adv-x="1257" unicode="õ"/><glyph d="M993 1147h-293v270h293v-270zM557 1147h-293v270h293v-270zM629 -20q-264 0 -425 145t-161 387q0 244 161 389.5t425 145.5t424.5 -145t160.5 -390q0 -242 -160.5 -387t-424.5 -145zM629 252q153 0 216.5 61.5t63.5 198.5q0 138 -64 201t-216 63q-153 0 -217 -63 t-64 -201t63.5 -199t217.5 -61z" glyph-name="odieresis" horiz-adv-x="1257" unicode="ö"/><glyph d="M698 952h-325v320h325v-320zM991 559h-913v254h913v-254zM698 100h-325v320h325v-320z" glyph-name="divide" horiz-adv-x="1056" unicode="÷"/><glyph d="M629 -20q-211 0 -359 96l-127 -117l-110 123l114 104q-104 132 -104 326q0 244 161 389.5t425 145.5q203 0 354 -93l119 111l112 -123l-106 -98q106 -137 106 -332q0 -242 -160.5 -387t-424.5 -145zM348 512q0 -66 17 -125l403 371q-56 18 -139 18q-153 0 -217 -63 t-64 -201zM629 252q153 0 216.5 61.5t63.5 198.5q0 81 -20 131l-406 -373q59 -18 146 -18z" glyph-name="oslash" horiz-adv-x="1257" unicode="ø"/><glyph d="M817 1147h-330l-376 266h440zM506 -20q-208 0 -317 113t-109 294v639h307v-537q0 -126 59.5 -180.5t204.5 -54.5q148 0 210.5 59.5t62.5 192.5v520h307v-1026h-287v313h-16q-11 -67 -40.5 -125t-79 -105.5t-127 -75t-175.5 -27.5z" glyph-name="ugrave" horiz-adv-x="1306" unicode="ù"/><glyph d="M819 1147h-330l269 266h440zM506 -20q-208 0 -317 113t-109 294v639h307v-537q0 -126 59.5 -180.5t204.5 -54.5q148 0 210.5 59.5t62.5 192.5v520h307v-1026h-287v313h-16q-11 -67 -40.5 -125t-79 -105.5t-127 -75t-175.5 -27.5z" glyph-name="uacute" horiz-adv-x="1306" unicode="ú"/><glyph d="M528 1147h-327l270 266h367l270 -266h-330l-112 119h-21zM506 -20q-208 0 -317 113t-109 294v639h307v-537q0 -126 59.5 -180.5t204.5 -54.5q148 0 210.5 59.5t62.5 192.5v520h307v-1026h-287v313h-16q-11 -67 -40.5 -125t-79 -105.5t-127 -75t-175.5 -27.5z" glyph-name="ucircumflex" horiz-adv-x="1306" unicode="û"/><glyph d="M1018 1147h-291v270h291v-270zM582 1147h-291v270h291v-270zM506 -20q-208 0 -317 113t-109 294v639h307v-537q0 -126 59.5 -180.5t204.5 -54.5q148 0 210.5 59.5t62.5 192.5v520h307v-1026h-287v313h-16q-11 -67 -40.5 -125t-79 -105.5t-127 -75t-175.5 -27.5z" glyph-name="udieresis" horiz-adv-x="1306" unicode="ü"/><glyph d="M799 1147h-330l268 266h441zM279 -348h-168v278h251q56 0 85.5 15.5t44.5 50.5l-502 1030h348l217 -469l86 -242h21l81 244l195 467h342l-508 -1100q-71 -157 -182 -215.5t-311 -58.5z" glyph-name="yacute" horiz-adv-x="1271" unicode="ý"/><glyph d="M383 -348h-307v1720h307v-622h14q29 139 131.5 218t276.5 79q228 0 352.5 -143t124.5 -392q0 -248 -124.5 -390t-352.5 -142q-175 0 -277 78t-131 218h-14v-624zM383 498q0 -128 75.5 -183t227.5 -55q150 0 218.5 57.5t68.5 194.5q0 138 -68.5 196t-218.5 58 q-152 0 -227.5 -56t-75.5 -184v-28z" glyph-name="thorn" horiz-adv-x="1329" unicode="þ"/><glyph d="M999 1147h-292v270h292v-270zM563 1147h-293v270h293v-270zM279 -348h-168v278h251q56 0 85.5 15.5t44.5 50.5l-502 1030h348l217 -469l86 -242h21l81 244l195 467h342l-508 -1100q-71 -157 -182 -215.5t-311 -58.5z" glyph-name="ydieresis" horiz-adv-x="1271" unicode="ÿ"/><glyph d="M1145 1524h-670v219h670v-219zM334 0h-344l600 1372h438l604 -1372h-352l-129 303h-686zM713 879l-129 -299h448l-129 299l-84 213h-22z" glyph-name="Amacron" horiz-adv-x="1622" unicode="Ā"/><glyph d="M934 1169h-670v222h670v-222zM397 -20q-166 0 -260 72.5t-94 201.5q0 114 84 182.5t248 85.5l440 45v39q0 98 -49 134t-174 36q-118 0 -168.5 -35.5t-50.5 -122.5v-8h-310v6q0 192 150 311.5t401 119.5q250 0 377 -119t127 -326v-602h-287v236h-16q-36 -122 -143 -189 t-275 -67zM352 274q0 -41 32.5 -59t100.5 -18q163 0 243.5 44.5t86.5 149.5l-356 -41q-56 -5 -81.5 -22.5t-25.5 -53.5z" glyph-name="amacron" horiz-adv-x="1191" unicode="ā"/><glyph d="M811 1475q-147 0 -238.5 74.5t-91.5 193.5v24h217v-20q0 -45 23.5 -65.5t89.5 -20.5t89.5 20.5t23.5 65.5v20h217v-24q0 -119 -91.5 -193.5t-238.5 -74.5zM334 0h-344l600 1372h438l604 -1372h-352l-129 303h-686zM713 879l-129 -299h448l-129 299l-84 213h-22z" glyph-name="Abreve" horiz-adv-x="1622" unicode="Ă"/><glyph d="M600 1126q-147 0 -238.5 75t-91.5 194v20h217v-16q0 -51 23 -70.5t90 -19.5t90 19.5t23 70.5v16h217v-20q0 -119 -91.5 -194t-238.5 -75zM397 -20q-166 0 -260 72.5t-94 201.5q0 114 84 182.5t248 85.5l440 45v39q0 98 -49 134t-174 36q-118 0 -168.5 -35.5t-50.5 -122.5 v-8h-310v6q0 192 150 311.5t401 119.5q250 0 377 -119t127 -326v-602h-287v236h-16q-36 -122 -143 -189t-275 -67zM352 274q0 -41 32.5 -59t100.5 -18q163 0 243.5 44.5t86.5 149.5l-356 -41q-56 -5 -81.5 -22.5t-25.5 -53.5z" glyph-name="abreve" horiz-adv-x="1191" unicode="ă"/><glyph d="M334 0h-344l600 1372h438l604 -1372l-90 -113q-29 -37 -29 -55q0 -31 41 -31h117v-184h-186q-205 0 -205 143q0 27 7 51t25 50t28.5 39t37.5 43l54 57h-152l-129 303h-686zM713 879l-129 -299h448l-129 299l-84 213h-22z" glyph-name="Aogonek" horiz-adv-x="1622" unicode="Ą"/><glyph d="M397 -20q-166 0 -260 72.5t-94 201.5q0 114 84 182.5t248 85.5l440 45v39q0 98 -49 134t-174 36q-118 0 -168.5 -35.5t-50.5 -122.5v-8h-310v6q0 192 150 311.5t401 119.5q250 0 377 -119t127 -326v-602l-90 -113q-29 -37 -29 -55q0 -31 41 -31h117v-184h-186 q-205 0 -205 143q0 27 7 51t25 50t28.5 39t37.5 43l54 57h-87v236h-16q-36 -122 -143 -189t-275 -67zM352 274q0 -41 32.5 -59t100.5 -18q163 0 243.5 44.5t86.5 149.5l-356 -41q-56 -5 -81.5 -22.5t-25.5 -53.5z" glyph-name="aogonek" horiz-adv-x="1191" unicode="ą"/><glyph d="M932 1495h-330l268 268h439zM784 -20q-338 0 -535.5 191.5t-197.5 514.5t197.5 515t535.5 192q321 0 511 -151t190 -411v-30h-342v30q0 137 -83.5 202t-268.5 65q-227 0 -320.5 -92t-93.5 -320t93.5 -320t320.5 -92q185 0 268.5 65t83.5 202v30h342v-30 q0 -260 -189.5 -410.5t-511.5 -150.5z" glyph-name="Cacute" horiz-adv-x="1536" unicode="Ć"/><glyph d="M795 1147h-332l268 266h440zM629 -20q-264 0 -421 144.5t-157 387.5q0 246 157 390.5t421 144.5q248 0 401.5 -122t153.5 -321v-29h-305v17q0 95 -65 136.5t-191 41.5q-139 0 -203 -59t-64 -199q0 -138 64 -197t203 -59q126 0 191 41.5t65 136.5v17h305v-29 q0 -198 -153.5 -320t-401.5 -122z" glyph-name="cacute" horiz-adv-x="1234" unicode="ć"/><glyph d="M643 1495h-330l271 266h366l273 -266h-330l-115 119h-20zM784 -20q-338 0 -535.5 191.5t-197.5 514.5t197.5 515t535.5 192q321 0 511 -151t190 -411v-30h-342v30q0 137 -83.5 202t-268.5 65q-227 0 -320.5 -92t-93.5 -320t93.5 -320t320.5 -92q185 0 268.5 65t83.5 202 v30h342v-30q0 -260 -189.5 -410.5t-511.5 -150.5z" glyph-name="Ccircumflex" horiz-adv-x="1536" unicode="Ĉ"/><glyph d="M504 1147h-330l270 266h367l272 -266h-329l-115 119h-21zM629 -20q-264 0 -421 144.5t-157 387.5q0 246 157 390.5t421 144.5q248 0 401.5 -122t153.5 -321v-29h-305v17q0 95 -65 136.5t-191 41.5q-139 0 -203 -59t-64 -199q0 -138 64 -197t203 -59q126 0 191 41.5 t65 136.5v17h305v-29q0 -198 -153.5 -320t-401.5 -122z" glyph-name="ccircumflex" horiz-adv-x="1234" unicode="ĉ"/><glyph d="M922 1495h-308v270h308v-270zM784 -20q-338 0 -535.5 191.5t-197.5 514.5t197.5 515t535.5 192q321 0 511 -151t190 -411v-30h-342v30q0 137 -83.5 202t-268.5 65q-227 0 -320.5 -92t-93.5 -320t93.5 -320t320.5 -92q185 0 268.5 65t83.5 202v30h342v-30 q0 -260 -189.5 -410.5t-511.5 -150.5z" glyph-name="Cdotaccent" horiz-adv-x="1536" unicode="Ċ"/><glyph d="M782 1147h-307v270h307v-270zM629 -20q-264 0 -421 144.5t-157 387.5q0 246 157 390.5t421 144.5q248 0 401.5 -122t153.5 -321v-29h-305v17q0 95 -65 136.5t-191 41.5q-139 0 -203 -59t-64 -199q0 -138 64 -197t203 -59q126 0 191 41.5t65 136.5v17h305v-29 q0 -198 -153.5 -320t-401.5 -122z" glyph-name="cdotaccent" horiz-adv-x="1234" unicode="ċ"/><glyph d="M893 1761h330l-271 -266h-366l-273 266h330l115 -119h20zM784 -20q-338 0 -535.5 191.5t-197.5 514.5t197.5 515t535.5 192q321 0 511 -151t190 -411v-30h-342v30q0 137 -83.5 202t-268.5 65q-227 0 -320.5 -92t-93.5 -320t93.5 -320t320.5 -92q185 0 268.5 65t83.5 202 v30h342v-30q0 -260 -189.5 -410.5t-511.5 -150.5z" glyph-name="Ccaron" horiz-adv-x="1536" unicode="Č"/><glyph d="M811 1147h-367l-270 266h342l102 -119h21l102 119h342zM629 -20q-264 0 -421 144.5t-157 387.5q0 246 157 390.5t421 144.5q248 0 401.5 -122t153.5 -321v-29h-305v17q0 95 -65 136.5t-191 41.5q-139 0 -203 -59t-64 -199q0 -138 64 -197t203 -59q126 0 191 41.5 t65 136.5v17h305v-29q0 -198 -153.5 -320t-401.5 -122z" glyph-name="ccaron" horiz-adv-x="1234" unicode="č"/><glyph d="M913 1761h330l-270 -266h-367l-272 266h330l114 -119h21zM760 0h-662v1372h662q332 0 525.5 -182.5t193.5 -503.5t-193.5 -503.5t-525.5 -182.5zM760 1096h-354v-820h354q109 0 179.5 17.5t120 63.5t70.5 125.5t21 203.5t-21 203.5t-70.5 125.5t-120 63.5t-179.5 17.5z" glyph-name="Dcaron" horiz-adv-x="1529" unicode="Ď"/><glyph d="M541 -20q-236 0 -366 143t-130 389q0 248 126 391.5t353 143.5q176 0 276 -78.5t128 -214.5h18v618h307v-1372h-286v285h-17q-59 -305 -409 -305zM1411 889h-82v149h74q26 0 37.5 9.5t11.5 37.5v25h-131v262h293v-282q0 -201 -203 -201zM356 512q0 -137 69 -194.5 t220 -57.5t226 58t75 188v16q0 130 -74.5 187t-226.5 57q-151 0 -220 -58t-69 -196z" glyph-name="dcaron" horiz-adv-x="1576" unicode="ď"/><glyph d="M893 0h-662v549h-211v274h211v549h662q332 0 525.5 -182.5t193.5 -503.5t-193.5 -503.5t-525.5 -182.5zM946 549h-407v-273h354q109 0 179.5 17.5t120 63.5t70.5 125.5t21 203.5t-21 203.5t-70.5 125.5t-120 63.5t-179.5 17.5h-354v-273h407v-274z" glyph-name="Dcroat" horiz-adv-x="1662" unicode="Đ"/><glyph d="M537 -20q-234 0 -363 131.5t-129 359.5t125.5 361t351.5 133q169 0 274 -79.5t132 -211.5h18v338h-299v231h299v129h307v-129h162v-231h-162v-1012h-286v283h-17q-30 -144 -134 -223.5t-279 -79.5zM356 471q0 -115 68 -163t219 -48t227 49t76 156v16q0 104 -76 153.5 t-229 49.5q-148 0 -216.5 -48.5t-68.5 -164.5z" glyph-name="dcroat" horiz-adv-x="1413" unicode="đ"/><glyph d="M995 1524h-669v219h669v-219zM1243 0h-1161v1372h1161v-276h-854v-269h823v-274h-823v-277h854v-276z" glyph-name="Emacron" horiz-adv-x="1300" unicode="Ē"/><glyph d="M950 1169h-671v222h671v-222zM627 -20q-175 0 -302 56t-200.5 177t-73.5 299q0 244 157 389.5t413 145.5q257 0 408 -130.5t151 -367.5q0 -19 -9 -98h-835q6 -120 69.5 -173t210.5 -53q132 0 189 33.5t57 101.5v21h307v-23q0 -168 -149.5 -273t-392.5 -105zM614 807 q-135 0 -199 -47t-75 -148h545q-6 101 -71 148t-200 47z" glyph-name="emacron" horiz-adv-x="1228" unicode="ē"/><glyph d="M662 1475q-147 0 -238.5 74.5t-91.5 193.5v24h217v-20q0 -45 23.5 -65.5t89.5 -20.5t89 20t23 66v20h217v-24q0 -119 -91 -193.5t-238 -74.5zM1243 0h-1161v1372h1161v-276h-854v-269h823v-274h-823v-277h854v-276z" glyph-name="Ebreve" horiz-adv-x="1300" unicode="Ĕ"/><glyph d="M614 1126q-147 0 -238 75t-91 194v20h217v-16q0 -51 23 -70.5t89 -19.5q68 0 90.5 19.5t22.5 70.5v16h217v-20q0 -119 -91.5 -194t-238.5 -75zM627 -20q-175 0 -302 56t-200.5 177t-73.5 299q0 244 157 389.5t413 145.5q257 0 408 -130.5t151 -367.5q0 -19 -9 -98h-835 q6 -120 69.5 -173t210.5 -53q132 0 189 33.5t57 101.5v21h307v-23q0 -168 -149.5 -273t-392.5 -105zM614 807q-135 0 -199 -47t-75 -148h545q-6 101 -71 148t-200 47z" glyph-name="ebreve" horiz-adv-x="1228" unicode="ĕ"/><glyph d="M815 1495h-307v270h307v-270zM1243 0h-1161v1372h1161v-276h-854v-269h823v-274h-823v-277h854v-276z" glyph-name="Edotaccent" horiz-adv-x="1300" unicode="Ė"/><glyph d="M768 1147h-307v270h307v-270zM627 -20q-175 0 -302 56t-200.5 177t-73.5 299q0 244 157 389.5t413 145.5q257 0 408 -130.5t151 -367.5q0 -19 -9 -98h-835q6 -120 69.5 -173t210.5 -53q132 0 189 33.5t57 101.5v21h307v-23q0 -168 -149.5 -273t-392.5 -105zM614 807 q-135 0 -199 -47t-75 -148h545q-6 101 -71 148t-200 47z" glyph-name="edotaccent" horiz-adv-x="1228" unicode="ė"/><glyph d="M1212 553h-823v-277h854v-276l-90 -113q-29 -37 -29 -55q0 -31 41 -31h117v-184h-186q-205 0 -205 143q0 27 7 51t25 50t28.5 39t37.5 43l53 57h-960v1372h1161v-276h-854v-269h823v-274z" glyph-name="Eogonek" horiz-adv-x="1300" unicode="Ę"/><glyph d="M840 -383h-187q-202 0 -202 143q0 36 15.5 70.5t32.5 56t50 56.5l33 37q-247 11 -389 145t-142 387q0 244 157 389.5t413 145.5q257 0 408 -130.5t151 -367.5q0 -19 -9 -98h-835q6 -120 69.5 -173t210.5 -53q132 0 189 33.5t57 101.5v21h307v-23q0 -136 -99.5 -232 t-272.5 -130l-86 -109q-27 -39 -27 -55q0 -31 41 -31h115v-184zM614 807q-135 0 -199 -47t-75 -148h545q-6 101 -71 148t-200 47z" glyph-name="eogonek" horiz-adv-x="1228" unicode="ę"/><glyph d="M786 1761h328l-270 -266h-365l-272 266h330l114 -119h21zM1243 0h-1161v1372h1161v-276h-854v-269h823v-274h-823v-277h854v-276z" glyph-name="Ecaron" horiz-adv-x="1300" unicode="Ě"/><glyph d="M797 1147h-367l-270 266h342l102 -119h21l104 119h340zM627 -20q-175 0 -302 56t-200.5 177t-73.5 299q0 244 157 389.5t413 145.5q257 0 408 -130.5t151 -367.5q0 -19 -9 -98h-835q6 -120 69.5 -173t210.5 -53q132 0 189 33.5t57 101.5v21h307v-23q0 -168 -149.5 -273 t-392.5 -105zM614 807q-135 0 -199 -47t-75 -148h545q-6 101 -71 148t-200 47z" glyph-name="ecaron" horiz-adv-x="1228" unicode="ě"/><glyph d="M686 1495h-330l271 266h366l273 -266h-330l-115 119h-20zM729 -20q-313 0 -495.5 191.5t-182.5 514.5t205 515t557 192q324 0 513.5 -142t189.5 -389v-16h-342v16q0 122 -87 179t-282 57q-234 0 -331 -92t-97 -320t93.5 -320t320.5 -92q161 0 248.5 20t127 67.5 t43.5 136.5h-465v227h773v-725h-285v295h-16q-38 -145 -157.5 -230t-330.5 -85z" glyph-name="Gcircumflex" unicode="Ĝ"/><glyph d="M522 1147h-327l270 266h366l273 -266h-332l-113 119h-20zM532 104q-227 0 -354 126t-127 345q0 216 132.5 344t361.5 128q160 0 263.5 -69t127.5 -200h16v248h287v-876q0 -263 -151 -391t-433 -128q-251 0 -395.5 107t-144.5 299h307q0 -60 20 -91t74 -45t160 -14 q78 0 124 9.5t77.5 36.5t43 73t11.5 123v231h-17q-26 -119 -121.5 -187.5t-261.5 -68.5zM360 575q0 -112 66 -159t213 -47q150 0 221.5 46t71.5 150v23q0 102 -71.5 147t-217.5 45q-150 0 -216.5 -46.5t-66.5 -158.5z" glyph-name="gcircumflex" horiz-adv-x="1320" unicode="ĝ"/><glyph d="M811 1475q-147 0 -238.5 74.5t-91.5 193.5v24h217v-20q0 -45 24 -65.5t89 -20.5q67 0 90 20t23 66v20h217v-24q0 -119 -91.5 -193.5t-238.5 -74.5zM729 -20q-313 0 -495.5 191.5t-182.5 514.5t205 515t557 192q324 0 513.5 -142t189.5 -389v-16h-342v16q0 122 -87 179 t-282 57q-234 0 -331 -92t-97 -320t93.5 -320t320.5 -92q161 0 248.5 20t127 67.5t43.5 136.5h-465v227h773v-725h-285v295h-16q-38 -145 -157.5 -230t-330.5 -85z" glyph-name="Gbreve" unicode="Ğ"/><glyph d="M649 1126q-147 0 -238.5 75t-91.5 194v20h218v-16q0 -51 23 -70.5t89 -19.5q67 0 90 19.5t23 70.5v16h217v-20q0 -119 -91.5 -194t-238.5 -75zM532 104q-227 0 -354 126t-127 345q0 216 132.5 344t361.5 128q160 0 263.5 -69t127.5 -200h16v248h287v-876 q0 -263 -151 -391t-433 -128q-251 0 -395.5 107t-144.5 299h307q0 -60 20 -91t74 -45t160 -14q78 0 124 9.5t77.5 36.5t43 73t11.5 123v231h-17q-26 -119 -121.5 -187.5t-261.5 -68.5zM360 575q0 -112 66 -159t213 -47q150 0 221.5 46t71.5 150v23q0 102 -71.5 147 t-217.5 45q-150 0 -216.5 -46.5t-66.5 -158.5z" glyph-name="gbreve" horiz-adv-x="1320" unicode="ğ"/><glyph d="M965 1495h-308v270h308v-270zM729 -20q-313 0 -495.5 191.5t-182.5 514.5t205 515t557 192q324 0 513.5 -142t189.5 -389v-16h-342v16q0 122 -87 179t-282 57q-234 0 -331 -92t-97 -320t93.5 -320t320.5 -92q161 0 248.5 20t127 67.5t43.5 136.5h-465v227h773v-725h-285 v295h-16q-38 -145 -157.5 -230t-330.5 -85z" glyph-name="Gdotaccent" unicode="Ġ"/><glyph d="M803 1147h-307v270h307v-270zM532 104q-227 0 -354 126t-127 345q0 216 132.5 344t361.5 128q160 0 263.5 -69t127.5 -200h16v248h287v-876q0 -263 -151 -391t-433 -128q-251 0 -395.5 107t-144.5 299h307q0 -60 20 -91t74 -45t160 -14q78 0 124 9.5t77.5 36.5t43 73 t11.5 123v231h-17q-26 -119 -121.5 -187.5t-261.5 -68.5zM360 575q0 -112 66 -159t213 -47q150 0 221.5 46t71.5 150v23q0 102 -71.5 147t-217.5 45q-150 0 -216.5 -46.5t-66.5 -158.5z" glyph-name="gdotaccent" horiz-adv-x="1320" unicode="ġ"/><glyph d="M729 -20q-313 0 -495.5 191.5t-182.5 514.5t205 515t557 192q324 0 513.5 -142t189.5 -389v-16h-342v16q0 122 -87 179t-282 57q-234 0 -331 -92t-97 -320t93.5 -320t320.5 -92q161 0 248.5 20t127 67.5t43.5 136.5h-465v227h773v-725h-285v295h-16q-38 -145 -157.5 -230 t-330.5 -85zM723 -410h-354l215 267h438z" glyph-name="Gcommaaccent" unicode="Ģ"/><glyph d="M696 1413h308l-185 -266h-397zM532 104q-227 0 -354 126t-127 345q0 216 132.5 344t361.5 128q160 0 263.5 -69t127.5 -200h16v248h287v-876q0 -263 -151 -391t-433 -128q-251 0 -395.5 107t-144.5 299h307q0 -60 20 -91t74 -45t160 -14q78 0 124 9.5t77.5 36.5t43 73 t11.5 123v231h-17q-26 -119 -121.5 -187.5t-261.5 -68.5zM360 575q0 -112 66 -159t213 -47q150 0 221.5 46t71.5 150v23q0 102 -71.5 147t-217.5 45q-150 0 -216.5 -46.5t-66.5 -158.5z" glyph-name="gcommaaccent" horiz-adv-x="1320" unicode="ģ"/><glyph d="M623 1495h-330l270 266h367l272 -266h-330l-114 119h-21zM389 0h-307v1372h307v-545h717v545h307v-1372h-307v551h-717v-551z" glyph-name="Hcircumflex" horiz-adv-x="1495" unicode="Ĥ"/><glyph d="M106 1495h-329l270 266h367l272 -266h-330l-114 119h-21zM389 0h-307v1372h307v-659h17q13 68 42.5 126t78.5 106t124 75t170 27q200 0 306 -116t106 -302v-629h-307v537q0 128 -60.5 180.5t-206.5 52.5q-150 0 -210 -61t-60 -195v-514z" glyph-name="hcircumflex" horiz-adv-x="1306" unicode="ĥ"/><glyph d="M389 0h-307v969h-160v276h160v127h307v-127h717v127h307v-127h160v-276h-160v-969h-307v551h-717v-551zM389 827h717v142h-717v-142z" glyph-name="Hbar" horiz-adv-x="1495" unicode="Ħ"/><glyph d="M467 0h-309v1012h-162v231h162v129h309v-129h295v-231h-295v-389h16q13 68 43 125t79 104.5t125 74.5t171 27q199 0 304.5 -115t105.5 -302v-537h-307v444q0 129 -60 181.5t-205 52.5q-152 0 -212 -61t-60 -195v-422z" glyph-name="hbar" horiz-adv-x="1378" unicode="ħ"/><glyph d="M59 1483h-204v92q0 209 188 209q68 0 170 -45l61 -27q63 -29 88 -29q50 0 50 60v26h204v-90q0 -97 -43.5 -154t-132.5 -57q-77 0 -176 45l-80 31q-56 27 -82 27q-43 0 -43 -49v-39zM389 0h-307v1372h307v-1372z" glyph-name="Itilde" horiz-adv-x="468" unicode="Ĩ"/><glyph d="M80 1135h-207v92q0 209 190 209q64 0 170 -45l62 -27q60 -29 86 -29q51 0 51 60v26h203v-90q0 -97 -43.5 -154t-132.5 -57q-79 0 -174 45l-80 31q-59 27 -82 27q-43 0 -43 -47v-41zM408 0h-308v1024h308v-1024z" glyph-name="itilde" horiz-adv-x="507" unicode="ĩ"/><glyph d="M569 1524h-669v219h669v-219zM389 0h-307v1372h307v-1372z" glyph-name="Imacron" horiz-adv-x="468" unicode="Ī"/><glyph d="M590 1169h-672v222h672v-222zM408 0h-308v1024h308v-1024z" glyph-name="imacron" horiz-adv-x="507" unicode="ī"/><glyph d="M236 1475q-147 0 -238.5 74.5t-91.5 193.5v24h217v-20q0 -45 23.5 -65.5t89.5 -20.5t89 20t23 66v20h217v-24q0 -119 -91 -193.5t-238 -74.5zM389 0h-307v1372h307v-1372z" glyph-name="Ibreve" horiz-adv-x="468" unicode="Ĭ"/><glyph d="M254 1126q-147 0 -238.5 75t-91.5 194v20h217v-16q0 -51 23.5 -70.5t89.5 -19.5q68 0 90.5 19.5t22.5 70.5v16h219v-20q0 -119 -91.5 -194t-240.5 -75zM408 0h-308v1024h308v-1024z" glyph-name="ibreve" horiz-adv-x="507" unicode="ĭ"/><glyph d="M428 -383h-186q-205 0 -205 143q0 27 7 51t25 50t28.5 39t37.5 43l53 57h-106v1372h307v-1372l-90 -113q-29 -37 -29 -55q0 -31 41 -31h117v-184z" glyph-name="Iogonek" horiz-adv-x="468" unicode="Į"/><glyph d="M389 1130h-307v242h307v-242zM428 -383h-186q-205 0 -205 143q0 27 7 51t25 50t28.5 39t37.5 43l53 57h-106v1026h307v-1026l-90 -113q-29 -37 -29 -55q0 -31 41 -31h117v-184z" glyph-name="iogonek" horiz-adv-x="468" unicode="į"/><glyph d="M389 1495h-307v270h307v-270zM389 0h-307v1372h307v-1372z" glyph-name="Idotaccent" horiz-adv-x="468" unicode="İ"/><glyph d="M408 0h-308v1024h308v-1024z" glyph-name="dotlessi" horiz-adv-x="507" unicode="ı"/><glyph d="M389 0h-307v1372h307v-1372zM1110 -20q-322 0 -466 147t-144 430v59h325v-59q0 -82 10 -130t41 -84t86.5 -50t147.5 -14q121 0 183.5 27t84 81t21.5 156v829h325v-829q0 -135 -33.5 -237t-105.5 -176t-191 -112t-284 -38z" glyph-name="IJ" horiz-adv-x="1798" unicode="Ĳ"/><glyph d="M389 1130h-307v242h307v-242zM858 1130h-307v242h307v-242zM389 0h-307v1026h307v-1026zM444 -348h-49v229h54q52 0 77 23t25 76v1046h307v-997q0 -107 -27.5 -181.5t-83 -116.5t-129 -60.5t-174.5 -18.5z" glyph-name="ij" horiz-adv-x="940" unicode="ĳ"/><glyph d="M969 1495h-328l270 266h367l270 -266h-329l-113 119h-21zM641 -20q-322 0 -466 147t-144 430v59h325v-59q0 -82 10 -130t41 -84t86.5 -50t147.5 -14q121 0 183.5 27t84 81t21.5 156v829h325v-829q0 -135 -33.5 -237t-105.5 -176t-191 -112t-284 -38z" glyph-name="Jcircumflex" horiz-adv-x="1327" unicode="Ĵ"/><glyph d="M111 1147h-330l270 266h367l272 -266h-332l-112 119h-21zM-25 -348h-51v229h56q52 0 77 23t25 76v1046h307v-997q0 -208 -104.5 -292.5t-309.5 -84.5z" glyph-name="jcircumflex" horiz-adv-x="471" unicode="ĵ"/><glyph d="M389 0h-307v1372h307v-545h342l365 545h368l-477 -676l471 -696h-368l-355 528h-346v-528zM690 -410h-352l213 267h440z" glyph-name="Kcommaaccent" horiz-adv-x="1460" unicode="Ķ"/><glyph d="M389 0h-307v1372h307v-727h234l262 381h364l-375 -496l369 -530h-362l-256 371h-236v-371zM588 -410h-309l186 267h395z" glyph-name="kcommaaccent" horiz-adv-x="1241" unicode="ķ"/><glyph d="M410 1495h-328l266 268h440zM1206 0h-1124v1372h307v-1096h817v-276z" glyph-name="Lacute" horiz-adv-x="1247" unicode="Ĺ"/><glyph d="M412 1495h-330l266 268h440zM389 0h-307v1372h307v-1372z" glyph-name="lacute" horiz-adv-x="468" unicode="ĺ"/><glyph d="M1206 0h-1124v1372h307v-1096h817v-276zM590 -410h-354l215 267h438z" glyph-name="Lcommaaccent" horiz-adv-x="1247" unicode="Ļ"/><glyph d="M389 0h-307v1372h307v-1372zM156 -410h-310l187 267h395z" glyph-name="lcommaaccent" horiz-adv-x="468" unicode="ļ"/><glyph d="M1206 0h-1124v1372h307v-1096h817v-276zM793 711h-109v202h100q33 0 47.5 13t14.5 51v37h-174v358h395v-391q0 -135 -70.5 -202.5t-203.5 -67.5z" glyph-name="Lcaron" horiz-adv-x="1247" unicode="Ľ"/><glyph d="M389 0h-307v1372h307v-1372zM598 889h-82v149h74q26 0 37.5 9.5t11.5 37.5v25h-131v262h293v-282q0 -201 -203 -201z" glyph-name="lcaron" horiz-adv-x="804" unicode="ľ"/><glyph d="M399 1495h-307v270h307v-270zM1206 0h-1124v1372h307v-1096h817v-276z" glyph-name="Ldot" horiz-adv-x="1247" unicode="Ŀ"/><glyph d="M389 0h-307v1372h307v-1372zM770 551h-307v270h307v-270z" glyph-name="ldot" horiz-adv-x="761" unicode="ŀ"/><glyph d="M940 758l-442 -160v-322h817v-276h-1125v487l-170 -61v287l170 61v598h308v-487l442 159v-286z" glyph-name="Lslash" horiz-adv-x="1355" unicode="Ł"/><glyph d="M532 0h-307v610l-157 -75l-88 176l245 116v545h307v-397l148 69l88 -176l-236 -112v-756z" glyph-name="lslash" horiz-adv-x="747" unicode="ł"/><glyph d="M907 1495h-329l268 268h440zM389 0h-307v1372h328l491 -649l189 -289h22l-14 277v661h307v-1372h-328l-506 655l-174 258h-20l12 -251v-662z" glyph-name="Nacute" horiz-adv-x="1486" unicode="Ń"/><glyph d="M813 1147h-330l269 266h440zM389 0h-307v1026h285v-315h18q11 67 40 125.5t78 106.5t126 76t174 28q103 0 183 -31.5t130 -87.5t75.5 -129t25.5 -160v-639h-308v537q0 124 -58.5 178.5t-197.5 54.5q-144 0 -204 -59.5t-60 -192.5v-518z" glyph-name="nacute" horiz-adv-x="1290" unicode="ń"/><glyph d="M389 0h-307v1372h328l491 -649l189 -289h22l-14 277v661h307v-1372h-328l-506 655l-174 258h-20l12 -251v-662zM688 -410h-352l213 267h440z" glyph-name="Ncommaaccent" horiz-adv-x="1486" unicode="Ņ"/><glyph d="M389 0h-307v1026h285v-315h18q11 67 40 125.5t78 106.5t126 76t174 28q103 0 183 -31.5t130 -87.5t75.5 -129t25.5 -160v-639h-308v537q0 124 -58.5 178.5t-197.5 54.5q-144 0 -204 -59.5t-60 -192.5v-518zM584 -410h-308l187 267h395z" glyph-name="ncommaaccent" horiz-adv-x="1290" unicode="ņ"/><glyph d="M868 1761h330l-270 -266h-367l-272 266h329l115 -119h21zM389 0h-307v1372h328l491 -649l189 -289h22l-14 277v661h307v-1372h-328l-506 655l-174 258h-20l12 -251v-662z" glyph-name="Ncaron" horiz-adv-x="1486" unicode="Ň"/><glyph d="M831 1147h-366l-270 266h340l104 -119h20l103 119h342zM389 0h-307v1026h285v-315h18q11 67 40 125.5t78 106.5t126 76t174 28q103 0 183 -31.5t130 -87.5t75.5 -129t25.5 -160v-639h-308v537q0 124 -58.5 178.5t-197.5 54.5q-144 0 -204 -59.5t-60 -192.5v-518z" glyph-name="ncaron" horiz-adv-x="1290" unicode="ň"/><glyph d="M954 -348h-202v276h198q75 0 100 16.5t25 59.5l-491 635l-187 274h-20l12 -268v-645h-307v1372h328l479 -635l201 -303h22l-14 291v647h307v-1292q0 -122 -31 -207t-92.5 -132.5t-140.5 -68t-187 -20.5z" glyph-name="Eng" horiz-adv-x="1486" unicode="Ŋ"/><glyph d="M383 0h-307v1026h286v-315h17q11 67 40 125.5t78 106.5t126 76t174 28q136 0 231.5 -55.5t139.5 -146t44 -206.5v-666q0 -88 -30 -151.5t-86.5 -100t-130 -53t-168.5 -16.5h-49v229h55q51 0 76.5 23t25.5 76v557q0 124 -59 178.5t-199 54.5q-144 0 -204 -59.5t-60 -192.5 v-518z" glyph-name="eng" horiz-adv-x="1280" unicode="ŋ"/><glyph d="M1126 1524h-669v219h669v-219zM788 -20q-340 0 -538.5 192t-198.5 514q0 323 198.5 515t538.5 192q346 0 546 -192t200 -515t-200 -514.5t-546 -191.5zM788 274q227 0 322.5 92.5t95.5 319.5t-95.5 319.5t-322.5 92.5q-226 0 -318.5 -92t-92.5 -320t92.5 -320t318.5 -92z" glyph-name="Omacron" unicode="Ō"/><glyph d="M963 1169h-670v222h670v-222zM629 -20q-264 0 -425 145t-161 387q0 244 161 389.5t425 145.5t424.5 -145t160.5 -390q0 -242 -160.5 -387t-424.5 -145zM629 252q153 0 216.5 61.5t63.5 198.5q0 138 -64 201t-216 63q-153 0 -217 -63t-64 -201t63.5 -199t217.5 -61z" glyph-name="omacron" horiz-adv-x="1257" unicode="ō"/><glyph d="M793 1475q-147 0 -238.5 74.5t-91.5 193.5v24h217v-20q0 -45 23.5 -65.5t89.5 -20.5t89 20t23 66v20h217v-24q0 -119 -91 -193.5t-238 -74.5zM788 -20q-340 0 -538.5 192t-198.5 514q0 323 198.5 515t538.5 192q346 0 546 -192t200 -515t-200 -514.5t-546 -191.5z M788 274q227 0 322.5 92.5t95.5 319.5t-95.5 319.5t-322.5 92.5q-226 0 -318.5 -92t-92.5 -320t92.5 -320t318.5 -92z" glyph-name="Obreve" unicode="Ŏ"/><glyph d="M629 1126q-147 0 -238.5 75t-91.5 194v20h217v-16q0 -51 23.5 -70.5t89.5 -19.5q67 0 89.5 19.5t22.5 70.5v16h217v-20q0 -119 -91 -194t-238 -75zM629 -20q-264 0 -425 145t-161 387q0 244 161 389.5t425 145.5t424.5 -145t160.5 -390q0 -242 -160.5 -387t-424.5 -145z M629 252q153 0 216.5 61.5t63.5 198.5q0 138 -64 201t-216 63q-153 0 -217 -63t-64 -201t63.5 -199t217.5 -61z" glyph-name="obreve" horiz-adv-x="1257" unicode="ŏ"/><glyph d="M1157 1495h-309l178 268h397zM643 1495h-309l176 268h401zM788 -20q-340 0 -538.5 192t-198.5 514q0 323 198.5 515t538.5 192q346 0 546 -192t200 -515t-200 -514.5t-546 -191.5zM788 274q227 0 322.5 92.5t95.5 319.5t-95.5 319.5t-322.5 92.5q-226 0 -318.5 -92 t-92.5 -320t92.5 -320t318.5 -92z" glyph-name="Ohungarumlaut" unicode="Ő"/><glyph d="M1010 1147h-310l179 266h399zM496 1147h-310l176 266h402zM629 -20q-264 0 -425 145t-161 387q0 244 161 389.5t425 145.5t424.5 -145t160.5 -390q0 -242 -160.5 -387t-424.5 -145zM629 252q153 0 216.5 61.5t63.5 198.5q0 138 -64 201t-216 63q-153 0 -217 -63t-64 -201 t63.5 -199t217.5 -61z" glyph-name="ohungarumlaut" horiz-adv-x="1257" unicode="ő"/><glyph d="M2236 0h-1472q-328 0 -520.5 183t-192.5 503t192.5 503t520.5 183h1472v-276h-854v-269h824v-274h-824v-277h854v-276zM764 276h311v820h-311q-107 0 -175.5 -17.5t-117 -63.5t-69.5 -125.5t-21 -203.5t21 -203.5t69.5 -125.5t117 -63.5t175.5 -17.5z" glyph-name="OE" horiz-adv-x="2293" unicode="Œ"/><glyph d="M629 -20q-264 0 -425 145t-161 387q0 244 161 389.5t425 145.5q280 0 440 -160q157 160 428 160q258 0 408.5 -130t150.5 -368q0 -45 -6 -98h-836q6 -121 69 -173.5t210 -52.5q132 0 189 33.5t57 101.5v21h307v-23q0 -168 -149 -273t-394 -105q-293 0 -440 153 q-162 -153 -434 -153zM1491 807q-135 0 -198 -47t-74 -148h544q-8 101 -72.5 148t-199.5 47zM629 252q153 0 216.5 61.5t63.5 198.5q0 138 -64 201t-216 63q-153 0 -217 -63t-64 -201t63.5 -199t217.5 -61z" glyph-name="oe" horiz-adv-x="2107" unicode="œ"/><glyph d="M874 1495h-329l266 268h440zM389 0h-307v1372h758q253 0 391.5 -107t138.5 -304q0 -168 -97.5 -265t-289.5 -116v-17q85 -23 131 -67.5t90 -126.5l199 -369h-356l-189 356q-29 56 -59 85t-78.5 43t-128.5 14h-203v-498zM389 1096v-367h449q113 0 162 40t49 144 q0 99 -50 141t-161 42h-449z" glyph-name="Racute" horiz-adv-x="1417" unicode="Ŕ"/><glyph d="M731 1147h-330l269 266h440zM389 0h-307v1026h285v-272h18q23 132 109.5 212.5t234.5 80.5q163 0 243.5 -99t80.5 -260v-170h-308v107q0 86 -38.5 123.5t-131.5 37.5q-100 0 -143 -46.5t-43 -145.5v-594z" glyph-name="racute" horiz-adv-x="1081" unicode="ŕ"/><glyph d="M389 0h-307v1372h758q253 0 391.5 -107t138.5 -304q0 -168 -97.5 -265t-289.5 -116v-17q85 -23 131 -67.5t90 -126.5l199 -369h-356l-189 356q-29 56 -59 85t-78.5 43t-128.5 14h-203v-498zM389 1096v-367h449q113 0 162 40t49 144q0 99 -50 141t-161 42h-449zM655 -410 h-354l215 267h438z" glyph-name="Rcommaaccent" horiz-adv-x="1417" unicode="Ŗ"/><glyph d="M389 0h-307v1026h285v-272h18q23 132 109.5 212.5t234.5 80.5q163 0 243.5 -99t80.5 -260v-170h-308v107q0 86 -38.5 123.5t-131.5 37.5q-100 0 -143 -46.5t-43 -145.5v-594zM156 -410h-310l187 267h395z" glyph-name="rcommaaccent" horiz-adv-x="1081" unicode="ŗ"/><glyph d="M836 1761h327l-270 -266h-365l-272 266h330l114 -119h21zM389 0h-307v1372h758q253 0 391.5 -107t138.5 -304q0 -168 -97.5 -265t-289.5 -116v-17q85 -23 131 -67.5t90 -126.5l199 -369h-356l-189 356q-29 56 -59 85t-78.5 43t-128.5 14h-203v-498zM389 1096v-367h449 q113 0 162 40t49 144q0 99 -50 141t-161 42h-449z" glyph-name="Rcaron" horiz-adv-x="1417" unicode="Ř"/><glyph d="M750 1147h-367l-270 266h340l102 -119h23l102 119h340zM389 0h-307v1026h285v-272h18q23 132 109.5 212.5t234.5 80.5q163 0 243.5 -99t80.5 -260v-170h-308v107q0 86 -38.5 123.5t-131.5 37.5q-100 0 -143 -46.5t-43 -145.5v-594z" glyph-name="rcaron" horiz-adv-x="1081" unicode="ř"/><glyph d="M840 1495h-328l266 268h441zM705 -20q-314 0 -482 123t-168 360v12h307v-37q0 -67 27.5 -103.5t102 -55.5t213.5 -19q122 0 188 13.5t90.5 40.5t24.5 75q0 62 -40.5 91t-148.5 48l-385 56q-189 30 -290 125.5t-101 259.5q0 82 34.5 154.5t106 134.5t197 98.5t291.5 36.5 q307 0 462.5 -129.5t155.5 -354.5v-12h-309v29q0 69 -28 107.5t-102.5 58.5t-209.5 20q-161 0 -225 -31.5t-64 -99.5q0 -59 35.5 -86.5t124.5 -42.5l385 -61q418 -67 418 -388q0 -86 -35 -160.5t-105.5 -134t-191 -94t-278.5 -34.5z" glyph-name="Sacute" horiz-adv-x="1357" unicode="Ś"/><glyph d="M737 1147h-329l268 266h440zM600 -20q-259 0 -398 96.5t-139 275.5v6h308v-18q0 -68 49.5 -92.5t181.5 -24.5q119 0 161 20t42 68q0 42 -30.5 60t-121.5 30l-288 35q-320 36 -320 287q0 144 127 234t379 90q254 0 390 -95.5t136 -281.5v-6h-307v12q0 45 -17.5 71 t-68.5 41t-143 15q-112 0 -152.5 -20.5t-40.5 -71.5q0 -41 33 -61t131 -32l219 -26q202 -23 289.5 -93t87.5 -200q0 -146 -136 -232.5t-372 -86.5z" glyph-name="sacute" horiz-adv-x="1150" unicode="ś"/><glyph d="M551 1495h-330l271 266h366l272 -266h-329l-115 119h-20zM705 -20q-314 0 -482 123t-168 360v12h307v-37q0 -67 27.5 -103.5t102 -55.5t213.5 -19q122 0 188 13.5t90.5 40.5t24.5 75q0 62 -40.5 91t-148.5 48l-385 56q-189 30 -290 125.5t-101 259.5q0 82 34.5 154.5 t106 134.5t197 98.5t291.5 36.5q307 0 462.5 -129.5t155.5 -354.5v-12h-309v29q0 69 -28 107.5t-102.5 58.5t-209.5 20q-161 0 -225 -31.5t-64 -99.5q0 -59 35.5 -86.5t124.5 -42.5l385 -61q418 -67 418 -388q0 -86 -35 -160.5t-105.5 -134t-191 -94t-278.5 -34.5z" glyph-name="Scircumflex" horiz-adv-x="1357" unicode="Ŝ"/><glyph d="M446 1147h-327l270 266h367l270 -266h-330l-112 119h-21zM600 -20q-259 0 -398 96.5t-139 275.5v6h308v-18q0 -68 49.5 -92.5t181.5 -24.5q119 0 161 20t42 68q0 42 -30.5 60t-121.5 30l-288 35q-320 36 -320 287q0 144 127 234t379 90q254 0 390 -95.5t136 -281.5v-6 h-307v12q0 45 -17.5 71t-68.5 41t-143 15q-112 0 -152.5 -20.5t-40.5 -71.5q0 -41 33 -61t131 -32l219 -26q202 -23 289.5 -93t87.5 -200q0 -146 -136 -232.5t-372 -86.5z" glyph-name="scircumflex" horiz-adv-x="1150" unicode="ŝ"/><glyph d="M705 -20h-7v-68h37q103 0 159 -50.5t56 -137.5q0 -89 -56 -141t-159 -52h-205v164h209q35 0 35 26q0 29 -35 29h-200v240q-235 29 -359.5 149t-124.5 324v12h307v-37q0 -67 27.5 -103.5t102 -55.5t213.5 -19q122 0 188 13.5t90.5 40.5t24.5 75q0 62 -40.5 91t-148.5 48 l-385 56q-189 30 -290 125.5t-101 259.5q0 82 34.5 154.5t106 134.5t197 98.5t291.5 36.5q307 0 462.5 -129.5t155.5 -354.5v-12h-309v29q0 69 -28 107.5t-102.5 58.5t-209.5 20q-161 0 -225 -31.5t-64 -99.5q0 -59 35.5 -86.5t124.5 -42.5l385 -61q418 -67 418 -388 q0 -86 -35 -160.5t-105.5 -134t-191 -94t-278.5 -34.5z" glyph-name="Scedilla" horiz-adv-x="1357" unicode="Ş"/><glyph d="M686 -469h-203v164h207q35 0 35 26q0 29 -35 29h-201v234q-207 20 -316.5 115t-109.5 253v6h308v-18q0 -68 49.5 -92.5t181.5 -24.5q119 0 161 20t42 68q0 42 -30.5 60t-121.5 30l-288 35q-320 36 -320 287q0 144 127 234t379 90q254 0 390 -95.5t136 -281.5v-6h-307v12 q0 45 -17.5 71t-68.5 41t-143 15q-112 0 -152.5 -20.5t-40.5 -71.5q0 -41 33 -61t131 -32l219 -26q202 -23 289.5 -93t87.5 -200q0 -138 -122 -223t-337 -94v-70h37q104 0 160.5 -50t56.5 -138q0 -89 -56.5 -141t-160.5 -52z" glyph-name="scedilla" horiz-adv-x="1150" unicode="ş"/><glyph d="M803 1761h327l-270 -266h-366l-273 266h332l113 -119h20zM705 -20q-314 0 -482 123t-168 360v12h307v-37q0 -67 27.5 -103.5t102 -55.5t213.5 -19q122 0 188 13.5t90.5 40.5t24.5 75q0 62 -40.5 91t-148.5 48l-385 56q-189 30 -290 125.5t-101 259.5q0 82 34.5 154.5 t106 134.5t197 98.5t291.5 36.5q307 0 462.5 -129.5t155.5 -354.5v-12h-309v29q0 69 -28 107.5t-102.5 58.5t-209.5 20q-161 0 -225 -31.5t-64 -99.5q0 -59 35.5 -86.5t124.5 -42.5l385 -61q418 -67 418 -388q0 -86 -35 -160.5t-105.5 -134t-191 -94t-278.5 -34.5z" glyph-name="Scaron" horiz-adv-x="1357" unicode="Š"/><glyph d="M756 1147h-367l-270 266h340l104 -119h21l102 119h340zM600 -20q-259 0 -398 96.5t-139 275.5v6h308v-18q0 -68 49.5 -92.5t181.5 -24.5q119 0 161 20t42 68q0 42 -30.5 60t-121.5 30l-288 35q-320 36 -320 287q0 144 127 234t379 90q254 0 390 -95.5t136 -281.5v-6h-307 v12q0 45 -17.5 71t-68.5 41t-143 15q-112 0 -152.5 -20.5t-40.5 -71.5q0 -41 33 -61t131 -32l219 -26q202 -23 289.5 -93t87.5 -200q0 -146 -136 -232.5t-372 -86.5z" glyph-name="scaron" horiz-adv-x="1150" unicode="š"/><glyph d="M846 0h-111v-88h35q104 0 160.5 -50t56.5 -138q0 -89 -56.5 -141t-160.5 -52h-203v164h207q35 0 35 26q0 29 -35 29h-201v250h-34v1096h-510v276h1327v-276h-510v-1096z" glyph-name="Tcedilla" horiz-adv-x="1384" unicode="Ţ"/><glyph d="M805 0h-176v-88h35q104 0 160.5 -50t56.5 -138q0 -89 -56.5 -141t-160.5 -52h-203v164h207q34 0 34 26q0 18 -7.5 23.5t-26.5 5.5h-201v256q-301 40 -301 365v401h-162v254h162v199h307v-199h332v-254h-332v-366q0 -75 32.5 -102.5t115.5 -27.5h184v-276z" glyph-name="tcedilla" horiz-adv-x="837" unicode="ţ"/><glyph d="M819 1761h328l-270 -266h-367l-270 266h329l113 -119h20zM846 0h-307v1096h-510v276h1327v-276h-510v-1096z" glyph-name="Tcaron" horiz-adv-x="1384" unicode="Ť"/><glyph d="M633 1126h-80v150h74q26 0 36.5 10t10.5 37v27h-129v260h293v-283q0 -201 -205 -201zM805 0h-254q-185 0 -285 91t-100 280v401h-162v254h162v199h307v-199h332v-254h-332v-366q0 -75 32.5 -102.5t115.5 -27.5h184v-276z" glyph-name="tcaron" horiz-adv-x="745" unicode="ť"/><glyph d="M846 0h-307v539h-310v274h310v283h-510v276h1327v-276h-510v-283h311v-274h-311v-539z" glyph-name="Tbar" horiz-adv-x="1384" unicode="Ŧ"/><glyph d="M805 0h-254q-185 0 -285 91t-100 280v86h-162v219h162v127h-162v223h162v199h307v-199h332v-223h-332v-127h332v-219h-332v-51q0 -75 32.5 -102.5t115.5 -27.5h184v-276z" glyph-name="tbar" horiz-adv-x="837" unicode="ŧ"/><glyph d="M571 1483h-206v92q0 209 190 209q68 0 170 -45l61 -27q60 -29 86 -29q52 0 52 60v26h204v-90q0 -97 -44 -154t-134 -57q-79 0 -174 45l-80 31q-56 27 -82 27q-43 0 -43 -49v-39zM745 -20q-330 0 -501.5 156t-171.5 437v799h307v-776q0 -176 79.5 -246.5t286.5 -70.5 q209 0 288 70t79 247v776h307v-799q0 -282 -171.5 -437.5t-502.5 -155.5z" glyph-name="Utilde" horiz-adv-x="1492" unicode="Ũ"/><glyph d="M479 1135h-207v92q0 209 191 209q68 0 170 -45l61 -27q60 -29 86 -29t38.5 13.5t12.5 46.5v26h205v-90q0 -97 -44 -154t-134 -57q-79 0 -174 45l-80 31q-59 27 -82 27q-43 0 -43 -47v-41zM506 -20q-208 0 -317 113t-109 294v639h307v-537q0 -126 59.5 -180.5t204.5 -54.5 q148 0 210.5 59.5t62.5 192.5v520h307v-1026h-287v313h-16q-11 -67 -40.5 -125t-79 -105.5t-127 -75t-175.5 -27.5z" glyph-name="utilde" horiz-adv-x="1306" unicode="ũ"/><glyph d="M1081 1524h-671v219h671v-219zM745 -20q-330 0 -501.5 156t-171.5 437v799h307v-776q0 -176 79.5 -246.5t286.5 -70.5q209 0 288 70t79 247v776h307v-799q0 -282 -171.5 -437.5t-502.5 -155.5z" glyph-name="Umacron" horiz-adv-x="1492" unicode="Ū"/><glyph d="M989 1169h-670v222h670v-222zM506 -20q-208 0 -317 113t-109 294v639h307v-537q0 -126 59.5 -180.5t204.5 -54.5q148 0 210.5 59.5t62.5 192.5v520h307v-1026h-287v313h-16q-11 -67 -40.5 -125t-79 -105.5t-127 -75t-175.5 -27.5z" glyph-name="umacron" horiz-adv-x="1306" unicode="ū"/><glyph d="M745 1475q-147 0 -238 74.5t-91 193.5v24h217v-20q0 -45 23.5 -65.5t88.5 -20.5q67 0 90 20t23 66v20h219v-24q0 -119 -91.5 -193.5t-240.5 -74.5zM745 -20q-330 0 -501.5 156t-171.5 437v799h307v-776q0 -176 79.5 -246.5t286.5 -70.5q209 0 288 70t79 247v776h307v-799 q0 -282 -171.5 -437.5t-502.5 -155.5z" glyph-name="Ubreve" horiz-adv-x="1492" unicode="Ŭ"/><glyph d="M655 1126q-148 0 -239.5 75t-91.5 194v20h219v-16q0 -51 22.5 -70.5t89.5 -19.5t90 19.5t23 70.5v16h217v-20q0 -119 -91.5 -194t-238.5 -75zM506 -20q-208 0 -317 113t-109 294v639h307v-537q0 -126 59.5 -180.5t204.5 -54.5q148 0 210.5 59.5t62.5 192.5v520h307v-1026 h-287v313h-16q-11 -67 -40.5 -125t-79 -105.5t-127 -75t-175.5 -27.5z" glyph-name="ubreve" horiz-adv-x="1306" unicode="ŭ"/><glyph d="M745 1401q-109 0 -178 58t-69 153q0 93 69 151t178 58q111 0 180.5 -58t69.5 -151q0 -95 -69.5 -153t-180.5 -58zM745 1544q49 0 70 15.5t21 52.5t-20.5 52t-70.5 15q-48 0 -68 -15t-20 -52t20.5 -52.5t67.5 -15.5zM745 -20q-330 0 -501.5 156t-171.5 437v799h307v-776 q0 -176 79.5 -246.5t286.5 -70.5q209 0 288 70t79 247v776h307v-799q0 -282 -171.5 -437.5t-502.5 -155.5z" glyph-name="Uring" horiz-adv-x="1492" unicode="Ů"/><glyph d="M655 1114q-96 0 -154.5 49.5t-58.5 130.5q0 82 59 131.5t154 49.5q94 0 152.5 -50t58.5 -131t-58.5 -130.5t-152.5 -49.5zM655 1235q44 0 62 15t18 44q0 60 -80 60q-45 0 -63.5 -15t-18.5 -45q0 -29 18.5 -44t63.5 -15zM506 -20q-208 0 -317 113t-109 294v639h307v-537 q0 -126 59.5 -180.5t204.5 -54.5q148 0 210.5 59.5t62.5 192.5v520h307v-1026h-287v313h-16q-11 -67 -40.5 -125t-79 -105.5t-127 -75t-175.5 -27.5z" glyph-name="uring" horiz-adv-x="1306" unicode="ů"/><glyph d="M1110 1495h-307l176 268h399zM596 1495h-307l176 268h399zM745 -20q-330 0 -501.5 156t-171.5 437v799h307v-776q0 -176 79.5 -246.5t286.5 -70.5q209 0 288 70t79 247v776h307v-799q0 -282 -171.5 -437.5t-502.5 -155.5z" glyph-name="Uhungarumlaut" horiz-adv-x="1492" unicode="Ű"/><glyph d="M1036 1147h-309l178 266h400zM522 1147h-309l176 266h402zM506 -20q-208 0 -317 113t-109 294v639h307v-537q0 -126 59.5 -180.5t204.5 -54.5q148 0 210.5 59.5t62.5 192.5v520h307v-1026h-287v313h-16q-11 -67 -40.5 -125t-79 -105.5t-127 -75t-175.5 -27.5z" glyph-name="uhungarumlaut" horiz-adv-x="1306" unicode="ű"/><glyph d="M971 -383h-187q-202 0 -202 143q0 36 15.5 70.5t32.5 56t50 56.5l35 37q-315 7 -479 163t-164 430v799h307v-776q0 -176 79.5 -246.5t286.5 -70.5q209 0 288 70t79 247v776h307v-799q0 -240 -124.5 -390t-368.5 -189l-84 -107q-27 -39 -27 -55q0 -31 41 -31h115v-184z" glyph-name="Uogonek" horiz-adv-x="1492" unicode="Ų"/><glyph d="M506 -20q-208 0 -317 113t-109 294v639h307v-537q0 -126 59.5 -180.5t204.5 -54.5q148 0 210.5 59.5t62.5 192.5v520h307v-1026l-90 -113q-27 -35 -27 -55q0 -31 41 -31h115v-184h-187q-204 0 -204 143q0 27 7 51t25 50t28.5 39t37.5 43l53 57h-86v313h-16 q-11 -67 -40.5 -125t-79 -105.5t-127 -75t-175.5 -27.5z" glyph-name="uogonek" horiz-adv-x="1306" unicode="ų"/><glyph d="M995 1495h-329l270 266h367l272 -266h-332l-113 119h-20zM803 0h-457l-323 1372h344l165 -778l48 -301h22l64 301l229 778h457l227 -778l63 -301h23l47 301l166 778h336l-326 -1372h-456l-205 686l-97 395h-22l-96 -395z" glyph-name="Wcircumflex" horiz-adv-x="2238" unicode="Ŵ"/><glyph d="M807 1147h-328l271 266h366l270 -266h-329l-113 119h-20zM664 0h-383l-281 1026h317l121 -469l43 -319h21l82 350l155 438h396l153 -438l82 -350h21l45 319l118 469h314l-291 -1026h-383l-176 494l-76 282h-22l-78 -282z" glyph-name="wcircumflex" horiz-adv-x="1867" unicode="ŵ"/><glyph d="M618 1495h-327l270 266h367l272 -266h-332l-112 119h-21zM895 0h-309v455l-609 917h379l262 -401l115 -185h23l114 185l263 401h380l-618 -919v-453z" glyph-name="Ycircumflex" horiz-adv-x="1490" unicode="Ŷ"/><glyph d="M508 1147h-328l271 266h366l273 -266h-332l-113 119h-20zM279 -348h-168v278h251q56 0 85.5 15.5t44.5 50.5l-502 1030h348l217 -469l86 -242h21l81 244l195 467h342l-508 -1100q-71 -157 -182 -215.5t-311 -58.5z" glyph-name="ycircumflex" horiz-adv-x="1271" unicode="ŷ"/><glyph d="M1110 1495h-293v270h293v-270zM674 1495h-293v270h293v-270zM895 0h-309v455l-609 917h379l262 -401l115 -185h23l114 185l263 401h380l-618 -919v-453z" glyph-name="Ydieresis" horiz-adv-x="1490" unicode="Ÿ"/><glyph d="M866 1495h-327l266 268h440zM1346 0h-1287v276l807 797v23h-788v276h1251v-276l-833 -797v-23h850v-276z" glyph-name="Zacute" horiz-adv-x="1402" unicode="Ź"/><glyph d="M750 1147h-332l268 266h440zM1128 0h-1089v262l440 350l215 136v20l-215 -12h-409v270h1028v-264l-475 -367l-195 -121v-20l195 14h505v-268z" glyph-name="zacute" horiz-adv-x="1167" unicode="ź"/><glyph d="M856 1495h-307v270h307v-270zM1346 0h-1287v276l807 797v23h-788v276h1251v-276l-833 -797v-23h850v-276z" glyph-name="Zdotaccent" horiz-adv-x="1402" unicode="Ż"/><glyph d="M737 1147h-307v270h307v-270zM1128 0h-1089v262l440 350l215 136v20l-215 -12h-409v270h1028v-264l-475 -367l-195 -121v-20l195 14h505v-268z" glyph-name="zdotaccent" horiz-adv-x="1167" unicode="ż"/><glyph d="M829 1761h328l-270 -266h-367l-272 266h332l112 -119h21zM1346 0h-1287v276l807 797v23h-788v276h1251v-276l-833 -797v-23h850v-276z" glyph-name="Zcaron" horiz-adv-x="1402" unicode="Ž"/><glyph d="M766 1147h-367l-270 266h342l102 -119h21l102 119h342zM1128 0h-1089v262l440 350l215 136v20l-215 -12h-409v270h1028v-264l-475 -367l-195 -121v-20l195 14h505v-268z" glyph-name="zcaron" horiz-adv-x="1167" unicode="ž"/><glyph d="M90 -348h-110l47 276h79q123 0 165 30.5t61 133.5l80 457h-215l49 274h215l16 97q41 235 183.5 343.5t410.5 108.5h70l-49 -276h-78q-85 0 -128 -13t-65 -46.5t-35 -104.5l-18 -109h276l-49 -274h-274l-78 -445q-45 -250 -171 -351t-382 -101z" glyph-name="florin" horiz-adv-x="1120" unicode="ƒ"/><glyph d="M1935 1495h-329l266 268h440zM369 0h-381l1013 1372h1352v-276h-854v-269h823v-274h-823v-277h854v-276h-1163v303h-600zM1174 1100l-381 -520h397v520h-16z" glyph-name="AEacute" horiz-adv-x="2410" unicode="Ǽ"/><glyph d="M1167 1147h-331l270 266h440zM410 -20q-173 0 -271 72.5t-98 201.5q0 118 84.5 187.5t247.5 84.5l463 47v33q0 98 -50 134t-178 36q-129 0 -184 -35.5t-55 -122.5v-16h-308v14q0 192 150 311.5t401 119.5q265 0 396 -134q153 134 397 134q257 0 408 -130.5t151 -367.5 q0 -51 -8 -98h-836q6 -120 70 -173t211 -53q132 0 189 33.5t57 101.5v21h307v-23q0 -168 -149 -273t-394 -105q-187 0 -320.5 66t-199.5 198h-14q-42 -128 -164.5 -196t-302.5 -68zM1399 807q-135 0 -199.5 -47t-75.5 -148h547q-8 101 -72.5 148t-199.5 47zM350 274 q0 -41 33.5 -59t105.5 -18q171 0 257.5 43.5t99.5 148.5v4l-391 -43q-54 -5 -79.5 -22.5t-25.5 -53.5z" glyph-name="aeacute" horiz-adv-x="1992" unicode="ǽ"/><glyph d="M956 1495h-329l266 268h440zM788 -20q-274 0 -460 129l-156 -146l-147 156l149 139q-123 177 -123 428q0 323 198.5 515t538.5 192q276 0 467 -127l152 141l147 -156l-145 -135q125 -175 125 -430q0 -323 -200 -514.5t-546 -191.5zM377 686q0 -130 29 -213l626 586 q-88 39 -244 39q-226 0 -318.5 -92t-92.5 -320zM788 274q227 0 322.5 92.5t95.5 319.5q0 127 -28 213l-629 -586q85 -39 239 -39z" glyph-name="Oslashacute" unicode="Ǿ"/><glyph d="M793 1147h-330l268 266h440zM629 -20q-211 0 -359 96l-127 -117l-110 123l114 104q-104 132 -104 326q0 244 161 389.5t425 145.5q203 0 354 -93l119 111l112 -123l-106 -98q106 -137 106 -332q0 -242 -160.5 -387t-424.5 -145zM348 512q0 -66 17 -125l403 371 q-56 18 -139 18q-153 0 -217 -63t-64 -201zM629 252q153 0 216.5 61.5t63.5 198.5q0 81 -20 131l-406 -373q59 -18 146 -18z" glyph-name="oslashacute" horiz-adv-x="1257" unicode="ǿ"/><glyph d="M705 -20q-314 0 -482 123t-168 360v12h307v-37q0 -67 27.5 -103.5t102 -55.5t213.5 -19q122 0 188 13.5t90.5 40.5t24.5 75q0 62 -40.5 91t-148.5 48l-385 56q-189 30 -290 125.5t-101 259.5q0 82 34.5 154.5t106 134.5t197 98.5t291.5 36.5q307 0 462.5 -129.5 t155.5 -354.5v-12h-309v29q0 69 -28 107.5t-102.5 58.5t-209.5 20q-161 0 -225 -31.5t-64 -99.5q0 -59 35.5 -86.5t124.5 -42.5l385 -61q418 -67 418 -388q0 -86 -35 -160.5t-105.5 -134t-191 -94t-278.5 -34.5zM662 -410h-353l213 267h441z" glyph-name="Scommaaccent" horiz-adv-x="1357" unicode="Ș"/><glyph d="M600 -20q-259 0 -398 96.5t-139 275.5v6h308v-18q0 -68 49.5 -92.5t181.5 -24.5q119 0 161 20t42 68q0 42 -30.5 60t-121.5 30l-288 35q-320 36 -320 287q0 144 127 234t379 90q254 0 390 -95.5t136 -281.5v-6h-307v12q0 45 -17.5 71t-68.5 41t-143 15 q-112 0 -152.5 -20.5t-40.5 -71.5q0 -41 33 -61t131 -32l219 -26q202 -23 289.5 -93t87.5 -200q0 -146 -136 -232.5t-372 -86.5zM516 -410h-307l186 267h396z" glyph-name="scommaaccent" horiz-adv-x="1150" unicode="ș"/><glyph d="M846 0h-307v1096h-510v276h1327v-276h-510v-1096zM698 -410h-354l213 267h440z" glyph-name="Tcommaaccent" horiz-adv-x="1384" unicode="Ț"/><glyph d="M805 0h-254q-185 0 -285 91t-100 280v401h-162v254h162v199h307v-199h332v-254h-332v-366q0 -75 32.5 -102.5t115.5 -27.5h184v-276zM496 -410h-310l187 267h395z" glyph-name="tcommaaccent" horiz-adv-x="837" unicode="ț"/><glyph d="M-25 -348h-51v229h56q52 0 77 23t25 76v1046h307v-997q0 -208 -104.5 -292.5t-309.5 -84.5z" glyph-name="dotlessj" horiz-adv-x="471" unicode="ȷ"/><glyph d="M582 1147h-330l-379 266h440z" glyph-name="gravecomb" horiz-adv-x="837" unicode="̀"/><glyph d="M586 1147h-330l268 266h441z" glyph-name="acutecomb" horiz-adv-x="837" unicode="́"/><glyph d="M403 1147h-327l270 266h367l272 -266h-332l-112 119h-21z" glyph-name="circumflexcomb" horiz-adv-x="1056" unicode="̂"/><glyph d="M305 1135h-207v92q0 209 191 209q68 0 170 -45l61 -27q60 -29 86 -29t38.5 13.5t12.5 46.5v26h205v-90q0 -97 -44 -154t-134 -57q-79 0 -174 45l-80 31q-59 27 -82 27q-43 0 -43 -47v-41z" glyph-name="tildecomb" horiz-adv-x="946" unicode="̃"/><glyph d="M784 1169h-671v222h671v-222z" glyph-name="macroncomb" horiz-adv-x="897" unicode="̄"/><glyph d="M397 1126q-147 0 -238 75t-91 194v20h217v-16q0 -51 23 -70.5t89 -19.5q68 0 90.5 19.5t22.5 70.5v16h217v-20q0 -119 -91.5 -194t-238.5 -75z" glyph-name="brevecomb" horiz-adv-x="796" unicode="̆"/><glyph d="M375 1147h-307v270h307v-270z" glyph-name="dotaccentcomb" horiz-adv-x="440" unicode="̇"/><glyph d="M791 1147h-293v270h293v-270zM354 1147h-293v270h293v-270z" glyph-name="dieresiscomb" horiz-adv-x="851" unicode="̈"/><glyph d="M276 1114q-96 0 -154.5 49.5t-58.5 130.5q0 82 59 131.5t154 49.5t154 -49.5t59 -131.5q0 -81 -58.5 -130.5t-154.5 -49.5zM276 1235q44 0 62 15t18 44q0 60 -80 60q-45 0 -63 -15t-18 -45t18 -44.5t63 -14.5z" glyph-name="ringcomb" horiz-adv-x="550" unicode="̊"/><glyph d="M989 1147h-309l178 266h399zM475 1147h-307l176 266h399z" glyph-name="hungarumlautcomb" horiz-adv-x="1222" unicode="̋"/><glyph d="M713 1147h-367l-270 266h342l102 -119h21l102 119h342z" glyph-name="caroncomb" horiz-adv-x="1056" unicode="̌"/><glyph d="M725 1413h307l-186 -266h-395z" glyph-name="commaturnedabovecomb" horiz-adv-x="1320" unicode="̒"/><glyph d="M377 -410h-309l186 267h395z" glyph-name="commaaccentcomb" horiz-adv-x="743" unicode="̦"/><glyph d="M449 -469h-203v164h207q34 0 34 26q0 17 -8.5 23t-25.5 6h-201v256h160v-94h37q103 0 160 -50.5t57 -137.5q0 -89 -57 -141t-160 -52z" glyph-name="cedillacomb" horiz-adv-x="626" unicode="̧"/><glyph d="M471 -383h-186q-205 0 -205 143q0 27 7 51t25 50t28.5 39t37.5 43l53 57h201l-90 -113q-29 -37 -29 -55q0 -31 41 -31h117v-184z" glyph-name="ogonekcomb" horiz-adv-x="524" unicode="̨"/><glyph d="M1090 1012h-766v231h766v-231z" glyph-name="strokeshortcomb" horiz-adv-x="1413" unicode="̵"/><glyph d="M788 868l-700 -333l-88 176l700 333z" glyph-name="slashshortcomb" horiz-adv-x="788" unicode="̷"/><glyph d="M1208 942l-1071 -981l-112 121l1071 983z" glyph-name="slashlongcomb" horiz-adv-x="1232" unicode="̸"/><glyph d="M1286 1495h-330l-378 268h440zM803 0h-457l-323 1372h344l165 -778l48 -301h22l64 301l229 778h457l227 -778l63 -301h23l47 301l166 778h336l-326 -1372h-456l-205 686l-97 395h-22l-96 -395z" glyph-name="Wgrave" horiz-adv-x="2238" unicode="Ẁ"/><glyph d="M1096 1147h-330l-377 266h440zM664 0h-383l-281 1026h317l121 -469l43 -319h21l82 350l155 438h396l153 -438l82 -350h21l45 319l118 469h314l-291 -1026h-383l-176 494l-76 282h-22l-78 -282z" glyph-name="wgrave" horiz-adv-x="1867" unicode="ẁ"/><glyph d="M1284 1495h-330l269 268h438zM803 0h-457l-323 1372h344l165 -778l48 -301h22l64 301l229 778h457l227 -778l63 -301h23l47 301l166 778h336l-326 -1372h-456l-205 686l-97 395h-22l-96 -395z" glyph-name="Wacute" horiz-adv-x="2238" unicode="Ẃ"/><glyph d="M1098 1147h-330l268 266h441zM664 0h-383l-281 1026h317l121 -469l43 -319h21l82 350l155 438h396l153 -438l82 -350h21l45 319l118 469h314l-291 -1026h-383l-176 494l-76 282h-22l-78 -282z" glyph-name="wacute" horiz-adv-x="1867" unicode="ẃ"/><glyph d="M1485 1495h-293v270h293v-270zM1049 1495h-293v270h293v-270zM803 0h-457l-323 1372h344l165 -778l48 -301h22l64 301l229 778h457l227 -778l63 -301h23l47 301l166 778h336l-326 -1372h-456l-205 686l-97 395h-22l-96 -395z" glyph-name="Wdieresis" horiz-adv-x="2238" unicode="Ẅ"/><glyph d="M1296 1147h-290v270h290v-270zM860 1147h-291v270h291v-270zM664 0h-383l-281 1026h317l121 -469l43 -319h21l82 350l155 438h396l153 -438l82 -350h21l45 319l118 469h314l-291 -1026h-383l-176 494l-76 282h-22l-78 -282z" glyph-name="wdieresis" horiz-adv-x="1867" unicode="ẅ"/><glyph d="M485 1483h-204v92q0 209 188 209q68 0 170 -45l61 -27q63 -29 88 -29q50 0 50 60v26h204v-90q0 -97 -43.5 -154t-132.5 -57q-77 0 -176 45l-80 31q-56 27 -82 27q-43 0 -43 -49v-39zM1243 0h-1161v1372h1161v-276h-854v-269h823v-274h-823v-277h854v-276z" glyph-name="Etilde" horiz-adv-x="1300" unicode="Ẽ"/><glyph d="M438 1135h-205v92q0 209 191 209q64 0 170 -45l61 -27q60 -29 86 -29q52 0 52 60v26h202v-90q0 -97 -43.5 -154t-132.5 -57q-77 0 -176 45l-80 31q-56 27 -80 27q-45 0 -45 -47v-41zM627 -20q-175 0 -302 56t-200.5 177t-73.5 299q0 244 157 389.5t413 145.5 q257 0 408 -130.5t151 -367.5q0 -19 -9 -98h-835q6 -120 69.5 -173t210.5 -53q132 0 189 33.5t57 101.5v21h307v-23q0 -168 -149.5 -273t-392.5 -105zM614 807q-135 0 -199 -47t-75 -148h545q-6 101 -71 148t-200 47z" glyph-name="etilde" horiz-adv-x="1228" unicode="ẽ"/><glyph d="M909 1495h-327l-379 268h440zM895 0h-309v455l-609 917h379l262 -401l115 -185h23l114 185l263 401h380l-618 -919v-453z" glyph-name="Ygrave" horiz-adv-x="1490" unicode="Ỳ"/><glyph d="M797 1147h-328l-379 266h440zM279 -348h-168v278h251q56 0 85.5 15.5t44.5 50.5l-502 1030h348l217 -469l86 -242h21l81 244l195 467h342l-508 -1100q-71 -157 -182 -215.5t-311 -58.5z" glyph-name="ygrave" horiz-adv-x="1271" unicode="ỳ"/><glyph d="M569 1483h-204v92q0 209 188 209q68 0 170 -45l61 -27q63 -29 88 -29q50 0 50 60v26h204v-90q0 -97 -43.5 -154t-132.5 -57q-77 0 -176 45l-80 31q-56 27 -82 27q-43 0 -43 -49v-39zM895 0h-309v455l-609 917h379l262 -401l115 -185h23l114 185l263 401h380l-618 -919 v-453z" glyph-name="Ytilde" horiz-adv-x="1490" unicode="Ỹ"/><glyph d="M459 1135h-205v92q0 209 188 209q68 0 170 -45l62 -27q63 -29 88 -29q49 0 49 60v26h205v-90q0 -97 -43.5 -154t-132.5 -57q-77 0 -176 45l-80 31q-59 27 -82 27q-43 0 -43 -47v-41zM279 -348h-168v278h251q56 0 85.5 15.5t44.5 50.5l-502 1030h348l217 -469l86 -242h21 l81 244l195 467h342l-508 -1100q-71 -157 -182 -215.5t-311 -58.5z" glyph-name="ytilde" horiz-adv-x="1271" unicode="ỹ"/><glyph d="M1114 473h-1053v264h1053v-264z" glyph-name="endash" horiz-adv-x="1175" unicode="–"/><glyph d="M1968 473h-1907v264h1907v-264z" glyph-name="emdash" horiz-adv-x="2029" unicode="—"/><glyph d="M336 1393h110v-191h-100q-34 0 -48.5 -13t-14.5 -50v-35h174v-359h-396v392q0 127 71 191.5t204 64.5z" glyph-name="quoteleft" horiz-adv-x="518" unicode="‘"/><glyph d="M182 725h-108v190h100q32 0 47 13.5t15 50.5v35h-175v358h396v-391q0 -127 -71 -191.5t-204 -64.5z" glyph-name="quoteright" horiz-adv-x="518" unicode="’"/><glyph d="M182 -289h-108v191h100q33 0 47.5 12.5t14.5 50.5v35h-175v358h396v-391q0 -127 -71 -191.5t-204 -64.5z" glyph-name="quotesinglbase" horiz-adv-x="583" unicode="‚"/><glyph d="M336 1393h110v-191h-100q-34 0 -48.5 -13t-14.5 -50v-35h174v-359h-396v392q0 127 71 191.5t204 64.5zM836 1393h108v-191h-100q-34 0 -48 -13t-14 -50v-35h174v-359h-397v392q0 127 72 191.5t205 64.5z" glyph-name="quotedblleft" horiz-adv-x="1017" unicode="“"/><glyph d="M680 725h-109v190h101q33 0 47 13.5t14 50.5v35h-174v358h397v-391q0 -127 -71.5 -191.5t-204.5 -64.5zM182 725h-108v190h100q32 0 47 13.5t15 50.5v35h-175v358h396v-391q0 -127 -71 -191.5t-204 -64.5z" glyph-name="quotedblright" horiz-adv-x="1017" unicode="”"/><glyph d="M182 -289h-108v191h100q33 0 47.5 12.5t14.5 50.5v35h-175v358h396v-391q0 -127 -71 -191.5t-204 -64.5zM680 -289h-109v191h101q34 0 47.5 12.5t13.5 50.5v35h-174v358h397v-391q0 -127 -71.5 -191.5t-204.5 -64.5z" glyph-name="quotedblbase" horiz-adv-x="1017" unicode="„"/><glyph d="M700 0h-305v801h-354v254h354v317h305v-317h357v-254h-357v-801z" glyph-name="dagger" horiz-adv-x="1097" unicode="†"/><glyph d="M700 0h-305v317h-354v254h354v230h-354v254h354v317h305v-317h357v-254h-357v-230h357v-254h-357v-317z" glyph-name="daggerdbl" horiz-adv-x="1097" unicode="‡"/><glyph d="M342 389q-126 0 -211.5 81t-85.5 216t85.5 216t211.5 81q127 0 212 -80.5t85 -216.5t-85 -216.5t-212 -80.5z" glyph-name="bullet" horiz-adv-x="686" unicode="•"/><glyph d="M463 0h-397v358h397v-358zM1004 0h-396v358h396v-358zM1546 0h-395v356h395v-356z" glyph-name="ellipsis" horiz-adv-x="1611" unicode="…"/><glyph d="M391 711q-168 0 -264 93t-96 249t96 250t264 94q169 0 266 -94t97 -250t-96.5 -249t-266.5 -93zM399 0h-297l1166 1372h297zM391 911q81 0 112.5 32t31.5 110t-31.5 110.5t-112.5 32.5q-78 0 -109.5 -32.5t-31.5 -110.5q0 -77 31 -109.5t110 -32.5zM2071 -23 q-168 0 -264.5 93t-96.5 249t96.5 249.5t264.5 93.5t265 -93.5t97 -249.5q0 -155 -97 -248.5t-265 -93.5zM1274 -23q-169 0 -266 93.5t-97 248.5t97.5 249t265.5 94t265 -93.5t97 -249.5q0 -155 -97 -248.5t-265 -93.5zM2071 178q79 0 111 32t32 109t-32 110.5t-111 33.5 t-111.5 -33.5t-32.5 -110.5t32.5 -109t111.5 -32zM1274 178q79 0 111 32t32 109t-32 110.5t-111 33.5t-111.5 -33.5t-32.5 -110.5t32.5 -109t111.5 -32z" glyph-name="perthousand" horiz-adv-x="2463" unicode="‰"/><glyph d="M51 795l410 274v-315l-203 -117v-25l203 -116v-316l-410 275v340z" glyph-name="guilsinglleft" horiz-adv-x="522" unicode="‹"/><glyph d="M471 455l-410 -275v316l203 116v25l-203 117v315l410 -274v-340z" glyph-name="guilsinglright" horiz-adv-x="522" unicode="›"/><glyph d="M-178 0h-297l1165 1372h297z" glyph-name="fraction" horiz-adv-x="509" unicode="⁄"/><glyph d="M424 666q-178 0 -280.5 97t-102.5 265t102.5 266.5t280.5 98.5t279.5 -98.5t101.5 -266.5t-101.5 -265t-279.5 -97zM424 868q82 0 118 37.5t36 122.5q0 86 -36 124t-118 38t-119 -38t-37 -124q0 -85 37 -122.5t119 -37.5z" glyph-name="zero.superior" horiz-adv-x="845" unicode="⁰"/><glyph d="M649 686h-217v133h-412v170l373 383h256v-360h121v-193h-121v-133zM264 1012h168v170h-16l-152 -154v-16z" glyph-name="four.superior" horiz-adv-x="798" unicode="⁴"/><glyph d="M1073 444h-518q37 -94 120.5 -131t233.5 -37h394v-276h-394q-262 0 -440.5 116t-243.5 328h-205v191h173q-3 24 -3 51q0 26 3 47h-173v193h203q64 213 243.5 329.5t442.5 116.5h394v-276h-394q-151 0 -235 -37.5t-121 -132.5h520v-193h-553v-47v-51h553v-191z" glyph-name="Euro" horiz-adv-x="1363" unicode="€"/><glyph d="M1161 0h-416l-299 311q-59 59 -115 84t-134 25h-125v256h379q94 0 135.5 25.5t50.5 91.5h-565v231h569v119h-569v229h1122v-229h-246v-119h246v-231h-252q-41 -271 -358 -271v-20q49 -11 94 -37t70 -48t81 -75z" glyph-name="indianrupee" horiz-adv-x="1249" unicode="₹"/><glyph d="M678 961h-133v411h184l88 -272h6l84 272h187v-411h-133v137l4 100h-9l-59 -197h-154l-65 197h-6l6 -100v-137zM336 961h-148v276h-157v135h463v-135h-158v-276z" glyph-name="trademark" horiz-adv-x="1134" unicode="™"/><glyph d="M981 559h-915v254h915v-254z" glyph-name="minus" horiz-adv-x="1046" unicode="−"/><glyph d="M324 330h-258v108q0 170 114 224v22h-114v133q0 54 12.5 97.5t38.5 78.5t72.5 54.5t109.5 19.5q41 0 85.5 -11t66.5 -19.5t79 -32.5l132 -46q71 -30 94 -30q33 0 44 16.5t11 50.5v47h256v-108q0 -91 -25.5 -145t-89.5 -84v-17h115v-108q0 -55 -10.5 -100t-34 -83.5 t-68 -60t-106.5 -21.5q-42 0 -87.5 9t-73.5 18t-77 27l-135 43q-62 32 -90 32q-61 0 -61 -67v-47zM791 561q63 0 63 78v49q-18 -12 -55 -12q-29 0 -60.5 7t-54.5 15.5t-68 26.5l-153 57q-76 35 -105 35q-75 0 -75 -80v-47q34 15 75 15q47 0 131 -43l154 -54q108 -47 148 -47 z" glyph-name="approxequal" horiz-adv-x="1134" unicode="≈"/><glyph d="M981 330h-524l-142 -260l-194 100l86 160h-141v254h278l111 204h-389v254h526l139 261l195 -103l-86 -158h143v-254h-281l-108 -204h387v-254z" glyph-name="notequal" horiz-adv-x="1046" unicode="≠"/><glyph d="M977 29h-916v254h644v22l-644 199v364l916 289v-287l-637 -174v-20l637 -174v-473z" glyph-name="lessequal" horiz-adv-x="1044" unicode="≤"/><glyph d="M981 29h-915v473l636 174v20l-636 174v287l915 -289v-364l-643 -199v-22h643v-254z" glyph-name="greaterequal" horiz-adv-x="1042" unicode="≥"/><glyph d="M805 0h-254q-185 0 -285 91t-100 280v401h-162v254h162v199h307v-199h420v199h307v-199h330v-254h-330v-366q0 -75 32.5 -102.5t113.5 -27.5h184v-276h-254q-185 0 -284 91t-99 280v401h-420v-366q0 -75 32.5 -102.5t115.5 -27.5h184v-276z" glyph-name="t_t" horiz-adv-x="1562"/><glyph d="M537 -20q-234 0 -363 131.5t-129 359.5t125.5 361t351.5 133q169 0 274 -79.5t132 -211.5h18v698h307v-1372h-286v283h-17q-30 -144 -134 -223.5t-279 -79.5zM356 471q0 -115 68 -163t219 -48t227 49t76 156v16q0 104 -76 153.5t-229 49.5q-148 0 -216.5 -48.5 t-68.5 -164.5z" glyph-name="d.component" horiz-adv-x="1413"/><glyph d="M467 0h-309v1372h309v-749h16q13 68 43 125t79 104.5t125 74.5t171 27q199 0 304.5 -115t105.5 -302v-537h-307v444q0 129 -60 181.5t-205 52.5q-152 0 -212 -61t-60 -195v-422z" glyph-name="h.component" horiz-adv-x="1378"/><glyph d="M457 889h-82v149h74q26 0 37.5 9.5t11.5 37.5v25h-131v262h292v-282q0 -201 -202 -201z" glyph-name="caroncomb.alt" horiz-adv-x="1024"/><glyph d="M791 1495h-293v270h293v-270zM354 1495h-293v270h293v-270z" glyph-name="dieresiscomb.case" horiz-adv-x="851"/><glyph d="M375 1495h-307v270h307v-270z" glyph-name="dotaccentcomb.case" horiz-adv-x="440"/><glyph d="M582 1495h-328l-379 268h440z" glyph-name="gravecomb.case" horiz-adv-x="837"/><glyph d="M584 1495h-328l266 268h441z" glyph-name="acutecomb.case" horiz-adv-x="837"/><glyph d="M973 1495h-309l178 268h399zM459 1495h-309l176 268h401z" glyph-name="hungarumlautcomb.case" horiz-adv-x="1222"/><glyph d="M541 711h-109v202h100q33 0 47.5 13t14.5 51v37h-174v358h395v-391q0 -135 -70 -202.5t-204 -67.5z" glyph-name="caroncomb.alt.case" horiz-adv-x="1232"/><glyph d="M403 1495h-327l270 266h367l272 -266h-332l-112 119h-21z" glyph-name="circumflexcomb.case" horiz-adv-x="1062"/><glyph d="M657 1761h330l-270 -266h-367l-272 266h330l114 -119h21z" glyph-name="caroncomb.case" horiz-adv-x="1062"/><glyph d="M397 1475q-147 0 -238 74.5t-91 193.5v24h217v-20q0 -45 23.5 -65.5t88.5 -20.5q67 0 90 20t23 66v20h217v-24q0 -119 -91.5 -193.5t-238.5 -74.5z" glyph-name="brevecomb.case" horiz-adv-x="796"/><glyph d="M276 1401q-111 0 -180 58t-69 153q0 93 69 151t180 58q109 0 178.5 -58t69.5 -151q0 -95 -69 -153t-179 -58zM276 1544q49 0 70 15.5t21 52.5t-20.5 52t-70.5 15q-49 0 -69.5 -15t-20.5 -52t20.5 -52.5t69.5 -15.5z" glyph-name="ringcomb.case" horiz-adv-x="550"/><glyph d="M297 1483h-205v92q0 209 191 209q66 0 168 -45l61 -27q63 -29 88 -29q49 0 49 60v26h205v-90q0 -97 -43.5 -154t-132.5 -57q-77 0 -176 45l-80 31q-56 27 -82 27q-43 0 -43 -49v-39z" glyph-name="tildecomb.case" horiz-adv-x="946"/><glyph d="M784 1524h-671v219h671v-219z" glyph-name="macroncomb.case" horiz-adv-x="897"/><glyph d="M420 -410h-352l213 267h440z" glyph-name="commaaccentcomb.case" horiz-adv-x="743"/><glyph d="M432 -469h-205v164h209q33 0 33 26q0 17 -8 23t-25 6h-203v256h162v-94h37q103 0 159 -50.5t56 -137.5q0 -89 -56 -141t-159 -52z" glyph-name="cedillacomb.case" horiz-adv-x="626"/><glyph d="M457 -383h-187q-202 0 -202 143q0 36 15.5 70.5t32.5 56t50 56.5l51 57h201l-90 -113q-27 -39 -27 -55q0 -31 41 -31h115v-184z" glyph-name="ogonekcomb.case" horiz-adv-x="524"/><glyph d="M1288 549h-928v274h928v-274z" glyph-name="strokeshortcomb.case" horiz-adv-x="1650"/><glyph d="M1671 971h-1651v276h1651v-276z" glyph-name="strokelongcomb.case" horiz-adv-x="1691"/><glyph d="M1145 758l-920 -332v287l920 331v-286z" glyph-name="slashshortcomb.case" horiz-adv-x="1372"/><glyph d="M1554 1253l-1382 -1288l-147 156l1382 1288z" glyph-name="slashlongcomb.case"/><glyph d="M147 0v1434h443v-1434h-443zM682 1016v418h442v-418h-442zM1214 0v1434h445v-1434h-445zM1749 1016v418h442v-418h-442zM2281 0v1434h445v-1434h-445zM2816 1016v418h442v-418h-442zM2816 506v420h442v-420h-442z" glyph-name="ITF" horiz-adv-x="3405"/></font>
</defs>
</svg>
