<svg xmlns="http://www.w3.org/2000/svg" xmlns:xlink="http://www.w3.org/1999/xlink" version="1.1"><metadata>Created by FontForge 20170731 at Tue Oct 3 10:35:20 2023 By Aleksey,,, Copyright 2021 Indian Type Foundry. All rights reserved.</metadata><defs><font id="ClashDisplay-Bold" horiz-adv-x="507"><font-face x-height="1032" ascent="1638" bbox="-475 -494 3234 1821" cap-height="1372" descent="-410" font-family="Clash Display" font-stretch="normal" font-weight="700" panose-1="0 0 0 0 0 0 0 0 0 0" underline-position="-307" underline-thickness="102" unicode-range="U+000D-FB04" units-per-em="2048"/><glyph d="M535 0h-385v717h-140v315h148q32 153 178.5 246.5t390.5 93.5h82v-274h-143q-85 0 -121 -13.5t-35 -52.5h299v-315h-274v-717zM1364 0h-385v717h-139v315h147q32 153 178.5 246.5t390.5 93.5h82v-274h-143q-85 0 -121 -13.5t-35 -52.5h299v-315h-274v-717z" glyph-name="f_f" horiz-adv-x="1658" unicode="ff"/><glyph d="M535 0h-385v717h-140v315h148q32 153 178.5 246.5t390.5 93.5h82v-274h-143q-85 0 -121 -13.5t-35 -52.5h299v-315h-274v-717zM1276 1126h-385v246h385v-246zM1276 0h-385v1032h385v-1032z" glyph-name="fi" horiz-adv-x="1337" unicode="fi"/><glyph d="M535 0h-385v717h-140v315h148q32 153 178.5 246.5t390.5 93.5h82v-274h-143q-85 0 -121 -13.5t-35 -52.5h299v-315h-274v-717zM1276 0h-385v1372h385v-1372z" glyph-name="fl" horiz-adv-x="1337" unicode="fl"/><glyph d="M535 0h-385v717h-140v315h148q32 153 178.5 246.5t390.5 93.5h82v-274h-143q-85 0 -121 -13.5t-35 -52.5h299v-315h-274v-717zM1364 0h-385v717h-139v315h147q32 153 178.5 246.5t390.5 93.5h82v-274h-143q-85 0 -121 -13.5t-35 -52.5h299v-315h-274v-717zM2105 1126 h-385v246h385v-246zM2105 0h-385v1032h385v-1032z" glyph-name="f_f_i" horiz-adv-x="2166" unicode="ffi"/><glyph d="M535 0h-385v717h-140v315h148q32 153 178.5 246.5t390.5 93.5h82v-274h-143q-85 0 -121 -13.5t-35 -52.5h299v-315h-274v-717zM1364 0h-385v717h-139v315h147q32 153 178.5 246.5t390.5 93.5h82v-274h-143q-85 0 -121 -13.5t-35 -52.5h299v-315h-274v-717zM2105 0h-385 v1372h385v-1372z" glyph-name="f_f_l" horiz-adv-x="2166" unicode="ffl"/><glyph d="M535 0h-385v717h-140v315h148q32 153 178.5 246.5t390.5 93.5h82v-274h-143q-85 0 -121 -13.5t-35 -52.5h299v-315h-274v-717zM1251 0h-360v1372h385v-606h20q52 287 390 287q226 0 349.5 -142t123.5 -395q0 -252 -128 -394t-362 -142q-181 0 -276.5 72.5t-120.5 226.5 h-21v-279zM1276 514q0 -107 58.5 -144.5t195.5 -37.5q133 0 186 40.5t53 143.5t-53 144.5t-186 41.5q-138 0 -196 -35t-58 -139v-14z" glyph-name="f_b" horiz-adv-x="2199" unicode="fb"/><glyph d="M535 0h-385v717h-140v315h148q32 153 178.5 246.5t390.5 93.5h82v-274h-143q-85 0 -121 -13.5t-35 -52.5h299v-315h-274v-717zM1364 0h-385v717h-139v315h147q32 153 178.5 246.5t390.5 93.5h82v-274h-143q-85 0 -121 -13.5t-35 -52.5h299v-315h-274v-717zM2081 0h-361 v1372h385v-606h21q52 287 389 287q226 0 349.5 -142t123.5 -395t-127.5 -394.5t-361.5 -141.5q-181 0 -277 72.5t-121 226.5h-20v-279zM2105 514q0 -107 58.5 -144.5t195.5 -37.5q134 0 187 40.5t53 143.5t-53.5 144.5t-186.5 41.5q-137 0 -195.5 -35t-58.5 -139v-14z" glyph-name="f_f_b" horiz-adv-x="3028" unicode="ffb"/><glyph d="M535 0h-385v717h-140v315h148q32 153 178.5 246.5t390.5 93.5h82v-274h-143q-85 0 -121 -13.5t-35 -52.5h299v-315h-274v-717zM1364 0h-385v717h-139v315h147q32 153 178.5 246.5t390.5 93.5h82v-274h-143q-85 0 -121 -13.5t-35 -52.5h299v-315h-274v-717zM2105 0h-385 v1372h385v-653h21q13 69 41.5 126.5t76.5 105.5t123 75t170 27q198 0 302 -112t104 -292v-649h-385v520q0 107 -49.5 148t-181.5 41q-131 0 -176.5 -37.5t-45.5 -139.5v-532z" glyph-name="f_f_h" horiz-adv-x="2996" unicode="ffh"/><glyph d="M535 0h-385v717h-140v315h148q32 153 178.5 246.5t390.5 93.5h82v-274h-143q-85 0 -121 -13.5t-35 -52.5h299v-315h-274v-717zM1364 0h-385v717h-139v315h147q32 153 178.5 246.5t390.5 93.5h82v-274h-143q-85 0 -121 -13.5t-35 -52.5h299v-315h-274v-717zM2105 1126 h-385v246h385v-246zM1642 -348h-36v282h39q39 0 57 17t18 57v1024h385v-966q0 -120 -30 -202t-92 -128t-143.5 -65t-197.5 -19z" glyph-name="f_f_j" horiz-adv-x="2166" unicode="ffj"/><glyph d="M535 0h-385v717h-140v315h148q32 153 178.5 246.5t390.5 93.5h82v-274h-143q-85 0 -121 -13.5t-35 -52.5h299v-315h-274v-717zM1364 0h-385v717h-139v315h147q32 153 178.5 246.5t390.5 93.5h82v-274h-143q-85 0 -121 -13.5t-35 -52.5h299v-315h-274v-717zM2105 0h-385 v1372h385v-698h183l227 358h455l-367 -502l360 -530h-454l-217 330h-187v-330z" glyph-name="f_f_k" horiz-adv-x="2949" unicode="ffk"/><glyph d="M535 0h-385v717h-140v315h148q32 153 178.5 246.5t390.5 93.5h82v-274h-143q-85 0 -121 -13.5t-35 -52.5h299v-315h-274v-717zM1276 0h-385v1372h385v-653h20q13 69 42 126.5t77 105.5t123 75t170 27q198 0 302 -112t104 -292v-649h-385v520q0 107 -50 148t-182 41 q-131 0 -176 -37.5t-45 -139.5v-532z" glyph-name="f_h" horiz-adv-x="2166" unicode="fh"/><glyph d="M535 0h-385v717h-140v315h148q32 153 178.5 246.5t390.5 93.5h82v-274h-143q-85 0 -121 -13.5t-35 -52.5h299v-315h-274v-717zM1276 1126h-385v246h385v-246zM813 -348h-37v282h39q39 0 57.5 17t18.5 57v1024h385v-966q0 -120 -30 -202t-92 -128t-143.5 -65t-197.5 -19z" glyph-name="f_j" horiz-adv-x="1337" unicode="fj"/><glyph d="M535 0h-385v717h-140v315h148q32 153 178.5 246.5t390.5 93.5h82v-274h-143q-85 0 -121 -13.5t-35 -52.5h299v-315h-274v-717zM1276 0h-385v1372h385v-698h182l228 358h454l-366 -502l360 -530h-455l-217 330h-186v-330z" glyph-name="f_k" horiz-adv-x="2119" unicode="fk"/><glyph d="M535 0h-385v717h-140v315h148q32 153 178.5 246.5t390.5 93.5h82v-274h-143q-85 0 -121 -13.5t-35 -52.5h381v178h385v-178h297v-315h-297v-268q0 -61 23.5 -82t89.5 -21h184v-346h-270q-198 0 -305 98t-107 295v324h-356v-717z" glyph-name="f_t" horiz-adv-x="1603" unicode="ft"/><glyph d="M774 -10q-293 0 -467 175t-174 460q0 284 174.5 460.5t466.5 176.5t466.5 -176.5t174.5 -460.5q0 -285 -174 -460t-467 -175zM774 162q121 0 199.5 20t134.5 72t80 142t24 229t-24 228.5t-80 141.5t-134.5 72t-199.5 20t-199.5 -20t-134.5 -72t-80 -141.5t-24 -228.5 t24 -229t80 -142t134.5 -72t199.5 -20zM618 670q-51 0 -81.5 26.5t-30.5 69.5t30.5 69.5t81.5 26.5q49 0 80 -26.5t31 -69.5t-31 -69.5t-80 -26.5zM932 670q-49 0 -80 26.5t-31 69.5t31 69.5t80 26.5q51 0 80.5 -26.5t29.5 -69.5t-29.5 -69.5t-80.5 -26.5zM774 324 q-109 0 -190 48t-150 126l64 59q70 -69 123 -87.5t153 -18.5q102 0 155.5 18.5t123.5 87.5l61 -59q-150 -174 -340 -174z" glyph-name=".notdef" horiz-adv-x="1548"/><glyph glyph-name=".null" horiz-adv-x="1228"/><glyph glyph-name="nonmarkingreturn" horiz-adv-x="682"/><glyph glyph-name="CR" horiz-adv-x="1228"/><glyph glyph-name="space" horiz-adv-x="286"/><glyph d="M557 451h-393q0 67 -26.5 382t-26.5 396v143h499v-143q0 -82 -26.5 -397t-26.5 -381zM580 0h-441v362h441v-362z" glyph-name="exclam" horiz-adv-x="720" unicode="!"/><glyph d="M893 717h-242l-78 323v332h400v-332zM362 717h-241l-80 323v332h399v-332z" glyph-name="quotedbl" horiz-adv-x="1013" unicode="&quot;"/><glyph d="M514 0h-375l99 244h-197v344h334l57 143h-272v344h409l119 297h375l-119 -297h225l119 297h375l-119 -297h219v-344h-356l-57 -143h292v-344h-430l-98 -244h-375l99 244h-226zM799 739l-64 -157h248l64 157h-248z" glyph-name="numbersign" horiz-adv-x="1804" unicode="#"/><glyph d="M922 -205h-359v193q-512 59 -512 489v12h385v-43q0 -49 19.5 -72t80.5 -33.5t191 -10.5q116 0 171 8t71 23.5t16 48.5q0 38 -28 56t-111 28l-430 57q-191 26 -288 126t-97 267q0 62 17 119t57.5 111.5t100.5 97t151.5 73t205.5 41.5v191h359v-205q209 -42 314 -165 t105 -312v-12h-385v30q0 52 -21.5 78.5t-86 39.5t-193.5 13q-141 0 -190 -19.5t-49 -66.5q0 -33 21.5 -49.5t76.5 -23.5l430 -64q426 -62 426 -397q0 -77 -25.5 -144.5t-78 -125.5t-140.5 -99.5t-204 -60.5v-199z" glyph-name="dollar" horiz-adv-x="1400" unicode="$"/><glyph d="M391 711q-172 0 -271.5 90.5t-99.5 251.5q0 162 99.5 253t271.5 91t271.5 -91t99.5 -253q0 -161 -99.5 -251.5t-271.5 -90.5zM446 0h-370l1165 1372h371zM391 956q61 0 82 19t21 78q0 60 -21 80t-82 20q-60 0 -81 -20t-21 -80q0 -59 20.5 -78t81.5 -19zM1294 -23 q-172 0 -271 90.5t-99 251.5q0 162 99.5 253.5t270.5 91.5t271 -91.5t100 -253.5q0 -161 -99.5 -251.5t-271.5 -90.5zM1294 223q61 0 82 18.5t21 77.5q0 60 -21.5 80.5t-81.5 20.5t-81 -20.5t-21 -80.5q0 -59 20.5 -77.5t81.5 -18.5z" glyph-name="percent" horiz-adv-x="1685" unicode="%"/><glyph d="M696 -20q-323 0 -489 98t-166 307q0 153 92.5 236t251.5 94v26q-136 12 -208.5 92t-72.5 199q0 369 570 369h215v-350h-271q-72 0 -100.5 -18.5t-28.5 -80.5q0 -59 27.5 -76.5t91.5 -17.5h357v174h378v-174h199v-315h-199v-35q0 -100 -19 -179t-64.5 -145.5 t-118.5 -110.5t-185 -68.5t-260 -24.5zM711 330q74 0 113 3t71.5 10.5t45 26t18.5 45t6 72.5v56h-408q-64 0 -94.5 -22t-30.5 -85q0 -43 22 -64.5t81 -31.5t176 -10z" glyph-name="ampersand" horiz-adv-x="1583" unicode="&amp;"/><glyph d="M362 717h-241l-80 323v332h399v-332z" glyph-name="quotesingle" horiz-adv-x="481" unicode="'"/><glyph d="M694 31l-194 -178q-72 63 -131 122t-122.5 142t-106.5 166t-71 188.5t-28 214.5t28 214.5t71 189t106.5 166t122.5 142t131 122.5l194 -179q-100 -138 -147.5 -234.5t-63.5 -186.5t-16 -234t16 -234t63.5 -186.5t147.5 -234.5z" glyph-name="parenleft" horiz-adv-x="714" unicode="("/><glyph d="M82 1341l194 179q72 -63 131 -122.5t122.5 -142t106.5 -166t71 -189t28 -214.5t-28 -214.5t-71 -188.5t-106.5 -166t-122.5 -142t-131 -122l-194 178q100 138 147.5 234.5t63.5 186.5t16 234t-16 234t-63.5 186.5t-147.5 234.5z" glyph-name="parenright" horiz-adv-x="804" unicode=")"/><glyph d="M408 807l-103 -164l-219 158l125 147l-6 21l-185 47l82 256l183 -78l16 14l-16 193h270l-16 -193l16 -14l184 76l80 -256l-188 -45l-8 -21l127 -147l-222 -160l-96 166h-24z" glyph-name="asterisk" horiz-adv-x="839" unicode="*"/><glyph d="M711 201h-328v327h-322v316h322v327h328v-327h321v-316h-321v-327z" glyph-name="plus" horiz-adv-x="1093" unicode="+"/><glyph d="M221 -340h-141v238h129q39 0 55.5 15.5t16.5 57.5v29h-220v393h500v-420q0 -156 -88 -234.5t-252 -78.5z" glyph-name="comma" horiz-adv-x="622" unicode=","/><glyph d="M924 444h-863v328h863v-328z" glyph-name="hyphen" horiz-adv-x="985" unicode="-"/><glyph d="M561 0h-500v393h500v-393z" glyph-name="period" horiz-adv-x="622" unicode="."/><glyph d="M371 -41h-412l737 1454h412z" glyph-name="slash" horiz-adv-x="1052" unicode="/"/><glyph d="M752 -20q-229 0 -390.5 89t-241 246.5t-79.5 370.5q0 323 184.5 515t526.5 192q228 0 389 -90t240 -247.5t79 -369.5q0 -324 -183.5 -515t-524.5 -191zM752 354q173 0 234 70t61 262t-61 262t-234 70q-175 0 -236 -69.5t-61 -262.5t61 -262.5t236 -69.5z" glyph-name="zero" horiz-adv-x="1501" unicode="0"/><glyph d="M772 0h-385v942h-367v260h52q124 0 206.5 36t135.5 134h358v-1372z" glyph-name="one" horiz-adv-x="833" unicode="1"/><glyph d="M1307 0h-1280v242q0 175 91 276.5t312 171.5l373 119q68 22 95.5 47.5t27.5 71.5q0 39 -14.5 61.5t-68 37.5t-153.5 15q-113 0 -174.5 -20.5t-83.5 -58t-22 -103.5v-26h-377v30q0 85 23 161t75 144t128.5 117.5t190.5 78t255 28.5q159 0 277 -33.5t189.5 -97t105.5 -148 t34 -192.5q0 -183 -109.5 -287.5t-308.5 -153.5l-307 -75q-33 -9 -43.5 -11.5t-35.5 -10.5t-33 -14t-21 -16.5t-17 -24t-4 -30.5l385 47h490v-346z" glyph-name="two" horiz-adv-x="1351" unicode="2"/><glyph d="M721 -20q-680 0 -680 499v33h410v-37q0 -30 1.5 -45t9.5 -32.5t23 -24.5t44 -14t69.5 -9t103.5 -2q175 0 235 21t60 84q0 50 -30 70t-99 20h-407v315h379q55 0 77.5 19t22.5 59q0 35 -18 52.5t-69.5 26.5t-154.5 9q-108 0 -159 -11t-69.5 -36.5t-18.5 -79.5v-6h-410v2 q0 235 176 367.5t518 132.5q288 0 438 -92.5t150 -276.5q0 -121 -71.5 -194.5t-207.5 -88.5v-26q162 -18 253.5 -98t91.5 -230q0 -200 -174 -303.5t-494 -103.5z" glyph-name="three" horiz-adv-x="1409" unicode="3"/><glyph d="M1272 0h-385v248h-867v260l805 864h447v-778h184v-346h-184v-248zM557 594h330v338h-27l-303 -311v-27z" glyph-name="four" horiz-adv-x="1476" unicode="4"/><glyph d="M748 -20q-347 0 -517 109.5t-170 348.5v13h398v-13q0 -43 21.5 -64.5t85 -32.5t188.5 -11q111 0 167 15.5t74.5 46.5t18.5 91q0 63 -18.5 94.5t-74.5 47.5t-167 16q-143 0 -209.5 -17.5t-85.5 -68.5h-391l82 817h1191v-346h-849l-37 -281h20q13 33 44 65.5t83 63 t134.5 49.5t183.5 19q503 0 503 -455q0 -239 -164.5 -373t-510.5 -134z" glyph-name="five" horiz-adv-x="1484" unicode="5"/><glyph d="M778 -20q-392 0 -566.5 168t-174.5 528q0 186 53 326t149 224.5t221 125.5t279 41q302 0 477 -128.5t175 -342.5v-19h-430v19q0 66 -47 84t-175 18q-84 0 -132.5 -8.5t-87 -36.5t-53.5 -81.5t-15 -143.5v-74h26q51 75 155.5 121.5t266.5 46.5q260 0 392 -100t132 -312 q0 -213 -165.5 -334.5t-479.5 -121.5zM756 350q108 0 165.5 13t77 36t19.5 66q0 48 -20 72.5t-76 36.5t-166 12q-123 0 -183.5 -12.5t-80 -36.5t-19.5 -72q0 -43 20.5 -66t82.5 -36t180 -13z" glyph-name="six" horiz-adv-x="1470" unicode="6"/><glyph d="M688 0h-446q0 123 22.5 234.5t55.5 195t88 163t103 132t117.5 109t115 88t111.5 74.5q3 2 5 3v27h-840v346h1231v-309q-73 -71 -117.5 -116t-102 -106.5t-91.5 -105t-75 -101.5t-64.5 -107t-48 -111.5t-36.5 -124.5t-20 -135.5t-8 -155.5z" glyph-name="seven" horiz-adv-x="1251" unicode="7"/><glyph d="M713 -20q-158 0 -281.5 23.5t-214 71t-138.5 124.5t-48 180q0 273 317 336v26q-272 52 -272 289q0 172 163 267.5t472 95.5q312 0 475.5 -95t163.5 -268q0 -238 -277 -289v-26q70 -12 124 -34.5t99.5 -60.5t70 -99t24.5 -142q0 -103 -48 -180t-138.5 -124.5t-213 -71 t-278.5 -23.5zM711 834q105 0 161 10.5t75.5 29.5t19.5 54q0 39 -20 58.5t-74 28.5t-162 9q-104 0 -157 -9t-73 -28.5t-20 -58.5q0 -52 51 -73t199 -21zM711 348q117 0 180 12t85.5 36t22.5 67q0 44 -22 66.5t-83 33t-183 10.5t-183.5 -10.5t-83.5 -33t-22 -66.5 q0 -43 23 -67t86 -36t180 -12z" glyph-name="eight" horiz-adv-x="1421" unicode="8"/><glyph d="M735 -20q-302 0 -476.5 128.5t-174.5 342.5v18h430v-18q0 -66 46.5 -84.5t174.5 -18.5q80 0 126.5 8.5t83 36.5t51 81.5t14.5 143.5v74h-27q-51 -75 -155.5 -121.5t-266.5 -46.5q-260 0 -392 100t-132 312q0 214 165.5 335.5t479.5 121.5q392 0 566.5 -168.5 t174.5 -528.5q0 -186 -52 -326t-146 -224t-216.5 -125t-273.5 -41zM705 786q123 0 183.5 12.5t79.5 36.5t19 72q0 43 -20 66t-82 36t-180 13q-108 0 -166 -12.5t-77.5 -36t-19.5 -66.5q0 -47 20 -72t76.5 -37t166.5 -12z" glyph-name="nine" horiz-adv-x="1470" unicode="9"/><glyph d="M561 641h-500v393h500v-393zM561 0h-500v393h500v-393z" glyph-name="colon" horiz-adv-x="622" unicode=":"/><glyph d="M561 641h-500v393h500v-393zM221 -340h-141v238h129q39 0 55.5 15.5t16.5 57.5v29h-220v393h500v-420q0 -156 -88 -234.5t-252 -78.5z" glyph-name="semicolon" horiz-adv-x="622" unicode=";"/><glyph d="M53 918l971 253v-354l-625 -119v-24l625 -119v-354l-971 254v463z" glyph-name="less" horiz-adv-x="1093" unicode="&lt;"/><glyph d="M1034 764h-973v315h973v-315zM1032 289h-971v315h971v-315z" glyph-name="equal" horiz-adv-x="1093" unicode="="/><glyph d="M1032 455l-971 -254v354l625 119v24l-625 119v354l971 -253v-463z" glyph-name="greater" horiz-adv-x="1093" unicode="&gt;"/><glyph d="M780 457h-385v75q0 62 21 110.5t61 82t80 55t96 41.5l144 53q64 23 88 42t24 51q0 19 -7 30.5t-29 22.5t-71 16.5t-126 5.5q-108 0 -169 -16t-84.5 -45.5t-23.5 -79.5v-98h-379v61q0 86 23 162.5t75 144.5t130 116.5t195 77t262 28.5q155 0 271 -31.5t184 -89t101 -130 t33 -161.5q0 -65 -17 -119t-43 -89.5t-65 -65.5t-73.5 -47.5t-79.5 -34.5l-154 -58q-51 -20 -66.5 -42t-15.5 -58v-10zM809 0h-440v362h440v-362z" glyph-name="question" horiz-adv-x="1335" unicode="?"/><glyph d="M786 84q-65 0 -119.5 22.5t-99 69.5t-69.5 130t-25 196q0 207 89 311.5t231 104.5q98 0 159 -51.5t70 -139.5h20v174h336v-471q0 -33 14.5 -48t45.5 -15q37 0 54 15.5t24.5 59.5t7.5 138q0 133 -28 219t-95.5 139t-170.5 74.5t-263 21.5q-118 0 -203.5 -10.5 t-152.5 -36.5t-109.5 -65.5t-70 -101.5t-39 -140t-11.5 -186q0 -203 46 -312t151 -154.5t299 -45.5q169 0 313 38l59 -253q-106 -36 -199 -54t-216 -18q-374 0 -583.5 209.5t-209.5 589.5q0 193 66 352t187.5 270.5t299.5 172.5t395 61q408 0 632 -200.5t224 -537.5 q0 -248 -118.5 -388t-317.5 -140q-147 0 -242.5 50.5t-128.5 137.5h-22q-14 -78 -70 -133t-160 -55zM827 502q0 -91 21 -125.5t78 -34.5t76.5 26t19.5 95v78q0 67 -19.5 92.5t-76.5 25.5t-78 -33t-21 -124z" glyph-name="at" horiz-adv-x="1886" unicode="@"/><glyph d="M412 0h-432l591 1372h551l594 -1372h-442l-105 254h-651zM743 793l-79 -193h364l-80 193l-90 231h-27z" glyph-name="A" horiz-adv-x="1695" unicode="A"/><glyph d="M981 0h-920v1372h873q221 0 332.5 -84.5t111.5 -247.5q0 -297 -342 -311v-20q201 -7 303.5 -94t102.5 -234q0 -181 -112 -281t-349 -100zM444 1026v-174h449q58 0 79 19t21 67q0 47 -25 67.5t-85 20.5h-439zM444 537v-191h488q70 0 95.5 19.5t25.5 76.5t-25 76t-96 19 h-488z" glyph-name="B" horiz-adv-x="1462" unicode="B"/><glyph d="M799 -20q-355 0 -556.5 191t-201.5 515t201.5 515.5t556.5 191.5q346 0 541.5 -155.5t195.5 -430.5v-35h-430v35q0 119 -66.5 168t-234.5 49q-108 0 -173.5 -14t-107.5 -53.5t-57.5 -102.5t-15.5 -168t15.5 -168t57.5 -102.5t107.5 -53.5t173.5 -14q168 0 234.5 49 t66.5 168v35h430v-35q0 -275 -195.5 -430t-541.5 -155z" glyph-name="C" horiz-adv-x="1576" unicode="C"/><glyph d="M778 0h-694v1372h694q343 0 541.5 -181.5t198.5 -504.5t-198.5 -504.5t-541.5 -181.5zM778 1026h-309v-680h309q67 0 109.5 3.5t83.5 16t63.5 34.5t40.5 60.5t24.5 93t6.5 132.5t-6.5 132.5t-24.5 93t-40.5 60.5t-63.5 34.5t-83.5 16t-109.5 3.5z" glyph-name="D" horiz-adv-x="1558" unicode="D"/><glyph d="M1280 0h-1219v1372h1219v-346h-834v-164h803v-344h-803v-172h834v-346z" glyph-name="E" horiz-adv-x="1327" unicode="E"/><glyph d="M446 0h-385v1372h1227v-346h-842v-205h811v-344h-811v-477z" glyph-name="F" horiz-adv-x="1327" unicode="F"/><glyph d="M725 -20q-321 0 -502.5 191t-181.5 515t211.5 515.5t583.5 191.5q348 0 544.5 -145t196.5 -400v-14h-430v14q0 97 -70.5 136.5t-251.5 39.5q-92 0 -153 -9.5t-106 -31t-69 -61.5t-35 -96t-11 -140q0 -105 15.5 -168t57.5 -102.5t107.5 -53.5t173.5 -14q221 0 296.5 21.5 t88.5 97.5h-422v283h811v-750h-358v293h-21q-72 -313 -475 -313z" glyph-name="G" horiz-adv-x="1632" unicode="G"/><glyph d="M446 0h-385v1372h385v-510h639v510h385v-1372h-385v516h-639v-516z" glyph-name="H" horiz-adv-x="1531" unicode="H"/><glyph d="M446 0h-385v1372h385v-1372z" glyph-name="I" unicode="I"/><glyph d="M662 -20q-343 0 -492.5 150.5t-149.5 457.5v53h410v-49q0 -54 1.5 -83.5t9.5 -61t22 -46t40.5 -28t64.5 -17.5t94 -4t93.5 4t64.5 15.5t41.5 25.5t23 42t10.5 56t2 76v801h410v-805q0 -147 -35 -254t-111 -182.5t-200 -113t-299 -37.5z" glyph-name="J" horiz-adv-x="1359" unicode="J"/><glyph d="M446 0h-385v1372h385v-510h277l334 510h461l-476 -674l465 -698h-460l-320 487h-281v-487z" glyph-name="K" horiz-adv-x="1497" unicode="K"/><glyph d="M1239 0h-1178v1372h385v-1026h793v-346z" glyph-name="L" horiz-adv-x="1280" unicode="L"/><glyph d="M446 0h-385v1372h523l252 -569l135 -354h26l129 354l240 569h522v-1372h-385v567l15 230h-27l-78 -230l-205 -485h-467l-204 485l-78 230h-27l14 -230v-567z" glyph-name="M" horiz-adv-x="1949" unicode="M"/><glyph d="M446 0h-385v1372h410l381 -514l201 -315h26l-18 299v530h385v-1372h-410l-405 528l-174 271h-27l16 -262v-537z" glyph-name="N" horiz-adv-x="1507" unicode="N"/><glyph d="M801 -20q-355 0 -557.5 191t-202.5 515t202.5 515.5t557.5 191.5q362 0 565 -191t203 -516t-202.5 -515.5t-565.5 -190.5zM801 348q109 0 174.5 14t108.5 53.5t59 103t16 167.5t-16 167.5t-59 103t-108.5 53.5t-174.5 14q-108 0 -173 -14t-106 -53.5t-56 -102.5t-15 -168 t15 -168t56 -102.5t106 -53.5t173 -14z" glyph-name="O" horiz-adv-x="1609" unicode="O"/><glyph d="M446 0h-385v1372h760q247 0 389 -135t142 -377q0 -243 -142.5 -378.5t-388.5 -135.5h-375v-346zM778 1026h-332v-334h332q107 0 149 33.5t42 134.5q0 100 -42 133t-149 33z" glyph-name="P" horiz-adv-x="1372" unicode="P"/><glyph d="M1438 -289h-506l-223 273q-314 25 -491 213t-177 489q0 324 202.5 515.5t557.5 191.5q362 0 565 -191t203 -516q0 -239 -111 -407.5t-319 -243.5zM801 348q109 0 174.5 14t108.5 53.5t59 103t16 167.5t-16 167.5t-59 103t-108.5 53.5t-174.5 14q-108 0 -173 -14 t-106 -53.5t-56 -102.5t-15 -168t15 -168t56 -102.5t106 -53.5t173 -14z" glyph-name="Q" horiz-adv-x="1609" unicode="Q"/><glyph d="M446 0h-385v1372h801q270 0 411.5 -109t141.5 -311q0 -166 -89 -260.5t-282 -118.5v-20q68 -18 114 -49.5t70.5 -66t53.5 -93.5l170 -344h-444l-164 336q-26 54 -52 80.5t-69 38.5t-119 12h-158v-467zM446 1026v-272h412q89 0 121.5 26.5t32.5 110.5q0 80 -33.5 107.5 t-120.5 27.5h-412z" glyph-name="R" horiz-adv-x="1452" unicode="R"/><glyph d="M727 -20q-325 0 -500.5 121.5t-175.5 375.5v12h385v-43q0 -49 19.5 -72t80.5 -33.5t191 -10.5q116 0 171 8t71 23.5t16 48.5q0 38 -28 56t-111 28l-430 57q-191 26 -288 126t-97 267q0 68 21 131t71 121.5t124.5 101.5t189.5 69t259 26q320 0 482.5 -131t162.5 -367v-12 h-385v30q0 52 -21.5 78.5t-86 39.5t-193.5 13q-141 0 -190 -19.5t-49 -66.5q0 -33 21.5 -49.5t76.5 -23.5l430 -64q426 -62 426 -397q0 -73 -22 -137t-71.5 -121t-123 -98t-182.5 -64.5t-244 -23.5z" glyph-name="S" horiz-adv-x="1400" unicode="S"/><glyph d="M901 0h-385v1026h-485v346h1353v-346h-483v-1026z" glyph-name="T" horiz-adv-x="1415" unicode="T"/><glyph d="M754 -20q-350 0 -525.5 156.5t-175.5 438.5v797h385v-766q0 -102 25 -154t92.5 -76t198.5 -24q99 0 159 11.5t95.5 43t48 77t12.5 122.5v766h385v-797q0 -282 -175 -438.5t-525 -156.5z" glyph-name="U" horiz-adv-x="1507" unicode="U"/><glyph d="M1083 0h-553l-550 1372h464l355 -983h26l346 983h463z" glyph-name="V" horiz-adv-x="1613" unicode="V"/><glyph d="M877 0h-572l-287 1372h431l114 -698l37 -309h27l55 309l184 698h580l168 -698l49 -309h27l41 309l129 698h421l-313 -1372h-571l-144 588l-90 430h-26l-97 -430z" glyph-name="W" horiz-adv-x="2299" unicode="W"/><glyph d="M483 0h-503l518 674v26l-518 672h503l332 -444h27l313 444h504l-516 -680v-26l516 -666h-504l-330 446h-26z" glyph-name="X" horiz-adv-x="1638" unicode="X"/><glyph d="M971 0h-385v436l-617 936h477l207 -325l117 -193h27l116 193l207 325h479l-628 -938v-434z" glyph-name="Y" horiz-adv-x="1568" unicode="Y"/><glyph d="M1376 0h-1325v346l731 653v27h-719v346h1301v-346l-764 -653v-27h776v-346z" glyph-name="Z" horiz-adv-x="1427" unicode="Z"/><glyph d="M649 -123h-588v1618h588v-315h-231v-987h231v-316z" glyph-name="bracketleft" horiz-adv-x="669" unicode="["/><glyph d="M1108 -41h-412l-737 1454h412z" glyph-name="backslash" horiz-adv-x="1067" unicode="\"/><glyph d="M31 193h231v987h-231v315h587v-1618h-587v316z" glyph-name="bracketright" horiz-adv-x="720" unicode="]"/><glyph d="M420 573h-359l252 799h455l250 -799h-359l-106 451h-27z" glyph-name="asciicircum" horiz-adv-x="1079" unicode="^"/><glyph d="M758 -272h-738v272h738v-272z" glyph-name="underscore" horiz-adv-x="778" unicode="_"/><glyph d="M395 -20q-174 0 -269 74.5t-95 207.5q0 113 82.5 184.5t251.5 88.5l419 40v21q0 75 -37.5 98t-144.5 23q-96 0 -131 -23.5t-35 -87.5v-8h-385v4q0 205 158.5 328t421.5 123q265 0 399.5 -122t134.5 -343v-588h-360v217h-21q-30 -112 -128 -174.5t-261 -62.5zM418 287 q0 -23 22 -31t70 -8q144 0 204.5 23.5t67.5 90.5l-315 -36q-49 -6 -49 -39z" glyph-name="a" horiz-adv-x="1218" unicode="a"/><glyph d="M422 0h-361v1372h385v-606h21q52 287 389 287q226 0 349.5 -142t123.5 -395t-127.5 -394.5t-361.5 -141.5q-181 0 -277 72.5t-121 226.5h-20v-279zM446 514q0 -107 58.5 -144.5t195.5 -37.5q134 0 187 40.5t53 143.5t-53.5 144.5t-186.5 41.5q-138 0 -196 -35t-58 -139 v-14z" glyph-name="b" horiz-adv-x="1370" unicode="b"/><glyph d="M641 -20q-276 0 -438 143.5t-162 392.5q0 251 161.5 394t438.5 143q263 0 420.5 -125t157.5 -332v-33h-383v17q0 75 -50 102t-153 27q-113 0 -161 -38.5t-48 -154.5q0 -114 48 -152t161 -38q103 0 153 26.5t50 100.5v18h383v-35q0 -206 -157.5 -331t-420.5 -125z" glyph-name="c" horiz-adv-x="1259" unicode="c"/><glyph d="M530 -20q-234 0 -361.5 141.5t-127.5 394.5t123.5 395t349.5 142q337 0 389 -287h21v606h385v-1372h-361v279h-20q-25 -154 -121 -226.5t-277 -72.5zM430 516q0 -103 53 -143.5t187 -40.5q137 0 195.5 37.5t58.5 144.5v14q0 104 -58.5 139t-195.5 35q-133 0 -186.5 -41.5 t-53.5 -144.5z" glyph-name="d" horiz-adv-x="1370" unicode="d"/><glyph d="M637 -20q-135 0 -241.5 30t-187 92.5t-124 167t-43.5 246.5q0 248 163 392.5t425 144.5q271 0 427 -132.5t156 -377.5q0 -43 -6 -99h-809q4 -93 52.5 -126t173.5 -33q113 0 154.5 20t41.5 68v22h385v-24q0 -174 -154.5 -282.5t-412.5 -108.5zM621 758 q-107 0 -156.5 -26.5t-61.5 -92.5h437q-10 65 -60.5 92t-158.5 27z" glyph-name="e" horiz-adv-x="1253" unicode="e"/><glyph d="M535 0h-385v717h-140v315h148q32 153 178.5 246.5t390.5 93.5h82v-274h-143q-85 0 -121 -13.5t-35 -52.5h299v-315h-274v-717z" glyph-name="f" horiz-adv-x="829" unicode="f"/><glyph d="M520 115q-229 0 -354 124t-125 347q0 218 130 342.5t359 124.5q160 0 258 -65.5t119 -196.5h21v241h360v-858q0 -273 -157 -408t-459 -135q-271 0 -420.5 110t-149.5 312h385q0 -47 11 -66t55 -28.5t145 -9.5q67 0 103 6t61 28t33 59.5t8 104.5v218h-20 q-21 -118 -110 -184t-253 -66zM430 586q0 -78 48.5 -110t180.5 -32q136 0 190 25.5t54 103.5v15q0 80 -54 106.5t-190 26.5q-133 0 -181 -29.5t-48 -105.5z" glyph-name="g" horiz-adv-x="1349" unicode="g"/><glyph d="M446 0h-385v1372h385v-653h21q13 69 42 126.5t77 105.5t123 75t170 27q198 0 301.5 -112t103.5 -292v-649h-385v520q0 107 -49.5 148t-181.5 41q-131 0 -176.5 -37.5t-45.5 -139.5v-532z" glyph-name="h" horiz-adv-x="1337" unicode="h"/><glyph d="M446 1126h-385v246h385v-246zM446 0h-385v1032h385v-1032z" glyph-name="i" unicode="i"/><glyph d="M446 1126h-385v246h385v-246zM-16 -348h-37v282h39q39 0 57 17t18 57v1024h385v-966q0 -120 -30 -202t-91.5 -128t-143 -65t-197.5 -19z" glyph-name="j" unicode="j"/><glyph d="M446 0h-385v1372h385v-698h183l227 358h455l-367 -502l361 -530h-455l-217 330h-187v-330z" glyph-name="k" horiz-adv-x="1290" unicode="k"/><glyph d="M446 0h-385v1372h385v-1372z" glyph-name="l" unicode="l"/><glyph d="M446 0h-385v1032h361v-313h20q9 69 32.5 125.5t66 105t113.5 76t165 27.5q174 0 269.5 -92.5t111.5 -241.5h21q9 69 33.5 125.5t68.5 105t117 76t170 27.5q191 0 290 -108t99 -283v-662h-385v520q0 109 -41.5 149t-159.5 40q-115 0 -152.5 -37t-37.5 -140v-532h-385v520 q0 109 -41.5 149t-159.5 40q-116 0 -153.5 -37t-37.5 -140v-532z" glyph-name="m" horiz-adv-x="2052" unicode="m"/><glyph d="M446 0h-385v1032h361v-313h20q9 68 36 125.5t74.5 105.5t124.5 75.5t177 27.5q201 0 305.5 -108t104.5 -283v-662h-385v520q0 107 -48 148t-174 41q-125 0 -168 -37.5t-43 -139.5v-532z" glyph-name="n" horiz-adv-x="1316" unicode="n"/><glyph d="M633 -20q-272 0 -437 144t-165 392q0 249 165 393t437 144t437 -144t165 -393q0 -248 -165 -392t-437 -144zM633 319q129 0 175 41.5t46 155.5t-46 156.5t-175 42.5t-175 -42.5t-46 -156.5t46 -155.5t175 -41.5z" glyph-name="o" horiz-adv-x="1265" unicode="o"/><glyph d="M446 -348h-385v1380h361v-278h20q25 154 121 226.5t277 72.5q234 0 361.5 -142t127.5 -395t-123.5 -394.5t-349.5 -141.5q-337 0 -389 286h-21v-614zM446 504q0 -104 58 -139t196 -35q133 0 186.5 41.5t53.5 144.5t-53 143.5t-187 40.5q-137 0 -195.5 -37.5t-58.5 -144.5 v-14z" glyph-name="p" horiz-adv-x="1370" unicode="p"/><glyph d="M514 -20q-226 0 -349.5 141.5t-123.5 394.5t127.5 395t361.5 142q181 0 277 -72.5t121 -226.5h20v278h361v-1380h-385v614h-21q-52 -286 -389 -286zM430 516q0 -103 53.5 -144.5t186.5 -41.5q137 0 195.5 35t58.5 139v14q0 107 -58.5 144.5t-195.5 37.5 q-134 0 -187 -40.5t-53 -143.5z" glyph-name="q" horiz-adv-x="1370" unicode="q"/><glyph d="M446 0h-385v1032h361v-270h20q23 134 107.5 212.5t232.5 78.5q163 0 240.5 -96t77.5 -261v-204h-385v120q0 65 -29 91t-104 26q-77 0 -106.5 -25.5t-29.5 -87.5v-616z" glyph-name="r" horiz-adv-x="1120" unicode="r"/><glyph d="M616 -20q-271 0 -415 99t-144 279v9h385v-21q0 -41 33.5 -52t142.5 -11q95 0 124.5 10.5t29.5 38.5q0 25 -20.5 34.5t-92.5 16.5l-299 33q-161 17 -244 92t-83 205q0 71 29.5 130.5t90.5 107.5t166.5 75t245.5 27q270 0 409.5 -96.5t139.5 -286.5v-8h-385v12 q0 29 -11 44.5t-50 24.5t-115 9q-89 0 -115 -12t-26 -44q0 -16 9 -25t39 -16.5t89 -13.5l205 -23q219 -24 308 -97.5t89 -209.5q0 -148 -142 -239.5t-393 -91.5z" glyph-name="s" horiz-adv-x="1181" unicode="s"/><glyph d="M834 0h-271q-198 0 -304.5 98t-106.5 295v324h-152v315h152v178h385v-178h297v-315h-297v-268q0 -61 23 -82t89 -21h185v-346z" glyph-name="t" horiz-adv-x="864" unicode="t"/><glyph d="M485 -20q-209 0 -316.5 108t-107.5 283v661h385v-520q0 -107 50 -147.5t182 -40.5q131 0 176 37t45 139v532h385v-1032h-360v313h-21q-9 -68 -36 -125t-75.5 -105t-127 -75.5t-179.5 -27.5z" glyph-name="u" horiz-adv-x="1337" unicode="u"/><glyph d="M924 0h-475l-459 1032h430l258 -657h27l260 657h421z" glyph-name="v" horiz-adv-x="1376" unicode="v"/><glyph d="M731 0h-481l-260 1032h399l74 -373l39 -368h26l86 409l103 332h495l103 -332l86 -409h26l41 368l72 373h393l-272 -1032h-481l-133 414l-76 309h-27l-78 -309z" glyph-name="w" horiz-adv-x="1923" unicode="w"/><glyph d="M444 0h-464l385 500v20l-385 512h471l211 -311h20l203 311h465l-385 -506v-20l385 -506h-471l-211 303h-21z" glyph-name="x" horiz-adv-x="1329" unicode="x"/><glyph d="M289 -348h-187v348h299q48 0 72 12l-493 1020h438l178 -405l74 -238h26l68 242l154 401h430l-490 -1073q-42 -91 -93 -150.5t-121.5 -94.5t-153.5 -48.5t-201 -13.5z" glyph-name="y" horiz-adv-x="1327" unicode="y"/><glyph d="M1153 0h-1122v328l372 250l215 108v27l-215 -17h-342v336h1061v-327l-405 -261l-201 -102v-27l201 21h436v-336z" glyph-name="z" horiz-adv-x="1183" unicode="z"/><glyph d="M735 -123h-61q-221 0 -335 107t-114 290v123q0 60 -28 84.5t-99 24.5h-57v360h57q71 0 99 24.5t28 84.5v123q0 183 114 290t335 107h61v-375h-71q-44 0 -64 -19.5t-20 -60.5v-96q0 -246 -261 -246v-24q261 0 261 -246v-96q0 -41 20 -60.5t64 -19.5h71v-375z" glyph-name="braceleft" horiz-adv-x="776" unicode="{"/><glyph d="M416 -205h-355v1782h355v-1782z" glyph-name="bar" horiz-adv-x="477" unicode="|"/><glyph d="M51 1495h62q221 0 334.5 -107t113.5 -290v-123q0 -60 28 -84.5t99 -24.5h57v-360h-57q-71 0 -99 -24.5t-28 -84.5v-123q0 -183 -113.5 -290t-334.5 -107h-62v375h72q44 0 64 19.5t20 60.5v96q0 246 260 246v24q-260 0 -260 246v96q0 41 -20 60.5t-64 19.5h-72v375z" glyph-name="braceright" horiz-adv-x="786" unicode="}"/><glyph d="M383 485h-322v95q0 30 2 55t8.5 57.5t17.5 58t32 51t49 42.5t70 28t94 11q63 0 153 -23l175 -43q88 -20 114 -20q20 0 27.5 9t7.5 36v18h319v-110q0 -63 -11.5 -110.5t-38.5 -86.5t-75.5 -59.5t-117.5 -20.5q-73 0 -225 35l-168 39q-46 12 -66 12q-29 0 -37 -14.5 t-8 -42.5v-17z" glyph-name="asciitilde" horiz-adv-x="1191" unicode="~"/><glyph glyph-name="nbspace" horiz-adv-x="286"/><glyph d="M92 1024h440v-362h-440v362zM115 573h393q0 -67 26.5 -382t26.5 -396v-143h-500v143q0 82 27 397t27 381z" glyph-name="exclamdown" horiz-adv-x="622" unicode="¡"/><glyph d="M829 -205h-358v201q-201 40 -315.5 176.5t-114.5 343.5q0 209 114 344.5t316 175.5v193h358v-195q183 -42 286.5 -157t103.5 -281v-33h-383v17q0 75 -50 102t-153 27q-113 0 -161 -38.5t-48 -154.5q0 -114 48 -152t161 -38q103 0 153 26.5t50 100.5v18h383v-35 q0 -165 -104 -280.5t-286 -155.5v-205z" glyph-name="cent" horiz-adv-x="1259" unicode="¢"/><glyph d="M975 467h-330q-23 -77 -106 -100v-21h876v-346h-1354v346h134q133 0 133 84q0 13 -4 37h-263v315h136q-37 101 -37 191q0 189 163 304.5t463 115.5q166 0 287.5 -38.5t190 -107.5t100 -154t31.5 -190v-33h-379v37q0 44 -8 68.5t-34.5 40.5t-70.5 21t-121 5 q-139 0 -188 -25.5t-49 -94.5q0 -56 35 -140h395v-315z" glyph-name="sterling" horiz-adv-x="1456" unicode="£"/><glyph d="M1018 0h-383v221h-580v316h514l-65 96h-449v315h236l-285 424h504l143 -256l164 -338h27l162 338l145 256h496l-285 -424h235v-315h-448l-66 -96h514v-316h-579v-221z" glyph-name="yen" horiz-adv-x="1652" unicode="¥"/><glyph d="M457 768h-355v809h355v-809zM457 -205h-355v809h355v-809z" glyph-name="brokenbar" horiz-adv-x="559" unicode="¦"/><glyph d="M627 -20q-253 0 -401 103.5t-148 278.5v9h385v-21q0 -32 11.5 -47t49 -23t115.5 -8q87 0 114 13t27 41q0 25 -20 34.5t-90 18.5l-365 49q-139 19 -201.5 66t-62.5 131q0 74 54.5 122t148.5 54v20q-37 8 -70 25t-64.5 44.5t-50 72t-18.5 100.5q0 146 137.5 243t394.5 97 q253 0 401 -104t148 -279v-8h-385v20q0 32 -11.5 47t-49 23t-115.5 8q-87 0 -114 -12.5t-27 -40.5q0 -25 20 -34.5t90 -18.5l418 -54q211 -25 211 -184q0 -77 -54.5 -127.5t-148.5 -56.5v-21q37 -8 70 -25t64.5 -44.5t50 -72t18.5 -100.5q0 -145 -137.5 -242t-394.5 -97z M467 666l260 -33q53 -8 53 35q0 18 -11.5 27t-39.5 12l-256 32q-53 6 -53 -32q0 -20 11 -29t36 -12z" glyph-name="section" horiz-adv-x="1200" unicode="§"/><glyph d="M795 -18q-347 0 -550.5 188.5t-203.5 515.5q0 326 203.5 515.5t550.5 189.5t550 -189.5t203 -515.5q0 -327 -203 -515.5t-550 -188.5zM795 248q104 0 176 12t128 40t88 79t48 125.5t16 181.5t-16 181.5t-48 125.5t-88 79t-128 40t-176 12q-131 0 -213.5 -18.5t-139.5 -68 t-80.5 -133.5t-23.5 -218t23.5 -218t80.5 -133.5t139.5 -68t213.5 -18.5zM801 315q-191 0 -296.5 100t-105.5 271q0 172 105.5 271.5t296.5 99.5q175 0 282 -88.5t107 -239.5v-16h-272v12q0 44 -26.5 64t-90.5 20q-77 0 -103 -25.5t-26 -97.5t26 -97.5t103 -25.5q63 0 90 21 t27 63v12h272v-16q0 -151 -107 -239.5t-282 -88.5z" glyph-name="copyright" horiz-adv-x="1589" unicode="©"/><glyph d="M166 1073q-59 0 -92 21.5t-33 62.5q0 73 119 84l137 14q-1 22 -13.5 29.5t-43.5 7.5q-34 0 -47 -6t-13 -26v-3h-127v5q0 60 51.5 95.5t143.5 35.5q178 0 178 -154v-160h-121v64h-6q-17 -70 -133 -70zM168 1165q0 -14 39 -14q94 0 94 43l-111 -14q-22 -3 -22 -15z" glyph-name="ordfeminine" horiz-adv-x="466" unicode="ª"/><glyph d="M553 840l410 266v-393l-154 -74v-29l154 -73v-394l-410 267v430zM61 840l410 266v-393l-154 -74v-29l154 -73v-394l-410 267v430z" glyph-name="guillemotleft" horiz-adv-x="1024" unicode="«"/><glyph d="M924 444h-863v328h863v-328z" glyph-name="softhyphen" horiz-adv-x="1228" unicode="­"/><glyph d="M436 666q-175 0 -285 100t-110 272t110 272.5t285 100.5t285 -100.5t110 -272.5t-110 -272t-285 -100zM436 815q138 0 186 48.5t48 174.5t-48 175t-186 49t-185.5 -48.5t-47.5 -175.5q0 -126 47.5 -174.5t185.5 -48.5zM395 899h-119v287h197q61 0 94 -23.5t33 -68.5 q0 -40 -23.5 -62t-60.5 -22v-4q30 -10 53 -45l41 -62h-131l-39 64q-11 16 -37 16h-8v-80zM395 1087v-32h72q18 0 18 16t-18 16h-72z" glyph-name="registered" horiz-adv-x="872" unicode="®"/><glyph d="M244 1004q-104 0 -164 51.5t-60 142.5t60 143t164 52t163.5 -52t59.5 -143t-59.5 -142.5t-163.5 -51.5zM244 1145q38 0 52.5 11t14.5 42t-14.5 42t-52.5 11q-39 0 -53.5 -11.5t-14.5 -41.5t14.5 -41.5t53.5 -11.5z" glyph-name="degree" horiz-adv-x="487" unicode="°"/><glyph d="M1032 -29h-971v316h324v241h-324v316h324v327h326v-327h323v-316h-323v-241h321v-316z" glyph-name="plusminus" horiz-adv-x="1095" unicode="±"/><glyph d="M735 696h-682v111q0 93 46 145.5t132 79.5l215 66q25 8 34 15t9 22q0 18 -15.5 24t-70.5 6q-58 0 -78 -11t-20 -46v-21h-264v31q0 117 97.5 196t283.5 79q163 0 249.5 -65t86.5 -175q0 -88 -55.5 -137t-180.5 -74l-213 -45q0 -1 1 -8t1 -8l326 41h98v-226z" glyph-name="twosuperior" horiz-adv-x="798" unicode="²"/><glyph d="M426 686q-385 0 -385 254v23h266v-13q0 -26 17 -32.5t84 -6.5q69 0 85.5 5t16.5 26q0 27 -39 27h-143v155h116q24 0 32.5 5.5t8.5 19.5q0 16 -16.5 22.5t-71.5 6.5q-58 0 -74 -7.5t-16 -27.5v-6h-266v6q0 112 101 181t278 69q163 0 247.5 -48t84.5 -133q0 -129 -164 -149 v-10q192 -23 192 -162q0 -102 -92.5 -153.5t-261.5 -51.5z" glyph-name="threesuperior" horiz-adv-x="821" unicode="³"/><glyph d="M1094 0h-385v553h-144q-241 0 -382.5 102.5t-141.5 302.5q0 206 141 310t383 104h529v-1372zM1563 0h-385v1372h385v-1372z" glyph-name="paragraph" horiz-adv-x="1624" unicode="¶"/><glyph d="M561 512h-500v393h500v-393z" glyph-name="periodcentered" horiz-adv-x="622" unicode="·"/><glyph d="M487 686h-266v395h-201v207h37q60 0 102.5 17.5t73.5 66.5h254v-686z" glyph-name="onesuperior" horiz-adv-x="528" unicode="¹"/><glyph d="M225 1073q-86 0 -135 42.5t-49 117.5t49 117.5t135 42.5t135.5 -42.5t49.5 -117.5t-49.5 -117.5t-135.5 -42.5zM225 1188q32 0 44 10t12 35t-12 35t-44 10t-43.5 -10t-11.5 -35t11.5 -35t43.5 -10z" glyph-name="ordmasculine" horiz-adv-x="450" unicode="º"/><glyph d="M471 410l-410 -267v394l154 73v29l-154 74v393l410 -266v-430zM963 410l-410 -267v394l154 73v29l-154 74v393l410 -266v-430z" glyph-name="guillemotright" horiz-adv-x="1024" unicode="»"/><glyph d="M551 686h-266v395h-201v207h37q60 0 102.5 17.5t73.5 66.5h254v-686zM432 0h-371l1166 1372h370zM1556 0h-266v129h-387v211l336 346h317v-321h113v-236h-113v-129zM1194 365h96v100h-20l-76 -80v-20z" glyph-name="onequarter" horiz-adv-x="1730" unicode="¼"/><glyph d="M551 686h-266v395h-201v207h37q60 0 102.5 17.5t73.5 66.5h254v-686zM432 0h-371l1166 1372h370zM1706 0h-682v111q0 93 46 145.5t132 79.5l215 65q25 8 34 15t9 22q0 18 -15.5 24.5t-70.5 6.5q-58 0 -78 -11t-20 -46v-21h-264v31q0 117 97.5 195.5t283.5 78.5 q163 0 249.5 -64.5t86.5 -174.5q0 -88 -55.5 -137t-180.5 -74l-213 -45q0 -1 1 -8.5t1 -8.5l326 41h98v-225z" glyph-name="onehalf" horiz-adv-x="1789" unicode="½"/><glyph d="M446 686q-385 0 -385 254v23h267v-13q0 -26 17 -32.5t83 -6.5q69 0 85.5 5t16.5 26q0 27 -38 27h-144v155h117q24 0 32.5 5.5t8.5 19.5q0 16 -16.5 22.5t-71.5 6.5q-58 0 -74 -7.5t-16 -27.5v-6h-267v6q0 112 101 181t278 69q163 0 247.5 -48t84.5 -133q0 -129 -164 -149 v-10q193 -23 193 -162q0 -102 -93 -153.5t-262 -51.5zM588 0h-371l1165 1372h371zM1696 0h-266v129h-388v211l336 346h318v-321h112v-236h-112v-129zM1333 365h97v100h-21l-76 -80v-20z" glyph-name="threequarters" horiz-adv-x="1869" unicode="¾"/><glyph d="M526 1024h441v-362h-441v362zM555 567h385v-75q0 -62 -21 -110.5t-61 -82t-80 -55t-96 -41.5l-143 -53q-64 -23 -88.5 -42t-24.5 -51q0 -19 7 -30.5t29 -22.5t71 -16.5t126 -5.5q108 0 169 16t84.5 45.5t23.5 79.5v98h379v-61q0 -86 -23 -162t-75 -144.5t-129.5 -117 t-194.5 -77t-262 -28.5q-155 0 -271 31.5t-184.5 89t-101.5 130t-33 161.5q0 65 17 119t43 89.5t65 65.5t73.5 47.5t79.5 34.5l154 58q51 20 66.5 42t15.5 58v10z" glyph-name="questiondown" horiz-adv-x="1335" unicode="¿"/><glyph d="M1057 1495h-414l-414 274h555zM412 0h-432l591 1372h551l594 -1372h-442l-105 254h-651zM743 793l-79 -193h364l-80 193l-90 231h-27z" glyph-name="Agrave" horiz-adv-x="1695" unicode="À"/><glyph d="M1053 1495h-414l272 274h555zM412 0h-432l591 1372h551l594 -1372h-442l-105 254h-651zM743 793l-79 -193h364l-80 193l-90 231h-27z" glyph-name="Aacute" horiz-adv-x="1695" unicode="Á"/><glyph d="M754 1495h-412l272 266h465l275 -266h-414l-80 86h-24zM412 0h-432l591 1372h551l594 -1372h-442l-105 254h-651zM743 793l-79 -193h364l-80 193l-90 231h-27z" glyph-name="Acircumflex" horiz-adv-x="1695" unicode="Â"/><glyph d="M682 1458h-256v103q0 231 213 231q70 0 180 -39l70 -24q61 -21 82 -21q24 0 34.5 12t10.5 39v15h254v-101q0 -107 -48.5 -170t-148.5 -63q-71 0 -186 39l-94 30q-55 19 -76 19q-35 0 -35 -37v-33zM412 0h-432l591 1372h551l594 -1372h-442l-105 254h-651zM743 793 l-79 -193h364l-80 193l-90 231h-27z" glyph-name="Atilde" horiz-adv-x="1695" unicode="Ã"/><glyph d="M1272 1495h-365v285h365v-285zM788 1495h-364v285h364v-285zM412 0h-432l591 1372h551l594 -1372h-442l-105 254h-651zM743 793l-79 -193h364l-80 193l-90 231h-27z" glyph-name="Adieresis" horiz-adv-x="1695" unicode="Ä"/><glyph d="M412 0h-432l573 1329q-47 68 -47 162q0 134 93.5 214.5t246.5 80.5q152 0 245 -80.5t93 -214.5q0 -91 -45 -158l577 -1333h-442l-105 254h-651zM844 1421q65 0 85.5 15t20.5 55t-20.5 55t-85.5 15t-86 -15t-21 -55t21 -55t86 -15zM743 793l-79 -193h364l-80 193l-90 231 h-27z" glyph-name="Aring" horiz-adv-x="1695" unicode="Å"/><glyph d="M461 0h-477l993 1372h1466v-346h-833v-164h803v-344h-803v-172h833v-346h-1218v254h-584zM1204 1049l-317 -449h338v449h-21z" glyph-name="AE" horiz-adv-x="2490" unicode="Æ"/><glyph d="M897 -494h-223v199h229q17 0 17 12q0 15 -17 15h-229v254q-299 34 -466 220.5t-167 479.5q0 324 201.5 515.5t556.5 191.5q346 0 541.5 -155.5t195.5 -430.5v-35h-430v35q0 119 -66.5 168t-234.5 49q-108 0 -173.5 -14t-107.5 -53.5t-57.5 -102.5t-15.5 -168t15.5 -168 t57.5 -102.5t107.5 -53.5t173.5 -14q168 0 234.5 49t66.5 168v35h430v-35q0 -261 -176.5 -414.5t-491.5 -168.5v-56h29q115 0 176.5 -55.5t61.5 -151.5q0 -99 -61.5 -156t-176.5 -57z" glyph-name="Ccedilla" horiz-adv-x="1576" unicode="Ç"/><glyph d="M879 1495h-414l-414 274h555zM1280 0h-1219v1372h1219v-346h-834v-164h803v-344h-803v-172h834v-346z" glyph-name="Egrave" horiz-adv-x="1327" unicode="È"/><glyph d="M874 1495h-413l272 274h555zM1280 0h-1219v1372h1219v-346h-834v-164h803v-344h-803v-172h834v-346z" glyph-name="Eacute" horiz-adv-x="1327" unicode="É"/><glyph d="M575 1495h-411l272 266h465l275 -266h-414l-80 86h-25zM1280 0h-1219v1372h1219v-346h-834v-164h803v-344h-803v-172h834v-346z" glyph-name="Ecircumflex" horiz-adv-x="1327" unicode="Ê"/><glyph d="M1094 1495h-365v285h365v-285zM610 1495h-364v285h364v-285zM1280 0h-1219v1372h1219v-346h-834v-164h803v-344h-803v-172h834v-346z" glyph-name="Edieresis" horiz-adv-x="1327" unicode="Ë"/><glyph d="M463 1495h-414l-414 274h555zM446 0h-385v1372h385v-1372z" glyph-name="Igrave" unicode="Ì"/><glyph d="M459 1495h-414l272 274h555zM446 0h-385v1372h385v-1372z" glyph-name="Iacute" unicode="Í"/><glyph d="M160 1495h-412l272 266h465l275 -266h-414l-80 86h-24zM446 0h-385v1372h385v-1372z" glyph-name="Icircumflex" unicode="Î"/><glyph d="M678 1495h-365v285h365v-285zM195 1495h-365v285h365v-285zM446 0h-385v1372h385v-1372z" glyph-name="Idieresis" unicode="Ï"/><glyph d="M928 0h-695v514h-213v344h213v514h695q342 0 540.5 -181.5t198.5 -504.5t-198.5 -504.5t-540.5 -181.5zM991 514h-373v-168h310q67 0 109.5 3.5t83 16t63 34.5t40.5 60.5t24.5 93t6.5 132.5t-6.5 132.5t-24.5 93t-40.5 60.5t-63 34.5t-83 16t-109.5 3.5h-310v-168h373 v-344z" glyph-name="Eth" horiz-adv-x="1708" unicode="Ð"/><glyph d="M588 1458h-256v103q0 231 213 231q70 0 180 -39l70 -24q61 -21 82 -21q24 0 34.5 12t10.5 39v15h254v-101q0 -107 -48.5 -170t-148.5 -63q-71 0 -186 39l-95 30q-55 19 -75 19q-35 0 -35 -37v-33zM446 0h-385v1372h410l381 -514l201 -315h26l-18 299v530h385v-1372h-410 l-405 528l-174 271h-27l16 -262v-537z" glyph-name="Ntilde" horiz-adv-x="1507" unicode="Ñ"/><glyph d="M1014 1495h-414l-414 274h555zM801 -20q-355 0 -557.5 191t-202.5 515t202.5 515.5t557.5 191.5q362 0 565 -191t203 -516t-202.5 -515.5t-565.5 -190.5zM801 348q109 0 174.5 14t108.5 53.5t59 103t16 167.5t-16 167.5t-59 103t-108.5 53.5t-174.5 14q-108 0 -173 -14 t-106 -53.5t-56 -102.5t-15 -168t15 -168t56 -102.5t106 -53.5t173 -14z" glyph-name="Ograve" horiz-adv-x="1609" unicode="Ò"/><glyph d="M1010 1495h-414l272 274h555zM801 -20q-355 0 -557.5 191t-202.5 515t202.5 515.5t557.5 191.5q362 0 565 -191t203 -516t-202.5 -515.5t-565.5 -190.5zM801 348q109 0 174.5 14t108.5 53.5t59 103t16 167.5t-16 167.5t-59 103t-108.5 53.5t-174.5 14q-108 0 -173 -14 t-106 -53.5t-56 -102.5t-15 -168t15 -168t56 -102.5t106 -53.5t173 -14z" glyph-name="Oacute" horiz-adv-x="1609" unicode="Ó"/><glyph d="M711 1495h-412l272 266h465l275 -266h-414l-80 86h-24zM801 -20q-355 0 -557.5 191t-202.5 515t202.5 515.5t557.5 191.5q362 0 565 -191t203 -516t-202.5 -515.5t-565.5 -190.5zM801 348q109 0 174.5 14t108.5 53.5t59 103t16 167.5t-16 167.5t-59 103t-108.5 53.5 t-174.5 14q-108 0 -173 -14t-106 -53.5t-56 -102.5t-15 -168t15 -168t56 -102.5t106 -53.5t173 -14z" glyph-name="Ocircumflex" horiz-adv-x="1609" unicode="Ô"/><glyph d="M639 1458h-256v103q0 231 213 231q70 0 180 -39l70 -24q61 -21 82 -21q24 0 34.5 12t10.5 39v15h254v-101q0 -107 -48.5 -170t-148.5 -63q-71 0 -186 39l-94 30q-55 19 -76 19q-35 0 -35 -37v-33zM801 -20q-355 0 -557.5 191t-202.5 515t202.5 515.5t557.5 191.5 q362 0 565 -191t203 -516t-202.5 -515.5t-565.5 -190.5zM801 348q109 0 174.5 14t108.5 53.5t59 103t16 167.5t-16 167.5t-59 103t-108.5 53.5t-174.5 14q-108 0 -173 -14t-106 -53.5t-56 -102.5t-15 -168t15 -168t56 -102.5t106 -53.5t173 -14z" glyph-name="Otilde" horiz-adv-x="1609" unicode="Õ"/><glyph d="M1229 1495h-365v285h365v-285zM745 1495h-364v285h364v-285zM801 -20q-355 0 -557.5 191t-202.5 515t202.5 515.5t557.5 191.5q362 0 565 -191t203 -516t-202.5 -515.5t-565.5 -190.5zM801 348q109 0 174.5 14t108.5 53.5t59 103t16 167.5t-16 167.5t-59 103t-108.5 53.5 t-174.5 14q-108 0 -173 -14t-106 -53.5t-56 -102.5t-15 -168t15 -168t56 -102.5t106 -53.5t173 -14z" glyph-name="Odieresis" horiz-adv-x="1609" unicode="Ö"/><glyph d="M1008 444l-232 -231l-246 246l-243 -244l-224 223l244 244l-246 246l230 231l248 -246l243 244l224 -223l-244 -244z" glyph-name="multiply" horiz-adv-x="1069" unicode="×"/><glyph d="M801 -20q-279 0 -465 120l-158 -137l-180 195l149 129q-106 168 -106 399q0 324 202.5 515.5t557.5 191.5q284 0 475 -121l156 135l180 -195l-148 -129q105 -168 105 -397q0 -325 -202.5 -515.5t-565.5 -190.5zM451 686q0 -78 8 -127l516 451q-66 14 -174 14t-173 -14 t-106 -53.5t-56 -102.5t-15 -168zM801 348q109 0 174.5 14t108.5 53.5t59 103t16 167.5q0 78 -8 125l-516 -451q68 -12 166 -12z" glyph-name="Oslash" horiz-adv-x="1609" unicode="Ø"/><glyph d="M963 1495h-414l-414 274h555zM754 -20q-350 0 -525.5 156.5t-175.5 438.5v797h385v-766q0 -102 25 -154t92.5 -76t198.5 -24q99 0 159 11.5t95.5 43t48 77t12.5 122.5v766h385v-797q0 -282 -175 -438.5t-525 -156.5z" glyph-name="Ugrave" horiz-adv-x="1507" unicode="Ù"/><glyph d="M958 1495h-413l272 274h555zM754 -20q-350 0 -525.5 156.5t-175.5 438.5v797h385v-766q0 -102 25 -154t92.5 -76t198.5 -24q99 0 159 11.5t95.5 43t48 77t12.5 122.5v766h385v-797q0 -282 -175 -438.5t-525 -156.5z" glyph-name="Uacute" horiz-adv-x="1507" unicode="Ú"/><glyph d="M659 1495h-411l272 266h465l275 -266h-414l-80 86h-25zM754 -20q-350 0 -525.5 156.5t-175.5 438.5v797h385v-766q0 -102 25 -154t92.5 -76t198.5 -24q99 0 159 11.5t95.5 43t48 77t12.5 122.5v766h385v-797q0 -282 -175 -438.5t-525 -156.5z" glyph-name="Ucircumflex" horiz-adv-x="1507" unicode="Û"/><glyph d="M1178 1495h-365v285h365v-285zM694 1495h-364v285h364v-285zM754 -20q-350 0 -525.5 156.5t-175.5 438.5v797h385v-766q0 -102 25 -154t92.5 -76t198.5 -24q99 0 159 11.5t95.5 43t48 77t12.5 122.5v766h385v-797q0 -282 -175 -438.5t-525 -156.5z" glyph-name="Udieresis" horiz-adv-x="1507" unicode="Ü"/><glyph d="M989 1495h-414l273 274h555zM971 0h-385v436l-617 936h477l207 -325l117 -193h27l116 193l207 325h479l-628 -938v-434z" glyph-name="Yacute" horiz-adv-x="1568" unicode="Ý"/><glyph d="M446 0h-385v1372h385v-166h396q247 0 388.5 -136.5t141.5 -381.5q0 -246 -142 -383t-388 -137h-396v-168zM799 860h-353v-346h353q107 0 148.5 34t41.5 140q0 104 -41.5 138t-148.5 34z" glyph-name="Thorn" horiz-adv-x="1392" unicode="Þ"/><glyph d="M481 0h-379v862q0 253 166 392t514 139q294 0 445 -101t151 -264q0 -138 -81 -215t-261 -84v-20q201 -7 303.5 -99.5t102.5 -249.5q0 -171 -112 -265.5t-349 -94.5h-418v346h369q70 0 95.5 19.5t25.5 76.5t-25 76t-96 19h-369v315h330q58 0 79 16t21 60q0 37 -15.5 56.5 t-67.5 30.5t-154 11q-94 0 -148.5 -7t-83 -28.5t-36 -48t-7.5 -76.5v-866z" glyph-name="germandbls" horiz-adv-x="1462" unicode="ß"/><glyph d="M813 1147h-416l-413 266h557zM395 -20q-174 0 -269 74.5t-95 207.5q0 113 82.5 184.5t251.5 88.5l419 40v21q0 75 -37.5 98t-144.5 23q-96 0 -131 -23.5t-35 -87.5v-8h-385v4q0 205 158.5 328t421.5 123q265 0 399.5 -122t134.5 -343v-588h-360v217h-21 q-30 -112 -128 -174.5t-261 -62.5zM418 287q0 -23 22 -31t70 -8q144 0 204.5 23.5t67.5 90.5l-315 -36q-49 -6 -49 -39z" glyph-name="agrave" horiz-adv-x="1218" unicode="à"/><glyph d="M819 1147h-418l275 266h557zM395 -20q-174 0 -269 74.5t-95 207.5q0 113 82.5 184.5t251.5 88.5l419 40v21q0 75 -37.5 98t-144.5 23q-96 0 -131 -23.5t-35 -87.5v-8h-385v4q0 205 158.5 328t421.5 123q265 0 399.5 -122t134.5 -343v-588h-360v217h-21 q-30 -112 -128 -174.5t-261 -62.5zM418 287q0 -23 22 -31t70 -8q144 0 204.5 23.5t67.5 90.5l-315 -36q-49 -6 -49 -39z" glyph-name="aacute" horiz-adv-x="1218" unicode="á"/><glyph d="M516 1147h-412l273 266h465l274 -266h-414l-79 86h-25zM395 -20q-174 0 -269 74.5t-95 207.5q0 113 82.5 184.5t251.5 88.5l419 40v21q0 75 -37.5 98t-144.5 23q-96 0 -131 -23.5t-35 -87.5v-8h-385v4q0 205 158.5 328t421.5 123q265 0 399.5 -122t134.5 -343v-588h-360 v217h-21q-30 -112 -128 -174.5t-261 -62.5zM418 287q0 -23 22 -31t70 -8q144 0 204.5 23.5t67.5 90.5l-315 -36q-49 -6 -49 -39z" glyph-name="acircumflex" horiz-adv-x="1218" unicode="â"/><glyph d="M444 1110h-256v102q0 232 213 232q71 0 181 -39l69 -25q58 -20 82 -20t34.5 12t10.5 39v14h254v-100q0 -107 -48 -170t-148 -63q-75 0 -187 38l-94 31q-55 19 -76 19q-35 0 -35 -37v-33zM395 -20q-174 0 -269 74.5t-95 207.5q0 113 82.5 184.5t251.5 88.5l419 40v21 q0 75 -37.5 98t-144.5 23q-96 0 -131 -23.5t-35 -87.5v-8h-385v4q0 205 158.5 328t421.5 123q265 0 399.5 -122t134.5 -343v-588h-360v217h-21q-30 -112 -128 -174.5t-261 -62.5zM418 287q0 -23 22 -31t70 -8q144 0 204.5 23.5t67.5 90.5l-315 -36q-49 -6 -49 -39z" glyph-name="atilde" horiz-adv-x="1218" unicode="ã"/><glyph d="M1034 1147h-364v285h364v-285zM551 1147h-365v285h365v-285zM395 -20q-174 0 -269 74.5t-95 207.5q0 113 82.5 184.5t251.5 88.5l419 40v21q0 75 -37.5 98t-144.5 23q-96 0 -131 -23.5t-35 -87.5v-8h-385v4q0 205 158.5 328t421.5 123q265 0 399.5 -122t134.5 -343v-588 h-360v217h-21q-30 -112 -128 -174.5t-261 -62.5zM418 287q0 -23 22 -31t70 -8q144 0 204.5 23.5t67.5 90.5l-315 -36q-49 -6 -49 -39z" glyph-name="adieresis" horiz-adv-x="1218" unicode="ä"/><glyph d="M610 1114q-97 0 -157 49.5t-60 130.5q0 82 60 131.5t157 49.5t157 -49.5t60 -131.5q0 -81 -60 -130.5t-157 -49.5zM610 1260q36 0 48 7.5t12 26.5t-12 27t-48 8t-47.5 -8t-11.5 -27t11.5 -26.5t47.5 -7.5zM395 -20q-174 0 -269 74.5t-95 207.5q0 113 82.5 184.5 t251.5 88.5l419 40v21q0 75 -37.5 98t-144.5 23q-96 0 -131 -23.5t-35 -87.5v-8h-385v4q0 205 158.5 328t421.5 123q265 0 399.5 -122t134.5 -343v-588h-360v217h-21q-30 -112 -128 -174.5t-261 -62.5zM418 287q0 -23 22 -31t70 -8q144 0 204.5 23.5t67.5 90.5l-315 -36 q-49 -6 -49 -39z" glyph-name="aring" horiz-adv-x="1218" unicode="å"/><glyph d="M408 -20q-180 0 -278.5 74.5t-98.5 207.5q0 117 82.5 189.5t251.5 89.5l444 43v12q0 75 -38 98t-146 23t-148.5 -23.5t-40.5 -87.5v-18h-385v14q0 205 158.5 328t421.5 123q248 0 385 -109q156 109 381 109q271 0 427 -132.5t156 -377.5q0 -43 -6 -99h-809 q4 -93 52.5 -126t173.5 -33q113 0 154.5 20t41.5 68v22h385v-24q0 -174 -154.5 -282.5t-412.5 -108.5q-391 0 -526 237h-23q-39 -114 -153.5 -175.5t-294.5 -61.5zM1389 758q-107 0 -156.5 -26.5t-61.5 -92.5h437q-10 65 -60.5 92t-158.5 27zM418 287q0 -23 22 -31t70 -8 q158 0 227 24.5t84 92.5l-354 -39q-49 -6 -49 -39z" glyph-name="ae" horiz-adv-x="1998" unicode="æ"/><glyph d="M750 -494h-224v199h230q16 0 16 12q0 15 -16 15h-230v254q-226 29 -355.5 169t-129.5 361q0 251 161.5 394t438.5 143q263 0 420.5 -125t157.5 -332v-33h-383v17q0 75 -50 102t-153 27q-113 0 -161 -38.5t-48 -154.5q0 -114 48 -152t161 -38q103 0 153 26.5t50 100.5v18 h383v-35q0 -190 -134.5 -311.5t-363.5 -140.5v-58h29q115 0 176 -55.5t61 -151.5q0 -99 -61 -156t-176 -57z" glyph-name="ccedilla" horiz-adv-x="1259" unicode="ç"/><glyph d="M829 1147h-415l-414 266h557zM637 -20q-135 0 -241.5 30t-187 92.5t-124 167t-43.5 246.5q0 248 163 392.5t425 144.5q271 0 427 -132.5t156 -377.5q0 -43 -6 -99h-809q4 -93 52.5 -126t173.5 -33q113 0 154.5 20t41.5 68v22h385v-24q0 -174 -154.5 -282.5t-412.5 -108.5 zM621 758q-107 0 -156.5 -26.5t-61.5 -92.5h437q-10 65 -60.5 92t-158.5 27z" glyph-name="egrave" horiz-adv-x="1253" unicode="è"/><glyph d="M836 1147h-418l274 266h557zM637 -20q-135 0 -241.5 30t-187 92.5t-124 167t-43.5 246.5q0 248 163 392.5t425 144.5q271 0 427 -132.5t156 -377.5q0 -43 -6 -99h-809q4 -93 52.5 -126t173.5 -33q113 0 154.5 20t41.5 68v22h385v-24q0 -174 -154.5 -282.5t-412.5 -108.5z M621 758q-107 0 -156.5 -26.5t-61.5 -92.5h437q-10 65 -60.5 92t-158.5 27z" glyph-name="eacute" horiz-adv-x="1253" unicode="é"/><glyph d="M532 1147h-411l272 266h465l275 -266h-414l-80 86h-25zM637 -20q-135 0 -241.5 30t-187 92.5t-124 167t-43.5 246.5q0 248 163 392.5t425 144.5q271 0 427 -132.5t156 -377.5q0 -43 -6 -99h-809q4 -93 52.5 -126t173.5 -33q113 0 154.5 20t41.5 68v22h385v-24 q0 -174 -154.5 -282.5t-412.5 -108.5zM621 758q-107 0 -156.5 -26.5t-61.5 -92.5h437q-10 65 -60.5 92t-158.5 27z" glyph-name="ecircumflex" horiz-adv-x="1253" unicode="ê"/><glyph d="M1051 1147h-365v285h365v-285zM567 1147h-364v285h364v-285zM637 -20q-135 0 -241.5 30t-187 92.5t-124 167t-43.5 246.5q0 248 163 392.5t425 144.5q271 0 427 -132.5t156 -377.5q0 -43 -6 -99h-809q4 -93 52.5 -126t173.5 -33q113 0 154.5 20t41.5 68v22h385v-24 q0 -174 -154.5 -282.5t-412.5 -108.5zM621 758q-107 0 -156.5 -26.5t-61.5 -92.5h437q-10 65 -60.5 92t-158.5 27z" glyph-name="edieresis" horiz-adv-x="1253" unicode="ë"/><glyph d="M489 1147h-415l-414 266h557zM477 0h-383v1024h383v-1024z" glyph-name="igrave" horiz-adv-x="571" unicode="ì"/><glyph d="M496 1147h-418l274 266h557zM477 0h-383v1024h383v-1024z" glyph-name="iacute" horiz-adv-x="571" unicode="í"/><glyph d="M193 1147h-412l272 266h465l275 -266h-414l-80 86h-25zM477 0h-383v1024h383v-1024z" glyph-name="icircumflex" horiz-adv-x="571" unicode="î"/><glyph d="M711 1147h-365v285h365v-285zM227 1147h-364v285h364v-285zM477 0h-383v1024h383v-1024z" glyph-name="idieresis" horiz-adv-x="571" unicode="ï"/><glyph d="M674 -20q-313 0 -473 132.5t-160 366.5q0 222 132.5 331.5t369.5 109.5q324 0 407 -230h25q-14 157 -195 352l-344 -59l-35 170l222 39q-116 96 -238 180h520q93 -53 154 -104l264 45l35 -170l-154 -27q189 -243 189 -553q0 -279 -182.5 -431t-536.5 -152zM696 354 q167 0 222 23.5t55 95.5q0 56 -21 81.5t-78 36.5t-178 11q-159 0 -209.5 -25t-50.5 -102q0 -71 53 -96t207 -25z" glyph-name="eth" horiz-adv-x="1433" unicode="ð"/><glyph d="M496 1110h-256v102q0 232 213 232q70 0 180 -39l69 -25q58 -20 82 -20t34.5 12t10.5 39v14h254v-100q0 -107 -48 -170t-148 -63q-75 0 -187 38l-94 31q-55 19 -76 19q-34 0 -34 -37v-33zM446 0h-385v1032h361v-313h20q9 68 36 125.5t74.5 105.5t124.5 75.5t177 27.5 q201 0 305.5 -108t104.5 -283v-662h-385v520q0 107 -48 148t-174 41q-125 0 -168 -37.5t-43 -139.5v-532z" glyph-name="ntilde" horiz-adv-x="1316" unicode="ñ"/><glyph d="M836 1147h-416l-414 266h557zM633 -20q-272 0 -437 144t-165 392q0 249 165 393t437 144t437 -144t165 -393q0 -248 -165 -392t-437 -144zM633 319q129 0 175 41.5t46 155.5t-46 156.5t-175 42.5t-175 -42.5t-46 -156.5t46 -155.5t175 -41.5z" glyph-name="ograve" horiz-adv-x="1265" unicode="ò"/><glyph d="M842 1147h-418l274 266h557zM633 -20q-272 0 -437 144t-165 392q0 249 165 393t437 144t437 -144t165 -393q0 -248 -165 -392t-437 -144zM633 319q129 0 175 41.5t46 155.5t-46 156.5t-175 42.5t-175 -42.5t-46 -156.5t46 -155.5t175 -41.5z" glyph-name="oacute" horiz-adv-x="1265" unicode="ó"/><glyph d="M539 1147h-412l272 266h465l275 -266h-414l-80 86h-24zM633 -20q-272 0 -437 144t-165 392q0 249 165 393t437 144t437 -144t165 -393q0 -248 -165 -392t-437 -144zM633 319q129 0 175 41.5t46 155.5t-46 156.5t-175 42.5t-175 -42.5t-46 -156.5t46 -155.5t175 -41.5z" glyph-name="ocircumflex" horiz-adv-x="1265" unicode="ô"/><glyph d="M467 1110h-256v102q0 232 213 232q70 0 180 -39l70 -25q58 -20 82 -20t34.5 12t10.5 39v14h254v-100q0 -107 -48.5 -170t-148.5 -63q-74 0 -186 38l-94 31q-55 19 -76 19q-35 0 -35 -37v-33zM633 -20q-272 0 -437 144t-165 392q0 249 165 393t437 144t437 -144t165 -393 q0 -248 -165 -392t-437 -144zM633 319q129 0 175 41.5t46 155.5t-46 156.5t-175 42.5t-175 -42.5t-46 -156.5t46 -155.5t175 -41.5z" glyph-name="otilde" horiz-adv-x="1265" unicode="õ"/><glyph d="M1057 1147h-365v285h365v-285zM573 1147h-364v285h364v-285zM633 -20q-272 0 -437 144t-165 392q0 249 165 393t437 144t437 -144t165 -393q0 -248 -165 -392t-437 -144zM633 319q129 0 175 41.5t46 155.5t-46 156.5t-175 42.5t-175 -42.5t-46 -156.5t46 -155.5 t175 -41.5z" glyph-name="odieresis" horiz-adv-x="1265" unicode="ö"/><glyph d="M760 967h-408v342h408v-342zM1040 528h-970v316h970v-316zM760 63h-408v343h408v-343z" glyph-name="divide" horiz-adv-x="1093" unicode="÷"/><glyph d="M633 -20q-215 0 -361 90l-129 -113l-135 149l115 101q-92 128 -92 309q0 249 165 393t437 144q209 0 360 -88l127 110l135 -149l-112 -99q92 -131 92 -311q0 -248 -165 -392t-437 -144zM412 516q0 -39 2 -55l288 250q-40 4 -69 4q-129 0 -175 -42.5t-46 -156.5zM633 319 q129 0 175 41.5t46 155.5q0 41 -2 57l-289 -249q50 -5 70 -5z" glyph-name="oslash" horiz-adv-x="1265" unicode="ø"/><glyph d="M874 1147h-415l-414 266h557zM485 -20q-209 0 -316.5 108t-107.5 283v661h385v-520q0 -107 50 -147.5t182 -40.5q131 0 176 37t45 139v532h385v-1032h-360v313h-21q-9 -68 -36 -125t-75.5 -105t-127 -75.5t-179.5 -27.5z" glyph-name="ugrave" horiz-adv-x="1337" unicode="ù"/><glyph d="M881 1147h-418l274 266h557zM485 -20q-209 0 -316.5 108t-107.5 283v661h385v-520q0 -107 50 -147.5t182 -40.5q131 0 176 37t45 139v532h385v-1032h-360v313h-21q-9 -68 -36 -125t-75.5 -105t-127 -75.5t-179.5 -27.5z" glyph-name="uacute" horiz-adv-x="1337" unicode="ú"/><glyph d="M578 1147h-412l272 266h465l275 -266h-414l-80 86h-25zM485 -20q-209 0 -316.5 108t-107.5 283v661h385v-520q0 -107 50 -147.5t182 -40.5q131 0 176 37t45 139v532h385v-1032h-360v313h-21q-9 -68 -36 -125t-75.5 -105t-127 -75.5t-179.5 -27.5z" glyph-name="ucircumflex" horiz-adv-x="1337" unicode="û"/><glyph d="M1096 1147h-365v285h365v-285zM612 1147h-364v285h364v-285zM485 -20q-209 0 -316.5 108t-107.5 283v661h385v-520q0 -107 50 -147.5t182 -40.5q131 0 176 37t45 139v532h385v-1032h-360v313h-21q-9 -68 -36 -125t-75.5 -105t-127 -75.5t-179.5 -27.5z" glyph-name="udieresis" horiz-adv-x="1337" unicode="ü"/><glyph d="M872 1147h-417l274 266h557zM289 -348h-187v348h299q48 0 72 12l-493 1020h438l178 -405l74 -238h26l68 242l154 401h430l-490 -1073q-42 -91 -93 -150.5t-121.5 -94.5t-153.5 -48.5t-201 -13.5z" glyph-name="yacute" horiz-adv-x="1327" unicode="ý"/><glyph d="M446 -348h-385v1720h385v-606h21q52 287 389 287q226 0 349.5 -142t123.5 -395t-123.5 -394.5t-349.5 -141.5q-337 0 -389 286h-21v-614zM446 504q0 -104 58 -139t196 -35q133 0 186.5 41.5t53.5 144.5t-53.5 144.5t-186.5 41.5q-138 0 -196 -35t-58 -139v-24z" glyph-name="thorn" horiz-adv-x="1370" unicode="þ"/><glyph d="M1087 1147h-364v285h364v-285zM604 1147h-364v285h364v-285zM289 -348h-187v348h299q48 0 72 12l-493 1020h438l178 -405l74 -238h26l68 242l154 401h430l-490 -1073q-42 -91 -93 -150.5t-121.5 -94.5t-153.5 -48.5t-201 -13.5z" glyph-name="ydieresis" horiz-adv-x="1327" unicode="ÿ"/><glyph d="M1210 1497h-727v275h727v-275zM412 0h-432l591 1372h551l594 -1372h-442l-105 254h-651zM743 793l-79 -193h364l-80 193l-90 231h-27z" glyph-name="Amacron" horiz-adv-x="1695" unicode="Ā"/><glyph d="M973 1143h-727v274h727v-274zM395 -20q-174 0 -269 74.5t-95 207.5q0 113 82.5 184.5t251.5 88.5l419 40v21q0 75 -37.5 98t-144.5 23q-96 0 -131 -23.5t-35 -87.5v-8h-385v4q0 205 158.5 328t421.5 123q265 0 399.5 -122t134.5 -343v-588h-360v217h-21 q-30 -112 -128 -174.5t-261 -62.5zM418 287q0 -23 22 -31t70 -8q144 0 204.5 23.5t67.5 90.5l-315 -36q-49 -6 -49 -39z" glyph-name="amacron" horiz-adv-x="1218" unicode="ā"/><glyph d="M848 1475q-160 0 -260.5 80.5t-100.5 205.5v27h269v-21q0 -35 17.5 -49t74.5 -14q58 0 75 14t17 49v21h268v-27q0 -125 -100 -205.5t-260 -80.5zM412 0h-432l591 1372h551l594 -1372h-442l-105 254h-651zM743 793l-79 -193h364l-80 193l-90 231h-27z" glyph-name="Abreve" horiz-adv-x="1695" unicode="Ă"/><glyph d="M610 1126q-160 0 -260 81t-100 206v8h268v-2q0 -41 17 -55t75 -14q59 0 75.5 13.5t16.5 55.5v2h269v-8q0 -125 -100.5 -206t-260.5 -81zM395 -20q-174 0 -269 74.5t-95 207.5q0 113 82.5 184.5t251.5 88.5l419 40v21q0 75 -37.5 98t-144.5 23q-96 0 -131 -23.5t-35 -87.5 v-8h-385v4q0 205 158.5 328t421.5 123q265 0 399.5 -122t134.5 -343v-588h-360v217h-21q-30 -112 -128 -174.5t-261 -62.5zM418 287q0 -23 22 -31t70 -8q144 0 204.5 23.5t67.5 90.5l-315 -36q-49 -6 -49 -39z" glyph-name="abreve" horiz-adv-x="1218" unicode="ă"/><glyph d="M412 0h-432l591 1372h551l594 -1372l-92 -115q-16 -19 -16 -30q0 -13 16 -13h111v-225h-205q-211 0 -211 145q0 51 26 93t76 96l47 49h-194l-105 254h-651zM743 793l-79 -193h364l-80 193l-90 231h-27z" glyph-name="Aogonek" horiz-adv-x="1695" unicode="Ą"/><glyph d="M395 -20q-174 0 -269 74.5t-95 207.5q0 113 82.5 184.5t251.5 88.5l419 40v21q0 75 -37.5 98t-144.5 23q-96 0 -131 -23.5t-35 -87.5v-8h-385v4q0 205 158.5 328t421.5 123q265 0 399.5 -122t134.5 -343v-588l-92 -115q-16 -19 -16 -30q0 -13 16 -13h111v-225h-205 q-211 0 -211 145q0 51 26 93t76 96l48 49h-113v217h-21q-30 -112 -128 -174.5t-261 -62.5zM418 287q0 -23 22 -31t70 -8q144 0 204.5 23.5t67.5 90.5l-315 -36q-49 -6 -49 -39z" glyph-name="aogonek" horiz-adv-x="1218" unicode="ą"/><glyph d="M993 1495h-413l272 274h555zM799 -20q-355 0 -556.5 191t-201.5 515t201.5 515.5t556.5 191.5q346 0 541.5 -155.5t195.5 -430.5v-35h-430v35q0 119 -66.5 168t-234.5 49q-108 0 -173.5 -14t-107.5 -53.5t-57.5 -102.5t-15.5 -168t15.5 -168t57.5 -102.5t107.5 -53.5 t173.5 -14q168 0 234.5 49t66.5 168v35h430v-35q0 -275 -195.5 -430t-541.5 -155z" glyph-name="Cacute" horiz-adv-x="1576" unicode="Ć"/><glyph d="M840 1147h-418l274 266h557zM641 -20q-276 0 -438 143.5t-162 392.5q0 251 161.5 394t438.5 143q263 0 420.5 -125t157.5 -332v-33h-383v17q0 75 -50 102t-153 27q-113 0 -161 -38.5t-48 -154.5q0 -114 48 -152t161 -38q103 0 153 26.5t50 100.5v18h383v-35 q0 -206 -157.5 -331t-420.5 -125z" glyph-name="cacute" horiz-adv-x="1259" unicode="ć"/><glyph d="M694 1495h-411l272 266h465l274 -266h-413l-80 86h-25zM799 -20q-355 0 -556.5 191t-201.5 515t201.5 515.5t556.5 191.5q346 0 541.5 -155.5t195.5 -430.5v-35h-430v35q0 119 -66.5 168t-234.5 49q-108 0 -173.5 -14t-107.5 -53.5t-57.5 -102.5t-15.5 -168t15.5 -168 t57.5 -102.5t107.5 -53.5t173.5 -14q168 0 234.5 49t66.5 168v35h430v-35q0 -275 -195.5 -430t-541.5 -155z" glyph-name="Ccircumflex" horiz-adv-x="1576" unicode="Ĉ"/><glyph d="M537 1147h-412l272 266h465l275 -266h-414l-80 86h-25zM641 -20q-276 0 -438 143.5t-162 392.5q0 251 161.5 394t438.5 143q263 0 420.5 -125t157.5 -332v-33h-383v17q0 75 -50 102t-153 27q-113 0 -161 -38.5t-48 -154.5q0 -114 48 -152t161 -38q103 0 153 26.5 t50 100.5v18h383v-35q0 -206 -157.5 -331t-420.5 -125z" glyph-name="ccircumflex" horiz-adv-x="1259" unicode="ĉ"/><glyph d="M981 1495h-385v285h385v-285zM799 -20q-355 0 -556.5 191t-201.5 515t201.5 515.5t556.5 191.5q346 0 541.5 -155.5t195.5 -430.5v-35h-430v35q0 119 -66.5 168t-234.5 49q-108 0 -173.5 -14t-107.5 -53.5t-57.5 -102.5t-15.5 -168t15.5 -168t57.5 -102.5t107.5 -53.5 t173.5 -14q168 0 234.5 49t66.5 168v35h430v-35q0 -275 -195.5 -430t-541.5 -155z" glyph-name="Cdotaccent" horiz-adv-x="1576" unicode="Ċ"/><glyph d="M823 1147h-385v285h385v-285zM641 -20q-276 0 -438 143.5t-162 392.5q0 251 161.5 394t438.5 143q263 0 420.5 -125t157.5 -332v-33h-383v17q0 75 -50 102t-153 27q-113 0 -161 -38.5t-48 -154.5q0 -114 48 -152t161 -38q103 0 153 26.5t50 100.5v18h383v-35 q0 -206 -157.5 -331t-420.5 -125z" glyph-name="cdotaccent" horiz-adv-x="1259" unicode="ċ"/><glyph d="M883 1761h411l-272 -266h-465l-274 266h413l80 -86h25zM799 -20q-355 0 -556.5 191t-201.5 515t201.5 515.5t556.5 191.5q346 0 541.5 -155.5t195.5 -430.5v-35h-430v35q0 119 -66.5 168t-234.5 49q-108 0 -173.5 -14t-107.5 -53.5t-57.5 -102.5t-15.5 -168t15.5 -168 t57.5 -102.5t107.5 -53.5t173.5 -14q168 0 234.5 49t66.5 168v35h430v-35q0 -275 -195.5 -430t-541.5 -155z" glyph-name="Ccaron" horiz-adv-x="1576" unicode="Č"/><glyph d="M862 1147h-465l-272 266h428l65 -86h25l66 86h428zM641 -20q-276 0 -438 143.5t-162 392.5q0 251 161.5 394t438.5 143q263 0 420.5 -125t157.5 -332v-33h-383v17q0 75 -50 102t-153 27q-113 0 -161 -38.5t-48 -154.5q0 -114 48 -152t161 -38q103 0 153 26.5t50 100.5v18 h383v-35q0 -206 -157.5 -331t-420.5 -125z" glyph-name="ccaron" horiz-adv-x="1259" unicode="č"/><glyph d="M895 1761h412l-273 -266h-465l-274 266h414l79 -86h25zM778 0h-694v1372h694q343 0 541.5 -181.5t198.5 -504.5t-198.5 -504.5t-541.5 -181.5zM778 1026h-309v-680h309q67 0 109.5 3.5t83.5 16t63.5 34.5t40.5 60.5t24.5 93t6.5 132.5t-6.5 132.5t-24.5 93t-40.5 60.5 t-63.5 34.5t-83.5 16t-109.5 3.5z" glyph-name="Dcaron" horiz-adv-x="1558" unicode="Ď"/><glyph d="M530 -20q-234 0 -361.5 141.5t-127.5 394.5t123.5 395t349.5 142q337 0 389 -287h21v606h385v-1372h-361v279h-20q-25 -154 -121 -226.5t-277 -72.5zM1481 852h-105v186h94q29 0 41.5 11t12.5 41v16h-162v266h364v-278q0 -242 -245 -242zM430 516q0 -103 53 -143.5 t187 -40.5q137 0 195.5 37.5t58.5 144.5v14q0 104 -58.5 139t-195.5 35q-133 0 -186.5 -41.5t-53.5 -144.5z" glyph-name="dcaron" horiz-adv-x="1683" unicode="ď"/><glyph d="M928 0h-695v514h-213v344h213v514h695q342 0 540.5 -181.5t198.5 -504.5t-198.5 -504.5t-540.5 -181.5zM991 514h-373v-168h310q67 0 109.5 3.5t83 16t63 34.5t40.5 60.5t24.5 93t6.5 132.5t-6.5 132.5t-24.5 93t-40.5 60.5t-63 34.5t-83 16t-109.5 3.5h-310v-168h373 v-344z" glyph-name="Dcroat" horiz-adv-x="1708" unicode="Đ"/><glyph d="M530 -20q-234 0 -361.5 130.5t-127.5 364.5q0 233 123.5 364.5t349.5 131.5q167 0 266 -77t123 -210h21v287h-203v286h203v115h385v-115h164v-286h-164v-971h-361v279h-20q-54 -299 -398 -299zM430 475q0 -80 53.5 -111.5t186.5 -31.5q137 0 195.5 28.5t58.5 112.5v14 q0 79 -58.5 106.5t-195.5 27.5q-133 0 -186.5 -33t-53.5 -113z" glyph-name="dcroat" horiz-adv-x="1464" unicode="đ"/><glyph d="M1032 1497h-727v275h727v-275zM1280 0h-1219v1372h1219v-346h-834v-164h803v-344h-803v-172h834v-346z" glyph-name="Emacron" horiz-adv-x="1327" unicode="Ē"/><glyph d="M989 1143h-727v274h727v-274zM637 -20q-135 0 -241.5 30t-187 92.5t-124 167t-43.5 246.5q0 248 163 392.5t425 144.5q271 0 427 -132.5t156 -377.5q0 -43 -6 -99h-809q4 -93 52.5 -126t173.5 -33q113 0 154.5 20t41.5 68v22h385v-24q0 -174 -154.5 -282.5t-412.5 -108.5 zM621 758q-107 0 -156.5 -26.5t-61.5 -92.5h437q-10 65 -60.5 92t-158.5 27z" glyph-name="emacron" horiz-adv-x="1253" unicode="ē"/><glyph d="M670 1475q-160 0 -260.5 80.5t-100.5 205.5v27h269v-21q0 -35 17.5 -49t74.5 -14q58 0 75 14t17 49v21h268v-27q0 -125 -100 -205.5t-260 -80.5zM1280 0h-1219v1372h1219v-346h-834v-164h803v-344h-803v-172h834v-346z" glyph-name="Ebreve" horiz-adv-x="1327" unicode="Ĕ"/><glyph d="M627 1126q-160 0 -260.5 81t-100.5 206v8h269v-2q0 -41 17 -55t75 -14q59 0 75.5 13.5t16.5 55.5v2h268v-8q0 -125 -100 -206t-260 -81zM637 -20q-135 0 -241.5 30t-187 92.5t-124 167t-43.5 246.5q0 248 163 392.5t425 144.5q271 0 427 -132.5t156 -377.5q0 -43 -6 -99 h-809q4 -93 52.5 -126t173.5 -33q113 0 154.5 20t41.5 68v22h385v-24q0 -174 -154.5 -282.5t-412.5 -108.5zM621 758q-107 0 -156.5 -26.5t-61.5 -92.5h437q-10 65 -60.5 92t-158.5 27z" glyph-name="ebreve" horiz-adv-x="1253" unicode="ĕ"/><glyph d="M862 1495h-385v285h385v-285zM1280 0h-1219v1372h1219v-346h-834v-164h803v-344h-803v-172h834v-346z" glyph-name="Edotaccent" horiz-adv-x="1327" unicode="Ė"/><glyph d="M819 1147h-385v285h385v-285zM637 -20q-135 0 -241.5 30t-187 92.5t-124 167t-43.5 246.5q0 248 163 392.5t425 144.5q271 0 427 -132.5t156 -377.5q0 -43 -6 -99h-809q4 -93 52.5 -126t173.5 -33q113 0 154.5 20t41.5 68v22h385v-24q0 -174 -154.5 -282.5t-412.5 -108.5 zM621 758q-107 0 -156.5 -26.5t-61.5 -92.5h437q-10 65 -60.5 92t-158.5 27z" glyph-name="edotaccent" horiz-adv-x="1253" unicode="ė"/><glyph d="M1249 518h-803v-172h834v-346l-92 -115q-17 -20 -17 -30q0 -13 17 -13h110v-225h-204q-211 0 -211 145q0 51 26 93t76 96l47 49h-971v1372h1219v-346h-834v-164h803v-344z" glyph-name="Eogonek" horiz-adv-x="1327" unicode="Ę"/><glyph d="M854 -383h-205q-211 0 -211 145q0 36 16.5 72t34.5 58.5t52 58.5l28 31q-120 7 -215 40.5t-166 97t-109 163.5t-38 233q0 248 163 392.5t425 144.5q271 0 427 -132.5t156 -377.5q0 -43 -6 -99h-809q4 -93 52.5 -126t173.5 -33q113 0 154.5 20t41.5 68v22h385v-24 q0 -137 -97.5 -235.5t-270.5 -135.5l-93 -115q-16 -19 -16 -30q0 -13 16 -13h111v-225zM621 758q-107 0 -156.5 -26.5t-61.5 -92.5h437q-10 65 -60.5 92t-158.5 27z" glyph-name="eogonek" horiz-adv-x="1253" unicode="ę"/><glyph d="M764 1761h412l-273 -266h-465l-274 266h414l79 -86h25zM1280 0h-1219v1372h1219v-346h-834v-164h803v-344h-803v-172h834v-346z" glyph-name="Ecaron" horiz-adv-x="1327" unicode="Ě"/><glyph d="M858 1147h-465l-272 266h428l65 -86h25l66 86h428zM637 -20q-135 0 -241.5 30t-187 92.5t-124 167t-43.5 246.5q0 248 163 392.5t425 144.5q271 0 427 -132.5t156 -377.5q0 -43 -6 -99h-809q4 -93 52.5 -126t173.5 -33q113 0 154.5 20t41.5 68v22h385v-24 q0 -174 -154.5 -282.5t-412.5 -108.5zM621 758q-107 0 -156.5 -26.5t-61.5 -92.5h437q-10 65 -60.5 92t-158.5 27z" glyph-name="ecaron" horiz-adv-x="1253" unicode="ě"/><glyph d="M739 1495h-411l272 266h465l274 -266h-413l-80 86h-25zM725 -20q-321 0 -502.5 191t-181.5 515t211.5 515.5t583.5 191.5q348 0 544.5 -145t196.5 -400v-14h-430v14q0 97 -70.5 136.5t-251.5 39.5q-92 0 -153 -9.5t-106 -31t-69 -61.5t-35 -96t-11 -140q0 -105 15.5 -168 t57.5 -102.5t107.5 -53.5t173.5 -14q221 0 296.5 21.5t88.5 97.5h-422v283h811v-750h-358v293h-21q-72 -313 -475 -313z" glyph-name="Gcircumflex" horiz-adv-x="1632" unicode="Ĝ"/><glyph d="M571 1147h-411l272 266h465l274 -266h-413l-80 86h-25zM520 115q-229 0 -354 124t-125 347q0 218 130 342.5t359 124.5q160 0 258 -65.5t119 -196.5h21v241h360v-858q0 -273 -157 -408t-459 -135q-271 0 -420.5 110t-149.5 312h385q0 -47 11 -66t55 -28.5t145 -9.5 q67 0 103 6t61 28t33 59.5t8 104.5v218h-20q-21 -118 -110 -184t-253 -66zM430 586q0 -78 48.5 -110t180.5 -32q136 0 190 25.5t54 103.5v15q0 80 -54 106.5t-190 26.5q-133 0 -181 -29.5t-48 -105.5z" glyph-name="gcircumflex" horiz-adv-x="1349" unicode="ĝ"/><glyph d="M834 1475q-160 0 -260.5 80.5t-100.5 205.5v27h268v-21q0 -35 18 -49t75 -14q58 0 75 14t17 49v21h268v-27q0 -125 -100 -205.5t-260 -80.5zM725 -20q-321 0 -502.5 191t-181.5 515t211.5 515.5t583.5 191.5q348 0 544.5 -145t196.5 -400v-14h-430v14q0 97 -70.5 136.5 t-251.5 39.5q-92 0 -153 -9.5t-106 -31t-69 -61.5t-35 -96t-11 -140q0 -105 15.5 -168t57.5 -102.5t107.5 -53.5t173.5 -14q221 0 296.5 21.5t88.5 97.5h-422v283h811v-750h-358v293h-21q-72 -313 -475 -313z" glyph-name="Gbreve" horiz-adv-x="1632" unicode="Ğ"/><glyph d="M666 1126q-160 0 -260.5 81t-100.5 206v8h268v-2q0 -41 17.5 -55t75.5 -14q59 0 75.5 13.5t16.5 55.5v2h268v-8q0 -125 -100 -206t-260 -81zM520 115q-229 0 -354 124t-125 347q0 218 130 342.5t359 124.5q160 0 258 -65.5t119 -196.5h21v241h360v-858q0 -273 -157 -408 t-459 -135q-271 0 -420.5 110t-149.5 312h385q0 -47 11 -66t55 -28.5t145 -9.5q67 0 103 6t61 28t33 59.5t8 104.5v218h-20q-21 -118 -110 -184t-253 -66zM430 586q0 -78 48.5 -110t180.5 -32q136 0 190 25.5t54 103.5v15q0 80 -54 106.5t-190 26.5q-133 0 -181 -29.5 t-48 -105.5z" glyph-name="gbreve" horiz-adv-x="1349" unicode="ğ"/><glyph d="M1026 1495h-385v285h385v-285zM725 -20q-321 0 -502.5 191t-181.5 515t211.5 515.5t583.5 191.5q348 0 544.5 -145t196.5 -400v-14h-430v14q0 97 -70.5 136.5t-251.5 39.5q-92 0 -153 -9.5t-106 -31t-69 -61.5t-35 -96t-11 -140q0 -105 15.5 -168t57.5 -102.5 t107.5 -53.5t173.5 -14q221 0 296.5 21.5t88.5 97.5h-422v283h811v-750h-358v293h-21q-72 -313 -475 -313z" glyph-name="Gdotaccent" horiz-adv-x="1632" unicode="Ġ"/><glyph d="M858 1147h-385v285h385v-285zM520 115q-229 0 -354 124t-125 347q0 218 130 342.5t359 124.5q160 0 258 -65.5t119 -196.5h21v241h360v-858q0 -273 -157 -408t-459 -135q-271 0 -420.5 110t-149.5 312h385q0 -47 11 -66t55 -28.5t145 -9.5q67 0 103 6t61 28t33 59.5 t8 104.5v218h-20q-21 -118 -110 -184t-253 -66zM430 586q0 -78 48.5 -110t180.5 -32q136 0 190 25.5t54 103.5v15q0 80 -54 106.5t-190 26.5q-133 0 -181 -29.5t-48 -105.5z" glyph-name="gdotaccent" horiz-adv-x="1349" unicode="ġ"/><glyph d="M725 -20q-321 0 -502.5 191t-181.5 515t211.5 515.5t583.5 191.5q348 0 544.5 -145t196.5 -400v-14h-430v14q0 97 -70.5 136.5t-251.5 39.5q-92 0 -153 -9.5t-106 -31t-69 -61.5t-35 -96t-11 -140q0 -105 15.5 -168t57.5 -102.5t107.5 -53.5t173.5 -14q221 0 296.5 21.5 t88.5 97.5h-422v283h811v-750h-358v293h-21q-72 -313 -475 -313zM780 -410h-450l229 267h559z" glyph-name="Gcommaaccent" horiz-adv-x="1632" unicode="Ģ"/><glyph d="M707 1413h391l-193 -266h-502zM520 115q-229 0 -354 124t-125 347q0 218 130 342.5t359 124.5q160 0 258 -65.5t119 -196.5h21v241h360v-858q0 -273 -157 -408t-459 -135q-271 0 -420.5 110t-149.5 312h385q0 -47 11 -66t55 -28.5t145 -9.5q67 0 103 6t61 28t33 59.5 t8 104.5v218h-20q-21 -118 -110 -184t-253 -66zM430 586q0 -78 48.5 -110t180.5 -32q136 0 190 25.5t54 103.5v15q0 80 -54 106.5t-190 26.5q-133 0 -181 -29.5t-48 -105.5z" glyph-name="gcommaaccent" horiz-adv-x="1349" unicode="ģ"/><glyph d="M672 1495h-412l272 266h465l275 -266h-414l-80 86h-24zM446 0h-385v1372h385v-510h639v510h385v-1372h-385v516h-639v-516z" glyph-name="Hcircumflex" horiz-adv-x="1531" unicode="Ĥ"/><glyph d="M156 1495h-412l272 266h465l275 -266h-414l-80 86h-24zM446 0h-385v1372h385v-653h21q13 69 42 126.5t77 105.5t123 75t170 27q198 0 301.5 -112t103.5 -292v-649h-385v520q0 107 -49.5 148t-181.5 41q-131 0 -176.5 -37.5t-45.5 -139.5v-532z" glyph-name="hcircumflex" horiz-adv-x="1337" unicode="ĥ"/><glyph d="M446 0h-385v936h-145v346h145v90h385v-90h639v90h385v-90h144v-346h-144v-936h-385v516h-639v-516zM446 862h639v74h-639v-74z" glyph-name="Hbar" horiz-adv-x="1531" unicode="Ħ"/><glyph d="M555 0h-385v971h-170v286h170v115h385v-115h197v-286h-197v-334h20q13 69 42 126.5t77 105.5t123 75t170 27q198 0 302 -112t104 -292v-567h-385v438q0 107 -50 148t-182 41q-131 0 -176 -37t-45 -139v-451z" glyph-name="hbar" horiz-adv-x="1445" unicode="ħ"/><glyph d="M88 1458h-256v103q0 231 213 231q70 0 180 -39l70 -24q61 -21 82 -21q24 0 34.5 12t10.5 39v15h254v-101q0 -107 -48.5 -170t-148.5 -63q-71 0 -186 39l-94 30q-55 19 -76 19q-35 0 -35 -37v-33zM446 0h-385v1372h385v-1372z" glyph-name="Itilde" unicode="Ĩ"/><glyph d="M121 1110h-256v102q0 232 213 232q70 0 180 -39l70 -25q58 -20 82 -20t34.5 12t10.5 39v14h254v-100q0 -107 -48.5 -170t-148.5 -63q-74 0 -186 38l-95 31q-55 19 -75 19q-35 0 -35 -37v-33zM477 0h-383v1024h383v-1024z" glyph-name="itilde" horiz-adv-x="571" unicode="ĩ"/><glyph d="M616 1497h-727v275h727v-275zM446 0h-385v1372h385v-1372z" glyph-name="Imacron" unicode="Ī"/><glyph d="M649 1143h-727v274h727v-274zM477 0h-383v1024h383v-1024z" glyph-name="imacron" horiz-adv-x="571" unicode="ī"/><glyph d="M254 1475q-160 0 -260 80.5t-100 205.5v27h268v-21q0 -35 17.5 -49t74.5 -14q58 0 75 14t17 49v21h268v-27q0 -125 -100 -205.5t-260 -80.5zM446 0h-385v1372h385v-1372z" glyph-name="Ibreve" unicode="Ĭ"/><glyph d="M287 1126q-160 0 -260.5 81t-100.5 206v8h269v-2q0 -41 17 -55t75 -14q59 0 75.5 13.5t16.5 55.5v2h268v-8q0 -125 -100 -206t-260 -81zM477 0h-383v1024h383v-1024z" glyph-name="ibreve" horiz-adv-x="571" unicode="ĭ"/><glyph d="M465 -383h-205q-211 0 -211 145q0 36 16.5 72t34.5 58.5t52 58.5l47 49h-138v1372h385v-1372l-92 -115q-16 -19 -16 -30q0 -13 16 -13h111v-225z" glyph-name="Iogonek" unicode="Į"/><glyph d="M446 1126h-385v246h385v-246zM465 -383h-205q-211 0 -211 145q0 36 16.5 72t34.5 58.5t52 58.5l47 49h-138v1032h385v-1032l-92 -115q-16 -19 -16 -30q0 -13 16 -13h111v-225z" glyph-name="iogonek" unicode="į"/><glyph d="M446 1495h-385v285h385v-285zM446 0h-385v1372h385v-1372z" glyph-name="Idotaccent" unicode="İ"/><glyph d="M477 0h-383v1024h383v-1024z" glyph-name="dotlessi" horiz-adv-x="571" unicode="ı"/><glyph d="M446 0h-385v1372h385v-1372zM1169 -20q-174 0 -297.5 38.5t-199 117t-110 189.5t-34.5 263v53h410v-49q0 -54 1.5 -83t9 -61t22 -46.5t40.5 -28t64 -17.5t94 -4t93.5 4t64.5 15.5t42 25.5t23.5 42t10.5 56t2 76v801h410v-805q0 -147 -35 -254t-111 -182.5t-200.5 -113 t-299.5 -37.5z" glyph-name="IJ" horiz-adv-x="1867" unicode="Ĳ"/><glyph d="M446 1126h-385v246h385v-246zM954 1126h-385v246h385v-246zM446 0h-385v1032h385v-1032zM492 -348h-37v282h39q39 0 57 17t18 57v1024h385v-966q0 -120 -30 -202t-91.5 -128t-143 -65t-197.5 -19z" glyph-name="ij" horiz-adv-x="1015" unicode="ĳ"/><glyph d="M1008 1495h-412l272 266h465l275 -266h-414l-80 86h-24zM662 -20q-343 0 -492.5 150.5t-149.5 457.5v53h410v-49q0 -54 1.5 -83.5t9.5 -61t22 -46t40.5 -28t64.5 -17.5t94 -4t93.5 4t64.5 15.5t41.5 25.5t23 42t10.5 56t2 76v801h410v-805q0 -147 -35 -254t-111 -182.5 t-200 -113t-299 -37.5z" glyph-name="Jcircumflex" horiz-adv-x="1359" unicode="Ĵ"/><glyph d="M160 1147h-412l272 266h465l275 -266h-414l-80 86h-24zM-16 -348h-37v282h39q39 0 57 17t18 57v1024h385v-966q0 -120 -30 -202t-91.5 -128t-143 -65t-197.5 -19z" glyph-name="jcircumflex" unicode="ĵ"/><glyph d="M446 0h-385v1372h385v-510h277l334 510h461l-476 -674l465 -698h-460l-320 487h-281v-487zM731 -410h-450l229 267h559z" glyph-name="Kcommaaccent" horiz-adv-x="1497" unicode="Ķ"/><glyph d="M446 0h-385v1372h385v-698h183l227 358h455l-367 -502l361 -530h-455l-217 330h-187v-330zM662 -410h-392l193 267h502z" glyph-name="kcommaaccent" horiz-adv-x="1290" unicode="ķ"/><glyph d="M475 1495h-414l273 274h555zM1239 0h-1178v1372h385v-1026h793v-346z" glyph-name="Lacute" horiz-adv-x="1280" unicode="Ĺ"/><glyph d="M475 1495h-414l273 274h555zM446 0h-385v1372h385v-1372z" glyph-name="lacute" unicode="ĺ"/><glyph d="M1239 0h-1178v1372h385v-1026h793v-346zM627 -410h-451l230 267h559z" glyph-name="Lcommaaccent" horiz-adv-x="1280" unicode="Ļ"/><glyph d="M446 0h-385v1372h385v-1372zM199 -410h-392l193 267h502z" glyph-name="lcommaaccent" unicode="ļ"/><glyph d="M1239 0h-1178v1372h385v-1026h793v-346zM823 618h-139v256h127q39 0 55.5 15t16.5 59v31h-219v393h499v-420q0 -167 -87.5 -250.5t-252.5 -83.5z" glyph-name="Lcaron" horiz-adv-x="1280" unicode="Ľ"/><glyph d="M446 0h-385v1372h385v-1372zM692 852h-104v186h94q29 0 41 11t12 41v16h-162v266h365v-278q0 -242 -246 -242z" glyph-name="lcaron" horiz-adv-x="948" unicode="ľ"/><glyph d="M463 1495h-385v285h385v-285zM1239 0h-1178v1372h385v-1026h793v-346z" glyph-name="Ldot" horiz-adv-x="1280" unicode="Ŀ"/><glyph d="M446 0h-385v1372h385v-1372zM893 545h-385v284h385v-284z" glyph-name="ldot" horiz-adv-x="892" unicode="ŀ"/><glyph d="M975 688l-418 -145v-197h793v-346h-1178v410l-152 -54v357l152 53v606h385v-473l418 145v-356z" glyph-name="Lslash" horiz-adv-x="1390" unicode="Ł"/><glyph d="M604 0h-385v553l-135 -59l-104 215l239 106v557h385v-387l135 59l105 -215l-240 -106v-723z" glyph-name="lslash" horiz-adv-x="823" unicode="ł"/><glyph d="M958 1495h-413l272 274h555zM446 0h-385v1372h410l381 -514l201 -315h26l-18 299v530h385v-1372h-410l-405 528l-174 271h-27l16 -262v-537z" glyph-name="Nacute" horiz-adv-x="1507" unicode="Ń"/><glyph d="M870 1147h-417l274 266h557zM446 0h-385v1032h361v-313h20q9 68 36 125.5t74.5 105.5t124.5 75.5t177 27.5q201 0 305.5 -108t104.5 -283v-662h-385v520q0 107 -48 148t-174 41q-125 0 -168 -37.5t-43 -139.5v-532z" glyph-name="nacute" horiz-adv-x="1316" unicode="ń"/><glyph d="M446 0h-385v1372h410l381 -514l201 -315h26l-18 299v530h385v-1372h-410l-405 528l-174 271h-27l16 -262v-537zM731 -410h-450l229 267h559z" glyph-name="Ncommaaccent" horiz-adv-x="1507" unicode="Ņ"/><glyph d="M446 0h-385v1032h361v-313h20q9 68 36 125.5t74.5 105.5t124.5 75.5t177 27.5q201 0 305.5 -108t104.5 -283v-662h-385v520q0 107 -48 148t-174 41q-125 0 -168 -37.5t-43 -139.5v-532zM627 -410h-391l192 267h502z" glyph-name="ncommaaccent" horiz-adv-x="1316" unicode="ņ"/><glyph d="M848 1761h412l-273 -266h-465l-274 266h414l79 -86h25zM446 0h-385v1372h410l381 -514l201 -315h26l-18 299v530h385v-1372h-410l-405 528l-174 271h-27l16 -262v-537z" glyph-name="Ncaron" horiz-adv-x="1507" unicode="Ň"/><glyph d="M893 1147h-465l-272 266h428l65 -86h25l65 86h428zM446 0h-385v1032h361v-313h20q9 68 36 125.5t74.5 105.5t124.5 75.5t177 27.5q201 0 305.5 -108t104.5 -283v-662h-385v520q0 107 -48 148t-174 41q-125 0 -168 -37.5t-43 -139.5v-532z" glyph-name="ncaron" horiz-adv-x="1316" unicode="ň"/><glyph d="M915 -348h-249v344h241q92 0 113 24l-389 508l-174 271h-27l16 -262v-537h-385v1372h410l381 -514l201 -315h26l-18 299v530h385v-1218q0 -143 -36.5 -242.5t-108.5 -155.5t-165.5 -80t-220.5 -24z" glyph-name="Eng" horiz-adv-x="1507" unicode="Ŋ"/><glyph d="M446 0h-385v1032h361v-313h20q9 68 36 125.5t74.5 105.5t124.5 75.5t177 27.5q201 0 305.5 -108t104.5 -283v-668q0 -96 -33 -163.5t-96 -106t-144.5 -55.5t-189.5 -17h-37v282h39q39 0 57.5 17t18.5 57v512q0 107 -48 148t-174 41q-125 0 -168 -37.5t-43 -139.5v-532z" glyph-name="eng" horiz-adv-x="1316" unicode="ŋ"/><glyph d="M1167 1497h-727v275h727v-275zM801 -20q-355 0 -557.5 191t-202.5 515t202.5 515.5t557.5 191.5q362 0 565 -191t203 -516t-202.5 -515.5t-565.5 -190.5zM801 348q109 0 174.5 14t108.5 53.5t59 103t16 167.5t-16 167.5t-59 103t-108.5 53.5t-174.5 14q-108 0 -173 -14 t-106 -53.5t-56 -102.5t-15 -168t15 -168t56 -102.5t106 -53.5t173 -14z" glyph-name="Omacron" horiz-adv-x="1609" unicode="Ō"/><glyph d="M995 1143h-727v274h727v-274zM633 -20q-272 0 -437 144t-165 392q0 249 165 393t437 144t437 -144t165 -393q0 -248 -165 -392t-437 -144zM633 319q129 0 175 41.5t46 155.5t-46 156.5t-175 42.5t-175 -42.5t-46 -156.5t46 -155.5t175 -41.5z" glyph-name="omacron" horiz-adv-x="1265" unicode="ō"/><glyph d="M805 1475q-160 0 -260.5 80.5t-100.5 205.5v27h269v-21q0 -35 17.5 -49t74.5 -14q58 0 75 14t17 49v21h268v-27q0 -125 -100 -205.5t-260 -80.5zM801 -20q-355 0 -557.5 191t-202.5 515t202.5 515.5t557.5 191.5q362 0 565 -191t203 -516t-202.5 -515.5t-565.5 -190.5z M801 348q109 0 174.5 14t108.5 53.5t59 103t16 167.5t-16 167.5t-59 103t-108.5 53.5t-174.5 14q-108 0 -173 -14t-106 -53.5t-56 -102.5t-15 -168t15 -168t56 -102.5t106 -53.5t173 -14z" glyph-name="Obreve" horiz-adv-x="1609" unicode="Ŏ"/><glyph d="M633 1126q-160 0 -260.5 81t-100.5 206v8h269v-2q0 -41 17 -55t75 -14q59 0 75.5 13.5t16.5 55.5v2h268v-8q0 -125 -100 -206t-260 -81zM633 -20q-272 0 -437 144t-165 392q0 249 165 393t437 144t437 -144t165 -393q0 -248 -165 -392t-437 -144zM633 319q129 0 175 41.5 t46 155.5t-46 156.5t-175 42.5t-175 -42.5t-46 -156.5t46 -155.5t175 -41.5z" glyph-name="obreve" horiz-adv-x="1265" unicode="ŏ"/><glyph d="M1243 1495h-389l164 274h504zM645 1495h-389l162 274h506zM801 -20q-355 0 -557.5 191t-202.5 515t202.5 515.5t557.5 191.5q362 0 565 -191t203 -516t-202.5 -515.5t-565.5 -190.5zM801 348q109 0 174.5 14t108.5 53.5t59 103t16 167.5t-16 167.5t-59 103t-108.5 53.5 t-174.5 14q-108 0 -173 -14t-106 -53.5t-56 -102.5t-15 -168t15 -168t56 -102.5t106 -53.5t173 -14z" glyph-name="Ohungarumlaut" horiz-adv-x="1609" unicode="Ő"/><glyph d="M1085 1147h-389l164 266h504zM487 1147h-389l162 266h506zM633 -20q-272 0 -437 144t-165 392q0 249 165 393t437 144t437 -144t165 -393q0 -248 -165 -392t-437 -144zM633 319q129 0 175 41.5t46 155.5t-46 156.5t-175 42.5t-175 -42.5t-46 -156.5t46 -155.5t175 -41.5z" glyph-name="ohungarumlaut" horiz-adv-x="1265" unicode="ő"/><glyph d="M2290 0h-1528q-328 0 -524.5 182.5t-196.5 503.5t196.5 503.5t524.5 182.5h1528v-346h-834v-164h803v-344h-803v-172h834v-346zM762 346h309v680h-309q-62 0 -101.5 -3.5t-77.5 -16t-59.5 -34.5t-38.5 -60.5t-23.5 -93t-6.5 -132.5t6.5 -132.5t23.5 -93t38.5 -60.5 t59.5 -34.5t77.5 -16t101.5 -3.5z" glyph-name="OE" horiz-adv-x="2336" unicode="Œ"/><glyph d="M633 -20q-272 0 -437 144t-165 392q0 249 165 393t437 144q259 0 424 -131q159 131 409 131q271 0 427.5 -132.5t156.5 -377.5q0 -43 -6 -99h-809q4 -93 52.5 -126t172.5 -33q113 0 155 20t42 68v22h385v-24q0 -174 -154.5 -282.5t-412.5 -108.5q-283 0 -431 122 q-159 -122 -411 -122zM1458 758q-106 0 -155.5 -26.5t-61.5 -92.5h436q-10 65 -60.5 92t-158.5 27zM633 319q129 0 175 41.5t46 155.5t-46 156.5t-175 42.5t-175 -42.5t-46 -156.5t46 -155.5t175 -41.5z" glyph-name="oe" horiz-adv-x="2091" unicode="œ"/><glyph d="M920 1495h-414l272 274h555zM446 0h-385v1372h801q270 0 411.5 -109t141.5 -311q0 -166 -89 -260.5t-282 -118.5v-20q68 -18 114 -49.5t70.5 -66t53.5 -93.5l170 -344h-444l-164 336q-26 54 -52 80.5t-69 38.5t-119 12h-158v-467zM446 1026v-272h412q89 0 121.5 26.5 t32.5 110.5q0 80 -33.5 107.5t-120.5 27.5h-412z" glyph-name="Racute" horiz-adv-x="1452" unicode="Ŕ"/><glyph d="M788 1147h-417l274 266h557zM446 0h-385v1032h361v-270h20q23 134 107.5 212.5t232.5 78.5q163 0 240.5 -96t77.5 -261v-204h-385v120q0 65 -29 91t-104 26q-77 0 -106.5 -25.5t-29.5 -87.5v-616z" glyph-name="racute" horiz-adv-x="1120" unicode="ŕ"/><glyph d="M446 0h-385v1372h801q270 0 411.5 -109t141.5 -311q0 -166 -89 -260.5t-282 -118.5v-20q68 -18 114 -49.5t70.5 -66t53.5 -93.5l170 -344h-444l-164 336q-26 54 -52 80.5t-69 38.5t-119 12h-158v-467zM446 1026v-272h412q89 0 121.5 26.5t32.5 110.5q0 80 -33.5 107.5 t-120.5 27.5h-412zM692 -410h-450l229 267h559z" glyph-name="Rcommaaccent" horiz-adv-x="1452" unicode="Ŗ"/><glyph d="M446 0h-385v1032h361v-270h20q23 134 107.5 212.5t232.5 78.5q163 0 240.5 -96t77.5 -261v-204h-385v120q0 65 -29 91t-104 26q-77 0 -106.5 -25.5t-29.5 -87.5v-616zM197 -410h-392l193 267h502z" glyph-name="rcommaaccent" horiz-adv-x="1120" unicode="ŗ"/><glyph d="M809 1761h412l-273 -266h-465l-274 266h414l79 -86h25zM446 0h-385v1372h801q270 0 411.5 -109t141.5 -311q0 -166 -89 -260.5t-282 -118.5v-20q68 -18 114 -49.5t70.5 -66t53.5 -93.5l170 -344h-444l-164 336q-26 54 -52 80.5t-69 38.5t-119 12h-158v-467zM446 1026 v-272h412q89 0 121.5 26.5t32.5 110.5q0 80 -33.5 107.5t-120.5 27.5h-412z" glyph-name="Rcaron" horiz-adv-x="1452" unicode="Ř"/><glyph d="M811 1147h-465l-272 266h428l65 -86h25l65 86h428zM446 0h-385v1032h361v-270h20q23 134 107.5 212.5t232.5 78.5q163 0 240.5 -96t77.5 -261v-204h-385v120q0 65 -29 91t-104 26q-77 0 -106.5 -25.5t-29.5 -87.5v-616z" glyph-name="rcaron" horiz-adv-x="1120" unicode="ř"/><glyph d="M905 1495h-413l272 274h555zM727 -20q-325 0 -500.5 121.5t-175.5 375.5v12h385v-43q0 -49 19.5 -72t80.5 -33.5t191 -10.5q116 0 171 8t71 23.5t16 48.5q0 38 -28 56t-111 28l-430 57q-191 26 -288 126t-97 267q0 68 21 131t71 121.5t124.5 101.5t189.5 69t259 26 q320 0 482.5 -131t162.5 -367v-12h-385v30q0 52 -21.5 78.5t-86 39.5t-193.5 13q-141 0 -190 -19.5t-49 -66.5q0 -33 21.5 -49.5t76.5 -23.5l430 -64q426 -62 426 -397q0 -73 -22 -137t-71.5 -121t-123 -98t-182.5 -64.5t-244 -23.5z" glyph-name="Sacute" horiz-adv-x="1400" unicode="Ś"/><glyph d="M801 1147h-418l274 266h557zM616 -20q-271 0 -415 99t-144 279v9h385v-21q0 -41 33.5 -52t142.5 -11q95 0 124.5 10.5t29.5 38.5q0 25 -20.5 34.5t-92.5 16.5l-299 33q-161 17 -244 92t-83 205q0 71 29.5 130.5t90.5 107.5t166.5 75t245.5 27q270 0 409.5 -96.5 t139.5 -286.5v-8h-385v12q0 29 -11 44.5t-50 24.5t-115 9q-89 0 -115 -12t-26 -44q0 -16 9 -25t39 -16.5t89 -13.5l205 -23q219 -24 308 -97.5t89 -209.5q0 -148 -142 -239.5t-393 -91.5z" glyph-name="sacute" horiz-adv-x="1181" unicode="ś"/><glyph d="M606 1495h-411l272 266h465l274 -266h-413l-80 86h-25zM727 -20q-325 0 -500.5 121.5t-175.5 375.5v12h385v-43q0 -49 19.5 -72t80.5 -33.5t191 -10.5q116 0 171 8t71 23.5t16 48.5q0 38 -28 56t-111 28l-430 57q-191 26 -288 126t-97 267q0 68 21 131t71 121.5 t124.5 101.5t189.5 69t259 26q320 0 482.5 -131t162.5 -367v-12h-385v30q0 52 -21.5 78.5t-86 39.5t-193.5 13q-141 0 -190 -19.5t-49 -66.5q0 -33 21.5 -49.5t76.5 -23.5l430 -64q426 -62 426 -397q0 -73 -22 -137t-71.5 -121t-123 -98t-182.5 -64.5t-244 -23.5z" glyph-name="Scircumflex" horiz-adv-x="1400" unicode="Ŝ"/><glyph d="M498 1147h-412l272 266h465l275 -266h-414l-80 86h-24zM616 -20q-271 0 -415 99t-144 279v9h385v-21q0 -41 33.5 -52t142.5 -11q95 0 124.5 10.5t29.5 38.5q0 25 -20.5 34.5t-92.5 16.5l-299 33q-161 17 -244 92t-83 205q0 71 29.5 130.5t90.5 107.5t166.5 75t245.5 27 q270 0 409.5 -96.5t139.5 -286.5v-8h-385v12q0 29 -11 44.5t-50 24.5t-115 9q-89 0 -115 -12t-26 -44q0 -16 9 -25t39 -16.5t89 -13.5l205 -23q219 -24 308 -97.5t89 -209.5q0 -148 -142 -239.5t-393 -91.5z" glyph-name="scircumflex" horiz-adv-x="1181" unicode="ŝ"/><glyph d="M727 -20h-6v-54h29q115 0 176 -55.5t61 -151.5q0 -99 -61 -156t-176 -57h-224v199h230q16 0 16 12q0 15 -16 15h-230v262q-475 68 -475 483v12h385v-43q0 -49 19.5 -72t80.5 -33.5t191 -10.5q116 0 171 8t71 23.5t16 48.5q0 38 -28 56t-111 28l-430 57q-191 26 -288 126 t-97 267q0 68 21 131t71 121.5t124.5 101.5t189.5 69t259 26q320 0 482.5 -131t162.5 -367v-12h-385v30q0 52 -21.5 78.5t-86 39.5t-193.5 13q-141 0 -190 -19.5t-49 -66.5q0 -33 21.5 -49.5t76.5 -23.5l430 -64q426 -62 426 -397q0 -73 -22 -137t-71.5 -121t-123 -98 t-182.5 -64.5t-244 -23.5z" glyph-name="Scedilla" horiz-adv-x="1400" unicode="Ş"/><glyph d="M700 -494h-223v199h230q16 0 16 12q0 15 -16 15h-230v256q-205 25 -312.5 120.5t-107.5 249.5v9h385v-21q0 -41 33.5 -52t142.5 -11q95 0 124.5 10.5t29.5 38.5q0 25 -20.5 34.5t-92.5 16.5l-299 33q-161 17 -244 92t-83 205q0 71 29.5 130.5t90.5 107.5t166.5 75 t245.5 27q270 0 409.5 -96.5t139.5 -286.5v-8h-385v12q0 29 -11 44.5t-50 24.5t-115 9q-89 0 -115 -12t-26 -44q0 -16 9 -25t39 -16.5t89 -13.5l205 -23q219 -24 308 -97.5t89 -209.5q0 -139 -126.5 -229t-352.5 -100v-56h28q115 0 176.5 -55.5t61.5 -151.5 q0 -99 -61.5 -156t-176.5 -57z" glyph-name="scedilla" horiz-adv-x="1181" unicode="ş"/><glyph d="M795 1761h411l-272 -266h-465l-274 266h413l80 -86h25zM727 -20q-325 0 -500.5 121.5t-175.5 375.5v12h385v-43q0 -49 19.5 -72t80.5 -33.5t191 -10.5q116 0 171 8t71 23.5t16 48.5q0 38 -28 56t-111 28l-430 57q-191 26 -288 126t-97 267q0 68 21 131t71 121.5 t124.5 101.5t189.5 69t259 26q320 0 482.5 -131t162.5 -367v-12h-385v30q0 52 -21.5 78.5t-86 39.5t-193.5 13q-141 0 -190 -19.5t-49 -66.5q0 -33 21.5 -49.5t76.5 -23.5l430 -64q426 -62 426 -397q0 -73 -22 -137t-71.5 -121t-123 -98t-182.5 -64.5t-244 -23.5z" glyph-name="Scaron" horiz-adv-x="1400" unicode="Š"/><glyph d="M823 1147h-465l-272 266h428l66 -86h24l66 86h428zM616 -20q-271 0 -415 99t-144 279v9h385v-21q0 -41 33.5 -52t142.5 -11q95 0 124.5 10.5t29.5 38.5q0 25 -20.5 34.5t-92.5 16.5l-299 33q-161 17 -244 92t-83 205q0 71 29.5 130.5t90.5 107.5t166.5 75t245.5 27 q270 0 409.5 -96.5t139.5 -286.5v-8h-385v12q0 29 -11 44.5t-50 24.5t-115 9q-89 0 -115 -12t-26 -44q0 -16 9 -25t39 -16.5t89 -13.5l205 -23q219 -24 308 -97.5t89 -209.5q0 -148 -142 -239.5t-393 -91.5z" glyph-name="scaron" horiz-adv-x="1181" unicode="š"/><glyph d="M901 0h-123v-74h29q115 0 176 -55.5t61 -151.5q0 -99 -61 -156t-176 -57h-223v199h229q16 0 16 12q0 15 -16 15h-229v268h-68v1026h-485v346h1353v-346h-483v-1026z" glyph-name="Tcedilla" horiz-adv-x="1415" unicode="Ţ"/><glyph d="M834 0h-189v-74h29q115 0 176 -55.5t61 -151.5q0 -99 -61 -156t-176 -57h-223v199h229q16 0 16 12q0 15 -16 15h-229v274h18q-154 22 -235.5 118.5t-81.5 268.5v324h-152v315h152v178h385v-178h297v-315h-297v-268q0 -61 23 -82t89 -21h185v-346z" glyph-name="tcedilla" horiz-adv-x="864" unicode="ţ"/><glyph d="M803 1761h411l-272 -266h-465l-274 266h413l80 -86h25zM901 0h-385v1026h-485v346h1353v-346h-483v-1026z" glyph-name="Tcaron" horiz-adv-x="1415" unicode="Ť"/><glyph d="M700 1126h-104v187h94q29 0 41 10.5t12 40.5v16h-161v267h364v-279q0 -242 -246 -242zM834 0h-271q-198 0 -304.5 98t-106.5 295v324h-152v315h152v178h385v-178h297v-315h-297v-268q0 -61 23 -82t89 -21h185v-346z" glyph-name="tcaron" horiz-adv-x="743" unicode="ť"/><glyph d="M901 0h-385v469h-293v344h293v213h-485v346h1353v-346h-483v-213h293v-344h-293v-469z" glyph-name="Tbar" horiz-adv-x="1415" unicode="Ŧ"/><glyph d="M834 0h-271q-198 0 -304.5 98t-106.5 295v23h-152v272h152v70h-152v274h152v178h385v-178h297v-274h-297v-70h297v-272h-295q4 -40 28.5 -55t81.5 -15h185v-346z" glyph-name="tbar" horiz-adv-x="864" unicode="ŧ"/><glyph d="M588 1458h-256v103q0 231 213 231q70 0 180 -39l70 -24q61 -21 82 -21q24 0 34.5 12t10.5 39v15h254v-101q0 -107 -48.5 -170t-148.5 -63q-71 0 -186 39l-95 30q-55 19 -75 19q-35 0 -35 -37v-33zM754 -20q-350 0 -525.5 156.5t-175.5 438.5v797h385v-766q0 -102 25 -154 t92.5 -76t198.5 -24q99 0 159 11.5t95.5 43t48 77t12.5 122.5v766h385v-797q0 -282 -175 -438.5t-525 -156.5z" glyph-name="Utilde" horiz-adv-x="1507" unicode="Ũ"/><glyph d="M506 1110h-256v102q0 232 213 232q70 0 180 -39l70 -25q58 -20 82 -20t34.5 12t10.5 39v14h254v-100q0 -107 -48.5 -170t-148.5 -63q-74 0 -186 38l-95 31q-55 19 -75 19q-35 0 -35 -37v-33zM485 -20q-209 0 -316.5 108t-107.5 283v661h385v-520q0 -107 50 -147.5 t182 -40.5q131 0 176 37t45 139v532h385v-1032h-360v313h-21q-9 -68 -36 -125t-75.5 -105t-127 -75.5t-179.5 -27.5z" glyph-name="utilde" horiz-adv-x="1337" unicode="ũ"/><glyph d="M1116 1497h-727v275h727v-275zM754 -20q-350 0 -525.5 156.5t-175.5 438.5v797h385v-766q0 -102 25 -154t92.5 -76t198.5 -24q99 0 159 11.5t95.5 43t48 77t12.5 122.5v766h385v-797q0 -282 -175 -438.5t-525 -156.5z" glyph-name="Umacron" horiz-adv-x="1507" unicode="Ū"/><glyph d="M1034 1143h-727v274h727v-274zM485 -20q-209 0 -316.5 108t-107.5 283v661h385v-520q0 -107 50 -147.5t182 -40.5q131 0 176 37t45 139v532h385v-1032h-360v313h-21q-9 -68 -36 -125t-75.5 -105t-127 -75.5t-179.5 -27.5z" glyph-name="umacron" horiz-adv-x="1337" unicode="ū"/><glyph d="M754 1475q-160 0 -260.5 80.5t-100.5 205.5v27h269v-21q0 -35 17.5 -49t74.5 -14q58 0 75 14t17 49v21h268v-27q0 -125 -100 -205.5t-260 -80.5zM754 -20q-350 0 -525.5 156.5t-175.5 438.5v797h385v-766q0 -102 25 -154t92.5 -76t198.5 -24q99 0 159 11.5t95.5 43t48 77 t12.5 122.5v766h385v-797q0 -282 -175 -438.5t-525 -156.5z" glyph-name="Ubreve" horiz-adv-x="1507" unicode="Ŭ"/><glyph d="M672 1126q-160 0 -260.5 81t-100.5 206v8h269v-2q0 -41 17 -55t75 -14q59 0 75.5 13.5t16.5 55.5v2h268v-8q0 -125 -100 -206t-260 -81zM485 -20q-209 0 -316.5 108t-107.5 283v661h385v-520q0 -107 50 -147.5t182 -40.5q131 0 176 37t45 139v532h385v-1032h-360v313h-21 q-9 -68 -36 -125t-75.5 -105t-127 -75.5t-179.5 -27.5z" glyph-name="ubreve" horiz-adv-x="1337" unicode="ŭ"/><glyph d="M754 1382q-117 0 -191 61t-74 159t74 158.5t191 60.5t190.5 -60.5t73.5 -158.5t-73.5 -159t-190.5 -61zM754 1554q41 0 56 10t15 38t-15 37.5t-56 9.5t-56.5 -10t-15.5 -37t16 -37.5t56 -10.5zM754 -20q-350 0 -525.5 156.5t-175.5 438.5v797h385v-766q0 -102 25 -154 t92.5 -76t198.5 -24q99 0 159 11.5t95.5 43t48 77t12.5 122.5v766h385v-797q0 -282 -175 -438.5t-525 -156.5z" glyph-name="Uring" horiz-adv-x="1507" unicode="Ů"/><glyph d="M672 1114q-97 0 -157 49.5t-60 130.5q0 82 60 131.5t157 49.5t157 -49.5t60 -131.5q0 -81 -60 -130.5t-157 -49.5zM672 1260q36 0 47.5 7.5t11.5 26.5t-11.5 27t-47.5 8t-48 -8t-12 -27t12 -26.5t48 -7.5zM485 -20q-209 0 -316.5 108t-107.5 283v661h385v-520 q0 -107 50 -147.5t182 -40.5q131 0 176 37t45 139v532h385v-1032h-360v313h-21q-9 -68 -36 -125t-75.5 -105t-127 -75.5t-179.5 -27.5z" glyph-name="uring" horiz-adv-x="1337" unicode="ů"/><glyph d="M1192 1495h-389l164 274h503zM594 1495h-389l162 274h505zM754 -20q-350 0 -525.5 156.5t-175.5 438.5v797h385v-766q0 -102 25 -154t92.5 -76t198.5 -24q99 0 159 11.5t95.5 43t48 77t12.5 122.5v766h385v-797q0 -282 -175 -438.5t-525 -156.5z" glyph-name="Uhungarumlaut" horiz-adv-x="1507" unicode="Ű"/><glyph d="M1124 1147h-389l164 266h504zM526 1147h-389l162 266h506zM485 -20q-209 0 -316.5 108t-107.5 283v661h385v-520q0 -107 50 -147.5t182 -40.5q131 0 176 37t45 139v532h385v-1032h-360v313h-21q-9 -68 -36 -125t-75.5 -105t-127 -75.5t-179.5 -27.5z" glyph-name="uhungarumlaut" horiz-adv-x="1337" unicode="ű"/><glyph d="M981 -383h-205q-211 0 -211 145q0 36 16.5 72t34.5 58.5t52 58.5l28 31q-322 12 -482.5 167.5t-160.5 425.5v797h385v-766q0 -102 25 -154t92.5 -76t198.5 -24q99 0 159 11.5t95.5 43t48 77t12.5 122.5v766h385v-797q0 -236 -124 -386t-372 -193l-88 -111 q-16 -19 -16 -30q0 -13 16 -13h111v-225z" glyph-name="Uogonek" horiz-adv-x="1507" unicode="Ų"/><glyph d="M485 -20q-209 0 -316.5 108t-107.5 283v661h385v-520q0 -107 50 -147.5t182 -40.5q131 0 176 37t45 139v532h385v-1032l-92 -115q-16 -19 -16 -30q0 -13 16 -13h111v-225h-205q-211 0 -211 145q0 51 26 93t76 96l47 49h-112v313h-21q-9 -68 -36 -125t-75.5 -105 t-127 -75.5t-179.5 -27.5z" glyph-name="uogonek" horiz-adv-x="1337" unicode="ų"/><glyph d="M1057 1495h-412l273 266h464l275 -266h-414l-80 86h-24zM877 0h-572l-287 1372h431l114 -698l37 -309h27l55 309l184 698h580l168 -698l49 -309h27l41 309l129 698h421l-313 -1372h-571l-144 588l-90 430h-26l-97 -430z" glyph-name="Wcircumflex" horiz-adv-x="2299" unicode="Ŵ"/><glyph d="M866 1147h-411l272 266h465l274 -266h-413l-80 86h-25zM731 0h-481l-260 1032h399l74 -373l39 -368h26l86 409l103 332h495l103 -332l86 -409h26l41 368l72 373h393l-272 -1032h-481l-133 414l-76 309h-27l-78 -309z" glyph-name="wcircumflex" horiz-adv-x="1923" unicode="ŵ"/><glyph d="M690 1495h-411l272 266h465l274 -266h-413l-80 86h-25zM971 0h-385v436l-617 936h477l207 -325l117 -193h27l116 193l207 325h479l-628 -938v-434z" glyph-name="Ycircumflex" horiz-adv-x="1568" unicode="Ŷ"/><glyph d="M569 1147h-411l272 266h465l274 -266h-413l-80 86h-25zM289 -348h-187v348h299q48 0 72 12l-493 1020h438l178 -405l74 -238h26l68 242l154 401h430l-490 -1073q-42 -91 -93 -150.5t-121.5 -94.5t-153.5 -48.5t-201 -13.5z" glyph-name="ycircumflex" horiz-adv-x="1327" unicode="ŷ"/><glyph d="M1208 1495h-364v285h364v-285zM725 1495h-365v285h365v-285zM971 0h-385v436l-617 936h477l207 -325l117 -193h27l116 193l207 325h479l-628 -938v-434z" glyph-name="Ydieresis" horiz-adv-x="1568" unicode="Ÿ"/><glyph d="M920 1495h-414l272 274h555zM1376 0h-1325v346l731 653v27h-719v346h1301v-346l-764 -653v-27h776v-346z" glyph-name="Zacute" horiz-adv-x="1427" unicode="Ź"/><glyph d="M801 1147h-418l274 266h557zM1153 0h-1122v328l372 250l215 108v27l-215 -17h-342v336h1061v-327l-405 -261l-201 -102v-27l201 21h436v-336z" glyph-name="zacute" horiz-adv-x="1183" unicode="ź"/><glyph d="M907 1495h-385v285h385v-285zM1376 0h-1325v346l731 653v27h-719v346h1301v-346l-764 -653v-27h776v-346z" glyph-name="Zdotaccent" horiz-adv-x="1427" unicode="Ż"/><glyph d="M784 1147h-385v285h385v-285zM1153 0h-1122v328l372 250l215 108v27l-215 -17h-342v336h1061v-327l-405 -261l-201 -102v-27l201 21h436v-336z" glyph-name="zdotaccent" horiz-adv-x="1183" unicode="ż"/><glyph d="M809 1761h412l-273 -266h-465l-274 266h414l79 -86h25zM1376 0h-1325v346l731 653v27h-719v346h1301v-346l-764 -653v-27h776v-346z" glyph-name="Zcaron" horiz-adv-x="1427" unicode="Ž"/><glyph d="M823 1147h-465l-272 266h428l66 -86h24l66 86h428zM1153 0h-1122v328l372 250l215 108v27l-215 -17h-342v336h1061v-327l-405 -261l-201 -102v-27l201 21h436v-336z" glyph-name="zcaron" horiz-adv-x="1183" unicode="ž"/><glyph d="M94 -348h-114l59 346h74q70 0 103.5 3.5t59.5 20t36 43.5t20 82l63 367h-211l62 344h209l2 6q47 267 208.5 387.5t471.5 120.5h59l-59 -346h-72q-56 0 -86.5 -2.5t-56.5 -10t-39 -25.5t-22 -42.5t-17 -68.5l-4 -19h266l-62 -344h-264l-61 -354q-52 -286 -191.5 -397 t-433.5 -111z" glyph-name="florin" horiz-adv-x="1175" unicode="ƒ"/><glyph d="M2038 1495h-414l272 274h555zM461 0h-477l993 1372h1466v-346h-833v-164h803v-344h-803v-172h833v-346h-1218v254h-584zM1204 1049l-317 -449h338v449h-21z" glyph-name="AEacute" horiz-adv-x="2490" unicode="Ǽ"/><glyph d="M1214 1147h-417l274 266h557zM408 -20q-180 0 -278.5 74.5t-98.5 207.5q0 117 82.5 189.5t251.5 89.5l444 43v12q0 75 -38 98t-146 23t-148.5 -23.5t-40.5 -87.5v-18h-385v14q0 205 158.5 328t421.5 123q248 0 385 -109q156 109 381 109q271 0 427 -132.5t156 -377.5 q0 -43 -6 -99h-809q4 -93 52.5 -126t173.5 -33q113 0 154.5 20t41.5 68v22h385v-24q0 -174 -154.5 -282.5t-412.5 -108.5q-391 0 -526 237h-23q-39 -114 -153.5 -175.5t-294.5 -61.5zM1389 758q-107 0 -156.5 -26.5t-61.5 -92.5h437q-10 65 -60.5 92t-158.5 27zM418 287 q0 -23 22 -31t70 -8q158 0 227 24.5t84 92.5l-354 -39q-49 -6 -49 -39z" glyph-name="aeacute" horiz-adv-x="1998" unicode="ǽ"/><glyph d="M1010 1495h-414l272 274h555zM801 -20q-279 0 -465 120l-158 -137l-180 195l149 129q-106 168 -106 399q0 324 202.5 515.5t557.5 191.5q284 0 475 -121l156 135l180 -195l-148 -129q105 -168 105 -397q0 -325 -202.5 -515.5t-565.5 -190.5zM451 686q0 -78 8 -127 l516 451q-66 14 -174 14t-173 -14t-106 -53.5t-56 -102.5t-15 -168zM801 348q109 0 174.5 14t108.5 53.5t59 103t16 167.5q0 78 -8 125l-516 -451q68 -12 166 -12z" glyph-name="Oslashacute" horiz-adv-x="1609" unicode="Ǿ"/><glyph d="M842 1147h-418l274 266h557zM633 -20q-215 0 -361 90l-129 -113l-135 149l115 101q-92 128 -92 309q0 249 165 393t437 144q209 0 360 -88l127 110l135 -149l-112 -99q92 -131 92 -311q0 -248 -165 -392t-437 -144zM412 516q0 -39 2 -55l288 250q-40 4 -69 4 q-129 0 -175 -42.5t-46 -156.5zM633 319q129 0 175 41.5t46 155.5q0 41 -2 57l-289 -249q50 -5 70 -5z" glyph-name="oslashacute" horiz-adv-x="1265" unicode="ǿ"/><glyph d="M727 -20q-325 0 -500.5 121.5t-175.5 375.5v12h385v-43q0 -49 19.5 -72t80.5 -33.5t191 -10.5q116 0 171 8t71 23.5t16 48.5q0 38 -28 56t-111 28l-430 57q-191 26 -288 126t-97 267q0 68 21 131t71 121.5t124.5 101.5t189.5 69t259 26q320 0 482.5 -131t162.5 -367v-12 h-385v30q0 52 -21.5 78.5t-86 39.5t-193.5 13q-141 0 -190 -19.5t-49 -66.5q0 -33 21.5 -49.5t76.5 -23.5l430 -64q426 -62 426 -397q0 -73 -22 -137t-71.5 -121t-123 -98t-182.5 -64.5t-244 -23.5zM707 -410h-451l229 267h559z" glyph-name="Scommaaccent" horiz-adv-x="1400" unicode="Ș"/><glyph d="M616 -20q-271 0 -415 99t-144 279v9h385v-21q0 -41 33.5 -52t142.5 -11q95 0 124.5 10.5t29.5 38.5q0 25 -20.5 34.5t-92.5 16.5l-299 33q-161 17 -244 92t-83 205q0 71 29.5 130.5t90.5 107.5t166.5 75t245.5 27q270 0 409.5 -96.5t139.5 -286.5v-8h-385v12 q0 29 -11 44.5t-50 24.5t-115 9q-89 0 -115 -12t-26 -44q0 -16 9 -25t39 -16.5t89 -13.5l205 -23q219 -24 308 -97.5t89 -209.5q0 -148 -142 -239.5t-393 -91.5zM557 -410h-391l192 267h502z" glyph-name="scommaaccent" horiz-adv-x="1181" unicode="ș"/><glyph d="M901 0h-385v1026h-485v346h1353v-346h-483v-1026zM764 -410h-451l230 267h559z" glyph-name="Tcommaaccent" horiz-adv-x="1415" unicode="Ț"/><glyph d="M834 0h-271q-198 0 -304.5 98t-106.5 295v324h-152v315h152v178h385v-178h297v-315h-297v-268q0 -61 23 -82t89 -21h185v-346zM530 -410h-391l193 267h502z" glyph-name="tcommaaccent" horiz-adv-x="864" unicode="ț"/><glyph d="M-16 -348h-37v282h39q39 0 57 17t18 57v1024h385v-966q0 -120 -30 -202t-91.5 -128t-143 -65t-197.5 -19z" glyph-name="dotlessj" unicode="ȷ"/><glyph d="M657 1147h-415l-414 266h557z" glyph-name="gravecomb" horiz-adv-x="925" unicode="̀"/><glyph d="M680 1147h-418l275 266h557z" glyph-name="acutecomb" horiz-adv-x="925" unicode="́"/><glyph d="M453 1147h-412l272 266h465l275 -266h-414l-80 86h-24z" glyph-name="circumflexcomb" horiz-adv-x="1093" unicode="̂"/><glyph d="M360 1110h-256v102q0 232 213 232q71 0 181 -39l69 -25q58 -20 82 -20t34.5 12t10.5 39v14h254v-100q0 -107 -48 -170t-148 -63q-75 0 -187 38l-94 31q-55 19 -76 19q-35 0 -35 -37v-33z" glyph-name="tildecomb" horiz-adv-x="1034" unicode="̃"/><glyph d="M850 1143h-727v274h727v-274z" glyph-name="macroncomb" horiz-adv-x="972" unicode="̄"/><glyph d="M424 1126q-160 0 -260.5 81t-100.5 206v8h269v-2q0 -41 17 -55t75 -14q59 0 75.5 13.5t16.5 55.5v2h268v-8q0 -125 -100 -206t-260 -81z" glyph-name="brevecomb" horiz-adv-x="847" unicode="̆"/><glyph d="M440 1147h-385v285h385v-285z" glyph-name="dotaccentcomb" horiz-adv-x="495" unicode="̇"/><glyph d="M885 1147h-365v285h365v-285zM401 1147h-364v285h364v-285z" glyph-name="dieresiscomb" horiz-adv-x="921" unicode="̈"/><glyph d="M274 1114q-97 0 -157 49.5t-60 130.5q0 82 60 131.5t157 49.5t157.5 -50t60.5 -131t-60.5 -130.5t-157.5 -49.5zM274 1260q36 0 48 7.5t12 26.5t-12 27t-48 8t-47.5 -8t-11.5 -27t11.5 -26.5t47.5 -7.5z" glyph-name="ringcomb" horiz-adv-x="548" unicode="̊"/><glyph d="M1124 1147h-389l164 266h504zM526 1147h-389l162 266h506z" glyph-name="hungarumlautcomb" horiz-adv-x="1372" unicode="̋"/><glyph d="M778 1147h-465l-272 266h428l66 -86h24l66 86h428z" glyph-name="caroncomb" horiz-adv-x="1093" unicode="̌"/><glyph d="M709 1413h391l-193 -266h-501z" glyph-name="commaturnedabovecomb" horiz-adv-x="1349" unicode="̒"/><glyph d="M479 -410h-391l193 267h501z" glyph-name="commaaccentcomb" horiz-adv-x="849" unicode="̦"/><glyph d="M481 -494h-223v199h229q17 0 17 12q0 15 -17 15h-229v274h195v-80h28q115 0 176.5 -55.5t61.5 -151.5q0 -99 -61.5 -156t-176.5 -57z" glyph-name="cedillacomb" horiz-adv-x="679" unicode="̧"/><glyph d="M489 -383h-204q-211 0 -211 145q0 51 26 93t76 96l47 49h248l-92 -115q-17 -20 -17 -30q0 -13 17 -13h110v-225z" glyph-name="ogonekcomb" horiz-adv-x="534" unicode="̨"/><glyph d="M1108 971h-752v286h752v-286z" glyph-name="strokeshortcomb" horiz-adv-x="1464" unicode="̵"/><glyph d="M864 829l-760 -335l-104 215l760 335z" glyph-name="slashshortcomb" horiz-adv-x="864" unicode="̷"/><glyph d="M1247 926l-1112 -969l-135 149l1112 969z" glyph-name="slashlongcomb" horiz-adv-x="1247" unicode="̸"/><glyph d="M1360 1495h-414l-414 274h555zM877 0h-572l-287 1372h431l114 -698l37 -309h27l55 309l184 698h580l168 -698l49 -309h27l41 309l129 698h421l-313 -1372h-571l-144 588l-90 430h-26l-97 -430z" glyph-name="Wgrave" horiz-adv-x="2299" unicode="Ẁ"/><glyph d="M1163 1147h-415l-414 266h557zM731 0h-481l-260 1032h399l74 -373l39 -368h26l86 409l103 332h495l103 -332l86 -409h26l41 368l72 373h393l-272 -1032h-481l-133 414l-76 309h-27l-78 -309z" glyph-name="wgrave" horiz-adv-x="1923" unicode="ẁ"/><glyph d="M1356 1495h-414l272 274h555zM877 0h-572l-287 1372h431l114 -698l37 -309h27l55 309l184 698h580l168 -698l49 -309h27l41 309l129 698h421l-313 -1372h-571l-144 588l-90 430h-26l-97 -430z" glyph-name="Wacute" horiz-adv-x="2299" unicode="Ẃ"/><glyph d="M1169 1147h-417l274 266h557zM731 0h-481l-260 1032h399l74 -373l39 -368h26l86 409l103 332h495l103 -332l86 -409h26l41 368l72 373h393l-272 -1032h-481l-133 414l-76 309h-27l-78 -309z" glyph-name="wacute" horiz-adv-x="1923" unicode="ẃ"/><glyph d="M1575 1495h-365v285h365v-285zM1092 1495h-365v285h365v-285zM877 0h-572l-287 1372h431l114 -698l37 -309h27l55 309l184 698h580l168 -698l49 -309h27l41 309l129 698h421l-313 -1372h-571l-144 588l-90 430h-26l-97 -430z" glyph-name="Wdieresis" horiz-adv-x="2299" unicode="Ẅ"/><glyph d="M1384 1147h-364v285h364v-285zM901 1147h-364v285h364v-285zM731 0h-481l-260 1032h399l74 -373l39 -368h26l86 409l103 332h495l103 -332l86 -409h26l41 368l72 373h393l-272 -1032h-481l-133 414l-76 309h-27l-78 -309z" glyph-name="wdieresis" horiz-adv-x="1923" unicode="ẅ"/><glyph d="M504 1458h-256v103q0 231 213 231q70 0 180 -39l70 -24q61 -21 82 -21q24 0 34.5 12t10.5 39v15h254v-101q0 -107 -48.5 -170t-148.5 -63q-71 0 -186 39l-95 30q-55 19 -75 19q-35 0 -35 -37v-33zM1280 0h-1219v1372h1219v-346h-834v-164h803v-344h-803v-172h834v-346z" glyph-name="Etilde" horiz-adv-x="1327" unicode="Ẽ"/><glyph d="M461 1110h-256v102q0 232 213 232q70 0 180 -39l70 -25q58 -20 82 -20t34.5 12t10.5 39v14h254v-100q0 -107 -48.5 -170t-148.5 -63q-74 0 -186 38l-95 31q-55 19 -75 19q-35 0 -35 -37v-33zM637 -20q-135 0 -241.5 30t-187 92.5t-124 167t-43.5 246.5q0 248 163 392.5 t425 144.5q271 0 427 -132.5t156 -377.5q0 -43 -6 -99h-809q4 -93 52.5 -126t173.5 -33q113 0 154.5 20t41.5 68v22h385v-24q0 -174 -154.5 -282.5t-412.5 -108.5zM621 758q-107 0 -156.5 -26.5t-61.5 -92.5h437q-10 65 -60.5 92t-158.5 27z" glyph-name="etilde" horiz-adv-x="1253" unicode="ẽ"/><glyph d="M993 1495h-413l-414 274h555zM971 0h-385v436l-617 936h477l207 -325l117 -193h27l116 193l207 325h479l-628 -938v-434z" glyph-name="Ygrave" horiz-adv-x="1568" unicode="Ỳ"/><glyph d="M866 1147h-415l-414 266h557zM289 -348h-187v348h299q48 0 72 12l-493 1020h438l178 -405l74 -238h26l68 242l154 401h430l-490 -1073q-42 -91 -93 -150.5t-121.5 -94.5t-153.5 -48.5t-201 -13.5z" glyph-name="ygrave" horiz-adv-x="1327" unicode="ỳ"/><glyph d="M618 1458h-256v103q0 231 213 231q71 0 181 -39l69 -24q61 -21 82 -21q24 0 34.5 12t10.5 39v15h254v-101q0 -107 -48 -170t-148 -63q-72 0 -187 39l-94 30q-55 19 -76 19q-35 0 -35 -37v-33zM971 0h-385v436l-617 936h477l207 -325l117 -193h27l116 193l207 325h479 l-628 -938v-434z" glyph-name="Ytilde" horiz-adv-x="1568" unicode="Ỹ"/><glyph d="M498 1110h-256v102q0 232 213 232q70 0 180 -39l70 -25q58 -20 81 -20q24 0 34.5 12t10.5 39v14h254v-100q0 -107 -48 -170t-148 -63q-75 0 -187 38l-94 31q-55 19 -76 19q-34 0 -34 -37v-33zM289 -348h-187v348h299q48 0 72 12l-493 1020h438l178 -405l74 -238h26 l68 242l154 401h430l-490 -1073q-42 -91 -93 -150.5t-121.5 -94.5t-153.5 -48.5t-201 -13.5z" glyph-name="ytilde" horiz-adv-x="1327" unicode="ỹ"/><glyph d="M1221 444h-1160v328h1160v-328z" glyph-name="endash" horiz-adv-x="1282" unicode="–"/><glyph d="M2208 444h-2147v328h2147v-328z" glyph-name="emdash" horiz-adv-x="2269" unicode="—"/><glyph d="M401 1372h142v-237h-129q-38 0 -55 -15.5t-17 -58.5v-29h219v-393h-500v420q0 156 88 234.5t252 78.5z" glyph-name="quoteleft" horiz-adv-x="622" unicode="‘"/><glyph d="M221 639h-141v238h129q39 0 55.5 15.5t16.5 57.5v29h-220v393h500v-420q0 -156 -88 -234.5t-252 -78.5z" glyph-name="quoteright" horiz-adv-x="622" unicode="’"/><glyph d="M221 -340h-141v238h129q39 0 55.5 15.5t16.5 57.5v29h-220v393h500v-420q0 -156 -88 -234.5t-252 -78.5z" glyph-name="quotesinglbase" horiz-adv-x="622" unicode="‚"/><glyph d="M401 1372h142v-237h-129q-38 0 -55 -15.5t-17 -58.5v-29h219v-393h-500v420q0 156 88 234.5t252 78.5zM1004 1372h141v-237h-129q-38 0 -55 -15.5t-17 -58.5v-29h219v-393h-499v420q0 156 88 234.5t252 78.5z" glyph-name="quotedblleft" horiz-adv-x="1224" unicode="“"/><glyph d="M823 639h-141v238h129q39 0 55.5 15.5t16.5 57.5v29h-219v393h499v-420q0 -156 -88 -234.5t-252 -78.5zM221 639h-141v238h129q39 0 55.5 15.5t16.5 57.5v29h-220v393h500v-420q0 -156 -88 -234.5t-252 -78.5z" glyph-name="quotedblright" horiz-adv-x="1224" unicode="”"/><glyph d="M221 -340h-141v238h129q39 0 55.5 15.5t16.5 57.5v29h-220v393h500v-420q0 -156 -88 -234.5t-252 -78.5zM823 -340h-141v238h129q39 0 55.5 15.5t16.5 57.5v29h-219v393h499v-420q0 -156 -88 -234.5t-252 -78.5z" glyph-name="quotedblbase" horiz-adv-x="1224" unicode="„"/><glyph d="M764 0h-383v750h-340v315h340v307h383v-307h342v-315h-342v-750z" glyph-name="dagger" horiz-adv-x="1146" unicode="†"/><glyph d="M764 0h-383v307h-340v318h340v125h-340v315h340v307h383v-307h342v-315h-342v-125h342v-318h-342v-307z" glyph-name="daggerdbl" horiz-adv-x="1146" unicode="‡"/><glyph d="M377 348q-143 0 -239.5 92t-96.5 246t96.5 246t239.5 92q144 0 241 -92t97 -246t-97 -246t-241 -92z" glyph-name="bullet" horiz-adv-x="755" unicode="•"/><glyph d="M561 0h-500v393h500v-393zM1184 0h-500v393h500v-393zM1806 0h-499v393h499v-393z" glyph-name="ellipsis" horiz-adv-x="1867" unicode="…"/><glyph d="M391 711q-172 0 -271.5 90.5t-99.5 251.5q0 162 99.5 253t271.5 91t271.5 -91t99.5 -253q0 -161 -99.5 -251.5t-271.5 -90.5zM446 0h-370l1165 1372h371zM391 956q61 0 82 19t21 78q0 60 -21 80t-82 20q-60 0 -81 -20t-21 -80q0 -59 20.5 -78t81.5 -19zM2093 -23 q-172 0 -271.5 90.5t-99.5 251.5q0 162 100 253.5t271 91.5t271 -91.5t100 -253.5q0 -161 -99.5 -251.5t-271.5 -90.5zM1294 -23q-172 0 -271 90.5t-99 251.5q0 162 99.5 253.5t270.5 91.5t271 -91.5t100 -253.5q0 -161 -99.5 -251.5t-271.5 -90.5zM2093 223q61 0 81.5 18.5 t20.5 77.5q0 60 -21 80.5t-81 20.5t-81 -20.5t-21 -80.5q0 -59 20.5 -77.5t81.5 -18.5zM1294 223q61 0 82 18.5t21 77.5q0 60 -21.5 80.5t-81.5 20.5t-81 -20.5t-21 -80.5q0 -59 20.5 -77.5t81.5 -18.5z" glyph-name="perthousand" horiz-adv-x="2484" unicode="‰"/><glyph d="M61 840l410 266v-393l-154 -74v-29l154 -73v-394l-410 267v430z" glyph-name="guilsinglleft" horiz-adv-x="532" unicode="‹"/><glyph d="M471 410l-410 -267v394l154 73v29l-154 74v393l410 -266v-430z" glyph-name="guilsinglright" horiz-adv-x="532" unicode="›"/><glyph d="M-104 0h-371l1165 1372h371z" glyph-name="fraction" horiz-adv-x="581" unicode="⁄"/><glyph d="M432 666q-182 0 -286.5 95.5t-104.5 266.5t104.5 268t286.5 97t286.5 -97t104.5 -268t-104.5 -266.5t-286.5 -95.5zM432 915q63 0 87 25t24 88q0 64 -24.5 89.5t-86.5 25.5t-86 -25.5t-24 -89.5q0 -63 23.5 -88t86.5 -25z" glyph-name="zero.superior" horiz-adv-x="864" unicode="⁰"/><glyph d="M674 686h-266v129h-388v211l336 346h318v-321h112v-236h-112v-129zM311 1051h97v100h-21l-76 -80v-20z" glyph-name="four.superior" horiz-adv-x="806" unicode="⁴"/><glyph d="M1100 418h-453q34 -43 97 -57.5t174 -14.5h401v-346h-401q-262 0 -443.5 108.5t-253.5 309.5h-201v233h158v35v31h-158v233h201q70 202 252 312t445 110h401v-346h-401q-115 0 -178 -15t-97 -61h457v-233h-508v-31v-35h508v-233z" glyph-name="Euro" horiz-adv-x="1380" unicode="€"/><glyph d="M1186 0h-527l-286 270q-55 51 -102.5 69.5t-112.5 18.5h-97v318h355q70 0 101.5 13.5t41.5 49.5h-498v285h504v63h-504v285h1143v-285h-254v-63h254v-285h-264q-48 -244 -350 -247v-27q55 -11 103 -36t78 -49.5t87 -76.5z" glyph-name="indianrupee" horiz-adv-x="1245" unicode="₹"/><glyph d="M698 961h-155v411h219l53 -254h6l49 254h222v-411h-156v106l4 104h-8l-21 -163h-182l-31 163h-6l6 -106v-104zM358 961h-174v251h-143v160h461v-160h-144v-251z" glyph-name="trademark" horiz-adv-x="1132" unicode="™"/><glyph d="M1032 528h-971v316h971v-316z" glyph-name="minus" horiz-adv-x="1093" unicode="−"/><glyph d="M383 309h-322v88q0 198 138 258v29h-138v121q0 127 61.5 201.5t196.5 74.5q41 0 84.5 -7t67.5 -13.5t78 -22.5l151 -43q42 -10 64 -10q29 0 37 13.5t8 41.5v9h319v-88q0 -109 -31 -171.5t-108 -95.5v-20h139v-88q0 -297 -243 -297q-82 0 -242 37l-151 36q-38 9 -58 9 q-30 0 -40.5 -14t-10.5 -40v-8zM811 594q55 0 55 70v16q-20 -8 -45 -8q-64 0 -170 33l-176 53q-46 12 -76 12q-71 0 -71 -70v-14q31 8 69 8q41 0 99 -16l182 -53q12 -3 36.5 -10.5t37 -11t30 -6.5t29.5 -3z" glyph-name="approxequal" horiz-adv-x="1189" unicode="≈"/><glyph d="M1032 291h-528l-142 -291l-241 121l82 170h-142v315h297l78 160h-375v315h529l141 291l242 -123l-82 -168h143v-315h-297l-78 -160h373v-315z" glyph-name="notequal" horiz-adv-x="1093" unicode="≠"/><glyph d="M1034 -35h-973v318h631v26l-631 146v463l973 253v-354l-626 -119v-24l626 -119v-590z" glyph-name="lessequal" horiz-adv-x="1095" unicode="≤"/><glyph d="M1032 -35h-971v590l625 119v24l-625 119v354l971 -253v-463l-631 -146v-26h631v-318z" glyph-name="greaterequal" horiz-adv-x="1093" unicode="≥"/><glyph d="M834 0h-271q-198 0 -304.5 98t-106.5 295v324h-152v315h152v178h385v-178h356v178h385v-178h297v-315h-297v-268q0 -61 23.5 -82t89.5 -21h184v-346h-270q-198 0 -305 98t-107 295v324h-356v-268q0 -61 23 -82t89 -21h185v-346z" glyph-name="t_t" horiz-adv-x="1605"/><glyph d="M530 -20q-234 0 -361.5 130.5t-127.5 364.5q0 233 123.5 364.5t349.5 131.5q167 0 266 -77t123 -210h21v688h385v-1372h-361v279h-20q-54 -299 -398 -299zM430 475q0 -80 53.5 -111.5t186.5 -31.5q137 0 195.5 28.5t58.5 112.5v14q0 79 -58.5 106.5t-195.5 27.5 q-133 0 -186.5 -33t-53.5 -113z" glyph-name="d.component" horiz-adv-x="1464"/><glyph d="M555 0h-385v1372h385v-735h20q13 69 42 126.5t77 105.5t123 75t170 27q198 0 302 -112t104 -292v-567h-385v438q0 107 -50 148t-182 41q-131 0 -176 -37t-45 -139v-451z" glyph-name="h.component" horiz-adv-x="1445"/><glyph d="M449 852h-105v186h94q29 0 41.5 11t12.5 41v16h-162v266h364v-278q0 -242 -245 -242z" glyph-name="caroncomb.alt" horiz-adv-x="1024"/><glyph d="M885 1495h-365v285h365v-285zM401 1495h-364v285h364v-285z" glyph-name="dieresiscomb.case" horiz-adv-x="921"/><glyph d="M440 1495h-385v285h385v-285z" glyph-name="dotaccentcomb.case" horiz-adv-x="495"/><glyph d="M664 1495h-414l-414 274h555z" glyph-name="gravecomb.case" horiz-adv-x="925"/><glyph d="M674 1495h-414l272 274h555z" glyph-name="acutecomb.case" horiz-adv-x="925"/><glyph d="M1110 1495h-389l164 274h504zM512 1495h-389l162 274h506z" glyph-name="hungarumlautcomb.case" horiz-adv-x="1372"/><glyph d="M541 618h-140v256h127q39 0 55.5 15t16.5 59v31h-219v393h500v-420q0 -167 -87.5 -250.5t-252.5 -83.5z" glyph-name="caroncomb.alt.case" horiz-adv-x="1261"/><glyph d="M453 1495h-412l272 266h465l275 -266h-414l-80 86h-24z" glyph-name="circumflexcomb.case" horiz-adv-x="1093"/><glyph d="M641 1761h412l-273 -266h-465l-274 266h414l80 -86h24z" glyph-name="caroncomb.case" horiz-adv-x="1093"/><glyph d="M424 1475q-160 0 -260.5 80.5t-100.5 205.5v27h269v-21q0 -35 17.5 -49t74.5 -14q58 0 75 14t17 49v21h268v-27q0 -125 -100 -205.5t-260 -80.5z" glyph-name="brevecomb.case" horiz-adv-x="847"/><glyph d="M274 1382q-117 0 -190.5 61t-73.5 159t73.5 158.5t190.5 60.5t191 -60.5t74 -158.5t-74 -159t-191 -61zM274 1554q41 0 56.5 10t15.5 38t-15 37.5t-57 9.5q-40 0 -55.5 -10t-15.5 -37q0 -28 15.5 -38t55.5 -10z" glyph-name="ringcomb.case" horiz-adv-x="548"/><glyph d="M350 1458h-256v103q0 231 213 231q70 0 180 -39l70 -24q61 -21 82 -21q24 0 34.5 12t10.5 39v15h254v-101q0 -107 -48.5 -170t-148.5 -63q-71 0 -186 39l-94 30q-55 19 -76 19q-35 0 -35 -37v-33z" glyph-name="tildecomb.case" horiz-adv-x="1034"/><glyph d="M850 1497h-727v275h727v-275z" glyph-name="macroncomb.case" horiz-adv-x="972"/><glyph d="M522 -410h-450l229 267h559z" glyph-name="commaaccentcomb.case" horiz-adv-x="849"/><glyph d="M471 -494h-223v199h229q17 0 17 12q0 15 -17 15h-229v274h194v-80h29q115 0 176.5 -55.5t61.5 -151.5q0 -99 -61.5 -156t-176.5 -57z" glyph-name="cedillacomb.case" horiz-adv-x="679"/><glyph d="M471 -383h-205q-211 0 -211 145q0 36 16.5 72t34.5 58.5t52 58.5l47 49h248l-93 -115q-16 -19 -16 -30q0 -13 16 -13h111v-225z" glyph-name="ogonekcomb.case" horiz-adv-x="534"/><glyph d="M1331 514h-971v344h971v-344z" glyph-name="strokeshortcomb.case" horiz-adv-x="1693"/><glyph d="M1718 938h-1698v346h1698v-346z" glyph-name="strokelongcomb.case" horiz-adv-x="1738"/><glyph d="M1182 688l-955 -332v357l955 331v-356z" glyph-name="slashshortcomb.case" horiz-adv-x="1411"/><glyph d="M1612 1214l-1434 -1249l-180 195l1434 1249z" glyph-name="slashlongcomb.case" horiz-adv-x="1609"/><glyph d="M123 0v1434h442v-1434h-442zM657 1016v418h443v-418h-443zM1190 0v1434h444v-1434h-444zM1724 1016v418h443v-418h-443zM2257 0v1434h444v-1434h-444zM2791 1016v418h443v-418h-443zM2791 506v420h443v-420h-443z" glyph-name="ITF" horiz-adv-x="3356"/></font>
</defs>
</svg>
