<svg xmlns="http://www.w3.org/2000/svg" xmlns:xlink="http://www.w3.org/1999/xlink" version="1.1"><metadata>Created by FontForge 20170731 at Tue Oct 3 10:35:20 2023 By Aleksey,,, Copyright 2021 Indian Type Foundry. All rights reserved.</metadata><defs><font id="ClashDisplay-Regular" horiz-adv-x="1179"><font-face x-height="1012" ascent="1638" bbox="-475 -418 3310 1823" cap-height="1372" descent="-410" font-family="Clash Display" font-stretch="normal" font-weight="400" panose-1="0 0 0 0 0 0 0 0 0 0" underline-position="-307" underline-thickness="102" unicode-range="U+000D-FB04" units-per-em="2048"/><glyph d="M340 0h-145v887h-162v125h164q12 178 126.5 269t313.5 91h111v-115h-132q-144 0 -213 -56t-63 -189h408v-125h-408v-887zM1059 0h-148v887h-161v125h163q13 178 128.5 269t314.5 91h108v-115h-131q-144 0 -212 -56t-62 -189h405v-125h-405v-887z" glyph-name="f_f" horiz-adv-x="1484" unicode="ff"/><glyph d="M340 0h-145v887h-162v125h164q12 178 126.5 269t313.5 91h111v-115h-132q-144 0 -213 -56t-63 -189h408v-125h-408v-887zM1034 1141h-145v231h145v-231zM1034 0h-145v1012h145v-1012z" glyph-name="fi" horiz-adv-x="1157" unicode="fi"/><glyph d="M340 0h-145v887h-162v125h164q12 178 126.5 269t313.5 91h111v-115h-132q-144 0 -213 -56t-63 -189h408v-125h-408v-887zM1034 0h-145v1372h145v-1372z" glyph-name="fl" horiz-adv-x="1157" unicode="fl"/><glyph d="M340 0h-145v887h-162v125h164q12 178 126.5 269t313.5 91h111v-115h-132q-144 0 -213 -56t-63 -189h408v-125h-408v-887zM1059 0h-148v887h-161v125h163q13 178 128.5 269t314.5 91h108v-115h-131q-144 0 -212 -56t-62 -189h405v-125h-405v-887zM1753 1141h-145v231h145 v-231zM1753 0h-145v1012h145v-1012z" glyph-name="f_f_i" horiz-adv-x="1873" unicode="ffi"/><glyph d="M340 0h-145v887h-162v125h164q12 178 126.5 269t313.5 91h111v-115h-132q-144 0 -213 -56t-63 -189h408v-125h-408v-887zM1059 0h-148v887h-161v125h163q13 178 128.5 269t314.5 91h108v-115h-131q-144 0 -212 -56t-62 -189h405v-125h-405v-887zM1753 0h-145v1372h145 v-1372z" glyph-name="f_f_l" horiz-adv-x="1873" unicode="ffl"/><glyph d="M340 0h-145v887h-162v125h164q12 178 126.5 269t313.5 91h111v-115h-132q-144 0 -213 -56t-63 -189h408v-125h-408v-887zM1022 0h-133v1372h145v-643h10q35 137 147 220t288 83q231 0 361 -145t130 -381q0 -237 -131.5 -381.5t-372.5 -144.5q-171 0 -285 83.5t-151 235.5 h-8v-299zM1034 489q0 -178 106.5 -277t289.5 -99q192 0 292.5 91t100.5 302q0 210 -100.5 300.5t-288.5 90.5q-191 0 -295.5 -101t-104.5 -288v-19z" glyph-name="f_b" horiz-adv-x="2025" unicode="fb"/><glyph d="M340 0h-145v887h-162v125h164q12 178 126.5 269t313.5 91h111v-115h-132q-144 0 -213 -56t-63 -189h408v-125h-408v-887zM1059 0h-148v887h-161v125h163q13 178 128.5 269t314.5 91h108v-115h-131q-144 0 -212 -56t-62 -189h405v-125h-405v-887zM1739 0h-131v1372h145 v-643h8q35 137 146.5 220t287.5 83q232 0 362 -145t130 -381q0 -237 -131.5 -381.5t-372.5 -144.5q-171 0 -285 83.5t-149 235.5h-10v-299zM1753 489q0 -178 105 -277t288 -99q192 0 293 91.5t101 301.5q0 209 -101 300t-287 91q-192 0 -295.5 -101t-103.5 -288v-19z" glyph-name="f_f_b" horiz-adv-x="2742" unicode="ffb"/><glyph d="M340 0h-145v887h-162v125h164q12 178 126.5 269t313.5 91h111v-115h-132q-144 0 -213 -56t-63 -189h408v-125h-408v-887zM1059 0h-148v887h-161v125h163q13 178 128.5 269t314.5 91h108v-115h-131q-144 0 -212 -56t-62 -189h405v-125h-405v-887zM1753 0h-145v1372h145 v-670h8q14 66 45.5 123.5t82 105t127 74.5t169.5 27q205 0 314.5 -122t109.5 -322v-588h-145v569q0 172 -82 251t-254 79q-194 0 -284.5 -112.5t-90.5 -311.5v-475z" glyph-name="f_f_h" horiz-adv-x="2725" unicode="ffh"/><glyph d="M340 0h-145v887h-162v125h164q12 178 126.5 269t313.5 91h111v-115h-132q-144 0 -213 -56t-63 -189h408v-125h-408v-887zM1059 0h-148v887h-161v125h163q13 178 128.5 269t314.5 91h108v-115h-131q-144 0 -212 -56t-62 -189h405v-125h-405v-887zM1755 1141h-145v231h145 v-231zM1442 -348h-78v119h86q80 0 120 35t40 116v1090h145v-1059q0 -157 -84.5 -229t-228.5 -72z" glyph-name="f_f_j" horiz-adv-x="1878" unicode="ffj"/><glyph d="M340 0h-145v887h-162v125h164q12 178 126.5 269t313.5 91h111v-115h-132q-144 0 -213 -56t-63 -189h408v-125h-408v-887zM1059 0h-148v887h-161v125h163q13 178 128.5 269t314.5 91h108v-115h-131q-144 0 -212 -56t-62 -189h405v-125h-405v-887zM1753 0h-145v1372h145 v-784h340l338 424h172l-391 -484l389 -528h-170l-340 455h-338v-455z" glyph-name="f_f_k" horiz-adv-x="2619" unicode="ffk"/><glyph d="M340 0h-145v887h-162v125h164q12 178 126.5 269t313.5 91h111v-115h-132q-144 0 -213 -56t-63 -189h408v-125h-408v-887zM1034 0h-145v1372h145v-670h10q14 66 45.5 123.5t82 105t126 74.5t168.5 27q207 0 316.5 -122t109.5 -322v-588h-145v569q0 172 -82 251t-254 79 q-194 0 -285.5 -112.5t-91.5 -311.5v-475z" glyph-name="f_h" horiz-adv-x="2007" unicode="fh"/><glyph d="M340 0h-145v887h-162v125h164q12 178 126.5 269t313.5 91h111v-115h-132q-144 0 -213 -56t-63 -189h408v-125h-408v-887zM1038 1141h-145v231h145v-231zM723 -348h-76v119h86q78 0 119 35.5t41 115.5v1090h145v-1059q0 -157 -85 -229t-230 -72z" glyph-name="f_j" horiz-adv-x="1159" unicode="fj"/><glyph d="M340 0h-145v887h-162v125h164q12 178 126.5 269t313.5 91h111v-115h-132q-144 0 -213 -56t-63 -189h408v-125h-408v-887zM1034 0h-145v1372h145v-784h342l338 424h172l-391 -484l389 -528h-172l-338 455h-340v-455z" glyph-name="f_k" horiz-adv-x="1902" unicode="fk"/><glyph d="M340 0h-145v887h-162v125h164q12 178 126.5 269t313.5 91h111v-115h-132q-144 0 -213 -56t-63 -189h549v241h145v-241h402v-125h-402v-574q0 -102 51.5 -141t165.5 -39h185v-133h-217q-159 0 -244.5 75.5t-85.5 246.5v565h-549v-887z" glyph-name="f_t" horiz-adv-x="1474" unicode="ft"/><glyph d="M774 -10q-144 0 -265.5 49t-203 134.5t-127 202t-45.5 249.5q0 132 45.5 248.5t127 202.5t203 136t265.5 50t265.5 -50t203 -136t127 -202.5t45.5 -248.5q0 -133 -45.5 -249.5t-127 -202t-203 -134.5t-265.5 -49zM774 162q159 0 252.5 43t139.5 144t46 276t-46 276 t-139.5 143.5t-252.5 42.5t-252.5 -42.5t-139.5 -143.5t-46 -276t46 -276t139.5 -144t252.5 -43zM618 670q-51 0 -81.5 26.5t-30.5 69.5t30.5 69.5t81.5 26.5q49 0 80 -26.5t31 -69.5t-31 -69.5t-80 -26.5zM932 670q-49 0 -80 26.5t-31 69.5t31 69.5t80 26.5 q51 0 80.5 -26.5t29.5 -69.5t-29.5 -69.5t-80.5 -26.5zM774 324q-109 0 -190 48t-150 126l64 59q70 -69 123 -87.5t153 -18.5q102 0 155.5 18.5t123.5 87.5l61 -59q-150 -174 -340 -174z" glyph-name=".notdef" horiz-adv-x="1548"/><glyph glyph-name=".null" horiz-adv-x="1228"/><glyph glyph-name="nonmarkingreturn" horiz-adv-x="682"/><glyph glyph-name="CR" horiz-adv-x="1228"/><glyph glyph-name="space" horiz-adv-x="376"/><glyph d="M248 451h-135q0 121 -11.5 414t-11.5 364v143h180v-143q0 -71 -11 -364.5t-11 -413.5zM262 0h-164v276h164v-276z" glyph-name="exclam" horiz-adv-x="360" unicode="!"/><glyph d="M430 911h-80l-35 238v223h150v-223zM170 911h-78l-37 238v223h150v-223z" glyph-name="quotedbl" horiz-adv-x="522" unicode="&quot;"/><glyph d="M371 0h-148l129 332h-311v131h362l162 428h-348v131h401l134 350h145l-133 -350h438l133 350h146l-133 -350h319v-131h-373l-161 -428h358v-131h-410l-127 -332h-147l127 332h-436zM709 893l-166 -432h448l164 432h-446z" glyph-name="numbersign" horiz-adv-x="1708" unicode="#"/><glyph d="M692 -205h-135v189q-244 21 -369 142t-125 308v12h148v-26q0 -152 104.5 -227.5t339.5 -75.5q205 0 302.5 57t97.5 174q0 111 -67.5 164.5t-225.5 85.5l-291 55q-89 17 -157.5 44t-125.5 69t-87.5 106t-30.5 146q0 68 28 130t84.5 114.5t153 87t221.5 41.5v186h135v-186 q242 -18 366 -143t124 -310v-12h-148v24q0 153 -101 229t-321 76q-202 0 -298.5 -56.5t-96.5 -170.5q0 -112 65.5 -162t227.5 -84l289 -57q195 -37 299 -124.5t104 -240.5q0 -154 -129.5 -262.5t-380.5 -117.5v-185z" glyph-name="dollar" horiz-adv-x="1267" unicode="$"/><glyph d="M393 713q-162 0 -252 99t-90 243q0 142 90 241t252 99q163 0 253.5 -98.5t90.5 -241.5q0 -69 -22 -130t-63.5 -108.5t-108.5 -75.5t-150 -28zM303 0h-145l1165 1372h145zM393 819q120 0 175 60t55 176q0 233 -230 233q-227 0 -227 -233q0 -116 54.5 -176t172.5 -60z M1233 -20q-83 0 -150 27.5t-108.5 74.5t-63.5 107.5t-22 129.5q0 143 90.5 241.5t253.5 98.5q162 0 252 -99t90 -241q0 -143 -89.5 -241t-252.5 -98zM1233 86q227 0 227 233q0 234 -227 234q-229 0 -229 -234q0 -233 229 -233z" glyph-name="percent" horiz-adv-x="1626" unicode="%"/><glyph d="M575 -20q-260 0 -404 100.5t-144 290.5q0 141 79 231.5t224 116.5v14q-126 23 -194 103.5t-68 195.5q0 169 123.5 258.5t347.5 89.5h317v-135h-332q-166 0 -238.5 -54.5t-72.5 -178.5q0 -234 324 -234h487v234h143v-234h234v-125h-234v-190q0 -230 -151 -356.5 t-441 -126.5zM580 113q240 0 342 80t102 264v196h-522q-159 0 -244.5 -67t-85.5 -203q0 -141 95.5 -205.5t312.5 -64.5z" glyph-name="ampersand" horiz-adv-x="1382" unicode="&amp;"/><glyph d="M170 911h-78l-37 238v223h150v-223z" glyph-name="quotesingle" horiz-adv-x="262" unicode="'"/><glyph d="M551 -78l-76 -69q-59 59 -108 115.5t-103.5 138.5t-91.5 165.5t-61.5 192t-24.5 221.5t24.5 221.5t61.5 192t91.5 166t103.5 139t108 115.5l76 -70q-44 -56 -67 -86t-61.5 -85.5t-59.5 -95.5t-47.5 -101t-40 -117t-23.5 -128.5t-10 -150.5t10 -150.5t23.5 -128.5t40 -117 t47.5 -101t59.5 -95.5t61.5 -85.5t67 -86z" glyph-name="parenleft" horiz-adv-x="571" unicode="("/><glyph d="M37 1450l74 70q59 -59 108 -115.5t103.5 -139t91.5 -166t61.5 -192t24.5 -221.5t-24.5 -221.5t-61.5 -192t-91.5 -165.5t-103.5 -138.5t-108 -115.5l-74 69q61 77 93.5 121t80 123.5t72 148t43 166t18.5 205.5t-18.5 205.5t-43 166t-72 148t-80 123.5t-93.5 121z" glyph-name="parenright" horiz-adv-x="593" unicode=")"/><glyph d="M358 981l-131 -199l-92 68l150 184l-6 13l-228 63l37 111l219 -86l12 8l-12 237h117l-12 -237l12 -8l219 86l37 -111l-229 -63l-7 -13l152 -184l-94 -68l-129 199h-15z" glyph-name="asterisk" horiz-adv-x="731" unicode="*"/><glyph d="M541 287h-131v338h-334v123h334v337h131v-337h333v-123h-333v-338z" glyph-name="plus" horiz-adv-x="950" unicode="+"/><glyph d="M102 -180h-43v88h41q22 0 31.5 8.5t9.5 34.5v49h-80v285h181v-332q0 -66 -37 -99.5t-103 -33.5z" glyph-name="comma" horiz-adv-x="303" unicode=","/><glyph d="M618 535h-557v129h557v-129z" glyph-name="hyphen" horiz-adv-x="679" unicode="-"/><glyph d="M242 0h-181v285h181v-285z" glyph-name="period" horiz-adv-x="303" unicode="."/><glyph d="M115 -41h-156l737 1454h156z" glyph-name="slash" horiz-adv-x="806" unicode="/"/><glyph d="M709 -20q-295 0 -466 188t-171 518q0 329 171.5 518t465.5 189q293 0 463.5 -189t170.5 -518q0 -330 -170.5 -518t-463.5 -188zM709 119q481 0 481 567t-481 567q-484 0 -484 -567t484 -567z" glyph-name="zero" horiz-adv-x="1415" unicode="0"/><glyph d="M489 0h-145v1092h-324v110h72q115 0 177.5 37t101.5 133h118v-1372z" glyph-name="one" horiz-adv-x="610" unicode="1"/><glyph d="M1178 0h-1088v100q0 198 83 308.5t290 185.5l307 108q150 56 207 117.5t57 169.5q0 135 -95 200.5t-290 65.5q-218 0 -319 -80.5t-101 -238.5v-25h-145v19q0 94 33.5 175.5t100 147t178.5 103t257 37.5q134 0 237.5 -31.5t166 -88t94 -128t31.5 -156.5q0 -153 -92.5 -250 t-280.5 -161l-281 -95q-167 -59 -227.5 -137t-60.5 -225l307 12h631v-133z" glyph-name="two" horiz-adv-x="1253" unicode="2"/><glyph d="M662 -20q-151 0 -266 34.5t-185 97t-104.5 144t-34.5 180.5v33h151v-27q0 -111 39 -180t135.5 -106t259.5 -37q229 0 329.5 65.5t100.5 212.5q0 128 -84.5 192t-244.5 64h-371v125h340q320 0 320 232q0 126 -90 184.5t-306 58.5q-229 0 -328.5 -79t-99.5 -244v-19h-151 v25q0 97 35.5 179t106 144.5t185 98t263.5 35.5q252 0 391 -95t139 -266q0 -118 -67.5 -197t-194.5 -102v-14q147 -28 226 -115t79 -223q0 -191 -152.5 -296t-420.5 -105z" glyph-name="three" horiz-adv-x="1300" unicode="3"/><glyph d="M1077 0h-147v291h-879v106l854 975h172v-948h256v-133h-256v-291zM252 424h678v772h-10l-668 -760v-12z" glyph-name="four" horiz-adv-x="1384" unicode="4"/><glyph d="M666 -20q-279 0 -434.5 114t-155.5 307v29h149v-29q0 -288 443 -288q198 0 299.5 75t101.5 240q0 163 -100 236t-299 73q-272 0 -434 -110l-7 2v-2l-135 20l70 725h999v-133h-872l-53 -524l10 -2q72 61 196.5 103t268.5 42q232 0 371 -112t139 -318q0 -207 -149.5 -327.5 t-407.5 -120.5z" glyph-name="five" horiz-adv-x="1298" unicode="5"/><glyph d="M717 -20q-332 0 -481.5 168.5t-149.5 549.5q0 156 38.5 282.5t114 219t196.5 143t278 50.5q240 0 391 -118t151 -321v-14h-157v14q0 138 -91.5 218.5t-293.5 80.5q-255 0 -365 -133.5t-110 -414.5v-123h14q36 119 172.5 193.5t335.5 74.5q251 0 391.5 -114.5 t140.5 -315.5q0 -203 -151.5 -321.5t-423.5 -118.5zM713 119q220 0 325 76.5t105 234.5q0 154 -104 231.5t-324 77.5q-210 0 -329.5 -79t-119.5 -218q0 -159 115 -241t332 -82z" glyph-name="six" horiz-adv-x="1380" unicode="6"/><glyph d="M512 -2h-162q0 188 34.5 354.5t88 289t135.5 236.5t159 191.5t177 159.5v10h-924v133h1090v-119q-158 -138 -266 -267.5t-184.5 -280.5t-112 -323.5t-35.5 -383.5z" glyph-name="seven" horiz-adv-x="1126" unicode="7"/><glyph d="M659 -20q-287 0 -446.5 100t-159.5 293q0 130 89 221.5t255 124.5v14q-146 20 -226.5 102t-80.5 201q0 163 147.5 260t421.5 97q276 0 423 -97t147 -260q0 -119 -80.5 -201t-226.5 -102v-14q168 -33 256 -124.5t88 -221.5q0 -193 -160.5 -293t-446.5 -100zM659 768 q217 0 320.5 60t103.5 182q0 121 -96.5 182t-327.5 61q-156 0 -251 -30t-133.5 -82t-38.5 -131q0 -122 103 -182t320 -60zM659 119q244 0 351.5 65t107.5 211q0 136 -110.5 202.5t-348.5 66.5t-348 -66.5t-110 -202.5q0 -147 106.5 -211.5t351.5 -64.5z" glyph-name="eight" horiz-adv-x="1318" unicode="8"/><glyph d="M670 -20q-240 0 -391.5 117.5t-151.5 320.5v14h158v-14q0 -138 91.5 -218.5t293.5 -80.5q252 0 361.5 138t109.5 425v125h-15q-38 -126 -174 -205.5t-334 -79.5q-250 0 -391 115.5t-141 314.5q0 203 152 322t424 119q332 0 481 -165t149 -540q0 -159 -38 -287.5 t-113.5 -223t-195 -146t-275.5 -51.5zM664 633q210 0 329 83t119 230q0 150 -114.5 228.5t-329.5 78.5q-221 0 -326.5 -76.5t-105.5 -234.5q0 -154 104 -231.5t324 -77.5z" glyph-name="nine" horiz-adv-x="1380" unicode="9"/><glyph d="M242 727h-181v285h181v-285zM242 0h-181v285h181v-285z" glyph-name="colon" horiz-adv-x="303" unicode=":"/><glyph d="M242 727h-181v285h181v-285zM102 -180h-43v88h41q22 0 31.5 8.5t9.5 34.5v49h-80v285h181v-332q0 -66 -37 -99.5t-103 -33.5z" glyph-name="semicolon" horiz-adv-x="303" unicode=";"/><glyph d="M59 768l799 360v-145l-663 -291v-12l663 -291v-145l-799 360v164z" glyph-name="less" horiz-adv-x="935" unicode="&lt;"/><glyph d="M874 838h-798v123h798v-123zM874 410h-798v125h798v-125z" glyph-name="equal" horiz-adv-x="950" unicode="="/><glyph d="M874 604l-798 -360v145l663 291v12l-663 291v145l798 -360v-164z" glyph-name="greater" horiz-adv-x="935" unicode="&gt;"/><glyph d="M580 442h-146v66q0 77 40.5 130.5t131.5 92.5l148 68q111 50 161 100.5t50 134.5q0 51 -18 90t-58.5 71t-114.5 48.5t-178 16.5q-231 0 -331.5 -77.5t-100.5 -236.5v-41h-144v39q0 94 34.5 173.5t103 142t182.5 98t262 35.5q254 0 381 -99.5t127 -255.5q0 -67 -23 -122.5 t-65.5 -96.5t-88.5 -70t-106 -55l-147 -63q-59 -26 -79.5 -53t-20.5 -78v-58zM592 0h-164v276h164v-276z" glyph-name="question" horiz-adv-x="1165" unicode="?"/><glyph d="M825 84q-177 0 -285 110.5t-108 307.5q0 194 109 306t286 112q131 0 216 -64.5t116 -169.5h10v215h129v-541q0 -85 33.5 -122t108.5 -37q100 0 148 87.5t48 293.5q0 643 -714 643q-369 0 -565.5 -174t-196.5 -537q0 -357 189 -529.5t542 -172.5q179 0 360 55l27 -103 q-175 -69 -397 -69q-392 0 -623 221t-231 598q0 381 244.5 608.5t654.5 227.5q252 0 441 -89t293.5 -261t104.5 -408q0 -231 -90 -369.5t-243 -138.5q-119 0 -188 62.5t-81 168.5h-6q-33 -102 -117 -166.5t-215 -64.5zM569 502q0 -158 72.5 -233.5t220.5 -75.5 q132 0 214.5 75t82.5 215v37q0 138 -83 213.5t-214 75.5q-148 0 -220.5 -74.5t-72.5 -232.5z" glyph-name="at" horiz-adv-x="1806" unicode="@"/><glyph d="M170 0h-160l621 1372h203l622 -1372h-164l-184 403h-754zM649 1055l-235 -520h635l-238 520l-76 178h-12z" glyph-name="A" horiz-adv-x="1466" unicode="A"/><glyph d="M848 0h-742v1372h721q187 0 297.5 -89.5t110.5 -250.5q0 -122 -70 -203t-207 -102v-12q156 -26 238 -114t82 -222q0 -177 -116 -278t-314 -101zM252 1239v-465h551q287 0 287 232q0 120 -67.5 176.5t-207.5 56.5h-563zM252 649v-516h584q148 0 221 63t73 197 q0 256 -294 256h-584z" glyph-name="B" horiz-adv-x="1329" unicode="B"/><glyph d="M756 -20q-149 0 -276 50.5t-217 141.5t-140.5 223.5t-50.5 290.5q0 211 87 372t242.5 248t354.5 87q177 0 318 -62t222.5 -179t81.5 -269v-25h-157v25q0 176 -119.5 272t-343.5 96q-258 0 -395.5 -143.5t-137.5 -421.5t137.5 -421.5t395.5 -143.5q224 0 343.5 96 t119.5 272v25h157v-25q0 -152 -81.5 -269t-222 -178.5t-318.5 -61.5z" glyph-name="C" horiz-adv-x="1449" unicode="C"/><glyph d="M723 0h-596v1372h596q309 0 491.5 -185.5t182.5 -500.5t-182.5 -500.5t-491.5 -185.5zM723 1239h-449v-1106h449q262 0 391 137t129 416t-129 416t-391 137z" glyph-name="D" horiz-adv-x="1468" unicode="D"/><glyph d="M1165 0h-1042v1372h1042v-133h-897v-483h867v-131h-867v-492h897v-133z" glyph-name="E" horiz-adv-x="1245" unicode="E"/><glyph d="M268 0h-145v1372h1028v-133h-883v-524h852v-131h-852v-584z" glyph-name="F" horiz-adv-x="1222" unicode="F"/><glyph d="M737 -20q-194 0 -345 86.5t-235.5 247.5t-84.5 372q0 319 192.5 513t501.5 194q271 0 447 -137.5t176 -362.5v-19h-158v19q0 171 -120.5 264.5t-346.5 93.5q-261 0 -400 -143.5t-139 -421.5t137.5 -421.5t395.5 -143.5q246 0 365.5 95t119.5 294v51h-545v115h693v-676 h-131v299h-11q-51 -160 -186 -239.5t-326 -79.5z" glyph-name="G" horiz-adv-x="1486" unicode="G"/><glyph d="M268 0h-145v1372h145v-614h883v614h145v-1372h-145v625h-883v-625z" glyph-name="H" horiz-adv-x="1419" unicode="H"/><glyph d="M268 0h-145v1372h145v-1372z" glyph-name="I" horiz-adv-x="389" unicode="I"/><glyph d="M600 -20q-143 0 -250.5 39t-172 109.5t-95.5 162t-31 203.5v69h152v-76q0 -186 92 -275t305 -89q212 0 304.5 88t92.5 270v891h152v-883q0 -112 -31 -202t-95 -160t-171.5 -108.5t-251.5 -38.5z" glyph-name="J" horiz-adv-x="1261" unicode="J"/><glyph d="M268 0h-145v1372h145v-618h477l433 618h174l-482 -678l484 -694h-174l-430 612h-482v-612z" glyph-name="K" horiz-adv-x="1380" unicode="K"/><glyph d="M1139 0h-1016v1372h145v-1239h871v-133z" glyph-name="L" unicode="L"/><glyph d="M268 0h-145v1372h199l460 -895l121 -254h10l119 254l459 895h201v-1372h-146v967l4 184h-12l-86 -184l-457 -885h-176l-457 885l-88 184h-10l4 -184v-967z" glyph-name="M" horiz-adv-x="1812" unicode="M"/><glyph d="M268 0h-145v1372h160l718 -932l166 -229h13l-4 225v936h145v-1372h-160l-715 922l-172 231h-10l4 -229v-924z" glyph-name="N" horiz-adv-x="1441" unicode="N"/><glyph d="M764 -20q-152 0 -280 50.5t-219 141.5t-142 223.5t-51 290.5q0 211 87.5 372t244.5 248t360 87q311 0 503.5 -194t192.5 -513t-192.5 -512.5t-503.5 -193.5zM764 121q263 0 403 143.5t140 421.5t-140 421.5t-403 143.5q-261 0 -400 -143.5t-139 -421.5t139 -421.5 t400 -143.5z" glyph-name="O" horiz-adv-x="1531" unicode="O"/><glyph d="M268 0h-145v1372h631q227 0 366.5 -123.5t139.5 -339.5q0 -217 -139.5 -341t-366.5 -124h-486v-444zM741 1239h-473v-661h473q185 0 278 79.5t93 251.5q0 169 -93.5 249.5t-277.5 80.5z" glyph-name="P" horiz-adv-x="1294" unicode="P"/><glyph d="M764 -20q-152 0 -280 50.5t-219 141.5t-142 223.5t-51 290.5q0 211 87.5 372t244.5 248t360 87q311 0 503.5 -194t192.5 -513q0 -275 -145 -459.5t-391 -232.5l209 -283h-177l-186 269h-6zM764 121q263 0 403 143.5t140 421.5t-140 421.5t-403 143.5q-261 0 -400 -143.5 t-139 -421.5t139 -421.5t400 -143.5z" glyph-name="Q" horiz-adv-x="1531" unicode="Q"/><glyph d="M268 0h-145v1372h672q219 0 350 -105.5t131 -291.5q0 -172 -116 -274t-308 -107v-10q63 -18 106 -58t82 -106l258 -420h-168l-243 397q-55 90 -123.5 127t-200.5 37h-295v-561zM268 1239v-561h525q165 0 248 68t83 212t-83 212.5t-248 68.5h-525z" glyph-name="R" horiz-adv-x="1343" unicode="R"/><glyph d="M655 -20q-291 0 -441.5 124.5t-150.5 329.5v12h148v-26q0 -152 104.5 -227.5t339.5 -75.5q205 0 302.5 57t97.5 174q0 111 -67.5 164.5t-225.5 85.5l-291 55q-89 17 -157.5 44t-125.5 69t-87.5 106t-30.5 146q0 72 32 137.5t96 119.5t173.5 86t251.5 32q141 0 250 -35.5 t175.5 -98.5t100 -144t33.5 -177v-12h-148v24q0 153 -101 229t-321 76q-202 0 -298.5 -56.5t-96.5 -170.5q0 -112 65.5 -162t227.5 -84l289 -57q195 -37 299 -124.5t104 -240.5q0 -76 -32.5 -143t-97 -120.5t-172 -85t-245.5 -31.5z" glyph-name="S" horiz-adv-x="1267" unicode="S"/><glyph d="M733 0h-145v1239h-565v133h1273v-133h-563v-1239z" glyph-name="T" horiz-adv-x="1318" unicode="T"/><glyph d="M731 -20q-289 0 -453.5 153.5t-164.5 433.5v805h145v-799q0 -233 116 -341.5t357 -108.5t357 108.5t116 341.5v799h146v-805q0 -280 -165 -433.5t-454 -153.5z" glyph-name="U" horiz-adv-x="1462" unicode="U"/><glyph d="M801 0h-203l-604 1372h172l530 -1225h11l528 1225h170z" glyph-name="V" horiz-adv-x="1398" unicode="V"/><glyph d="M647 0h-217l-397 1372h162l272 -946l72 -281h12l82 281l319 946h205l352 -946l93 -281h10l63 281l240 946h160l-355 -1372h-217l-334 893l-108 319h-14l-97 -319z" glyph-name="W" horiz-adv-x="2109" unicode="W"/><glyph d="M197 0h-187l568 686v12l-568 674h187l499 -586h11l493 586h189l-570 -676v-10l570 -686h-189l-495 598h-13z" glyph-name="X" horiz-adv-x="1396" unicode="X"/><glyph d="M735 0h-147v487l-596 885h178l377 -559l112 -168h13l110 168l375 559h178l-600 -885v-487z" glyph-name="Y" horiz-adv-x="1327" unicode="Y"/><glyph d="M1280 0h-1206v133l968 1096v10h-936v133h1149v-133l-979 -1096v-10h1004v-133z" glyph-name="Z" horiz-adv-x="1353" unicode="Z"/><glyph d="M471 -123h-348v1618h348v-125h-211v-1368h211v-125z" glyph-name="bracketleft" horiz-adv-x="491" unicode="["/><glyph d="M852 -41h-156l-737 1454h156z" glyph-name="backslash" horiz-adv-x="811" unicode="\"/><glyph d="M-6 2h209v1368h-209v125h348v-1618h-348v125z" glyph-name="bracketright" horiz-adv-x="503" unicode="]"/><glyph d="M168 573h-137l362 799h174l363 -799h-137l-308 666h-10z" glyph-name="asciicircum" horiz-adv-x="960" unicode="^"/><glyph d="M758 -109h-738v109h738v-109z" glyph-name="underscore" horiz-adv-x="778" unicode="_"/><glyph d="M403 -20q-152 0 -242.5 68.5t-90.5 189.5q0 223 325 258l482 53v78q0 148 -71 211t-237 63q-165 0 -248 -62t-83 -194v-8h-146v8q0 166 131 276.5t357 110.5q219 0 328.5 -110.5t109.5 -288.5v-633h-131v272h-10q-44 -139 -170 -215.5t-304 -76.5zM215 248 q0 -156 221 -156q127 0 224 36t157 117t60 199v9l-437 -50q-119 -11 -172 -45.5t-53 -109.5z" glyph-name="a" horiz-adv-x="1134" unicode="a"/><glyph d="M254 0h-131v1372h145v-643h11q34 137 145 220t287 83q232 0 361.5 -145t129.5 -381q0 -237 -131.5 -381.5t-372.5 -144.5q-170 0 -284.5 83.5t-149.5 235.5h-10v-299zM268 489q0 -178 105.5 -277t290.5 -99q191 0 291 91t100 302q0 209 -100.5 300t-286.5 91 q-192 0 -296 -101t-104 -288v-19z" glyph-name="b" horiz-adv-x="1257" unicode="b"/><glyph d="M606 -20q-241 0 -387.5 147t-146.5 379t146.5 379t387.5 147q141 0 255.5 -51.5t181.5 -145.5t67 -214v-17h-143v12q0 135 -95 209t-268 74q-387 0 -387 -393t387 -393q173 0 268 73.5t95 208.5v13h143v-17q0 -120 -67 -214t-181.5 -145.5t-255.5 -51.5z" glyph-name="c" horiz-adv-x="1181" unicode="c"/><glyph d="M559 -20q-238 0 -371 145t-133 381q0 235 131.5 380.5t360.5 145.5q174 0 286.5 -83.5t147.5 -219.5h10v643h146v-1372h-133v299h-9q-37 -151 -152.5 -235t-283.5 -84zM203 506q0 -210 102 -301.5t291 -91.5q181 0 288 99t107 277v19q0 186 -105 287.5t-294 101.5 q-185 0 -287 -91t-102 -300z" glyph-name="d" horiz-adv-x="1257" unicode="d"/><glyph d="M604 -20q-244 0 -388 142t-144 384q0 233 144 379.5t386 146.5q228 0 368 -126t140 -347q0 -49 -10 -94h-891q13 -365 393 -365q175 0 261.5 61.5t86.5 174.5v14h146v-14q0 -157 -139 -256.5t-353 -99.5zM600 911q-191 0 -287 -92.5t-104 -263.5h764v31q0 159 -96.5 242 t-276.5 83z" glyph-name="e" unicode="e"/><glyph d="M340 0h-145v887h-162v125h164q12 178 126.5 269t313.5 91h111v-115h-132q-144 0 -213 -56t-63 -189h408v-125h-408v-887z" glyph-name="f" horiz-adv-x="768" unicode="f"/><glyph d="M557 82q-222 0 -353.5 132.5t-131.5 342.5t135.5 342.5t365.5 132.5q163 0 277.5 -73.5t144.5 -206.5h11v260h131v-916q0 -122 -37 -213t-107 -145.5t-162.5 -80.5t-209.5 -26q-211 0 -347.5 100t-136.5 273h146q0 -131 85.5 -189.5t258.5 -58.5q199 0 281.5 73t82.5 259 v264h-10q-32 -121 -143 -195.5t-281 -74.5zM217 557q0 -346 379 -346q187 0 291 89.5t104 250.5v35q0 148 -104.5 232.5t-280.5 84.5q-389 0 -389 -346z" glyph-name="g" horiz-adv-x="1259" unicode="g"/><glyph d="M268 0h-145v1372h145v-670h11q13 66 44 123.5t81.5 105t126.5 74.5t169 27q205 0 314.5 -122t109.5 -322v-588h-145v569q0 172 -82 251t-254 79q-194 0 -284.5 -112.5t-90.5 -311.5v-475z" glyph-name="h" horiz-adv-x="1241" unicode="h"/><glyph d="M268 1141h-145v231h145v-231zM268 0h-145v1012h145v-1012z" glyph-name="i" horiz-adv-x="389" unicode="i"/><glyph d="M270 1141h-145v231h145v-231zM-43 -348h-78v119h86q80 0 120 35t40 116v1090h145v-1059q0 -157 -84.5 -229t-228.5 -72z" glyph-name="j" horiz-adv-x="393" unicode="j"/><glyph d="M268 0h-145v1372h145v-784h340l338 424h172l-391 -484l389 -528h-170l-340 455h-338v-455z" glyph-name="k" horiz-adv-x="1136" unicode="k"/><glyph d="M268 0h-145v1372h145v-1372z" glyph-name="l" horiz-adv-x="389" unicode="l"/><glyph d="M268 0h-145v1012h131v-305h8q11 67 39.5 123t75 102.5t119 73t163.5 26.5q163 0 261 -91t124 -245h11q11 68 40 126.5t76.5 106.5t121 75.5t165.5 27.5q193 0 297.5 -122t104.5 -320v-590h-146v569q0 169 -75 249.5t-234 80.5q-179 0 -260.5 -102t-81.5 -308v-489h-145 v569q0 169 -74.5 249.5t-233.5 80.5q-180 0 -261 -102t-81 -308v-489z" glyph-name="m" horiz-adv-x="1974" unicode="m"/><glyph d="M268 0h-145v1012h131v-318h10q14 66 47.5 125.5t85.5 107.5t129 76.5t168 28.5q104 0 186.5 -35t134 -96t78.5 -140.5t27 -170.5v-590h-145v569q0 330 -332 330q-183 0 -279 -106.5t-96 -303.5v-489z" glyph-name="n" horiz-adv-x="1234" unicode="n"/><glyph d="M618 -20q-246 0 -397 147t-151 379t151 379t397 147q247 0 399 -147t152 -379t-152 -379t-399 -147zM618 111q205 0 306.5 103t101.5 292q0 188 -102 291.5t-306 103.5t-304.5 -103.5t-100.5 -291.5q0 -189 100.5 -292t304.5 -103z" glyph-name="o" horiz-adv-x="1239" unicode="o"/><glyph d="M268 -348h-145v1360h131v-285h16q35 140 148 222.5t289 82.5q232 0 363.5 -145.5t131.5 -380.5q0 -236 -132 -381t-368 -145q-166 0 -281.5 85t-150.5 232h-2v-645zM268 487q0 -177 107.5 -275.5t288.5 -98.5q188 0 289.5 91.5t101.5 301.5q0 107 -27.5 184t-80.5 121.5 t-121.5 65t-157.5 20.5q-190 0 -295 -102t-105 -289v-19z" glyph-name="p" horiz-adv-x="1257" unicode="p"/><glyph d="M555 -20q-236 0 -368 145t-132 381q0 235 132 380.5t364 145.5q176 0 288.5 -82.5t147.5 -222.5h17v285h133v-1360h-146v645h-4q-35 -147 -150.5 -232t-281.5 -85zM203 506q0 -210 102 -301.5t291 -91.5q181 0 288 98.5t107 275.5v19q0 187 -105.5 289t-293.5 102 q-185 0 -287 -91t-102 -300z" glyph-name="q" horiz-adv-x="1257" unicode="q"/><glyph d="M268 0h-145v1012h131v-277h10q25 131 116 214t241 83q84 0 150 -29.5t105.5 -80.5t59.5 -114.5t20 -135.5v-101h-145v78q0 131 -59 193.5t-189 62.5q-295 0 -295 -356v-549z" glyph-name="r" horiz-adv-x="1001" unicode="r"/><glyph d="M567 -20q-235 0 -363 92t-128 266v4h145v-12q0 -126 80 -178t268 -52q167 0 236 40t69 130q0 77 -50.5 112t-180.5 56l-270 39q-147 20 -224 82t-77 182q0 134 120 212.5t328 78.5q223 0 351 -92.5t128 -267.5v-4h-145v10q0 119 -75.5 176t-262.5 57q-160 0 -230.5 -40.5 t-70.5 -131.5q0 -77 47 -112t174 -54l248 -34q169 -24 251.5 -87t82.5 -182q0 -139 -124 -214.5t-327 -75.5z" glyph-name="s" horiz-adv-x="1085" unicode="s"/><glyph d="M743 0h-219q-159 0 -244 75.5t-85 246.5v565h-181v125h181v241h147v-241h401v-125h-401v-574q0 -102 51 -141t166 -39h184v-133z" glyph-name="t" horiz-adv-x="780" unicode="t"/><glyph d="M547 -20q-207 0 -318.5 125t-111.5 315v592h145v-570q0 -331 336 -331q184 0 280.5 106t96.5 303v492h145v-1012h-131v315h-10q-29 -140 -141.5 -237.5t-290.5 -97.5z" glyph-name="u" horiz-adv-x="1241" unicode="u"/><glyph d="M682 0h-178l-484 1012h158l410 -869h12l408 869h157z" glyph-name="v" horiz-adv-x="1185" unicode="v"/><glyph d="M524 0h-180l-324 1012h150l215 -670l51 -215h13l69 227l266 658h187l264 -658l70 -225h12l49 213l217 670h150l-328 -1012h-182l-262 662l-80 225h-11l-79 -225z" glyph-name="w" horiz-adv-x="1751" unicode="w"/><glyph d="M193 0h-175l461 504v10l-461 498h177l395 -420h10l393 420h174l-462 -494v-10l462 -508h-176l-397 428h-8z" glyph-name="x" horiz-adv-x="1185" unicode="x"/><glyph d="M256 -348h-127v133h154q75 0 112.5 25t67.5 90l49 102l-502 1010h160l297 -602l113 -248h12l108 250l281 600h160l-549 -1153q-55 -115 -131.5 -161t-204.5 -46z" glyph-name="y" horiz-adv-x="1157" unicode="y"/><glyph d="M1079 0h-1026v127l586 559l213 188v11l-213 -4h-555v131h965v-129l-625 -590l-182 -158v-10l182 4h655v-129z" glyph-name="z" horiz-adv-x="1132" unicode="z"/><glyph d="M528 -123h-30q-138 0 -205.5 68t-67.5 196v367q0 60 -22.5 81t-85.5 21h-76v152h76q63 0 85.5 21t22.5 81v367q0 128 67.5 196t205.5 68h30v-139h-39q-70 0 -98.5 -28.5t-28.5 -102.5v-363q0 -170 -153 -170v-12q153 0 153 -170v-363q0 -74 28.5 -102.5t98.5 -28.5h39 v-139z" glyph-name="braceleft" horiz-adv-x="555" unicode="{"/><glyph d="M260 -205h-137v1782h137v-1782z" glyph-name="bar" horiz-adv-x="380" unicode="|"/><glyph d="M29 1495h30q138 0 205.5 -68t67.5 -196v-367q0 -60 22.5 -81t85.5 -21h76v-152h-76q-63 0 -85.5 -21t-22.5 -81v-367q0 -128 -67.5 -196t-205.5 -68h-30v139h39q70 0 98.5 28.5t28.5 102.5v363q0 170 153 170v12q-153 0 -153 170v363q0 74 -28.5 102.5t-98.5 28.5h-39 v139z" glyph-name="braceright" horiz-adv-x="557" unicode="}"/><glyph d="M264 512h-127v152q0 29 4 54.5t16.5 53t32.5 47t54.5 32.5t79.5 13q37 0 76.5 -16t65 -32.5t71.5 -49.5l92 -49q7 -4 33.5 -21.5t37.5 -23.5t31.5 -16.5t37 -14.5t32.5 -4q78 0 78 92v129h125v-153q0 -84 -41 -139.5t-134 -55.5q-39 0 -79 12.5t-67 28t-65 39.5 q-8 5 -12 8l-104 59q-76 56 -106 69q-27 11 -52 11q-80 0 -80 -94v-131z" glyph-name="asciitilde" horiz-adv-x="1130" unicode="~"/><glyph glyph-name="nbspace" horiz-adv-x="376"/><glyph d="M84 1024h166v-276h-166v276zM100 573h136q0 -121 11 -414t11 -364v-143h-182v143q0 71 12 364.5t12 413.5z" glyph-name="exclamdown" horiz-adv-x="333" unicode="¡"/><glyph d="M649 -205h-135v191q-202 28 -322 170t-120 350t120 350t322 170v203h135v-199q200 -12 330.5 -125t130.5 -284v-17h-143v12q0 135 -95 209t-268 74q-387 0 -387 -393t387 -393q173 0 268 73.5t95 208.5v13h143v-17q0 -171 -130.5 -284t-330.5 -125v-187z" glyph-name="cent" horiz-adv-x="1150" unicode="¢"/><glyph d="M879 608h-451l12 -20q88 -139 88 -232q0 -73 -44.5 -129.5t-110.5 -85.5v-8h860v-133h-1172v133h72q117 0 193.5 55t76.5 144q0 74 -79 200l-50 76h-213v125h136q-80 145 -80 264q0 81 34 151.5t99.5 125.5t173 87t244.5 32q144 0 253.5 -36.5t175 -101t98 -148 t32.5 -183.5v-47h-144v41q0 174 -96 258t-321 84q-113 0 -193 -20.5t-125.5 -58.5t-65.5 -86.5t-20 -111.5q0 -67 24 -125.5t66 -124.5h527v-125z" glyph-name="sterling" horiz-adv-x="1290" unicode="£"/><glyph d="M748 0h-146v426h-573v125h530l-133 197h-397v124h313l-340 500h184l316 -475l170 -274h12l168 274l313 475h181l-338 -500h311v-124h-395l-133 -197h528v-125h-571v-426z" glyph-name="yen" horiz-adv-x="1347" unicode="¥"/><glyph d="M240 768h-138v809h138v-809zM240 -205h-138v809h138v-809z" glyph-name="brokenbar" horiz-adv-x="342" unicode="¦"/><glyph d="M543 -20q-228 0 -355 93t-127 265v6h146v-14q0 -60 15 -101t52 -71.5t104.5 -45t168.5 -14.5q157 0 228 36.5t71 117.5q0 65 -49.5 99.5t-165.5 51.5l-291 43q-297 44 -297 238q0 83 58 136.5t163 68.5v10q-100 19 -160.5 72t-60.5 147q0 127 119 202t315 75 q233 0 363.5 -93.5t130.5 -265.5v-4h-146v12q0 81 -28.5 129.5t-106.5 75.5t-217 27q-151 0 -219 -37.5t-68 -120.5q0 -67 49 -99.5t166 -47.5l306 -43q282 -41 282 -226q0 -88 -61 -146.5t-164 -70.5v-10q100 -22 162.5 -77.5t62.5 -145.5q0 -126 -122 -199t-324 -73z M399 547l125 -17q171 -28 246.5 14t75.5 126q0 70 -50 105t-165 50l-131 17q-314 43 -314 -137q0 -71 48 -105t165 -53z" glyph-name="section" horiz-adv-x="1024" unicode="§"/><glyph d="M780 2q-219 0 -384 87t-253 241.5t-88 355.5t88 355.5t253 241.5t384 87q218 0 382.5 -87t252.5 -241.5t88 -355.5t-88 -355.5t-252.5 -241.5t-382.5 -87zM780 115q302 0 451 147t149 424t-149 424t-451 147q-303 0 -452.5 -147t-149.5 -424t149.5 -424t452.5 -147z M786 315q-180 0 -290.5 102.5t-110.5 268.5t110.5 268.5t290.5 102.5q161 0 267 -82t106 -203v-16h-117v12q0 94 -68.5 138t-187.5 44q-284 0 -284 -264t284 -264q119 0 187.5 44.5t68.5 137.5v12h117v-16q0 -121 -106 -203t-267 -82z" glyph-name="copyright" horiz-adv-x="1558" unicode="©"/><glyph d="M180 1073q-50 0 -79 21.5t-29 60.5q0 71 98 80l123 14v15q0 33 -15.5 48t-58.5 15q-41 0 -55 -12.5t-14 -42.5v-4h-76v6q0 52 41 85.5t110 33.5t104.5 -35.5t35.5 -97.5v-181h-66v56h-4q-27 -62 -115 -62zM143 1159q0 -31 56 -31q40 0 69 17t29 57l-111 -14 q-25 -3 -34 -9.5t-9 -19.5z" glyph-name="ordfeminine" horiz-adv-x="436" unicode="ª"/><glyph d="M522 698l410 295v-151l-303 -211v-13l303 -210v-150l-410 293v147zM31 698l409 295v-151l-303 -211v-13l303 -210v-150l-409 293v147z" glyph-name="guillemotleft" horiz-adv-x="993" unicode="«"/><glyph d="M618 535h-557v129h557v-129z" glyph-name="softhyphen" horiz-adv-x="1228" unicode="­"/><glyph d="M399 709q-161 0 -259.5 94t-98.5 235t98.5 235.5t259.5 94.5t260 -94.5t99 -235.5t-99 -235t-260 -94zM399 786q129 0 203 61t74 191q0 132 -74 192t-203 60q-128 0 -201 -60.5t-73 -191.5q0 -130 73.5 -191t200.5 -61zM317 899h-67v287h190q121 0 121 -90q0 -38 -23 -58 t-59 -22v-4q18 -6 28.5 -16.5t24.5 -34.5l39 -62h-77l-33 55q-14 27 -26.5 36t-39.5 9h-78v-100zM317 1126v-75h129q26 0 37 8t11 28q0 24 -10.5 31.5t-37.5 7.5h-129z" glyph-name="registered" horiz-adv-x="798" unicode="®"/><glyph d="M240 1030q-84 0 -135.5 52t-51.5 130q0 77 51.5 129t135.5 52q83 0 133.5 -52t50.5 -129q0 -78 -50.5 -130t-133.5 -52zM240 1112q52 0 76 24.5t24 75.5q0 101 -100 101q-101 0 -101 -101q0 -51 24.5 -75.5t76.5 -24.5z" glyph-name="degree" horiz-adv-x="479" unicode="°"/><glyph d="M874 176h-798v125h336v324h-336v123h336v337h129v-337h333v-123h-333v-324h333v-125z" glyph-name="plusminus" horiz-adv-x="952" unicode="±"/><glyph d="M690 696h-620v39q0 108 51 166t158 94l153 54q81 27 114.5 53t33.5 74q0 58 -41.5 86t-149.5 28q-114 0 -166.5 -35.5t-52.5 -113.5v-17h-113v19q0 104 86.5 177t249.5 73q143 0 221 -60t78 -153q0 -80 -54.5 -126.5t-170.5 -82.5l-154 -47q-67 -24 -98 -55.5t-31 -82.5 l211 11h295v-101z" glyph-name="twosuperior" horiz-adv-x="733" unicode="²"/><glyph d="M399 686q-169 0 -256.5 61.5t-87.5 163.5v23h113v-21q0 -68 49.5 -97.5t177.5 -29.5q105 0 154 25t49 92q0 64 -43.5 84.5t-151.5 20.5h-161v84h141q108 0 147 18.5t39 81.5q0 51 -38.5 76.5t-145.5 25.5q-121 0 -169 -30t-48 -95v-18h-113v18q0 98 88.5 161t247.5 63 q132 0 212.5 -46.5t80.5 -134.5q0 -131 -141 -151v-10q79 -8 124.5 -49t45.5 -115q0 -98 -89 -149.5t-225 -51.5z" glyph-name="threesuperior" horiz-adv-x="753" unicode="³"/><glyph d="M768 0h-145v553h-123q-200 0 -329.5 106.5t-129.5 307.5q0 101 36 179.5t99.5 127t145.5 73.5t178 25h268v-1372zM1192 0h-145v1372h145v-1372z" glyph-name="paragraph" horiz-adv-x="1314" unicode="¶"/><glyph d="M256 512h-180v285h180v-285z" glyph-name="periodcentered" horiz-adv-x="333" unicode="·"/><glyph d="M332 686h-115v506h-205v96h84q64 0 92.5 17.5t40.5 66.5h103v-686z" glyph-name="onesuperior" horiz-adv-x="479" unicode="¹"/><glyph d="M233 1073q-72 0 -116.5 45.5t-44.5 114.5t44.5 114.5t116.5 45.5q74 0 119 -45.5t45 -114.5t-45 -114.5t-119 -45.5zM233 1143q91 0 91 90t-91 90q-90 0 -90 -90t90 -90z" glyph-name="ordmasculine" horiz-adv-x="468" unicode="º"/><glyph d="M471 551l-410 -293v150l304 210v13l-304 211v151l410 -295v-147zM963 551l-410 -293v150l303 210v13l-303 211v151l410 -295v-147z" glyph-name="guillemotright" horiz-adv-x="993" unicode="»"/><glyph d="M367 686h-115v506h-205v96h84q64 0 92.5 17.5t40.5 66.5h103v-686zM178 0h-147l1165 1372h147zM1255 0h-114v139h-463v86l448 461h129v-442h136v-105h-136v-139zM823 244h318v313h-8l-310 -303v-10z" glyph-name="onequarter" horiz-adv-x="1435" unicode="¼"/><glyph d="M367 686h-115v506h-205v96h84q64 0 92.5 17.5t40.5 66.5h103v-686zM178 0h-147l1165 1372h147zM1511 0h-620v39q0 108 51 166t158 94l153 53q81 27 114.5 53t33.5 74q0 58 -42 86.5t-151 28.5q-113 0 -165 -36t-52 -114v-16h-112v18q0 104 86 177t249 73q143 0 221 -60 t78 -153q0 -80 -55 -126.5t-172 -82.5l-151 -47q-67 -24 -98 -55t-31 -82l211 10h294v-100z" glyph-name="onehalf" horiz-adv-x="1548" unicode="½"/><glyph d="M391 686q-171 0 -257.5 61t-86.5 164v23h111v-21q0 -68 49.5 -97.5t177.5 -29.5q105 0 154 25t49 92q0 64 -43.5 84.5t-151.5 20.5h-162v84h144q107 0 146.5 18.5t39.5 81.5q0 50 -39.5 76t-146.5 26q-121 0 -169 -30t-48 -95v-18h-111v18q0 98 87.5 161t246.5 63 q133 0 214 -46.5t81 -134.5q0 -131 -144 -151v-10q80 -8 126.5 -49t46.5 -115q0 -66 -44 -112.5t-113.5 -67.5t-156.5 -21zM336 0h-146l1166 1372h145zM1370 -2h-115v139h-464v86l448 461h131v-442h133v-105h-133v-139zM938 242h317v313h-10l-307 -303v-10z" glyph-name="threequarters" horiz-adv-x="1576" unicode="¾"/><glyph d="M543 1024h164v-276h-164v276zM555 582h145v-66q0 -77 -40.5 -130.5t-131.5 -92.5l-147 -68q-110 -50 -159.5 -100.5t-49.5 -134.5q0 -107 83 -166.5t286 -59.5q231 0 330.5 77.5t99.5 236.5v41h143v-39q0 -94 -34.5 -173.5t-103 -142t-182.5 -98t-262 -35.5 q-254 0 -379.5 99.5t-125.5 255.5q0 67 22.5 122.5t65 96.5t88.5 70t106 55l146 63q59 26 79.5 53t20.5 78v58z" glyph-name="questiondown" horiz-adv-x="1134" unicode="¿"/><glyph d="M807 1495h-154l-303 254h201zM170 0h-160l621 1372h203l622 -1372h-164l-184 403h-754zM649 1055l-235 -520h635l-238 520l-76 178h-12z" glyph-name="Agrave" horiz-adv-x="1466" unicode="À"/><glyph d="M811 1495h-152l254 254h201zM170 0h-160l621 1372h203l622 -1372h-164l-184 403h-754zM649 1055l-235 -520h635l-238 520l-76 178h-12z" glyph-name="Aacute" horiz-adv-x="1466" unicode="Á"/><glyph d="M541 1495h-156l268 266h160l266 -266h-155l-185 184h-12zM170 0h-160l621 1372h203l622 -1372h-164l-184 403h-754zM649 1055l-235 -520h635l-238 520l-76 178h-12z" glyph-name="Acircumflex" horiz-adv-x="1466" unicode="Â"/><glyph d="M539 1532h-103v72q0 161 142 161q65 0 149 -59l43 -31q57 -43 98 -43q62 0 62 78v51h100v-71q0 -74 -34.5 -119t-100.5 -45q-73 0 -152 61l-51 31q-53 43 -94 43q-59 0 -59 -74v-55zM170 0h-160l621 1372h203l622 -1372h-164l-184 403h-754zM649 1055l-235 -520h635 l-238 520l-76 178h-12z" glyph-name="Atilde" horiz-adv-x="1466" unicode="Ã"/><glyph d="M971 1495h-140v242h140v-242zM635 1495h-141v242h141v-242zM170 0h-160l621 1372h203l622 -1372h-164l-184 403h-754zM649 1055l-235 -520h635l-238 520l-76 178h-12z" glyph-name="Adieresis" horiz-adv-x="1466" unicode="Ä"/><glyph d="M170 0h-160l600 1327q-53 25 -82.5 73t-29.5 111q0 95 64.5 152t170.5 57q105 0 169.5 -57t64.5 -152q0 -64 -30 -111.5t-83 -72.5l602 -1327h-164l-184 403h-754zM731 1395q71 0 104 28.5t33 87.5q0 117 -137 117t-137 -117q0 -59 33 -87.5t104 -28.5zM649 1055 l-235 -520h635l-238 520l-76 178h-12z" glyph-name="Aring" horiz-adv-x="1466" unicode="Å"/><glyph d="M174 0h-178l1059 1372h1108v-133h-897v-483h866v-131h-866v-492h897v-133h-1043v403h-633zM1110 1208l-522 -673h532v673h-10z" glyph-name="AE" horiz-adv-x="2242" unicode="Æ"/><glyph d="M823 -418h-161v92h163q72 0 72 58q0 35 -19 47t-53 12h-143v193q-274 23 -442 213.5t-168 488.5q0 211 87 372t242.5 248t354.5 87q177 0 318 -62t222.5 -179t81.5 -269v-25h-157v25q0 176 -119.5 272t-343.5 96q-258 0 -395.5 -143.5t-137.5 -421.5t137.5 -421.5 t395.5 -143.5q224 0 343.5 96t119.5 272v25h157v-25q0 -225 -170 -364.5t-434 -144.5v-97h49q82 0 128 -40.5t46 -108.5q0 -71 -45.5 -111.5t-128.5 -40.5z" glyph-name="Ccedilla" horiz-adv-x="1449" unicode="Ç"/><glyph d="M717 1495h-154l-303 254h201zM1165 0h-1042v1372h1042v-133h-897v-483h867v-131h-867v-492h897v-133z" glyph-name="Egrave" horiz-adv-x="1245" unicode="È"/><glyph d="M721 1495h-152l254 254h201zM1165 0h-1042v1372h1042v-133h-897v-483h867v-131h-867v-492h897v-133z" glyph-name="Eacute" horiz-adv-x="1245" unicode="É"/><glyph d="M451 1495h-156l266 266h162l266 -266h-155l-185 184h-12zM1165 0h-1042v1372h1042v-133h-897v-483h867v-131h-867v-492h897v-133z" glyph-name="Ecircumflex" horiz-adv-x="1245" unicode="Ê"/><glyph d="M881 1495h-140v242h140v-242zM543 1495h-140v242h140v-242zM1165 0h-1042v1372h1042v-133h-897v-483h867v-131h-867v-492h897v-133z" glyph-name="Edieresis" horiz-adv-x="1245" unicode="Ë"/><glyph d="M268 1495h-151l-303 254h198zM268 0h-145v1372h145v-1372z" glyph-name="Igrave" horiz-adv-x="389" unicode="Ì"/><glyph d="M274 1495h-153l256 254h201zM268 0h-145v1372h145v-1372z" glyph-name="Iacute" horiz-adv-x="389" unicode="Í"/><glyph d="M4 1495h-156l267 266h159l267 -266h-156l-184 184h-13zM268 0h-145v1372h145v-1372z" glyph-name="Icircumflex" horiz-adv-x="389" unicode="Î"/><glyph d="M434 1495h-141v242h141v-242zM96 1495h-141v242h141v-242zM268 0h-145v1372h145v-1372z" glyph-name="Idieresis" horiz-adv-x="389" unicode="Ï"/><glyph d="M821 0h-594v621h-207v131h207v620h594q310 0 492 -185.5t182 -500.5t-182 -500.5t-492 -185.5zM854 621h-481v-488h448q263 0 391.5 136.5t128.5 416.5t-128.5 416.5t-391.5 136.5h-448v-487h481v-131z" glyph-name="Eth" horiz-adv-x="1566" unicode="Ð"/><glyph d="M526 1532h-100v72q0 161 141 161q66 0 150 -59l43 -31q57 -43 96 -43q64 0 64 78v51h100v-71q0 -75 -35 -119.5t-102 -44.5q-69 0 -152 61l-49 31q-53 43 -96 43q-60 0 -60 -74v-55zM268 0h-145v1372h160l718 -932l166 -229h13l-4 225v936h145v-1372h-160l-715 922 l-172 231h-10l4 -229v-924z" glyph-name="Ntilde" horiz-adv-x="1441" unicode="Ñ"/><glyph d="M840 1495h-154l-303 254h201zM764 -20q-152 0 -280 50.5t-219 141.5t-142 223.5t-51 290.5q0 211 87.5 372t244.5 248t360 87q311 0 503.5 -194t192.5 -513t-192.5 -512.5t-503.5 -193.5zM764 121q263 0 403 143.5t140 421.5t-140 421.5t-403 143.5q-261 0 -400 -143.5 t-139 -421.5t139 -421.5t400 -143.5z" glyph-name="Ograve" horiz-adv-x="1531" unicode="Ò"/><glyph d="M844 1495h-152l254 254h201zM764 -20q-152 0 -280 50.5t-219 141.5t-142 223.5t-51 290.5q0 211 87.5 372t244.5 248t360 87q311 0 503.5 -194t192.5 -513t-192.5 -512.5t-503.5 -193.5zM764 121q263 0 403 143.5t140 421.5t-140 421.5t-403 143.5q-261 0 -400 -143.5 t-139 -421.5t139 -421.5t400 -143.5z" glyph-name="Oacute" horiz-adv-x="1531" unicode="Ó"/><glyph d="M573 1495h-155l268 266h160l266 -266h-156l-184 184h-12zM764 -20q-152 0 -280 50.5t-219 141.5t-142 223.5t-51 290.5q0 211 87.5 372t244.5 248t360 87q311 0 503.5 -194t192.5 -513t-192.5 -512.5t-503.5 -193.5zM764 121q263 0 403 143.5t140 421.5t-140 421.5 t-403 143.5q-261 0 -400 -143.5t-139 -421.5t139 -421.5t400 -143.5z" glyph-name="Ocircumflex" horiz-adv-x="1531" unicode="Ô"/><glyph d="M571 1532h-102v72q0 161 141 161q66 0 150 -59l43 -31q57 -43 98 -43q62 0 62 78v51h100v-71q0 -74 -34.5 -119t-100.5 -45q-73 0 -152 61l-51 31q-53 43 -94 43q-60 0 -60 -74v-55zM764 -20q-152 0 -280 50.5t-219 141.5t-142 223.5t-51 290.5q0 211 87.5 372t244.5 248 t360 87q311 0 503.5 -194t192.5 -513t-192.5 -512.5t-503.5 -193.5zM764 121q263 0 403 143.5t140 421.5t-140 421.5t-403 143.5q-261 0 -400 -143.5t-139 -421.5t139 -421.5t400 -143.5z" glyph-name="Otilde" horiz-adv-x="1531" unicode="Õ"/><glyph d="M1004 1495h-140v242h140v-242zM668 1495h-142v242h142v-242zM764 -20q-152 0 -280 50.5t-219 141.5t-142 223.5t-51 290.5q0 211 87.5 372t244.5 248t360 87q311 0 503.5 -194t192.5 -513t-192.5 -512.5t-503.5 -193.5zM764 121q263 0 403 143.5t140 421.5t-140 421.5 t-403 143.5q-261 0 -400 -143.5t-139 -421.5t139 -421.5t400 -143.5z" glyph-name="Odieresis" horiz-adv-x="1531" unicode="Ö"/><glyph d="M807 436l-92 -92l-252 252l-250 -250l-88 88l250 250l-252 252l90 92l254 -252l250 250l88 -88l-250 -250z" glyph-name="multiply" horiz-adv-x="929" unicode="×"/><glyph d="M764 -20q-266 0 -449 147l-155 -166l-80 78l156 166q-164 191 -164 481q0 211 87.5 372t244.5 248t360 87q259 0 444 -142l148 158l80 -78l-146 -155q170 -192 170 -490q0 -319 -192.5 -512.5t-503.5 -193.5zM225 686q0 -241 105 -379l786 844q-129 100 -352 100 q-261 0 -400 -143.5t-139 -421.5zM764 121q263 0 403 143.5t140 421.5q0 245 -111 387l-790 -848q134 -104 358 -104z" glyph-name="Oslash" horiz-adv-x="1531" unicode="Ø"/><glyph d="M805 1495h-154l-303 254h201zM731 -20q-289 0 -453.5 153.5t-164.5 433.5v805h145v-799q0 -233 116 -341.5t357 -108.5t357 108.5t116 341.5v799h146v-805q0 -280 -165 -433.5t-454 -153.5z" glyph-name="Ugrave" horiz-adv-x="1462" unicode="Ù"/><glyph d="M809 1495h-152l256 254h199zM731 -20q-289 0 -453.5 153.5t-164.5 433.5v805h145v-799q0 -233 116 -341.5t357 -108.5t357 108.5t116 341.5v799h146v-805q0 -280 -165 -433.5t-454 -153.5z" glyph-name="Uacute" horiz-adv-x="1462" unicode="Ú"/><glyph d="M541 1495h-156l266 266h160l266 -266h-155l-185 184h-12zM731 -20q-289 0 -453.5 153.5t-164.5 433.5v805h145v-799q0 -233 116 -341.5t357 -108.5t357 108.5t116 341.5v799h146v-805q0 -280 -165 -433.5t-454 -153.5z" glyph-name="Ucircumflex" horiz-adv-x="1462" unicode="Û"/><glyph d="M971 1495h-142v242h142v-242zM633 1495h-141v242h141v-242zM731 -20q-289 0 -453.5 153.5t-164.5 433.5v805h145v-799q0 -233 116 -341.5t357 -108.5t357 108.5t116 341.5v799h146v-805q0 -280 -165 -433.5t-454 -153.5z" glyph-name="Udieresis" horiz-adv-x="1462" unicode="Ü"/><glyph d="M741 1495h-151l256 254h198zM735 0h-147v487l-596 885h178l377 -559l112 -168h13l110 168l375 559h178l-600 -885v-487z" glyph-name="Yacute" horiz-adv-x="1327" unicode="Ý"/><glyph d="M268 0h-145v1372h145v-221h490q227 0 366.5 -124t139.5 -341t-139.5 -341t-366.5 -124h-490v-221zM748 1020h-480v-666h480q185 0 277.5 80t92.5 252q0 171 -93 252.5t-277 81.5z" glyph-name="Thorn" horiz-adv-x="1300" unicode="Þ"/><glyph d="M246 0h-144v897q0 240 147.5 360.5t430.5 120.5q244 0 375 -94.5t131 -247.5q0 -122 -85 -204t-253 -103v-12q184 -18 282.5 -111.5t98.5 -234.5q0 -176 -122.5 -273.5t-354.5 -97.5h-285v133h272q185 0 263.5 61.5t78.5 198.5q0 258 -356 258h-258v125h225 q169 0 258.5 59.5t89.5 176.5q0 55 -17 95t-58 71t-113.5 46t-177.5 15q-240 0 -334 -76t-94 -264v-899z" glyph-name="germandbls" horiz-adv-x="1263" unicode="ß"/><glyph d="M657 1147h-149l-305 266h198zM403 -20q-152 0 -242.5 68.5t-90.5 189.5q0 223 325 258l482 53v78q0 148 -71 211t-237 63q-165 0 -248 -62t-83 -194v-8h-146v8q0 166 131 276.5t357 110.5q219 0 328.5 -110.5t109.5 -288.5v-633h-131v272h-10q-44 -139 -170 -215.5 t-304 -76.5zM215 248q0 -156 221 -156q127 0 224 36t157 117t60 199v9l-437 -50q-119 -11 -172 -45.5t-53 -109.5z" glyph-name="agrave" horiz-adv-x="1134" unicode="à"/><glyph d="M651 1147h-149l256 266h198zM403 -20q-152 0 -242.5 68.5t-90.5 189.5q0 223 325 258l482 53v78q0 148 -71 211t-237 63q-165 0 -248 -62t-83 -194v-8h-146v8q0 166 131 276.5t357 110.5q219 0 328.5 -110.5t109.5 -288.5v-633h-131v272h-10q-44 -139 -170 -215.5 t-304 -76.5zM215 248q0 -156 221 -156q127 0 224 36t157 117t60 199v9l-437 -50q-119 -11 -172 -45.5t-53 -109.5z" glyph-name="aacute" horiz-adv-x="1134" unicode="á"/><glyph d="M385 1147h-156l267 266h161l267 -266h-156l-184 184h-13zM403 -20q-152 0 -242.5 68.5t-90.5 189.5q0 223 325 258l482 53v78q0 148 -71 211t-237 63q-165 0 -248 -62t-83 -194v-8h-146v8q0 166 131 276.5t357 110.5q219 0 328.5 -110.5t109.5 -288.5v-633h-131v272h-10 q-44 -139 -170 -215.5t-304 -76.5zM215 248q0 -156 221 -156q127 0 224 36t157 117t60 199v9l-437 -50q-119 -11 -172 -45.5t-53 -109.5z" glyph-name="acircumflex" horiz-adv-x="1134" unicode="â"/><glyph d="M381 1184h-102v73q0 72 34 116t109 44q63 0 147 -59l45 -31q53 -43 97 -43q61 0 61 78v51h100v-72q0 -74 -34.5 -118.5t-100.5 -44.5q-68 0 -151 61l-51 31q-53 43 -93 43q-61 0 -61 -72v-57zM403 -20q-152 0 -242.5 68.5t-90.5 189.5q0 223 325 258l482 53v78 q0 148 -71 211t-237 63q-165 0 -248 -62t-83 -194v-8h-146v8q0 166 131 276.5t357 110.5q219 0 328.5 -110.5t109.5 -288.5v-633h-131v272h-10q-44 -139 -170 -215.5t-304 -76.5zM215 248q0 -156 221 -156q127 0 224 36t157 117t60 199v9l-437 -50q-119 -11 -172 -45.5 t-53 -109.5z" glyph-name="atilde" horiz-adv-x="1134" unicode="ã"/><glyph d="M815 1147h-139v242h139v-242zM477 1147h-139v242h139v-242zM403 -20q-152 0 -242.5 68.5t-90.5 189.5q0 223 325 258l482 53v78q0 148 -71 211t-237 63q-165 0 -248 -62t-83 -194v-8h-146v8q0 166 131 276.5t357 110.5q219 0 328.5 -110.5t109.5 -288.5v-633h-131v272 h-10q-44 -139 -170 -215.5t-304 -76.5zM215 248q0 -156 221 -156q127 0 224 36t157 117t60 199v9l-437 -50q-119 -11 -172 -45.5t-53 -109.5z" glyph-name="adieresis" horiz-adv-x="1134" unicode="ä"/><glyph d="M578 1114q-92 0 -148.5 49t-56.5 131t56.5 131.5t148.5 49.5q91 0 146.5 -49.5t55.5 -131.5t-55.5 -131t-146.5 -49zM578 1186q124 0 124 108q0 109 -124 109q-125 0 -125 -109q0 -108 125 -108zM403 -20q-152 0 -242.5 68.5t-90.5 189.5q0 223 325 258l482 53v78 q0 148 -71 211t-237 63q-165 0 -248 -62t-83 -194v-8h-146v8q0 166 131 276.5t357 110.5q219 0 328.5 -110.5t109.5 -288.5v-633h-131v272h-10q-44 -139 -170 -215.5t-304 -76.5zM215 248q0 -156 221 -156q127 0 224 36t157 117t60 199v9l-437 -50q-119 -11 -172 -45.5 t-53 -109.5z" glyph-name="aring" horiz-adv-x="1134" unicode="å"/><glyph d="M414 -20q-159 0 -256 69.5t-97 190.5q0 117 88 179.5t238 78.5l504 53v76q0 148 -73.5 211t-246.5 63q-170 0 -256 -62.5t-86 -193.5v-12h-145v12q0 166 131 276.5t360 110.5q157 0 259.5 -55t150.5 -152q69 99 181 153t257 54q226 0 366 -126t140 -347q0 -49 -10 -94 h-891q13 -365 393 -365q176 0 263.5 61.5t87.5 174.5v14h145v-14q0 -157 -139.5 -256.5t-352.5 -99.5q-186 0 -316.5 83.5t-184.5 235.5h-6q-49 -156 -187 -237.5t-317 -81.5zM1421 911q-193 0 -289 -92.5t-104 -263.5h764v31q0 159 -96 242t-275 83zM207 250 q0 -79 57 -118.5t180 -39.5q93 0 170.5 20t138.5 61t97.5 109.5t42.5 159.5v13l-461 -52q-115 -11 -170 -45t-55 -108z" glyph-name="ae" horiz-adv-x="1978" unicode="æ"/><glyph d="M727 -418h-162v92h162q72 0 72 58q0 35 -19 47t-53 12h-143v189q-231 7 -371.5 153.5t-140.5 372.5q0 232 146.5 379t387.5 147q141 0 255.5 -51.5t181.5 -145.5t67 -214v-17h-143v12q0 135 -95 209t-268 74q-387 0 -387 -393t387 -393q173 0 268 73.5t95 208.5v13h143 v-17q0 -165 -122.5 -276.5t-311.5 -130.5v-101h51q81 0 126.5 -40.5t45.5 -108.5q0 -71 -45.5 -111.5t-126.5 -40.5z" glyph-name="ccedilla" horiz-adv-x="1181" unicode="ç"/><glyph d="M670 1147h-148l-305 266h197zM604 -20q-244 0 -388 142t-144 384q0 233 144 379.5t386 146.5q228 0 368 -126t140 -347q0 -49 -10 -94h-891q13 -365 393 -365q175 0 261.5 61.5t86.5 174.5v14h146v-14q0 -157 -139 -256.5t-353 -99.5zM600 911q-191 0 -287 -92.5 t-104 -263.5h764v31q0 159 -96.5 242t-276.5 83z" glyph-name="egrave" unicode="è"/><glyph d="M664 1147h-150l256 266h199zM604 -20q-244 0 -388 142t-144 384q0 233 144 379.5t386 146.5q228 0 368 -126t140 -347q0 -49 -10 -94h-891q13 -365 393 -365q175 0 261.5 61.5t86.5 174.5v14h146v-14q0 -157 -139 -256.5t-353 -99.5zM600 911q-191 0 -287 -92.5 t-104 -263.5h764v31q0 159 -96.5 242t-276.5 83z" glyph-name="eacute" unicode="é"/><glyph d="M399 1147h-155l266 266h160l268 -266h-158l-184 184h-12zM604 -20q-244 0 -388 142t-144 384q0 233 144 379.5t386 146.5q228 0 368 -126t140 -347q0 -49 -10 -94h-891q13 -365 393 -365q175 0 261.5 61.5t86.5 174.5v14h146v-14q0 -157 -139 -256.5t-353 -99.5zM600 911 q-191 0 -287 -92.5t-104 -263.5h764v31q0 159 -96.5 242t-276.5 83z" glyph-name="ecircumflex" unicode="ê"/><glyph d="M829 1147h-141v242h141v-242zM492 1147h-140v242h140v-242zM604 -20q-244 0 -388 142t-144 384q0 233 144 379.5t386 146.5q228 0 368 -126t140 -347q0 -49 -10 -94h-891q13 -365 393 -365q175 0 261.5 61.5t86.5 174.5v14h146v-14q0 -157 -139 -256.5t-353 -99.5z M600 911q-191 0 -287 -92.5t-104 -263.5h764v31q0 159 -96.5 242t-276.5 83z" glyph-name="edieresis" unicode="ë"/><glyph d="M268 1147h-149l-305 266h198zM260 0h-145v1024h145v-1024z" glyph-name="igrave" horiz-adv-x="376" unicode="ì"/><glyph d="M262 1147h-149l256 266h198zM260 0h-145v1024h145v-1024z" glyph-name="iacute" horiz-adv-x="376" unicode="í"/><glyph d="M-2 1147h-156l267 266h159l267 -266h-156l-184 184h-13zM260 0h-145v1024h145v-1024z" glyph-name="icircumflex" horiz-adv-x="376" unicode="î"/><glyph d="M428 1147h-141v242h141v-242zM90 1147h-141v242h141v-242zM260 0h-145v1024h145v-1024z" glyph-name="idieresis" horiz-adv-x="376" unicode="ï"/><glyph d="M563 -20q-268 0 -417.5 119.5t-149.5 324.5q0 197 142.5 310.5t389.5 113.5q199 0 322.5 -77t165.5 -206h14q-5 276 -280 537l-416 -103l-19 84l357 86q-128 106 -291 203h194q135 -69 248 -166l351 86l18 -82l-291 -71q279 -272 279 -590q0 -129 -35.5 -231.5t-109 -179 t-193 -117.5t-279.5 -41zM569 119q432 0 432 311q0 141 -111.5 217t-320.5 76q-426 0 -426 -297q0 -157 103.5 -232t322.5 -75z" glyph-name="eth" horiz-adv-x="1243" unicode="ð"/><glyph d="M426 1184h-102v73q0 72 34 116t109 44q63 0 147 -59l45 -31q53 -43 97 -43q61 0 61 78v51h101v-72q0 -74 -35 -118.5t-101 -44.5q-68 0 -151 61l-51 31q-53 43 -93 43q-61 0 -61 -72v-57zM268 0h-145v1012h131v-318h10q14 66 47.5 125.5t85.5 107.5t129 76.5t168 28.5 q104 0 186.5 -35t134 -96t78.5 -140.5t27 -170.5v-590h-145v569q0 330 -332 330q-183 0 -279 -106.5t-96 -303.5v-489z" glyph-name="ntilde" horiz-adv-x="1234" unicode="ñ"/><glyph d="M698 1147h-147l-305 266h198zM618 -20q-246 0 -397 147t-151 379t151 379t397 147q247 0 399 -147t152 -379t-152 -379t-399 -147zM618 111q205 0 306.5 103t101.5 292q0 188 -102 291.5t-306 103.5t-304.5 -103.5t-100.5 -291.5q0 -189 100.5 -292t304.5 -103z" glyph-name="ograve" horiz-adv-x="1239" unicode="ò"/><glyph d="M692 1147h-149l258 266h196zM618 -20q-246 0 -397 147t-151 379t151 379t397 147q247 0 399 -147t152 -379t-152 -379t-399 -147zM618 111q205 0 306.5 103t101.5 292q0 188 -102 291.5t-306 103.5t-304.5 -103.5t-100.5 -291.5q0 -189 100.5 -292t304.5 -103z" glyph-name="oacute" horiz-adv-x="1239" unicode="ó"/><glyph d="M428 1147h-156l267 266h159l269 -266h-158l-184 184h-13zM618 -20q-246 0 -397 147t-151 379t151 379t397 147q247 0 399 -147t152 -379t-152 -379t-399 -147zM618 111q205 0 306.5 103t101.5 292q0 188 -102 291.5t-306 103.5t-304.5 -103.5t-100.5 -291.5 q0 -189 100.5 -292t304.5 -103z" glyph-name="ocircumflex" horiz-adv-x="1239" unicode="ô"/><glyph d="M424 1184h-102v73q0 72 34 116t109 44q63 0 147 -59l43 -31q57 -43 99 -43q61 0 61 78v51h100v-72q0 -74 -34.5 -118.5t-100.5 -44.5q-72 0 -151 61l-51 31q-20 15 -31.5 23t-28.5 14t-35 6q-59 0 -59 -72v-57zM618 -20q-246 0 -397 147t-151 379t151 379t397 147 q247 0 399 -147t152 -379t-152 -379t-399 -147zM618 111q205 0 306.5 103t101.5 292q0 188 -102 291.5t-306 103.5t-304.5 -103.5t-100.5 -291.5q0 -189 100.5 -292t304.5 -103z" glyph-name="otilde" horiz-adv-x="1239" unicode="õ"/><glyph d="M858 1147h-139v242h139v-242zM520 1147h-139v242h139v-242zM618 -20q-246 0 -397 147t-151 379t151 379t397 147q247 0 399 -147t152 -379t-152 -379t-399 -147zM618 111q205 0 306.5 103t101.5 292q0 188 -102 291.5t-306 103.5t-304.5 -103.5t-100.5 -291.5 q0 -189 100.5 -292t304.5 -103z" glyph-name="odieresis" horiz-adv-x="1239" unicode="ö"/><glyph d="M571 924h-155v270h155v-270zM891 625h-797v123h797v-123zM571 178h-155v271h155v-271z" glyph-name="divide" horiz-adv-x="980" unicode="÷"/><glyph d="M618 -20q-210 0 -352 108l-121 -123l-63 68l115 119q-127 142 -127 354q0 232 151 379t397 147q200 0 340 -98l105 108l65 -65l-100 -103q141 -144 141 -368q0 -232 -152 -379t-399 -147zM213 506q0 -162 74 -262l581 598q-95 59 -250 59q-204 0 -304.5 -103.5 t-100.5 -291.5zM618 111q205 0 306.5 103t101.5 292q0 175 -88 276l-584 -602q97 -69 264 -69z" glyph-name="oslash" horiz-adv-x="1239" unicode="ø"/><glyph d="M698 1147h-149l-303 266h196zM547 -20q-207 0 -318.5 125t-111.5 315v592h145v-570q0 -331 336 -331q184 0 280.5 106t96.5 303v492h145v-1012h-131v315h-10q-29 -140 -141.5 -237.5t-290.5 -97.5z" glyph-name="ugrave" horiz-adv-x="1241" unicode="ù"/><glyph d="M692 1147h-149l256 266h198zM547 -20q-207 0 -318.5 125t-111.5 315v592h145v-570q0 -331 336 -331q184 0 280.5 106t96.5 303v492h145v-1012h-131v315h-10q-29 -140 -141.5 -237.5t-290.5 -97.5z" glyph-name="uacute" horiz-adv-x="1241" unicode="ú"/><glyph d="M428 1147h-156l267 266h159l267 -266h-156l-184 184h-13zM547 -20q-207 0 -318.5 125t-111.5 315v592h145v-570q0 -331 336 -331q184 0 280.5 106t96.5 303v492h145v-1012h-131v315h-10q-29 -140 -141.5 -237.5t-290.5 -97.5z" glyph-name="ucircumflex" horiz-adv-x="1241" unicode="û"/><glyph d="M858 1147h-141v242h141v-242zM520 1147h-141v242h141v-242zM547 -20q-207 0 -318.5 125t-111.5 315v592h145v-570q0 -331 336 -331q184 0 280.5 106t96.5 303v492h145v-1012h-131v315h-10q-29 -140 -141.5 -237.5t-290.5 -97.5z" glyph-name="udieresis" horiz-adv-x="1241" unicode="ü"/><glyph d="M647 1147h-149l258 266h196zM256 -348h-127v133h154q75 0 112.5 25t67.5 90l49 102l-502 1010h160l297 -602l113 -248h12l108 250l281 600h160l-549 -1153q-55 -115 -131.5 -161t-204.5 -46z" glyph-name="yacute" horiz-adv-x="1157" unicode="ý"/><glyph d="M252 -348h-146v1720h146v-657h2q37 147 154.5 232t287.5 85q231 0 360.5 -145t129.5 -381t-129.5 -381t-360.5 -145q-170 0 -287.5 85t-154.5 232h-2v-645zM252 487q0 -177 109 -275.5t294 -98.5q184 0 284.5 91.5t100.5 301.5q0 209 -100 300t-285 91t-294 -98 t-109 -275v-37z" glyph-name="thorn" horiz-adv-x="1243" unicode="þ"/><glyph d="M813 1147h-139v242h139v-242zM475 1147h-139v242h139v-242zM256 -348h-127v133h154q75 0 112.5 25t67.5 90l49 102l-502 1010h160l297 -602l113 -248h12l108 250l281 600h160l-549 -1153q-55 -115 -131.5 -161t-204.5 -46z" glyph-name="ydieresis" horiz-adv-x="1157" unicode="ÿ"/><glyph d="M1010 1577h-553v106h553v-106zM170 0h-160l621 1372h203l622 -1372h-164l-184 403h-754zM649 1055l-235 -520h635l-238 520l-76 178h-12z" glyph-name="Amacron" horiz-adv-x="1466" unicode="Ā"/><glyph d="M854 1227h-553v106h553v-106zM403 -20q-152 0 -242.5 68.5t-90.5 189.5q0 223 325 258l482 53v78q0 148 -71 211t-237 63q-165 0 -248 -62t-83 -194v-8h-146v8q0 166 131 276.5t357 110.5q219 0 328.5 -110.5t109.5 -288.5v-633h-131v272h-10q-44 -139 -170 -215.5 t-304 -76.5zM215 248q0 -156 221 -156q127 0 224 36t157 117t60 199v9l-437 -50q-119 -11 -172 -45.5t-53 -109.5z" glyph-name="amacron" horiz-adv-x="1134" unicode="ā"/><glyph d="M733 1475q-121 0 -193.5 61.5t-72.5 165.5v20h111v-20q0 -65 35.5 -97t119.5 -32q85 0 120.5 31.5t35.5 97.5v20h110v-20q0 -104 -73.5 -165.5t-192.5 -61.5zM170 0h-160l621 1372h203l622 -1372h-164l-184 403h-754zM649 1055l-235 -520h635l-238 520l-76 178h-12z" glyph-name="Abreve" horiz-adv-x="1466" unicode="Ă"/><glyph d="M578 1126q-120 0 -193.5 62t-73.5 166v47h111v-47q0 -66 36 -97.5t120 -31.5q85 0 120 31t35 98v47h111v-47q0 -104 -73.5 -166t-192.5 -62zM403 -20q-152 0 -242.5 68.5t-90.5 189.5q0 223 325 258l482 53v78q0 148 -71 211t-237 63q-165 0 -248 -62t-83 -194v-8h-146v8 q0 166 131 276.5t357 110.5q219 0 328.5 -110.5t109.5 -288.5v-633h-131v272h-10q-44 -139 -170 -215.5t-304 -76.5zM215 248q0 -156 221 -156q127 0 224 36t157 117t60 199v9l-437 -50q-119 -11 -172 -45.5t-53 -109.5z" glyph-name="abreve" horiz-adv-x="1134" unicode="ă"/><glyph d="M170 0h-160l621 1372h203l622 -1372l-86 -111q-51 -63 -51 -102q0 -70 92 -70h125v-100h-147q-92 0 -140.5 36.5t-48.5 102.5q0 26 6.5 49t22.5 46.5t26.5 36t34.5 38.5l66 74h-64l-184 403h-754zM649 1055l-235 -520h635l-238 520l-76 178h-12z" glyph-name="Aogonek" horiz-adv-x="1466" unicode="Ą"/><glyph d="M403 -20q-152 0 -242.5 68.5t-90.5 189.5q0 223 325 258l482 53v78q0 148 -71 211t-237 63q-165 0 -248 -62t-83 -194v-8h-146v8q0 166 131 276.5t357 110.5q219 0 328.5 -110.5t109.5 -288.5v-633l-86 -111q-51 -63 -51 -102q0 -70 92 -70h127v-100h-148 q-93 0 -141.5 36t-48.5 103q0 12 1 23t5.5 23t7 19.5t10.5 20t10.5 17t13.5 18.5t12.5 16t15.5 17l14 16l66 74h-31v272h-10q-44 -139 -170 -215.5t-304 -76.5zM215 248q0 -156 221 -156q127 0 224 36t157 117t60 199v9l-437 -50q-119 -11 -172 -45.5t-53 -109.5z" glyph-name="aogonek" horiz-adv-x="1134" unicode="ą"/><glyph d="M805 1495h-154l256 254h199zM756 -20q-149 0 -276 50.5t-217 141.5t-140.5 223.5t-50.5 290.5q0 211 87 372t242.5 248t354.5 87q177 0 318 -62t222.5 -179t81.5 -269v-25h-157v25q0 176 -119.5 272t-343.5 96q-258 0 -395.5 -143.5t-137.5 -421.5t137.5 -421.5 t395.5 -143.5q224 0 343.5 96t119.5 272v25h157v-25q0 -152 -81.5 -269t-222 -178.5t-318.5 -61.5z" glyph-name="Cacute" horiz-adv-x="1449" unicode="Ć"/><glyph d="M698 1147h-149l256 266h199zM606 -20q-241 0 -387.5 147t-146.5 379t146.5 379t387.5 147q141 0 255.5 -51.5t181.5 -145.5t67 -214v-17h-143v12q0 135 -95 209t-268 74q-387 0 -387 -393t387 -393q173 0 268 73.5t95 208.5v13h143v-17q0 -120 -67 -214t-181.5 -145.5 t-255.5 -51.5z" glyph-name="cacute" horiz-adv-x="1181" unicode="ć"/><glyph d="M535 1495h-156l266 266h160l266 -266h-156l-184 184h-12zM756 -20q-149 0 -276 50.5t-217 141.5t-140.5 223.5t-50.5 290.5q0 211 87 372t242.5 248t354.5 87q177 0 318 -62t222.5 -179t81.5 -269v-25h-157v25q0 176 -119.5 272t-343.5 96q-258 0 -395.5 -143.5 t-137.5 -421.5t137.5 -421.5t395.5 -143.5q224 0 343.5 96t119.5 272v25h157v-25q0 -152 -81.5 -269t-222 -178.5t-318.5 -61.5z" glyph-name="Ccircumflex" horiz-adv-x="1449" unicode="Ĉ"/><glyph d="M434 1147h-155l266 266h160l266 -266h-156l-184 184h-13zM606 -20q-241 0 -387.5 147t-146.5 379t146.5 379t387.5 147q141 0 255.5 -51.5t181.5 -145.5t67 -214v-17h-143v12q0 135 -95 209t-268 74q-387 0 -387 -393t387 -393q173 0 268 73.5t95 208.5v13h143v-17 q0 -120 -67 -214t-181.5 -145.5t-255.5 -51.5z" glyph-name="ccircumflex" horiz-adv-x="1181" unicode="ĉ"/><glyph d="M797 1495h-146v242h146v-242zM756 -20q-149 0 -276 50.5t-217 141.5t-140.5 223.5t-50.5 290.5q0 211 87 372t242.5 248t354.5 87q177 0 318 -62t222.5 -179t81.5 -269v-25h-157v25q0 176 -119.5 272t-343.5 96q-258 0 -395.5 -143.5t-137.5 -421.5t137.5 -421.5 t395.5 -143.5q224 0 343.5 96t119.5 272v25h157v-25q0 -152 -81.5 -269t-222 -178.5t-318.5 -61.5z" glyph-name="Cdotaccent" horiz-adv-x="1449" unicode="Ċ"/><glyph d="M698 1147h-145v242h145v-242zM606 -20q-241 0 -387.5 147t-146.5 379t146.5 379t387.5 147q141 0 255.5 -51.5t181.5 -145.5t67 -214v-17h-143v12q0 135 -95 209t-268 74q-387 0 -387 -393t387 -393q173 0 268 73.5t95 208.5v13h143v-17q0 -120 -67 -214t-181.5 -145.5 t-255.5 -51.5z" glyph-name="cdotaccent" horiz-adv-x="1181" unicode="ċ"/><glyph d="M915 1761h156l-266 -266h-160l-266 266h156l184 -184h12zM756 -20q-149 0 -276 50.5t-217 141.5t-140.5 223.5t-50.5 290.5q0 211 87 372t242.5 248t354.5 87q177 0 318 -62t222.5 -179t81.5 -269v-25h-157v25q0 176 -119.5 272t-343.5 96q-258 0 -395.5 -143.5 t-137.5 -421.5t137.5 -421.5t395.5 -143.5q224 0 343.5 96t119.5 272v25h157v-25q0 -152 -81.5 -269t-222 -178.5t-318.5 -61.5z" glyph-name="Ccaron" horiz-adv-x="1449" unicode="Č"/><glyph d="M705 1147h-160l-266 266h159l180 -184h13l180 184h160zM606 -20q-241 0 -387.5 147t-146.5 379t146.5 379t387.5 147q141 0 255.5 -51.5t181.5 -145.5t67 -214v-17h-143v12q0 135 -95 209t-268 74q-387 0 -387 -393t387 -393q173 0 268 73.5t95 208.5v13h143v-17 q0 -120 -67 -214t-181.5 -145.5t-255.5 -51.5z" glyph-name="ccaron" horiz-adv-x="1181" unicode="č"/><glyph d="M952 1761h156l-266 -266h-160l-268 266h157l185 -184h12zM723 0h-596v1372h596q309 0 491.5 -185.5t182.5 -500.5t-182.5 -500.5t-491.5 -185.5zM723 1239h-449v-1106h449q262 0 391 137t129 416t-129 416t-391 137z" glyph-name="Dcaron" horiz-adv-x="1468" unicode="Ď"/><glyph d="M559 -20q-238 0 -371 145t-133 381q0 235 131.5 380.5t360.5 145.5q174 0 286.5 -83.5t147.5 -219.5h10v643h146v-1372h-133v299h-9q-37 -151 -152.5 -235t-283.5 -84zM1266 963h-33v75h31q20 0 28 7.5t8 29.5v45h-63v252h143v-293q0 -116 -114 -116zM203 506 q0 -210 102 -301.5t291 -91.5q181 0 288 99t107 277v19q0 186 -105 287.5t-294 101.5q-185 0 -287 -91t-102 -300z" glyph-name="dcaron" horiz-adv-x="1353" unicode="ď"/><glyph d="M821 0h-594v621h-207v131h207v620h594q310 0 492 -185.5t182 -500.5t-182 -500.5t-492 -185.5zM854 621h-481v-488h448q263 0 391.5 136.5t128.5 416.5t-128.5 416.5t-391.5 136.5h-448v-487h481v-131z" glyph-name="Dcroat" horiz-adv-x="1566" unicode="Đ"/><glyph d="M551 -20q-234 0 -365 133t-131 352q0 217 129.5 351t356.5 134q173 0 289 -83t151 -212h10v441h-495v118h495v158h146v-158h157v-118h-157v-1096h-133v289h-9q-35 -144 -154 -226.5t-290 -82.5zM203 465q0 -188 100 -270t285 -82q184 0 293.5 89t109.5 247v18 q0 157 -108.5 252.5t-298.5 95.5q-88 0 -155 -18t-119 -58t-79.5 -109t-27.5 -165z" glyph-name="dcroat" horiz-adv-x="1308" unicode="đ"/><glyph d="M920 1577h-553v106h553v-106zM1165 0h-1042v1372h1042v-133h-897v-483h867v-131h-867v-492h897v-133z" glyph-name="Emacron" horiz-adv-x="1245" unicode="Ē"/><glyph d="M866 1227h-553v106h553v-106zM604 -20q-244 0 -388 142t-144 384q0 233 144 379.5t386 146.5q228 0 368 -126t140 -347q0 -49 -10 -94h-891q13 -365 393 -365q175 0 261.5 61.5t86.5 174.5v14h146v-14q0 -157 -139 -256.5t-353 -99.5zM600 911q-191 0 -287 -92.5 t-104 -263.5h764v31q0 159 -96.5 242t-276.5 83z" glyph-name="emacron" unicode="ē"/><glyph d="M643 1475q-121 0 -193.5 61.5t-72.5 165.5v20h110v-20q0 -65 36 -97t120 -32q85 0 120.5 31.5t35.5 97.5v20h110v-20q0 -104 -73.5 -165.5t-192.5 -61.5zM1165 0h-1042v1372h1042v-133h-897v-483h867v-131h-867v-492h897v-133z" glyph-name="Ebreve" horiz-adv-x="1245" unicode="Ĕ"/><glyph d="M590 1126q-119 0 -192.5 62t-73.5 166v47h110v-47q0 -66 36.5 -97.5t119.5 -31.5q85 0 120 31t35 98v47h111v-47q0 -104 -73 -166t-193 -62zM604 -20q-244 0 -388 142t-144 384q0 233 144 379.5t386 146.5q228 0 368 -126t140 -347q0 -49 -10 -94h-891q13 -365 393 -365 q175 0 261.5 61.5t86.5 174.5v14h146v-14q0 -157 -139 -256.5t-353 -99.5zM600 911q-191 0 -287 -92.5t-104 -263.5h764v31q0 159 -96.5 242t-276.5 83z" glyph-name="ebreve" unicode="ĕ"/><glyph d="M715 1495h-146v242h146v-242zM1165 0h-1042v1372h1042v-133h-897v-483h867v-131h-867v-492h897v-133z" glyph-name="Edotaccent" horiz-adv-x="1245" unicode="Ė"/><glyph d="M664 1147h-146v242h146v-242zM604 -20q-244 0 -388 142t-144 384q0 233 144 379.5t386 146.5q228 0 368 -126t140 -347q0 -49 -10 -94h-891q13 -365 393 -365q175 0 261.5 61.5t86.5 174.5v14h146v-14q0 -157 -139 -256.5t-353 -99.5zM600 911q-191 0 -287 -92.5 t-104 -263.5h764v31q0 159 -96.5 242t-276.5 83z" glyph-name="edotaccent" unicode="ė"/><glyph d="M1135 625h-867v-492h897v-133l-86 -111q-51 -63 -51 -102q0 -70 92 -70h125v-100h-147q-92 0 -140.5 36.5t-48.5 102.5q0 26 6.5 49t22.5 46.5t26.5 36t34.5 38.5l66 74h-942v1372h1042v-133h-897v-483h867v-131z" glyph-name="Eogonek" horiz-adv-x="1245" unicode="Ę"/><glyph d="M604 -20q-244 0 -388 142t-144 384q0 233 144 379.5t386 146.5q228 0 368 -126t140 -347q0 -49 -10 -94h-891q13 -365 393 -365q175 0 261.5 61.5t86.5 174.5v14h146v-14q0 -133 -104 -227t-273 -121l-76 -99q-51 -63 -51 -102q0 -70 92 -70h127v-100h-147q-93 0 -142 36 t-49 103q0 12 1 23t5.5 23t7 19.5t10.5 20t10.5 17t13.5 18.5t12.5 16t15.5 17l14 16l47 54h-6zM600 911q-191 0 -287 -92.5t-104 -263.5h764v31q0 159 -96.5 242t-276.5 83z" glyph-name="eogonek" unicode="ę"/><glyph d="M834 1761h155l-266 -266h-160l-268 266h158l184 -184h12zM1165 0h-1042v1372h1042v-133h-897v-483h867v-131h-867v-492h897v-133z" glyph-name="Ecaron" horiz-adv-x="1245" unicode="Ě"/><glyph d="M670 1147h-160l-266 266h159l181 -184h12l182 184h160zM604 -20q-244 0 -388 142t-144 384q0 233 144 379.5t386 146.5q228 0 368 -126t140 -347q0 -49 -10 -94h-891q13 -365 393 -365q175 0 261.5 61.5t86.5 174.5v14h146v-14q0 -157 -139 -256.5t-353 -99.5zM600 911 q-191 0 -287 -92.5t-104 -263.5h764v31q0 159 -96.5 242t-276.5 83z" glyph-name="ecaron" unicode="ě"/><glyph d="M573 1495h-155l266 266h162l266 -266h-156l-184 184h-12zM737 -20q-194 0 -345 86.5t-235.5 247.5t-84.5 372q0 319 192.5 513t501.5 194q271 0 447 -137.5t176 -362.5v-19h-158v19q0 171 -120.5 264.5t-346.5 93.5q-261 0 -400 -143.5t-139 -421.5t137.5 -421.5 t395.5 -143.5q246 0 365.5 95t119.5 294v51h-545v115h693v-676h-131v299h-11q-51 -160 -186 -239.5t-326 -79.5z" glyph-name="Gcircumflex" horiz-adv-x="1486" unicode="Ĝ"/><glyph d="M422 1147h-154l267 266h159l267 -266h-156l-184 184h-13zM557 82q-222 0 -353.5 132.5t-131.5 342.5t135.5 342.5t365.5 132.5q163 0 277.5 -73.5t144.5 -206.5h11v260h131v-916q0 -122 -37 -213t-107 -145.5t-162.5 -80.5t-209.5 -26q-211 0 -347.5 100t-136.5 273h146 q0 -131 85.5 -189.5t258.5 -58.5q199 0 281.5 73t82.5 259v264h-10q-32 -121 -143 -195.5t-281 -74.5zM217 557q0 -346 379 -346q187 0 291 89.5t104 250.5v35q0 148 -104.5 232.5t-280.5 84.5q-389 0 -389 -346z" glyph-name="gcircumflex" horiz-adv-x="1259" unicode="ĝ"/><glyph d="M766 1475q-121 0 -193.5 61.5t-72.5 165.5v20h110v-20q0 -65 36 -97t120 -32q85 0 120.5 31.5t35.5 97.5v20h110v-20q0 -104 -73.5 -165.5t-192.5 -61.5zM737 -20q-194 0 -345 86.5t-235.5 247.5t-84.5 372q0 319 192.5 513t501.5 194q271 0 447 -137.5t176 -362.5v-19 h-158v19q0 171 -120.5 264.5t-346.5 93.5q-261 0 -400 -143.5t-139 -421.5t137.5 -421.5t395.5 -143.5q246 0 365.5 95t119.5 294v51h-545v115h693v-676h-131v299h-11q-51 -160 -186 -239.5t-326 -79.5z" glyph-name="Gbreve" horiz-adv-x="1486" unicode="Ğ"/><glyph d="M614 1126q-120 0 -193 62t-73 166v47h111v-47q0 -66 36 -97.5t119 -31.5q85 0 120.5 31t35.5 98v47h111v-47q0 -104 -74 -166t-193 -62zM557 82q-222 0 -353.5 132.5t-131.5 342.5t135.5 342.5t365.5 132.5q163 0 277.5 -73.5t144.5 -206.5h11v260h131v-916 q0 -122 -37 -213t-107 -145.5t-162.5 -80.5t-209.5 -26q-211 0 -347.5 100t-136.5 273h146q0 -131 85.5 -189.5t258.5 -58.5q199 0 281.5 73t82.5 259v264h-10q-32 -121 -143 -195.5t-281 -74.5zM217 557q0 -346 379 -346q187 0 291 89.5t104 250.5v35q0 148 -104.5 232.5 t-280.5 84.5q-389 0 -389 -346z" glyph-name="gbreve" horiz-adv-x="1259" unicode="ğ"/><glyph d="M838 1495h-146v242h146v-242zM737 -20q-194 0 -345 86.5t-235.5 247.5t-84.5 372q0 319 192.5 513t501.5 194q271 0 447 -137.5t176 -362.5v-19h-158v19q0 171 -120.5 264.5t-346.5 93.5q-261 0 -400 -143.5t-139 -421.5t137.5 -421.5t395.5 -143.5q246 0 365.5 95 t119.5 294v51h-545v115h693v-676h-131v299h-11q-51 -160 -186 -239.5t-326 -79.5z" glyph-name="Gdotaccent" horiz-adv-x="1486" unicode="Ġ"/><glyph d="M686 1147h-145v242h145v-242zM557 82q-222 0 -353.5 132.5t-131.5 342.5t135.5 342.5t365.5 132.5q163 0 277.5 -73.5t144.5 -206.5h11v260h131v-916q0 -122 -37 -213t-107 -145.5t-162.5 -80.5t-209.5 -26q-211 0 -347.5 100t-136.5 273h146q0 -131 85.5 -189.5 t258.5 -58.5q199 0 281.5 73t82.5 259v264h-10q-32 -121 -143 -195.5t-281 -74.5zM217 557q0 -346 379 -346q187 0 291 89.5t104 250.5v35q0 148 -104.5 232.5t-280.5 84.5q-389 0 -389 -346z" glyph-name="gdotaccent" horiz-adv-x="1259" unicode="ġ"/><glyph d="M737 -20q-194 0 -345 86.5t-235.5 247.5t-84.5 372q0 319 192.5 513t501.5 194q271 0 447 -137.5t176 -362.5v-19h-158v19q0 171 -120.5 264.5t-346.5 93.5q-261 0 -400 -143.5t-139 -421.5t137.5 -421.5t395.5 -143.5q246 0 365.5 95t119.5 294v51h-545v115h693v-676 h-131v299h-11q-51 -160 -186 -239.5t-326 -79.5zM602 -410h-149l180 267h190z" glyph-name="Gcommaaccent" horiz-adv-x="1486" unicode="Ģ"/><glyph d="M674 1413h135l-170 -266h-176zM557 82q-222 0 -353.5 132.5t-131.5 342.5t135.5 342.5t365.5 132.5q163 0 277.5 -73.5t144.5 -206.5h11v260h131v-916q0 -122 -37 -213t-107 -145.5t-162.5 -80.5t-209.5 -26q-211 0 -347.5 100t-136.5 273h146q0 -131 85.5 -189.5 t258.5 -58.5q199 0 281.5 73t82.5 259v264h-10q-32 -121 -143 -195.5t-281 -74.5zM217 557q0 -346 379 -346q187 0 291 89.5t104 250.5v35q0 148 -104.5 232.5t-280.5 84.5q-389 0 -389 -346z" glyph-name="gcommaaccent" horiz-adv-x="1259" unicode="ģ"/><glyph d="M518 1495h-156l267 266h162l266 -266h-156l-184 184h-12zM268 0h-145v1372h145v-614h883v614h145v-1372h-145v625h-883v-625z" glyph-name="Hcircumflex" horiz-adv-x="1419" unicode="Ĥ"/><glyph d="M2 1495h-156l267 266h161l267 -266h-156l-184 184h-13zM268 0h-145v1372h145v-670h11q13 66 44 123.5t81.5 105t126.5 74.5t169 27q205 0 314.5 -122t109.5 -322v-588h-145v569q0 172 -82 251t-254 79q-194 0 -284.5 -112.5t-90.5 -311.5v-475z" glyph-name="hcircumflex" horiz-adv-x="1241" unicode="ĥ"/><glyph d="M268 0h-145v1038h-191v131h191v203h145v-203h883v203h145v-203h189v-131h-189v-1038h-145v625h-883v-625zM268 758h883v280h-883v-280z" glyph-name="Hbar" horiz-adv-x="1419" unicode="Ħ"/><glyph d="M281 0h-146v1096h-149v118h149v158h146v-158h503v-118h-503v-506h10q14 66 46 123.5t83 105t128.5 74.5t172.5 27q202 0 310 -122.5t108 -322.5v-475h-146v457q0 172 -80 250.5t-249 78.5q-199 0 -291 -111.5t-92 -312.5v-362z" glyph-name="hbar" horiz-adv-x="1239" unicode="ħ"/><glyph d="M0 1532h-100v72q0 161 141 161q63 0 147 -59l45 -31q53 -43 97 -43q61 0 61 78v51h101v-71q0 -74 -35 -119t-101 -45q-68 0 -151 61l-49 31q-53 43 -97 43q-59 0 -59 -74v-55zM268 0h-145v1372h145v-1372z" glyph-name="Itilde" horiz-adv-x="389" unicode="Ĩ"/><glyph d="M-8 1184h-101v73q0 72 34.5 116t109.5 44q61 0 145 -59l45 -31q53 -43 97 -43q61 0 61 78v51h100v-72q0 -74 -34.5 -118.5t-100.5 -44.5q-68 0 -151 61l-50 31q-57 43 -94 43q-61 0 -61 -72v-57zM260 0h-145v1024h145v-1024z" glyph-name="itilde" horiz-adv-x="376" unicode="ĩ"/><glyph d="M471 1577h-553v106h553v-106zM268 0h-145v1372h145v-1372z" glyph-name="Imacron" horiz-adv-x="389" unicode="Ī"/><glyph d="M465 1227h-553v106h553v-106zM260 0h-145v1024h145v-1024z" glyph-name="imacron" horiz-adv-x="376" unicode="ī"/><glyph d="M195 1475q-119 0 -193 62t-74 165v20h111v-20q0 -65 36.5 -97t119.5 -32q85 0 120 31.5t35 97.5v20h111v-20q0 -104 -72.5 -165.5t-193.5 -61.5zM268 0h-145v1372h145v-1372z" glyph-name="Ibreve" horiz-adv-x="389" unicode="Ĭ"/><glyph d="M188 1126q-120 0 -193 62t-73 166v47h111v-47q0 -66 36 -97.5t119 -31.5q85 0 120.5 31t35.5 98v47h111v-47q0 -104 -73.5 -166t-193.5 -62zM260 0h-145v1024h145v-1024z" glyph-name="ibreve" horiz-adv-x="376" unicode="ĭ"/><glyph d="M348 -383h-147q-92 0 -140.5 36.5t-48.5 102.5q0 26 6.5 49t22.5 46.5t26.5 36t34.5 38.5l64 74h-43v1372h145v-1372l-86 -111q-51 -63 -51 -102q0 -70 92 -70h125v-100z" glyph-name="Iogonek" horiz-adv-x="389" unicode="Į"/><glyph d="M268 1141h-145v231h145v-231zM348 -383h-147q-92 0 -140.5 36.5t-48.5 102.5q0 26 6.5 49t22.5 46.5t26.5 36t34.5 38.5l64 74h-43v1012h145v-1012l-86 -111q-51 -63 -51 -102q0 -70 92 -70h125v-100z" glyph-name="iogonek" horiz-adv-x="389" unicode="į"/><glyph d="M268 1495h-145v242h145v-242zM268 0h-145v1372h145v-1372z" glyph-name="Idotaccent" horiz-adv-x="389" unicode="İ"/><glyph d="M260 0h-145v1024h145v-1024z" glyph-name="dotlessi" horiz-adv-x="376" unicode="ı"/><glyph d="M268 0h-145v1372h145v-1372zM989 -20q-143 0 -250.5 39t-172 109.5t-95.5 162t-31 203.5v69h152v-76q0 -186 92 -275t305 -89q212 0 304.5 88t92.5 270v891h152v-883q0 -112 -31 -202t-95 -160t-171.5 -108.5t-251.5 -38.5z" glyph-name="IJ" horiz-adv-x="1650" unicode="Ĳ"/><glyph d="M268 1141h-145v231h145v-231zM659 1141h-145v231h145v-231zM268 0h-145v1012h145v-1012zM346 -348h-76v119h86q78 0 118 35.5t40 115.5v1090h145v-1059q0 -157 -84 -229t-229 -72z" glyph-name="ij" horiz-adv-x="782" unicode="ĳ"/><glyph d="M889 1495h-156l266 266h162l266 -266h-155l-185 184h-12zM600 -20q-143 0 -250.5 39t-172 109.5t-95.5 162t-31 203.5v69h152v-76q0 -186 92 -275t305 -89q212 0 304.5 88t92.5 270v891h152v-883q0 -112 -31 -202t-95 -160t-171.5 -108.5t-251.5 -38.5z" glyph-name="Jcircumflex" horiz-adv-x="1261" unicode="Ĵ"/><glyph d="M6 1147h-156l267 266h159l267 -266h-156l-184 184h-13zM-43 -348h-78v119h86q80 0 120 35t40 116v1090h145v-1059q0 -157 -84.5 -229t-228.5 -72z" glyph-name="jcircumflex" horiz-adv-x="393" unicode="ĵ"/><glyph d="M268 0h-145v1372h145v-618h477l433 618h174l-482 -678l484 -694h-174l-430 612h-482v-612zM606 -410h-151l180 267h192z" glyph-name="Kcommaaccent" horiz-adv-x="1380" unicode="Ķ"/><glyph d="M268 0h-145v1372h145v-784h340l338 424h172l-391 -484l389 -528h-170l-340 455h-338v-455zM432 -410h-135l172 267h176z" glyph-name="kcommaaccent" horiz-adv-x="1136" unicode="ķ"/><glyph d="M274 1495h-151l254 254h201zM1139 0h-1016v1372h145v-1239h871v-133z" glyph-name="Lacute" unicode="Ĺ"/><glyph d="M279 1495h-154l256 254h201zM268 0h-145v1372h145v-1372z" glyph-name="lacute" horiz-adv-x="389" unicode="ĺ"/><glyph d="M1139 0h-1016v1372h145v-1239h871v-133zM512 -410h-152l183 267h190z" glyph-name="Lcommaaccent" unicode="Ļ"/><glyph d="M268 0h-145v1372h145v-1372zM66 -410h-136l172 267h174z" glyph-name="lcommaaccent" horiz-adv-x="389" unicode="ļ"/><glyph d="M1139 0h-1016v1372h145v-1239h871v-133zM727 901h-41v94h41q22 0 31.5 8.5t9.5 34.5v49h-80v285h180v-330q0 -71 -36.5 -106t-104.5 -35z" glyph-name="Lcaron" unicode="Ľ"/><glyph d="M268 0h-145v1372h145v-1372zM401 963h-32v75h30q20 0 28.5 7.5t8.5 29.5v45h-63v252h143v-293q0 -116 -115 -116z" glyph-name="lcaron" horiz-adv-x="503" unicode="ľ"/><glyph d="M268 1495h-145v242h145v-242zM1139 0h-1016v1372h145v-1239h871v-133z" glyph-name="Ldot" unicode="Ŀ"/><glyph d="M268 0h-145v1372h145v-1372zM516 565h-145v242h145v-242z" glyph-name="ldot" horiz-adv-x="489" unicode="ŀ"/><glyph d="M1243 0h-1016v655l-207 -82v140l207 82v577h146v-522l493 194v-139l-493 -194v-578h870v-133z" glyph-name="Lslash" horiz-adv-x="1284" unicode="Ł"/><glyph d="M383 0h-145v739l-207 -116l-51 94l258 147v508h145v-426l176 101l51 -97l-227 -129v-821z" glyph-name="lslash" horiz-adv-x="589" unicode="ł"/><glyph d="M801 1495h-154l256 254h201zM268 0h-145v1372h160l718 -932l166 -229h13l-4 225v936h145v-1372h-160l-715 922l-172 231h-10l4 -229v-924z" glyph-name="Nacute" horiz-adv-x="1441" unicode="Ń"/><glyph d="M696 1147h-149l256 266h198zM268 0h-145v1012h131v-318h10q14 66 47.5 125.5t85.5 107.5t129 76.5t168 28.5q104 0 186.5 -35t134 -96t78.5 -140.5t27 -170.5v-590h-145v569q0 330 -332 330q-183 0 -279 -106.5t-96 -303.5v-489z" glyph-name="nacute" horiz-adv-x="1234" unicode="ń"/><glyph d="M268 0h-145v1372h160l718 -932l166 -229h13l-4 225v936h145v-1372h-160l-715 922l-172 231h-10l4 -229v-924zM600 -410h-151l180 267h192z" glyph-name="Ncommaaccent" horiz-adv-x="1441" unicode="Ņ"/><glyph d="M268 0h-145v1012h131v-318h10q14 66 47.5 125.5t85.5 107.5t129 76.5t168 28.5q104 0 186.5 -35t134 -96t78.5 -140.5t27 -170.5v-590h-145v569q0 330 -332 330q-183 0 -279 -106.5t-96 -303.5v-489zM496 -410h-136l172 267h177z" glyph-name="ncommaaccent" horiz-adv-x="1234" unicode="ņ"/><glyph d="M913 1761h156l-266 -266h-162l-266 266h155l185 -184h14zM268 0h-145v1372h160l718 -932l166 -229h13l-4 225v936h145v-1372h-160l-715 922l-172 231h-10l4 -229v-924z" glyph-name="Ncaron" horiz-adv-x="1441" unicode="Ň"/><glyph d="M702 1147h-159l-269 266h160l182 -184h13l180 184h160zM268 0h-145v1012h131v-318h10q14 66 47.5 125.5t85.5 107.5t129 76.5t168 28.5q104 0 186.5 -35t134 -96t78.5 -140.5t27 -170.5v-590h-145v569q0 330 -332 330q-183 0 -279 -106.5t-96 -303.5v-489z" glyph-name="ncaron" horiz-adv-x="1234" unicode="ň"/><glyph d="M1034 -348h-102v135h108q75 0 101 20.5t26 83.5v101l-682 878l-211 283h-10l4 -281v-872h-145v1372h160l684 -887l200 -274h13l-4 270v891h145v-1444q0 -153 -73 -214.5t-214 -61.5z" glyph-name="Eng" horiz-adv-x="1441" unicode="Ŋ"/><glyph d="M252 0h-146v1012h132v-318h10q14 66 47.5 125.5t86.5 107.5t130 76.5t168 28.5q104 0 186 -35t133.5 -96t78 -140.5t26.5 -170.5v-658q0 -144 -86 -212t-227 -68h-76v119h86q78 0 117.5 35t39.5 116v647q0 330 -331 330q-183 0 -279 -106.5t-96 -303.5v-489z" glyph-name="eng" horiz-adv-x="1204" unicode="ŋ"/><glyph d="M1042 1577h-553v106h553v-106zM764 -20q-152 0 -280 50.5t-219 141.5t-142 223.5t-51 290.5q0 211 87.5 372t244.5 248t360 87q311 0 503.5 -194t192.5 -513t-192.5 -512.5t-503.5 -193.5zM764 121q263 0 403 143.5t140 421.5t-140 421.5t-403 143.5q-261 0 -400 -143.5 t-139 -421.5t139 -421.5t400 -143.5z" glyph-name="Omacron" horiz-adv-x="1531" unicode="Ō"/><glyph d="M895 1227h-553v106h553v-106zM618 -20q-246 0 -397 147t-151 379t151 379t397 147q247 0 399 -147t152 -379t-152 -379t-399 -147zM618 111q205 0 306.5 103t101.5 292q0 188 -102 291.5t-306 103.5t-304.5 -103.5t-100.5 -291.5q0 -189 100.5 -292t304.5 -103z" glyph-name="omacron" horiz-adv-x="1239" unicode="ō"/><glyph d="M766 1475q-121 0 -193.5 61.5t-72.5 165.5v20h110v-20q0 -65 36 -97t120 -32q85 0 120.5 31.5t35.5 97.5v20h110v-20q0 -104 -73.5 -165.5t-192.5 -61.5zM764 -20q-152 0 -280 50.5t-219 141.5t-142 223.5t-51 290.5q0 211 87.5 372t244.5 248t360 87q311 0 503.5 -194 t192.5 -513t-192.5 -512.5t-503.5 -193.5zM764 121q263 0 403 143.5t140 421.5t-140 421.5t-403 143.5q-261 0 -400 -143.5t-139 -421.5t139 -421.5t400 -143.5z" glyph-name="Obreve" horiz-adv-x="1531" unicode="Ŏ"/><glyph d="M618 1126q-119 0 -192.5 62t-73.5 166v47h111v-47q0 -66 36 -97.5t119 -31.5q85 0 120.5 31t35.5 98v47h111v-47q0 -104 -73.5 -166t-193.5 -62zM618 -20q-246 0 -397 147t-151 379t151 379t397 147q247 0 399 -147t152 -379t-152 -379t-399 -147zM618 111 q205 0 306.5 103t101.5 292q0 188 -102 291.5t-306 103.5t-304.5 -103.5t-100.5 -291.5q0 -189 100.5 -292t304.5 -103z" glyph-name="obreve" horiz-adv-x="1239" unicode="ŏ"/><glyph d="M975 1495h-141l206 254h181zM637 1495h-139l204 254h183zM764 -20q-152 0 -280 50.5t-219 141.5t-142 223.5t-51 290.5q0 211 87.5 372t244.5 248t360 87q311 0 503.5 -194t192.5 -513t-192.5 -512.5t-503.5 -193.5zM764 121q263 0 403 143.5t140 421.5t-140 421.5 t-403 143.5q-261 0 -400 -143.5t-139 -421.5t139 -421.5t400 -143.5z" glyph-name="Ohungarumlaut" horiz-adv-x="1531" unicode="Ő"/><glyph d="M850 1147h-139l204 266h183zM514 1147h-141l205 266h182zM618 -20q-246 0 -397 147t-151 379t151 379t397 147q247 0 399 -147t152 -379t-152 -379t-399 -147zM618 111q205 0 306.5 103t101.5 292q0 188 -102 291.5t-306 103.5t-304.5 -103.5t-100.5 -291.5 q0 -189 100.5 -292t304.5 -103z" glyph-name="ohungarumlaut" horiz-adv-x="1239" unicode="ő"/><glyph d="M2126 0h-1356q-329 0 -513.5 184t-184.5 502t184.5 502t513.5 184h1356v-133h-897v-483h866v-131h-866v-492h897v-133zM770 133h313v1106h-313q-280 0 -412.5 -136t-132.5 -417t132.5 -417t412.5 -136z" glyph-name="OE" horiz-adv-x="2205" unicode="Œ"/><glyph d="M618 -20q-246 0 -397 147t-151 379t151 379t397 147q162 0 288 -66.5t194 -183.5q64 117 184 183.5t279 66.5q228 0 368 -126t140 -347q0 -45 -11 -94h-891q13 -365 394 -365q175 0 261.5 61.5t86.5 174.5v14h145v-14q0 -157 -138.5 -256.5t-352.5 -99.5 q-162 0 -283 64.5t-184 182.5q-68 -117 -193 -182t-287 -65zM1561 911q-191 0 -287.5 -92.5t-104.5 -263.5h764v31q0 159 -96 242t-276 83zM618 111q205 0 306.5 103t101.5 292q0 188 -102 291.5t-306 103.5t-304.5 -103.5t-100.5 -291.5q0 -189 100.5 -292t304.5 -103z" glyph-name="oe" horiz-adv-x="2140" unicode="œ"/><glyph d="M778 1495h-153l256 254h200zM268 0h-145v1372h672q219 0 350 -105.5t131 -291.5q0 -172 -116 -274t-308 -107v-10q63 -18 106 -58t82 -106l258 -420h-168l-243 397q-55 90 -123.5 127t-200.5 37h-295v-561zM268 1239v-561h525q165 0 248 68t83 212t-83 212.5t-248 68.5 h-525z" glyph-name="Racute" horiz-adv-x="1343" unicode="Ŕ"/><glyph d="M612 1147h-149l256 266h199zM268 0h-145v1012h131v-277h10q25 131 116 214t241 83q84 0 150 -29.5t105.5 -80.5t59.5 -114.5t20 -135.5v-101h-145v78q0 131 -59 193.5t-189 62.5q-295 0 -295 -356v-549z" glyph-name="racute" horiz-adv-x="1001" unicode="ŕ"/><glyph d="M268 0h-145v1372h672q219 0 350 -105.5t131 -291.5q0 -172 -116 -274t-308 -107v-10q63 -18 106 -58t82 -106l258 -420h-168l-243 397q-55 90 -123.5 127t-200.5 37h-295v-561zM268 1239v-561h525q165 0 248 68t83 212t-83 212.5t-248 68.5h-525zM578 -410h-152l182 267 h191z" glyph-name="Rcommaaccent" horiz-adv-x="1343" unicode="Ŗ"/><glyph d="M268 0h-145v1012h131v-277h10q25 131 116 214t241 83q84 0 150 -29.5t105.5 -80.5t59.5 -114.5t20 -135.5v-101h-145v78q0 131 -59 193.5t-189 62.5q-295 0 -295 -356v-549zM68 -410h-136l172 267h177z" glyph-name="rcommaaccent" horiz-adv-x="1001" unicode="ŗ"/><glyph d="M891 1761h156l-267 -266h-159l-269 266h158l184 -184h13zM268 0h-145v1372h672q219 0 350 -105.5t131 -291.5q0 -172 -116 -274t-308 -107v-10q63 -18 106 -58t82 -106l258 -420h-168l-243 397q-55 90 -123.5 127t-200.5 37h-295v-561zM268 1239v-561h525q165 0 248 68 t83 212t-83 212.5t-248 68.5h-525z" glyph-name="Rcaron" horiz-adv-x="1343" unicode="Ř"/><glyph d="M618 1147h-159l-266 266h159l180 -184h13l180 184h160zM268 0h-145v1012h131v-277h10q25 131 116 214t241 83q84 0 150 -29.5t105.5 -80.5t59.5 -114.5t20 -135.5v-101h-145v78q0 131 -59 193.5t-189 62.5q-295 0 -295 -356v-549z" glyph-name="rcaron" horiz-adv-x="1001" unicode="ř"/><glyph d="M705 1495h-152l254 254h201zM655 -20q-291 0 -441.5 124.5t-150.5 329.5v12h148v-26q0 -152 104.5 -227.5t339.5 -75.5q205 0 302.5 57t97.5 174q0 111 -67.5 164.5t-225.5 85.5l-291 55q-89 17 -157.5 44t-125.5 69t-87.5 106t-30.5 146q0 72 32 137.5t96 119.5 t173.5 86t251.5 32q141 0 250 -35.5t175.5 -98.5t100 -144t33.5 -177v-12h-148v24q0 153 -101 229t-321 76q-202 0 -298.5 -56.5t-96.5 -170.5q0 -112 65.5 -162t227.5 -84l289 -57q195 -37 299 -124.5t104 -240.5q0 -76 -32.5 -143t-97 -120.5t-172 -85t-245.5 -31.5z" glyph-name="Sacute" horiz-adv-x="1267" unicode="Ś"/><glyph d="M606 1147h-149l256 266h198zM567 -20q-235 0 -363 92t-128 266v4h145v-12q0 -126 80 -178t268 -52q167 0 236 40t69 130q0 77 -50.5 112t-180.5 56l-270 39q-147 20 -224 82t-77 182q0 134 120 212.5t328 78.5q223 0 351 -92.5t128 -267.5v-4h-145v10q0 119 -75.5 176 t-262.5 57q-160 0 -230.5 -40.5t-70.5 -131.5q0 -77 47 -112t174 -54l248 -34q169 -24 251.5 -87t82.5 -182q0 -139 -124 -214.5t-327 -75.5z" glyph-name="sacute" horiz-adv-x="1085" unicode="ś"/><glyph d="M434 1495h-155l266 266h162l266 -266h-156l-184 184h-12zM655 -20q-291 0 -441.5 124.5t-150.5 329.5v12h148v-26q0 -152 104.5 -227.5t339.5 -75.5q205 0 302.5 57t97.5 174q0 111 -67.5 164.5t-225.5 85.5l-291 55q-89 17 -157.5 44t-125.5 69t-87.5 106t-30.5 146 q0 72 32 137.5t96 119.5t173.5 86t251.5 32q141 0 250 -35.5t175.5 -98.5t100 -144t33.5 -177v-12h-148v24q0 153 -101 229t-321 76q-202 0 -298.5 -56.5t-96.5 -170.5q0 -112 65.5 -162t227.5 -84l289 -57q195 -37 299 -124.5t104 -240.5q0 -76 -32.5 -143t-97 -120.5 t-172 -85t-245.5 -31.5z" glyph-name="Scircumflex" horiz-adv-x="1267" unicode="Ŝ"/><glyph d="M342 1147h-156l267 266h159l267 -266h-156l-184 184h-13zM567 -20q-235 0 -363 92t-128 266v4h145v-12q0 -126 80 -178t268 -52q167 0 236 40t69 130q0 77 -50.5 112t-180.5 56l-270 39q-147 20 -224 82t-77 182q0 134 120 212.5t328 78.5q223 0 351 -92.5t128 -267.5v-4 h-145v10q0 119 -75.5 176t-262.5 57q-160 0 -230.5 -40.5t-70.5 -131.5q0 -77 47 -112t174 -54l248 -34q169 -24 251.5 -87t82.5 -182q0 -139 -124 -214.5t-327 -75.5z" glyph-name="scircumflex" horiz-adv-x="1085" unicode="ŝ"/><glyph d="M655 -20h-2v-97h52q81 0 126.5 -40.5t45.5 -108.5q0 -71 -45.5 -111.5t-126.5 -40.5h-164v92h164q71 0 71 58q0 35 -18.5 47t-52.5 12h-144v193q-246 21 -372 141.5t-126 308.5v12h148v-26q0 -152 104.5 -227.5t339.5 -75.5q205 0 302.5 57t97.5 174q0 111 -67.5 164.5 t-225.5 85.5l-291 55q-89 17 -157.5 44t-125.5 69t-87.5 106t-30.5 146q0 72 32 137.5t96 119.5t173.5 86t251.5 32q141 0 250 -35.5t175.5 -98.5t100 -144t33.5 -177v-12h-148v24q0 153 -101 229t-321 76q-202 0 -298.5 -56.5t-96.5 -170.5q0 -112 65.5 -162t227.5 -84 l289 -57q195 -37 299 -124.5t104 -240.5q0 -76 -32.5 -143t-97 -120.5t-172 -85t-245.5 -31.5z" glyph-name="Scedilla" horiz-adv-x="1267" unicode="Ş"/><glyph d="M657 -418h-163v92h163q72 0 72 58q0 35 -19 47t-53 12h-143v191q-210 9 -324 101t-114 255v4h145v-12q0 -126 80 -178t268 -52q167 0 236 40t69 130q0 77 -50.5 112t-180.5 56l-270 39q-147 20 -224 82t-77 182q0 134 120 212.5t328 78.5q223 0 351 -92.5t128 -267.5v-4 h-145v10q0 119 -75.5 176t-262.5 57q-160 0 -230.5 -40.5t-70.5 -131.5q0 -77 47 -112t174 -54l248 -34q169 -24 251.5 -87t82.5 -182q0 -133 -112.5 -207.5t-301.5 -82.5v-97h53q81 0 126.5 -40.5t45.5 -108.5q0 -71 -45.5 -111.5t-126.5 -40.5z" glyph-name="scedilla" horiz-adv-x="1085" unicode="ş"/><glyph d="M817 1761h156l-266 -266h-160l-268 266h157l185 -184h12zM655 -20q-291 0 -441.5 124.5t-150.5 329.5v12h148v-26q0 -152 104.5 -227.5t339.5 -75.5q205 0 302.5 57t97.5 174q0 111 -67.5 164.5t-225.5 85.5l-291 55q-89 17 -157.5 44t-125.5 69t-87.5 106t-30.5 146 q0 72 32 137.5t96 119.5t173.5 86t251.5 32q141 0 250 -35.5t175.5 -98.5t100 -144t33.5 -177v-12h-148v24q0 153 -101 229t-321 76q-202 0 -298.5 -56.5t-96.5 -170.5q0 -112 65.5 -162t227.5 -84l289 -57q195 -37 299 -124.5t104 -240.5q0 -76 -32.5 -143t-97 -120.5 t-172 -85t-245.5 -31.5z" glyph-name="Scaron" horiz-adv-x="1267" unicode="Š"/><glyph d="M612 1147h-159l-267 266h160l180 -184h13l180 184h160zM567 -20q-235 0 -363 92t-128 266v4h145v-12q0 -126 80 -178t268 -52q167 0 236 40t69 130q0 77 -50.5 112t-180.5 56l-270 39q-147 20 -224 82t-77 182q0 134 120 212.5t328 78.5q223 0 351 -92.5t128 -267.5v-4 h-145v10q0 119 -75.5 176t-262.5 57q-160 0 -230.5 -40.5t-70.5 -131.5q0 -77 47 -112t174 -54l248 -34q169 -24 251.5 -87t82.5 -182q0 -139 -124 -214.5t-327 -75.5z" glyph-name="scaron" horiz-adv-x="1085" unicode="š"/><glyph d="M733 0h-90v-117h51q81 0 126.5 -40.5t45.5 -108.5q0 -71 -45.5 -111.5t-126.5 -40.5h-164v92h164q72 0 72 58q0 35 -19 47t-53 12h-143v215h37v1233h-565v133h1273v-133h-563v-1239z" glyph-name="Tcedilla" horiz-adv-x="1318" unicode="Ţ"/><glyph d="M743 0h-149v-117h51q81 0 126.5 -40.5t45.5 -108.5q0 -71 -45.5 -111.5t-126.5 -40.5h-162v92h162q72 0 72 58q0 35 -19 47t-53 12h-143v209q-148 5 -227.5 81t-79.5 241v565h-181v125h181v241h147v-241h401v-125h-401v-574q0 -102 51 -141t166 -39h184v-133z" glyph-name="tcedilla" horiz-adv-x="780" unicode="ţ"/><glyph d="M852 1761h156l-267 -266h-161l-267 266h156l184 -184h13zM733 0h-145v1239h-565v133h1273v-133h-563v-1239z" glyph-name="Tcaron" horiz-adv-x="1318" unicode="Ť"/><glyph d="M494 1124h-33v76h33q20 0 28 7.5t8 31.5v45h-65v250h145v-293q0 -117 -116 -117zM743 0h-219q-159 0 -244 75.5t-85 246.5v565h-181v125h181v241h147v-241h401v-125h-401v-574q0 -102 51 -141t166 -39h184v-133z" glyph-name="tcaron" horiz-adv-x="749" unicode="ť"/><glyph d="M733 0h-145v682h-344v133h344v424h-565v133h1273v-133h-563v-424h344v-133h-344v-682z" glyph-name="Tbar" horiz-adv-x="1318" unicode="Ŧ"/><glyph d="M743 0h-219q-159 0 -244 75.5t-85 246.5v219h-181v112h181v244h-181v115h181v241h147v-241h401v-115h-401v-244h401v-112h-401v-228q0 -102 51 -141t166 -39h184v-133z" glyph-name="tbar" horiz-adv-x="780" unicode="ŧ"/><glyph d="M537 1532h-103v72q0 161 144 161q63 0 147 -59l43 -31q57 -43 98 -43q62 0 62 78v51h100v-71q0 -74 -34.5 -119t-100.5 -45q-73 0 -152 61l-51 31q-50 43 -94 43q-59 0 -59 -74v-55zM731 -20q-289 0 -453.5 153.5t-164.5 433.5v805h145v-799q0 -233 116 -341.5 t357 -108.5t357 108.5t116 341.5v799h146v-805q0 -280 -165 -433.5t-454 -153.5z" glyph-name="Utilde" horiz-adv-x="1462" unicode="Ũ"/><glyph d="M422 1184h-100v73q0 72 34 116t109 44q65 0 145 -59l45 -31q53 -43 97 -43q61 0 61 78v51h102v-72q0 -75 -35 -119t-102 -44q-68 0 -151 61l-49 31q-20 15 -31.5 23t-28.5 14t-35 6q-61 0 -61 -72v-57zM547 -20q-207 0 -318.5 125t-111.5 315v592h145v-570 q0 -331 336 -331q184 0 280.5 106t96.5 303v492h145v-1012h-131v315h-10q-29 -140 -141.5 -237.5t-290.5 -97.5z" glyph-name="utilde" horiz-adv-x="1241" unicode="ũ"/><glyph d="M1008 1577h-553v106h553v-106zM731 -20q-289 0 -453.5 153.5t-164.5 433.5v805h145v-799q0 -233 116 -341.5t357 -108.5t357 108.5t116 341.5v799h146v-805q0 -280 -165 -433.5t-454 -153.5z" glyph-name="Umacron" horiz-adv-x="1462" unicode="Ū"/><glyph d="M895 1227h-553v106h553v-106zM547 -20q-207 0 -318.5 125t-111.5 315v592h145v-570q0 -331 336 -331q184 0 280.5 106t96.5 303v492h145v-1012h-131v315h-10q-29 -140 -141.5 -237.5t-290.5 -97.5z" glyph-name="umacron" horiz-adv-x="1241" unicode="ū"/><glyph d="M731 1475q-121 0 -193.5 61.5t-72.5 165.5v20h110v-20q0 -65 36.5 -97t119.5 -32q85 0 120.5 31.5t35.5 97.5v20h110v-20q0 -104 -72.5 -165.5t-193.5 -61.5zM731 -20q-289 0 -453.5 153.5t-164.5 433.5v805h145v-799q0 -233 116 -341.5t357 -108.5t357 108.5t116 341.5 v799h146v-805q0 -280 -165 -433.5t-454 -153.5z" glyph-name="Ubreve" horiz-adv-x="1462" unicode="Ŭ"/><glyph d="M618 1126q-120 0 -193 62t-73 166v47h111v-47q0 -66 36 -97.5t119 -31.5q85 0 120.5 31t35.5 98v47h111v-47q0 -104 -73.5 -166t-193.5 -62zM547 -20q-207 0 -318.5 125t-111.5 315v592h145v-570q0 -331 336 -331q184 0 280.5 106t96.5 303v492h145v-1012h-131v315h-10 q-29 -140 -141.5 -237.5t-290.5 -97.5z" glyph-name="ubreve" horiz-adv-x="1241" unicode="ŭ"/><glyph d="M731 1442q-97 0 -156 52t-59 138t59 138.5t156 52.5t156 -52.5t59 -138.5t-59 -138t-156 -52zM731 1522q127 0 127 110q0 111 -127 111t-127 -111q0 -110 127 -110zM731 -20q-289 0 -453.5 153.5t-164.5 433.5v805h145v-799q0 -233 116 -341.5t357 -108.5t357 108.5 t116 341.5v799h146v-805q0 -280 -165 -433.5t-454 -153.5z" glyph-name="Uring" horiz-adv-x="1462" unicode="Ů"/><glyph d="M618 1114q-91 0 -146.5 49t-55.5 131t55.5 131.5t146.5 49.5t147 -49.5t56 -131.5q0 -81 -56 -130.5t-147 -49.5zM618 1186q125 0 125 108q0 109 -125 109q-124 0 -124 -109q0 -108 124 -108zM547 -20q-207 0 -318.5 125t-111.5 315v592h145v-570q0 -331 336 -331 q184 0 280.5 106t96.5 303v492h145v-1012h-131v315h-10q-29 -140 -141.5 -237.5t-290.5 -97.5z" glyph-name="uring" horiz-adv-x="1241" unicode="ů"/><glyph d="M940 1495h-139l205 254h182zM602 1495h-139l205 254h182zM731 -20q-289 0 -453.5 153.5t-164.5 433.5v805h145v-799q0 -233 116 -341.5t357 -108.5t357 108.5t116 341.5v799h146v-805q0 -280 -165 -433.5t-454 -153.5z" glyph-name="Uhungarumlaut" horiz-adv-x="1462" unicode="Ű"/><glyph d="M850 1147h-141l206 266h183zM512 1147h-139l205 266h182zM547 -20q-207 0 -318.5 125t-111.5 315v592h145v-570q0 -331 336 -331q184 0 280.5 106t96.5 303v492h145v-1012h-131v315h-10q-29 -140 -141.5 -237.5t-290.5 -97.5z" glyph-name="uhungarumlaut" horiz-adv-x="1241" unicode="ű"/><glyph d="M731 -20q-289 0 -453.5 153.5t-164.5 433.5v805h145v-799q0 -233 116 -341.5t357 -108.5t357 108.5t116 341.5v799h146v-805q0 -246 -129 -395.5t-359 -183.5l-78 -99q-51 -63 -51 -102q0 -70 92 -70h125v-100h-147q-92 0 -140.5 36.5t-48.5 102.5q0 26 6.5 49t23.5 47 t26.5 35.5t34.5 38.5l47 54h-21z" glyph-name="Uogonek" horiz-adv-x="1462" unicode="Ų"/><glyph d="M547 -20q-207 0 -318.5 125t-111.5 315v592h145v-570q0 -331 336 -331q184 0 280.5 106t96.5 303v492h145v-1012l-86 -111q-51 -63 -51 -102q0 -70 92 -70h125v-100h-145q-93 0 -142 36t-49 103q0 26 6.5 49t22.5 46.5t26.5 36t34.5 38.5l66 74h-31v315h-10 q-29 -140 -141.5 -237.5t-290.5 -97.5z" glyph-name="uogonek" horiz-adv-x="1241" unicode="ų"/><glyph d="M864 1495h-155l266 266h160l268 -266h-158l-184 184h-12zM647 0h-217l-397 1372h162l272 -946l72 -281h12l82 281l319 946h205l352 -946l93 -281h10l63 281l240 946h160l-355 -1372h-217l-334 893l-108 319h-14l-97 -319z" glyph-name="Wcircumflex" horiz-adv-x="2109" unicode="Ŵ"/><glyph d="M684 1147h-156l267 266h161l267 -266h-156l-184 184h-13zM524 0h-180l-324 1012h150l215 -670l51 -215h13l69 227l266 658h187l264 -658l70 -225h12l49 213l217 670h150l-328 -1012h-182l-262 662l-80 225h-11l-79 -225z" glyph-name="wcircumflex" horiz-adv-x="1751" unicode="ŵ"/><glyph d="M471 1495h-154l267 266h159l267 -266h-156l-184 184h-13zM735 0h-147v487l-596 885h178l377 -559l112 -168h13l110 168l375 559h178l-600 -885v-487z" glyph-name="Ycircumflex" horiz-adv-x="1327" unicode="Ŷ"/><glyph d="M383 1147h-156l267 266h159l269 -266h-158l-184 184h-13zM256 -348h-127v133h154q75 0 112.5 25t67.5 90l49 102l-502 1010h160l297 -602l113 -248h12l108 250l281 600h160l-549 -1153q-55 -115 -131.5 -161t-204.5 -46z" glyph-name="ycircumflex" horiz-adv-x="1157" unicode="ŷ"/><glyph d="M903 1495h-141v242h141v-242zM565 1495h-141v242h141v-242zM735 0h-147v487l-596 885h178l377 -559l112 -168h13l110 168l375 559h178l-600 -885v-487z" glyph-name="Ydieresis" horiz-adv-x="1327" unicode="Ÿ"/><glyph d="M758 1495h-154l256 254h201zM1280 0h-1206v133l968 1096v10h-936v133h1149v-133l-979 -1096v-10h1004v-133z" glyph-name="Zacute" horiz-adv-x="1353" unicode="Ź"/><glyph d="M641 1147h-149l256 266h196zM1079 0h-1026v127l586 559l213 188v11l-213 -4h-555v131h965v-129l-625 -590l-182 -158v-10l182 4h655v-129z" glyph-name="zacute" horiz-adv-x="1132" unicode="ź"/><glyph d="M752 1495h-146v242h146v-242zM1280 0h-1206v133l968 1096v10h-936v133h1149v-133l-979 -1096v-10h1004v-133z" glyph-name="Zdotaccent" horiz-adv-x="1353" unicode="Ż"/><glyph d="M639 1147h-145v242h145v-242zM1079 0h-1026v127l586 559l213 188v11l-213 -4h-555v131h965v-129l-625 -590l-182 -158v-10l182 4h655v-129z" glyph-name="zdotaccent" horiz-adv-x="1132" unicode="ż"/><glyph d="M870 1761h156l-266 -266h-162l-266 266h155l185 -184h12zM1280 0h-1206v133l968 1096v10h-936v133h1149v-133l-979 -1096v-10h1004v-133z" glyph-name="Zcaron" horiz-adv-x="1353" unicode="Ž"/><glyph d="M645 1147h-160l-266 266h160l180 -184h12l183 184h159zM1079 0h-1026v127l586 559l213 188v11l-213 -4h-555v131h965v-129l-625 -590l-182 -158v-10l182 4h655v-129z" glyph-name="zcaron" horiz-adv-x="1132" unicode="ž"/><glyph d="M82 -348h-102l22 133h90q114 0 168.5 44t73.5 148l112 644h-223l23 131h225l49 284q29 170 131 253t285 83h88l-25 -133h-92q-114 0 -167 -44t-72 -148l-52 -295h299l-24 -131h-297l-111 -633q-31 -174 -128 -255t-273 -81z" glyph-name="florin" horiz-adv-x="1003" unicode="ƒ"/><glyph d="M1720 1495h-153l256 254h200zM174 0h-178l1059 1372h1108v-133h-897v-483h866v-131h-866v-492h897v-133h-1043v403h-633zM1110 1208l-522 -673h532v673h-10z" glyph-name="AEacute" horiz-adv-x="2242" unicode="Ǽ"/><glyph d="M1069 1147h-149l256 266h198zM414 -20q-159 0 -256 69.5t-97 190.5q0 117 88 179.5t238 78.5l504 53v76q0 148 -73.5 211t-246.5 63q-170 0 -256 -62.5t-86 -193.5v-12h-145v12q0 166 131 276.5t360 110.5q157 0 259.5 -55t150.5 -152q69 99 181 153t257 54 q226 0 366 -126t140 -347q0 -49 -10 -94h-891q13 -365 393 -365q176 0 263.5 61.5t87.5 174.5v14h145v-14q0 -157 -139.5 -256.5t-352.5 -99.5q-186 0 -316.5 83.5t-184.5 235.5h-6q-49 -156 -187 -237.5t-317 -81.5zM1421 911q-193 0 -289 -92.5t-104 -263.5h764v31 q0 159 -96 242t-275 83zM207 250q0 -79 57 -118.5t180 -39.5q93 0 170.5 20t138.5 61t97.5 109.5t42.5 159.5v13l-461 -52q-115 -11 -170 -45t-55 -108z" glyph-name="aeacute" horiz-adv-x="1978" unicode="ǽ"/><glyph d="M844 1495h-152l254 254h201zM764 -20q-266 0 -449 147l-155 -166l-80 78l156 166q-164 191 -164 481q0 211 87.5 372t244.5 248t360 87q259 0 444 -142l148 158l80 -78l-146 -155q170 -192 170 -490q0 -319 -192.5 -512.5t-503.5 -193.5zM225 686q0 -241 105 -379 l786 844q-129 100 -352 100q-261 0 -400 -143.5t-139 -421.5zM764 121q263 0 403 143.5t140 421.5q0 245 -111 387l-790 -848q134 -104 358 -104z" glyph-name="Oslashacute" horiz-adv-x="1531" unicode="Ǿ"/><glyph d="M692 1147h-149l258 266h196zM618 -20q-210 0 -352 108l-121 -123l-63 68l115 119q-127 142 -127 354q0 232 151 379t397 147q200 0 340 -98l105 108l65 -65l-100 -103q141 -144 141 -368q0 -232 -152 -379t-399 -147zM213 506q0 -162 74 -262l581 598q-95 59 -250 59 q-204 0 -304.5 -103.5t-100.5 -291.5zM618 111q205 0 306.5 103t101.5 292q0 175 -88 276l-584 -602q97 -69 264 -69z" glyph-name="oslashacute" horiz-adv-x="1239" unicode="ǿ"/><glyph d="M655 -20q-291 0 -441.5 124.5t-150.5 329.5v12h148v-26q0 -152 104.5 -227.5t339.5 -75.5q205 0 302.5 57t97.5 174q0 111 -67.5 164.5t-225.5 85.5l-291 55q-89 17 -157.5 44t-125.5 69t-87.5 106t-30.5 146q0 72 32 137.5t96 119.5t173.5 86t251.5 32q141 0 250 -35.5 t175.5 -98.5t100 -144t33.5 -177v-12h-148v24q0 153 -101 229t-321 76q-202 0 -298.5 -56.5t-96.5 -170.5q0 -112 65.5 -162t227.5 -84l289 -57q195 -37 299 -124.5t104 -240.5q0 -76 -32.5 -143t-97 -120.5t-172 -85t-245.5 -31.5zM569 -410h-149l180 267h191z" glyph-name="Scommaaccent" horiz-adv-x="1267" unicode="Ș"/><glyph d="M567 -20q-235 0 -363 92t-128 266v4h145v-12q0 -126 80 -178t268 -52q167 0 236 40t69 130q0 77 -50.5 112t-180.5 56l-270 39q-147 20 -224 82t-77 182q0 134 120 212.5t328 78.5q223 0 351 -92.5t128 -267.5v-4h-145v10q0 119 -75.5 176t-262.5 57q-160 0 -230.5 -40.5 t-70.5 -131.5q0 -77 47 -112t174 -54l248 -34q169 -24 251.5 -87t82.5 -182q0 -139 -124 -214.5t-327 -75.5zM432 -410h-135l172 267h176z" glyph-name="scommaaccent" horiz-adv-x="1085" unicode="ș"/><glyph d="M733 0h-145v1239h-565v133h1273v-133h-563v-1239zM559 -410h-149l180 267h190z" glyph-name="Tcommaaccent" horiz-adv-x="1318" unicode="Ț"/><glyph d="M743 0h-219q-159 0 -244 75.5t-85 246.5v565h-181v125h181v241h147v-241h401v-125h-401v-574q0 -102 51 -141t166 -39h184v-133zM422 -410h-135l170 267h176z" glyph-name="tcommaaccent" horiz-adv-x="780" unicode="ț"/><glyph d="M-43 -348h-78v119h86q80 0 120 35t40 116v1090h145v-1059q0 -157 -84.5 -229t-228.5 -72z" glyph-name="dotlessj" horiz-adv-x="393" unicode="ȷ"/><glyph d="M422 1147h-150l-305 266h199z" glyph-name="gravecomb" horiz-adv-x="655" unicode="̀"/><glyph d="M391 1147h-149l256 266h196z" glyph-name="acutecomb" horiz-adv-x="655" unicode="́"/><glyph d="M303 1147h-153l266 266h159l267 -266h-156l-184 184h-13z" glyph-name="circumflexcomb" horiz-adv-x="980" unicode="̂"/><glyph d="M188 1184h-100v73q0 72 34 116t109 44q64 0 148 -59l43 -31q53 -43 96 -43q64 0 64 78v51h100v-72q0 -75 -35 -119t-102 -44q-69 0 -152 61l-49 31q-21 16 -32 23t-27.5 13.5t-34.5 6.5q-62 0 -62 -72v-57z" glyph-name="tildecomb" horiz-adv-x="763" unicode="̃"/><glyph d="M645 1227h-553v106h553v-106z" glyph-name="macroncomb" horiz-adv-x="737" unicode="̄"/><glyph d="M344 1126q-120 0 -193 62t-73 166v47h110v-47q0 -66 36.5 -97.5t119.5 -31.5q85 0 120.5 31t35.5 98v47h110v-47q0 -104 -73.5 -166t-192.5 -62z" glyph-name="brevecomb" horiz-adv-x="688" unicode="̆"/><glyph d="M236 1147h-146v242h146v-242z" glyph-name="dotaccentcomb" horiz-adv-x="325" unicode="̇"/><glyph d="M594 1147h-141v242h141v-242zM256 1147h-141v242h141v-242z" glyph-name="dieresiscomb" horiz-adv-x="708" unicode="̈"/><glyph d="M279 1114q-91 0 -147 49.5t-56 130.5q0 82 56 131.5t147 49.5q92 0 148 -49.5t56 -131.5t-56 -131t-148 -49zM279 1186q124 0 124 108q0 109 -124 109q-125 0 -125 -109q0 -108 125 -108z" glyph-name="ringcomb" horiz-adv-x="557" unicode="̊"/><glyph d="M709 1147h-142l207 266h180zM371 1147h-142l207 266h180z" glyph-name="hungarumlautcomb" horiz-adv-x="913" unicode="̋"/><glyph d="M575 1147h-159l-266 266h159l180 -184h13l180 184h160z" glyph-name="caroncomb" horiz-adv-x="980" unicode="̌"/><glyph d="M758 1413h135l-172 -266h-176z" glyph-name="commaturnedabovecomb" horiz-adv-x="1259" unicode="̒"/><glyph d="M162 -410h-135l170 267h176z" glyph-name="commaaccentcomb" horiz-adv-x="524" unicode="̦"/><glyph d="M379 -418h-162v92h162q74 0 74 58q0 35 -19 47t-55 12h-141v215h90v-123h51q81 0 127.5 -40.5t46.5 -108.5q0 -71 -46.5 -111.5t-127.5 -40.5z" glyph-name="cedillacomb" horiz-adv-x="514" unicode="̧"/><glyph d="M432 -383h-147q-92 0 -141.5 36.5t-49.5 102.5q0 12 1 23t5.5 23t7 19.5t10.5 20t10.5 17t13.5 18.5t12.5 16t15.5 17l14 16l66 74h102l-86 -111q-53 -62 -53 -102q0 -70 92 -70h127v-100z" glyph-name="ogonekcomb" horiz-adv-x="503" unicode="̨"/><glyph d="M1053 1096h-799v118h799v-118z" glyph-name="strokeshortcomb" horiz-adv-x="1308" unicode="̵"/><glyph d="M631 950l-580 -327l-51 94l580 330z" glyph-name="slashshortcomb" horiz-adv-x="630" unicode="̷"/><glyph d="M1126 979l-983 -1012l-65 66l983 1011z" glyph-name="slashlongcomb" horiz-adv-x="1204" unicode="̸"/><glyph d="M1130 1495h-153l-303 254h200zM647 0h-217l-397 1372h162l272 -946l72 -281h12l82 281l319 946h205l352 -946l93 -281h10l63 281l240 946h160l-355 -1372h-217l-334 893l-108 319h-14l-97 -319z" glyph-name="Wgrave" horiz-adv-x="2109" unicode="Ẁ"/><glyph d="M956 1147h-149l-305 266h198zM524 0h-180l-324 1012h150l215 -670l51 -215h13l69 227l266 658h187l264 -658l70 -225h12l49 213l217 670h150l-328 -1012h-182l-262 662l-80 225h-11l-79 -225z" glyph-name="wgrave" horiz-adv-x="1751" unicode="ẁ"/><glyph d="M1135 1495h-154l256 254h201zM647 0h-217l-397 1372h162l272 -946l72 -281h12l82 281l319 946h205l352 -946l93 -281h10l63 281l240 946h160l-355 -1372h-217l-334 893l-108 319h-14l-97 -319z" glyph-name="Wacute" horiz-adv-x="2109" unicode="Ẃ"/><glyph d="M950 1147h-149l256 266h196zM524 0h-180l-324 1012h150l215 -670l51 -215h13l69 227l266 658h187l264 -658l70 -225h12l49 213l217 670h150l-328 -1012h-182l-262 662l-80 225h-11l-79 -225z" glyph-name="wacute" horiz-adv-x="1751" unicode="ẃ"/><glyph d="M1294 1495h-139v242h139v-242zM956 1495h-139v242h139v-242zM647 0h-217l-397 1372h162l272 -946l72 -281h12l82 281l319 946h205l352 -946l93 -281h10l63 281l240 946h160l-355 -1372h-217l-334 893l-108 319h-14l-97 -319z" glyph-name="Wdieresis" horiz-adv-x="2109" unicode="Ẅ"/><glyph d="M1114 1147h-139v242h139v-242zM776 1147h-139v242h139v-242zM524 0h-180l-324 1012h150l215 -670l51 -215h13l69 227l266 658h187l264 -658l70 -225h12l49 213l217 670h150l-328 -1012h-182l-262 662l-80 225h-11l-79 -225z" glyph-name="wdieresis" horiz-adv-x="1751" unicode="ẅ"/><glyph d="M449 1532h-103v72q0 161 141 161q66 0 150 -59l43 -31q30 -22 50.5 -32.5t47.5 -10.5q62 0 62 78v51h100v-71q0 -74 -34.5 -119t-100.5 -45q-73 0 -152 61l-51 31q-53 43 -96 43q-57 0 -57 -74v-55zM1165 0h-1042v1372h1042v-133h-897v-483h867v-131h-867v-492h897v-133z" glyph-name="Etilde" horiz-adv-x="1245" unicode="Ẽ"/><glyph d="M393 1184h-100v73q0 72 34 116t109 44q64 0 148 -59l43 -31q57 -43 96 -43q63 0 63 78v51h101v-72q0 -75 -35 -119t-102 -44q-69 0 -152 61l-49 31q-21 16 -32 23t-27.5 13.5t-34.5 6.5q-62 0 -62 -72v-57zM604 -20q-244 0 -388 142t-144 384q0 233 144 379.5t386 146.5 q228 0 368 -126t140 -347q0 -49 -10 -94h-891q13 -365 393 -365q175 0 261.5 61.5t86.5 174.5v14h146v-14q0 -157 -139 -256.5t-353 -99.5zM600 911q-191 0 -287 -92.5t-104 -263.5h764v31q0 159 -96.5 242t-276.5 83z" glyph-name="etilde" unicode="ẽ"/><glyph d="M737 1495h-153l-303 254h200zM735 0h-147v487l-596 885h178l377 -559l112 -168h13l110 168l375 559h178l-600 -885v-487z" glyph-name="Ygrave" horiz-adv-x="1327" unicode="Ỳ"/><glyph d="M653 1147h-147l-305 266h198zM256 -348h-127v133h154q75 0 112.5 25t67.5 90l49 102l-502 1010h160l297 -602l113 -248h12l108 250l281 600h160l-549 -1153q-55 -115 -131.5 -161t-204.5 -46z" glyph-name="ygrave" horiz-adv-x="1157" unicode="ỳ"/><glyph d="M469 1532h-102v72q0 161 141 161q65 0 149 -59l43 -31q57 -43 99 -43q61 0 61 78v51h101v-71q0 -74 -35 -119t-101 -45q-72 0 -151 61l-51 31q-53 43 -95 43q-59 0 -59 -74v-55zM735 0h-147v487l-596 885h178l377 -559l112 -168h13l110 168l375 559h178l-600 -885v-487z" glyph-name="Ytilde" horiz-adv-x="1327" unicode="Ỹ"/><glyph d="M379 1184h-103v73q0 72 34.5 116t109.5 44q63 0 147 -59l43 -31q57 -43 99 -43q61 0 61 78v51h100v-72q0 -74 -34.5 -118.5t-100.5 -44.5q-72 0 -151 61l-52 31q-21 16 -32 23t-27.5 13.5t-34.5 6.5q-59 0 -59 -72v-57zM256 -348h-127v133h154q75 0 112.5 25t67.5 90 l49 102l-502 1010h160l297 -602l113 -248h12l108 250l281 600h160l-549 -1153q-55 -115 -131.5 -161t-204.5 -46z" glyph-name="ytilde" horiz-adv-x="1157" unicode="ỹ"/><glyph d="M893 535h-832v129h832v-129z" glyph-name="endash" horiz-adv-x="954" unicode="–"/><glyph d="M1468 535h-1407v129h1407v-129z" glyph-name="emdash" horiz-adv-x="1529" unicode="—"/><glyph d="M201 1434h43v-91h-41q-22 0 -31.5 -8.5t-9.5 -34.5v-49h80v-282h-181v329q0 67 36.5 101.5t103.5 34.5z" glyph-name="quoteleft" horiz-adv-x="303" unicode="‘"/><glyph d="M102 907h-43v88h41q22 0 31.5 9.5t9.5 35.5v47h-80v285h181v-330q0 -67 -37 -101t-103 -34z" glyph-name="quoteright" horiz-adv-x="303" unicode="’"/><glyph d="M102 -180h-43v88h41q22 0 31.5 8.5t9.5 34.5v49h-80v285h181v-332q0 -66 -37 -99.5t-103 -33.5z" glyph-name="quotesinglbase" horiz-adv-x="501" unicode="‚"/><glyph d="M201 1434h43v-91h-41q-22 0 -31.5 -8.5t-9.5 -34.5v-49h80v-282h-181v329q0 67 36.5 101.5t103.5 34.5zM483 1434h43v-91h-41q-23 0 -32 -8.5t-9 -34.5v-49h80v-282h-180v329q0 67 36 101.5t103 34.5z" glyph-name="quotedblleft" horiz-adv-x="585" unicode="“"/><glyph d="M383 907h-41v88h41q22 0 31.5 9.5t9.5 35.5v47h-80v285h180v-330q0 -68 -36.5 -101.5t-104.5 -33.5zM102 907h-43v88h41q22 0 31.5 9.5t9.5 35.5v47h-80v285h181v-330q0 -67 -37 -101t-103 -34z" glyph-name="quotedblright" horiz-adv-x="585" unicode="”"/><glyph d="M102 -180h-43v88h41q22 0 31.5 8.5t9.5 34.5v49h-80v285h181v-332q0 -66 -37 -99.5t-103 -33.5zM383 -180h-41v88h41q22 0 31.5 8.5t9.5 34.5v49h-80v285h180v-332q0 -66 -37 -99.5t-104 -33.5z" glyph-name="quotedblbase" horiz-adv-x="585" unicode="„"/><glyph d="M569 0h-145v909h-383v125h383v338h145v-338h383v-125h-383v-909z" glyph-name="dagger" horiz-adv-x="993" unicode="†"/><glyph d="M569 0h-145v336h-383v125h383v448h-383v125h383v338h145v-338h383v-125h-383v-448h383v-125h-383v-336z" glyph-name="daggerdbl" horiz-adv-x="993" unicode="‡"/><glyph d="M268 473q-90 0 -151.5 58t-61.5 155t61.5 155t151.5 58q91 0 153 -58t62 -155t-62 -155t-153 -58z" glyph-name="bullet" horiz-adv-x="538" unicode="•"/><glyph d="M256 0h-180v285h180v-285zM631 0h-180v285h180v-285zM1006 -2h-181v285h181v-285z" glyph-name="ellipsis" horiz-adv-x="1081" unicode="…"/><glyph d="M393 713q-162 0 -252 99t-90 243q0 142 90 241t252 99q163 0 253.5 -98.5t90.5 -241.5q0 -69 -22 -130t-63.5 -108.5t-108.5 -75.5t-150 -28zM303 0h-145l1165 1372h145zM393 819q120 0 175 60t55 176q0 233 -230 233q-227 0 -227 -233q0 -116 54.5 -176t172.5 -60z M2025 -20q-83 0 -150 27.5t-108.5 74.5t-63.5 107.5t-22 129.5q0 143 90.5 241.5t253.5 98.5q162 0 252 -99t90 -241q0 -143 -89.5 -241t-252.5 -98zM1233 -20q-83 0 -150 27.5t-108.5 74.5t-63.5 107.5t-22 129.5q0 143 90.5 241.5t253.5 98.5q162 0 252 -99t90 -241 q0 -143 -89.5 -241t-252.5 -98zM2025 86q228 0 228 233q0 234 -228 234q-229 0 -229 -234q0 -233 229 -233zM1233 86q227 0 227 233q0 234 -227 234q-229 0 -229 -234q0 -233 229 -233z" glyph-name="perthousand" horiz-adv-x="2418" unicode="‰"/><glyph d="M31 698l409 295v-151l-303 -211v-13l303 -210v-150l-409 293v147z" glyph-name="guilsinglleft" horiz-adv-x="501" unicode="‹"/><glyph d="M471 551l-410 -293v150l304 210v13l-304 211v151l410 -295v-147z" glyph-name="guilsinglright" horiz-adv-x="501" unicode="›"/><glyph d="M-330 0h-145l1165 1372h146z" glyph-name="fraction" horiz-adv-x="360" unicode="⁄"/><glyph d="M406 666q-169 0 -267 101t-98 261t98.5 262.5t266.5 102.5q167 0 264.5 -102.5t97.5 -262.5t-97.5 -261t-264.5 -101zM406 772q245 0 245 256q0 258 -245 258q-246 0 -246 -258q0 -256 246 -256z" glyph-name="zero.superior" horiz-adv-x="808" unicode="⁰"/><glyph d="M600 686h-115v139h-465v86l449 461h131v-442h133v-105h-133v-139zM168 930h317v313h-10l-307 -303v-10z" glyph-name="four.superior" horiz-adv-x="784" unicode="⁴"/><glyph d="M1018 498h-627q76 -365 502 -365h377v-133h-377q-259 0 -431.5 132.5t-223.5 365.5h-218v104h203q-4 54 -4 84t4 84h-203v102h218q51 235 223.5 367.5t431.5 132.5h377v-133h-377q-215 0 -339.5 -91t-164.5 -276h629v-102h-641q-4 -54 -4 -84t4 -84h641v-104z" glyph-name="Euro" horiz-adv-x="1331" unicode="€"/><glyph d="M1112 0h-190l-324 395q-64 79 -137 116.5t-185 37.5h-184v125h428q136 0 205.5 54t75.5 177h-709v117h709v233h-709v117h1079v-117h-225v-233h225v-117h-225q-9 -154 -105.5 -237t-271.5 -80v-13q40 -9 77 -34t59.5 -48t62.5 -69z" glyph-name="indianrupee" horiz-adv-x="1257" unicode="₹"/><glyph d="M633 961h-86v411h115l157 -309h6l156 309h115v-411h-86v202l4 88h-8l-138 -260h-92l-139 260h-6l2 -86v-204zM289 961h-90v327h-189v84h465v-84h-186v-327z" glyph-name="trademark" horiz-adv-x="1136" unicode="™"/><glyph d="M874 625h-798v123h798v-123z" glyph-name="minus" horiz-adv-x="950" unicode="−"/><glyph d="M203 375h-127v147q0 108 67 154v10h-67v158q0 83 42.5 138.5t139.5 55.5q41 0 87 -18t69 -32.5t80 -53.5l86 -49q34 -26 52 -38.5t48.5 -26t56.5 -13.5q80 0 80 94v127h125v-147q0 -108 -65 -156v-8h65v-148q0 -85 -40.5 -142.5t-133.5 -57.5q-15 0 -29 1.5t-28.5 5.5 t-25.5 6.5t-27 10t-23.5 11t-24.5 13t-22.5 12.5t-24 14.5t-22.5 13.5l-101 59q-38 30 -54.5 42t-45.5 25t-55 13q-82 0 -82 -94v-127zM750 492q81 0 81 98v117q-28 -25 -79 -25q-36 0 -72 12t-61.5 27t-62.5 40q-9 6 -13 9l-107 64q-77 55 -107 68q-28 11 -55 11 q-86 0 -86 -98v-115q38 23 91 23q35 0 73 -16.5t59 -30.5t68 -49l94 -52q3 -2 17 -11.5t17.5 -12t17 -11.5t18.5 -11.5t17 -9.5t18.5 -9.5t17 -7t18.5 -6t17.5 -3t18.5 -1.5z" glyph-name="approxequal" horiz-adv-x="1017" unicode="≈"/><glyph d="M874 410h-520l-135 -195l-96 59l94 136h-141v125h227l209 303h-436v125h522l135 194l96 -59l-94 -135h139v-125h-225l-209 -303h434v-125z" glyph-name="notequal" horiz-adv-x="950" unicode="≠"/><glyph d="M860 160h-799v125h670v10l-670 309v164l799 360v-145l-663 -291v-12l663 -291v-229z" glyph-name="lessequal" horiz-adv-x="935" unicode="≤"/><glyph d="M874 160h-798v229l663 291v12l-663 291v145l798 -360v-164l-669 -309v-10h669v-125z" glyph-name="greaterequal" horiz-adv-x="935" unicode="≥"/><glyph d="M743 0h-219q-159 0 -244 75.5t-85 246.5v565h-181v125h181v241h147v-241h549v241h145v-241h402v-125h-402v-574q0 -102 51 -141t166 -39h185v-133h-219q-159 0 -243.5 75.5t-84.5 246.5v565h-549v-574q0 -102 51 -141t166 -39h184v-133z" glyph-name="t_t" horiz-adv-x="1474"/><glyph d="M551 -20q-234 0 -365 133t-131 352q0 217 129.5 351t356.5 134q173 0 289 -83t151 -212h10v717h146v-1372h-133v289h-9q-35 -144 -154 -226.5t-290 -82.5zM203 465q0 -188 100 -270t285 -82q184 0 293.5 89t109.5 247v18q0 157 -108.5 252.5t-298.5 95.5q-88 0 -155 -18 t-119 -58t-79.5 -109t-27.5 -165z" glyph-name="d.component" horiz-adv-x="1308"/><glyph d="M281 0h-146v1372h146v-782h10q14 66 46 123.5t83 105t128.5 74.5t172.5 27q202 0 310 -122.5t108 -322.5v-475h-146v457q0 172 -80 250.5t-249 78.5q-199 0 -291 -111.5t-92 -312.5v-362z" glyph-name="h.component" horiz-adv-x="1239"/><glyph d="M473 963h-33v75h31q20 0 28.5 7.5t8.5 29.5v45h-64v252h144v-293q0 -116 -115 -116z" glyph-name="caroncomb.alt" horiz-adv-x="1024"/><glyph d="M594 1495h-141v242h141v-242zM256 1495h-141v242h141v-242z" glyph-name="dieresiscomb.case" horiz-adv-x="708"/><glyph d="M236 1495h-146v242h146v-242z" glyph-name="dotaccentcomb.case" horiz-adv-x="325"/><glyph d="M414 1495h-154l-303 254h201z" glyph-name="gravecomb.case" horiz-adv-x="655"/><glyph d="M397 1495h-151l254 254h200z" glyph-name="acutecomb.case" horiz-adv-x="655"/><glyph d="M686 1495h-141l207 254h180zM348 1495h-141l207 254h182z" glyph-name="hungarumlautcomb.case" horiz-adv-x="913"/><glyph d="M541 901h-43v94h41q23 0 32 8.5t9 34.5v49h-80v285h180v-330q0 -141 -139 -141z" glyph-name="caroncomb.alt.case" horiz-adv-x="1175"/><glyph d="M303 1495h-153l266 266h159l267 -266h-156l-184 184h-13z" glyph-name="circumflexcomb.case" horiz-adv-x="997"/><glyph d="M692 1761h156l-266 -266h-160l-266 266h155l185 -184h12z" glyph-name="caroncomb.case" horiz-adv-x="997"/><glyph d="M344 1475q-121 0 -193.5 61.5t-72.5 165.5v20h110v-20q0 -65 36.5 -97t119.5 -32q85 0 120.5 31.5t35.5 97.5v20h110v-20q0 -104 -73.5 -165.5t-192.5 -61.5z" glyph-name="brevecomb.case" horiz-adv-x="688"/><glyph d="M279 1442q-96 0 -156 52t-60 138t60 138.5t156 52.5q97 0 157 -52.5t60 -138.5t-60 -138t-157 -52zM279 1522q129 0 129 110q0 111 -129 111q-127 0 -127 -111q0 -110 127 -110z" glyph-name="ringcomb.case" horiz-adv-x="557"/><glyph d="M188 1532h-102v72q0 161 143 161q64 0 148 -59l43 -31q57 -43 98 -43q62 0 62 78v51h100v-71q0 -74 -34.5 -119t-100.5 -45q-73 0 -152 61l-51 31q-50 43 -94 43q-60 0 -60 -74v-55z" glyph-name="tildecomb.case" horiz-adv-x="763"/><glyph d="M645 1577h-553v106h553v-106z" glyph-name="macroncomb.case" horiz-adv-x="737"/><glyph d="M207 -410h-150l181 267h190z" glyph-name="commaaccentcomb.case" horiz-adv-x="524"/><glyph d="M348 -418h-162v92h162q72 0 72 58q0 35 -19 47t-53 12h-143v215h94v-123h49q81 0 126.5 -40.5t45.5 -108.5q0 -71 -45.5 -111.5t-126.5 -40.5z" glyph-name="cedillacomb.case" horiz-adv-x="514"/><glyph d="M428 -383h-147q-93 0 -142 36t-49 103q0 12 1 23t5.5 23t7 19.5t10.5 20t10.5 17t13.5 18.5t12.5 16t15.5 17l14 16l66 74h100l-86 -111q-51 -63 -51 -102q0 -70 92 -70h127v-100z" glyph-name="ogonekcomb.case" horiz-adv-x="503"/><glyph d="M1198 621h-836v131h836v-131z" glyph-name="strokeshortcomb.case" horiz-adv-x="1562"/><glyph d="M1573 1038h-1553v133h1553v-133z" glyph-name="strokelongcomb.case" horiz-adv-x="1593"/><glyph d="M1067 905l-846 -332v140l846 331v-139z" glyph-name="slashshortcomb.case" horiz-adv-x="1290"/><glyph d="M1436 1333l-1276 -1370l-80 78l1276 1370z" glyph-name="slashlongcomb.case" horiz-adv-x="1531"/><glyph d="M199 0v1434h442v-1434h-442zM733 1016v418h443v-418h-443zM1266 0v1434h444v-1434h-444zM1800 1016v418h443v-418h-443zM2333 0v1434h444v-1434h-444zM2867 1016v418h443v-418h-443zM2867 506v420h443v-420h-443z" glyph-name="ITF" horiz-adv-x="3508"/></font>
</defs>
</svg>
