<svg xmlns="http://www.w3.org/2000/svg" xmlns:xlink="http://www.w3.org/1999/xlink" version="1.1"><metadata>Created by FontForge 20170731 at Tue Oct 3 10:35:19 2023 By Aleksey,,, Copyright 2021 Indian Type Foundry. All rights reserved.</metadata><defs><font id="ClashDisplay-Light" horiz-adv-x="362"><font-face x-height="1006" ascent="1638" bbox="-475 -410 3328 1823" cap-height="1372" descent="-410" font-family="Clash Display Light" font-stretch="normal" font-weight="300" panose-1="0 0 0 0 0 0 0 0 0 0" underline-position="-307" underline-thickness="102" unicode-range="U+000D-FB04" units-per-em="2048"/><glyph d="M297 0h-92v926h-166v80h166q10 185 116.5 275.5t294.5 90.5h117v-78h-129q-156 0 -233.5 -67.5t-73.5 -220.5h600q10 185 117 275.5t295 90.5h114v-78h-127q-157 0 -234.5 -67.5t-74.5 -220.5h436v-80h-436v-926h-90v926h-600v-926z" glyph-name="f_f" horiz-adv-x="1443" unicode="ff"/><glyph d="M297 0h-92v926h-166v80h166q10 185 116.5 275.5t294.5 90.5h117v-78h-129q-156 0 -233.5 -67.5t-73.5 -220.5h436v-80h-436v-926zM979 1145h-90v227h90v-227zM979 0h-90v1006h90v-1006z" glyph-name="fi" horiz-adv-x="1116" unicode="fi"/><glyph d="M297 0h-92v926h-166v80h166q10 185 116.5 275.5t294.5 90.5h117v-78h-129q-156 0 -233.5 -67.5t-73.5 -220.5h436v-80h-436v-926zM979 0h-90v1372h90v-1372z" glyph-name="fl" horiz-adv-x="1116" unicode="fl"/><glyph d="M297 0h-92v926h-166v80h166q10 185 116.5 275.5t294.5 90.5h117v-78h-129q-156 0 -233.5 -67.5t-73.5 -220.5h600q10 185 117 275.5t295 90.5h114v-78h-127q-157 0 -234.5 -67.5t-74.5 -220.5h436v-80h-436v-926h-90v926h-600v-926zM1671 1145h-90v227h90v-227zM1671 0 h-90v1006h90v-1006z" glyph-name="f_f_i" horiz-adv-x="1806" unicode="ffi"/><glyph d="M297 0h-92v926h-166v80h166q10 185 116.5 275.5t294.5 90.5h117v-78h-129q-156 0 -233.5 -67.5t-73.5 -220.5h600q10 185 117 275.5t295 90.5h114v-78h-127q-157 0 -234.5 -67.5t-74.5 -220.5h436v-80h-436v-926h-90v926h-600v-926zM1671 0h-90v1372h90v-1372z" glyph-name="f_f_l" horiz-adv-x="1806" unicode="ffl"/><glyph d="M297 0h-92v926h-166v80h166q10 185 116.5 275.5t294.5 90.5h117v-78h-129q-156 0 -233.5 -67.5t-73.5 -220.5h436v-80h-436v-926zM969 0h-80v1372h90v-651h8q37 137 152 221t291 84q157 0 270.5 -68.5t169 -185.5t55.5 -268q0 -153 -56.5 -269.5t-172 -185.5t-277.5 -69 q-168 0 -287 86.5t-157 238.5h-6v-305zM979 483q0 -194 116.5 -307t311.5 -113q100 0 175.5 23t133.5 73.5t88.5 137t30.5 207.5q0 438 -422 438q-205 0 -319.5 -116.5t-114.5 -321.5v-21z" glyph-name="f_b" horiz-adv-x="1984" unicode="fb"/><glyph d="M297 0h-92v926h-166v80h166q10 185 116.5 275.5t294.5 90.5h117v-78h-129q-156 0 -233.5 -67.5t-73.5 -220.5h600q10 185 117 275.5t295 90.5h114v-78h-127q-157 0 -234.5 -67.5t-74.5 -220.5h436v-80h-436v-926h-90v926h-600v-926zM1659 0h-78v1372h90v-651h8 q37 137 152 221t291 84q233 0 364 -145.5t131 -376.5q0 -153 -56.5 -269.5t-172 -185.5t-277.5 -69q-168 0 -287 86.5t-157 238.5h-8v-305zM1671 483q0 -194 116.5 -307t311.5 -113q100 0 175.5 23t133.5 73.5t88.5 137t30.5 207.5q0 438 -424 438q-204 0 -318 -116.5 t-114 -321.5v-21z" glyph-name="f_f_b" horiz-adv-x="2676" unicode="ffb"/><glyph d="M297 0h-92v926h-166v80h166q10 185 116.5 275.5t294.5 90.5h117v-78h-129q-156 0 -233.5 -67.5t-73.5 -220.5h600q10 185 117 275.5t295 90.5h114v-78h-127q-157 0 -234.5 -67.5t-74.5 -220.5h436v-80h-436v-926h-90v926h-600v-926zM1671 0h-90v1372h90v-674h8 q29 139 137.5 233.5t286.5 94.5q207 0 318.5 -124.5t111.5 -328.5v-573h-90v580q0 187 -89 275.5t-271 88.5q-210 0 -311 -130t-101 -353v-461z" glyph-name="f_f_h" horiz-adv-x="2662" unicode="ffh"/><glyph d="M297 0h-92v926h-166v80h166q10 185 116.5 275.5t294.5 90.5h117v-78h-129q-156 0 -233.5 -67.5t-73.5 -220.5h600q10 185 117 275.5t295 90.5h114v-78h-127q-157 0 -234.5 -67.5t-74.5 -220.5h436v-80h-436v-926h-90v926h-600v-926zM1675 1145h-90v227h90v-227z M1395 -348h-86v82h98q88 0 133 39.5t45 128.5v1104h90v-1080q0 -140 -77.5 -207t-202.5 -67z" glyph-name="f_f_j" horiz-adv-x="1810" unicode="ffj"/><glyph d="M297 0h-92v926h-166v80h166q10 185 116.5 275.5t294.5 90.5h117v-78h-129q-156 0 -233.5 -67.5t-73.5 -220.5h600q10 185 117 275.5t295 90.5h114v-78h-127q-157 0 -234.5 -67.5t-74.5 -220.5h436v-80h-436v-926h-90v926h-600v-926zM1671 0h-90v1372h90v-805h379l363 439 h106l-397 -478l397 -528h-106l-367 485h-375v-485z" glyph-name="f_f_k" horiz-adv-x="2545" unicode="ffk"/><glyph d="M297 0h-92v926h-166v80h166q10 185 116.5 275.5t294.5 90.5h117v-78h-129q-156 0 -233.5 -67.5t-73.5 -220.5h436v-80h-436v-926zM979 0h-90v1372h90v-674h8q29 139 137.5 233.5t286.5 94.5q209 0 319.5 -124.5t110.5 -328.5v-573h-90v580q0 187 -89 275.5t-271 88.5 q-209 0 -310.5 -130.5t-101.5 -352.5v-461z" glyph-name="f_h" horiz-adv-x="1970" unicode="fh"/><glyph d="M297 0h-92v926h-166v80h166q10 185 116.5 275.5t294.5 90.5h117v-78h-129q-156 0 -233.5 -67.5t-73.5 -220.5h436v-80h-436v-926zM983 1145h-90v227h90v-227zM702 -348h-84v82h97q88 0 133 39.5t45 128.5v1104h90v-1080q0 -140 -78 -207t-203 -67z" glyph-name="f_j" horiz-adv-x="1120" unicode="fj"/><glyph d="M297 0h-92v926h-166v80h166q10 185 116.5 275.5t294.5 90.5h117v-78h-129q-156 0 -233.5 -67.5t-73.5 -220.5h436v-80h-436v-926zM979 0h-90v1372h90v-805h379l362 439h107l-395 -478l395 -528h-107l-366 485h-375v-485z" glyph-name="f_k" horiz-adv-x="1853" unicode="fk"/><glyph d="M297 0h-92v926h-166v80h166q10 185 116.5 275.5t294.5 90.5h117v-78h-129q-156 0 -233.5 -67.5t-73.5 -220.5h592v258h90v-258h426v-80h-426v-643q0 -112 58 -155.5t184 -43.5h184v-84h-207q-149 0 -229 70t-80 235v621h-592v-926z" glyph-name="f_t" horiz-adv-x="1445" unicode="ft"/><glyph d="M774 -10q-144 0 -265.5 50t-203 136t-127 202t-45.5 247q0 130 45.5 246t127 203t203 137.5t265.5 50.5t265.5 -50.5t203 -137.5t127 -203t45.5 -246q0 -131 -45.5 -247t-127 -202t-203 -136t-265.5 -50zM774 162q235 0 336.5 104t101.5 359t-101.5 358.5t-336.5 103.5 t-336.5 -103.5t-101.5 -358.5t101.5 -359t336.5 -104zM618 670q-51 0 -81.5 26.5t-30.5 69.5t30.5 69.5t81.5 26.5q49 0 80 -26.5t31 -69.5t-31 -69.5t-80 -26.5zM932 670q-49 0 -80 26.5t-31 69.5t31 69.5t80 26.5q51 0 80.5 -26.5t29.5 -69.5t-29.5 -69.5t-80.5 -26.5z M774 324q-109 0 -190 48t-150 126l64 59q70 -69 123 -87.5t153 -18.5q102 0 155.5 18.5t123.5 87.5l61 -59q-150 -174 -340 -174z" glyph-name=".notdef" horiz-adv-x="1548"/><glyph glyph-name=".null" horiz-adv-x="1228"/><glyph glyph-name="nonmarkingreturn" horiz-adv-x="682"/><glyph glyph-name="CR" horiz-adv-x="1228"/><glyph glyph-name="space" horiz-adv-x="399"/><glyph d="M176 451h-76q0 134 -8 422t-8 356v143h109v-143q0 -68 -8.5 -356.5t-8.5 -421.5zM190 0h-102v256h102v-256z" glyph-name="exclam" horiz-adv-x="276" unicode="!"/><glyph d="M324 956h-41l-27 220v196h92v-196zM125 956h-39l-27 220v196h93v-196z" glyph-name="quotedbl" horiz-adv-x="407" unicode="&quot;"/><glyph d="M338 0h-94l133 352h-336v82h369l186 494h-365v82h398l137 362h94l-137 -362h485l138 362h94l-137 -362h344v-82h-377l-187 -494h373v-82h-405l-133 -352h-95l133 352h-485zM686 930l-188 -498h495l189 498h-496z" glyph-name="numbersign" horiz-adv-x="1687" unicode="#"/><glyph d="M641 -205h-86v189q-125 10 -220 48.5t-153 98.5t-87 134.5t-29 160.5v12h92v-24q0 -346 481 -346q432 0 432 268q0 125 -76.5 186.5t-251.5 100.5l-260 53q-70 15 -125 32.5t-109 47t-89.5 66.5t-57.5 91t-22 121t28 127t83.5 110.5t149 82.5t214.5 37v186h86v-184 q127 -4 225.5 -42t158.5 -100t90 -139t30 -166v-12h-92v24q0 345 -449 345q-432 0 -432 -259q0 -67 19 -113t63.5 -78.5t102.5 -53t151 -41.5l258 -53q90 -19 158 -45.5t124 -68t85.5 -103.5t29.5 -142q0 -72 -32 -136.5t-94 -116.5t-164 -82.5t-232 -30.5v-185z" glyph-name="dollar" horiz-adv-x="1236" unicode="$"/><glyph d="M395 715q-83 0 -149 28.5t-106.5 77t-61.5 108.5t-21 126q0 65 21 124t61.5 107.5t106.5 77.5t149 29t148.5 -29t105.5 -77.5t61 -107.5t21 -124q0 -66 -21 -126t-61 -108.5t-105.5 -77t-148.5 -28.5zM270 0h-94l1165 1372h95zM395 788q256 0 256 267q0 264 -256 264 q-258 0 -258 -264q0 -267 258 -267zM1219 -20q-83 0 -149 28.5t-106.5 76.5t-61.5 108t-21 126q0 65 21 124t61.5 107.5t106.5 77.5t149 29t148.5 -29t105.5 -77.5t60.5 -107.5t20.5 -124q0 -66 -20.5 -125.5t-60.5 -108t-105.5 -77t-148.5 -28.5zM1219 53q256 0 256 266 q0 265 -256 265q-258 0 -258 -265q0 -266 258 -266z" glyph-name="percent" horiz-adv-x="1613" unicode="%"/><glyph d="M547 -20q-244 0 -384 101.5t-140 285.5q0 139 76 231t218 123v10q-125 26 -191.5 106t-66.5 195q0 163 118.5 252.5t330.5 89.5h342v-84h-346q-188 0 -271 -64t-83 -202q0 -133 95 -198.5t275 -65.5h516v246h90v-246h242v-82h-242v-225q0 -224 -152 -348.5t-427 -124.5z M549 63q256 0 371.5 93.5t115.5 294.5v227h-549q-181 0 -277.5 -76.5t-96.5 -230.5q0 -159 103.5 -233.5t332.5 -74.5z" glyph-name="ampersand" horiz-adv-x="1335" unicode="&amp;"/><glyph d="M125 956h-39l-27 220v196h93v-196z" glyph-name="quotesingle" horiz-adv-x="210" unicode="'"/><glyph d="M518 -104l-49 -43q-56 58 -102.5 113.5t-99 137.5t-88 166t-59.5 193t-24 223t24 223t59.5 193t88 166.5t99 138.5t102.5 113l49 -43q-40 -49 -51 -63t-48.5 -63.5t-51.5 -72.5t-45 -74.5t-44.5 -86t-34.5 -90t-29.5 -104.5t-16 -111t-7.5 -126q0 -63 7 -123t15.5 -108.5 t28 -102t33 -88.5t42.5 -84t43 -73.5t49.5 -71.5t48 -62.5t49.5 -61.5z" glyph-name="parenleft" horiz-adv-x="538" unicode="("/><glyph d="M27 1477l47 43q372 -381 372 -834q0 -114 -23.5 -223t-59.5 -193t-88 -166t-98.5 -138t-102.5 -113l-47 43q119 150 167 226q157 256 158 564q0 110 -22 214t-44 170t-77.5 155.5t-78.5 120t-91 115.5q-8 11 -12 16z" glyph-name="parenright" horiz-adv-x="546" unicode=")"/><glyph d="M346 1022l-135 -207l-66 47l156 193l-4 10l-240 65l27 78l229 -86l11 6l-11 246h80l-10 -246l10 -6l230 86l24 -78l-237 -65l-4 -10l153 -193l-63 -47l-136 207h-14z" glyph-name="asterisk" horiz-adv-x="704" unicode="*"/><glyph d="M502 307h-86v338h-336v82h336v338h86v-338h336v-82h-336v-338z" glyph-name="plus" horiz-adv-x="917" unicode="+"/><glyph d="M74 -143h-21v53h21q20 0 27.5 7.5t7.5 29.5v53h-48v258h107v-309q0 -92 -94 -92z" glyph-name="comma" horiz-adv-x="229" unicode=","/><glyph d="M549 557h-488v80h488v-80z" glyph-name="hyphen" horiz-adv-x="610" unicode="-"/><glyph d="M168 0h-107v258h107v-258z" glyph-name="period" horiz-adv-x="229" unicode="."/><glyph d="M55 -41h-96l737 1454h97z" glyph-name="slash" horiz-adv-x="751" unicode="/"/><glyph d="M698 -20q-283 0 -451.5 187.5t-168.5 518.5t168.5 519t451.5 188q282 0 450.5 -188t168.5 -519q0 -330 -168.5 -518t-450.5 -188zM698 66q256 0 390.5 156.5t134.5 463.5t-135 464t-390 157q-256 0 -391 -157t-135 -464q0 -306 135 -463t391 -157z" glyph-name="zero" horiz-adv-x="1394" unicode="0"/><glyph d="M424 0h-90v1126h-314v76h78q113 0 170 37t92 133h64v-1372z" glyph-name="one" horiz-adv-x="559" unicode="1"/><glyph d="M1149 0h-1045v68q0 204 81.5 316t283.5 187l295 107q168 64 232.5 133.5t64.5 192.5q0 301 -422 301q-451 0 -451 -351v-24h-92v14q0 91 32 170t96 142.5t171 100t246 36.5q129 0 229 -31t160.5 -85.5t91.5 -123.5t31 -149q0 -147 -88.5 -242.5t-273.5 -161.5l-277 -98 q-77 -28 -131.5 -58.5t-91.5 -65.5t-58 -80.5t-29.5 -97t-8.5 -120.5l288 4h666v-84z" glyph-name="two" horiz-adv-x="1230" unicode="2"/><glyph d="M649 -20q-147 0 -258.5 35t-178.5 97.5t-100.5 141.5t-33.5 172v33h94v-25q0 -186 110 -277t365 -91q242 0 351.5 77t109.5 242q0 147 -97 220t-278 73h-364v82h333q179 0 274 67.5t95 200.5q0 142 -100.5 210.5t-329.5 68.5q-246 0 -357.5 -92t-111.5 -277v-20h-94v28 q0 93 34 172.5t100.5 141.5t177 97.5t253.5 35.5q245 0 381.5 -95.5t136.5 -263.5q0 -116 -67 -196.5t-191 -106.5v-10q142 -31 218.5 -119.5t76.5 -222.5q0 -188 -147 -293.5t-402 -105.5z" glyph-name="three" horiz-adv-x="1273" unicode="3"/><glyph d="M1032 0h-92v301h-883v72l867 999h108v-987h273v-84h-273v-301zM182 385h758v870h-8l-750 -862v-8z" glyph-name="four" horiz-adv-x="1361" unicode="4"/><glyph d="M647 -20q-265 0 -416 114.5t-151 298.5v31h92v-31q0 -165 124 -247.5t351 -82.5q436 0 436 353q0 179 -112 260.5t-322 81.5q-150 0 -259.5 -29.5t-205.5 -85.5l-2 2v-2l-82 27l66 702h956v-84h-878l-56 -579l9 -4q79 57 206.5 95t260.5 38q227 0 369.5 -110t142.5 -312 q0 -200 -146 -318t-383 -118z" glyph-name="five" horiz-adv-x="1255" unicode="5"/><glyph d="M705 -20q-319 0 -464 169t-145 556q0 119 21.5 221t69 189t118 148t173 95.5t229.5 34.5q147 0 263.5 -49.5t185.5 -149t69 -233.5v-13h-95v13q0 73 -22.5 133.5t-71 109.5t-132 76t-197.5 27q-277 0 -397 -153.5t-120 -459.5v-135h11q33 128 176 209.5t350 81.5 q249 0 393 -118.5t144 -315.5q0 -201 -149 -318.5t-410 -117.5zM702 66q469 0 469 356q0 352 -466 352q-218 0 -352 -91.5t-134 -246.5q0 -180 128 -275t355 -95z" glyph-name="six" horiz-adv-x="1359" unicode="6"/><glyph d="M471 -2h-94q0 193 32 363.5t84.5 299t131.5 246.5t158.5 202.5t181.5 170.5v8h-945v84h1057v-74q-213 -183 -343 -367.5t-196.5 -414t-66.5 -518.5z" glyph-name="seven" horiz-adv-x="1095" unicode="7"/><glyph d="M647 -20q-278 0 -433 100t-155 291q0 126 87.5 220.5t261.5 129.5v10q-149 20 -231.5 104t-82.5 203q0 160 143.5 257.5t409.5 97.5q267 0 410 -97t143 -258q0 -119 -81.5 -203t-231.5 -104v-10q175 -35 261.5 -129t86.5 -221q0 -191 -155 -291t-433 -100zM647 754 q463 0 463 274q0 66 -24 115.5t-76.5 87t-143.5 57t-219 19.5q-127 0 -218 -19.5t-144 -57t-77 -87t-24 -115.5q0 -274 463 -274zM647 66q261 0 379.5 74.5t118.5 238.5q0 307 -498 307q-497 0 -497 -307q0 -164 118 -238.5t379 -74.5z" glyph-name="eight" horiz-adv-x="1294" unicode="8"/><glyph d="M655 -20q-227 0 -373.5 115.5t-146.5 316.5v12h96v-12q0 -73 23 -133.5t71 -109.5t132 -76t198 -27q140 0 239.5 41t159.5 123.5t87.5 196.5t27.5 269v135h-10q-34 -136 -176.5 -222.5t-349.5 -86.5q-251 0 -394 118.5t-143 315.5q0 201 149 319t410 118 q320 0 464.5 -164.5t144.5 -542.5q0 -153 -35 -278.5t-106.5 -222.5t-190.5 -151t-277 -54zM653 598q218 0 353 96.5t135 259.5q0 170 -129 261.5t-355 91.5q-469 0 -469 -357q0 -173 116 -262.5t349 -89.5z" glyph-name="nine" horiz-adv-x="1359" unicode="9"/><glyph d="M168 748h-107v258h107v-258zM168 0h-107v258h107v-258z" glyph-name="colon" horiz-adv-x="229" unicode=":"/><glyph d="M168 748h-107v258h107v-258zM74 -143h-21v53h21q20 0 27.5 7.5t7.5 29.5v53h-48v258h107v-309q0 -92 -94 -92z" glyph-name="semicolon" horiz-adv-x="229" unicode=";"/><glyph d="M61 735l758 383v-96l-672 -332v-8l672 -332v-96l-758 383v98z" glyph-name="less" horiz-adv-x="899" unicode="&lt;"/><glyph d="M838 854h-758v80h758v-80zM838 438h-758v80h758v-80z" glyph-name="equal" horiz-adv-x="917" unicode="="/><glyph d="M838 637l-758 -383v96l672 332v8l-672 332v96l758 -383v-98z" glyph-name="greater" horiz-adv-x="899" unicode="&gt;"/><glyph d="M535 438h-91v64q0 71 32.5 120.5t119.5 88.5l149 71q60 29 98.5 53t71 55.5t47.5 70.5t15 88q0 59 -20 105t-65 81.5t-124 54.5t-190 19q-248 0 -357.5 -88t-109.5 -265v-28h-91v35q0 90 34 167t100.5 136.5t175.5 93t250 33.5q124 0 219.5 -27t153 -75t86 -108 t28.5 -130q0 -65 -22.5 -119t-65 -95t-89 -70.5t-108.5 -57.5l-143 -66q-61 -27 -82.5 -54.5t-21.5 -82.5v-70zM543 0h-103v256h103v-256z" glyph-name="question" horiz-adv-x="1126" unicode="?"/><glyph d="M836 84q-187 0 -300.5 112.5t-113.5 305.5q0 192 113.5 305t300.5 113q139 0 228.5 -67t127.5 -177h6v225h82v-557q0 -96 37 -139t123 -43q111 0 166 99.5t55 322.5q0 328 -188.5 507t-561.5 179q-183 0 -329.5 -45.5t-252.5 -136.5t-163 -235t-57 -333 q0 -188 55.5 -331.5t159 -234t247 -136t324.5 -45.5q108 0 189.5 13.5t181.5 43.5l18 -68q-170 -67 -393 -67q-262 0 -458.5 100.5t-303 287.5t-106.5 437t109 438t310.5 290t468.5 102q247 0 434.5 -88t294.5 -262t107 -414q0 -226 -84 -364t-225 -138q-112 0 -173.5 65 t-70.5 177h-4q-38 -108 -127 -175t-227 -67zM510 502q0 -175 85 -258.5t253 -83.5q148 0 246 86t98 241v29q0 155 -98 241.5t-246 86.5q-168 0 -253 -83.5t-85 -258.5z" glyph-name="at" horiz-adv-x="1787" unicode="@"/><glyph d="M115 0h-99l627 1372h125l627 -1372h-99l-202 436h-779zM629 1114l-275 -594h701l-275 594l-73 168h-9z" glyph-name="A" horiz-adv-x="1413" unicode="A"/><glyph d="M817 0h-700v1372h686q178 0 288.5 -91t110.5 -251q0 -118 -67 -198.5t-195 -106.5v-8q146 -30 223.5 -119t77.5 -221q0 -175 -117 -276t-307 -101zM207 1288v-532h573q161 0 246.5 67t85.5 199q0 135 -77.5 200.5t-235.5 65.5h-592zM207 674v-590h606q336 0 336 299 q0 147 -86.5 219t-249.5 72h-606z" glyph-name="B" horiz-adv-x="1298" unicode="B"/><glyph d="M748 -20q-144 0 -267.5 50.5t-212.5 141.5t-139.5 223.5t-50.5 290.5t50.5 290.5t139 224t212.5 142t268 50.5q165 0 299.5 -60t214 -173t79.5 -259v-22h-96v22q0 190 -131 297t-366 107q-269 0 -422.5 -162.5t-153.5 -456.5t153.5 -455t422.5 -161q236 0 366.5 106 t130.5 297v21h96v-21q0 -147 -79 -260.5t-213.5 -173t-300.5 -59.5z" glyph-name="C" horiz-adv-x="1421" unicode="C"/><glyph d="M709 0h-572v1372h572q304 0 481.5 -186t177.5 -500t-177.5 -500t-481.5 -186zM709 1288h-480v-1204h480q279 0 422 154.5t143 447.5t-143 447.5t-422 154.5z" glyph-name="D" horiz-adv-x="1445" unicode="D"/><glyph d="M1139 0h-1004v1372h1004v-84h-912v-557h881v-82h-881v-565h912v-84z" glyph-name="E" horiz-adv-x="1226" unicode="E"/><glyph d="M227 0h-92v1372h985v-84h-893v-598h863v-82h-863v-608z" glyph-name="F" horiz-adv-x="1198" unicode="F"/><glyph d="M739 -20q-142 0 -264 50.5t-209.5 141.5t-137.5 223.5t-50 290.5t51 290.5t140 224t213 142t268 50.5q166 0 301 -60t215 -172.5t80 -257.5v-18h-97v18q0 188 -131 295t-368 107q-270 0 -424 -162.5t-154 -456.5t153.5 -455t422.5 -161q246 0 376.5 110t130.5 326v76 h-573v77h664v-659h-78v301h-8q-54 -166 -194.5 -243.5t-326.5 -77.5z" glyph-name="G" horiz-adv-x="1454" unicode="G"/><glyph d="M227 0h-92v1372h92v-639h938v639h90v-1372h-90v651h-938v-651z" glyph-name="H" horiz-adv-x="1392" unicode="H"/><glyph d="M227 0h-92v1372h92v-1372z" glyph-name="I" unicode="I"/><glyph d="M586 -20q-137 0 -241 39t-165.5 107.5t-92 155.5t-30.5 191v72h95v-82q0 -195 104.5 -294t329.5 -99q224 0 329 99t105 292v911h92v-901q0 -103 -30 -189.5t-91 -155t-164.5 -107.5t-240.5 -39z" glyph-name="J" horiz-adv-x="1239" unicode="J"/><glyph d="M227 0h-92v1372h92v-645h525l454 645h107l-482 -680l486 -692h-107l-454 643h-529v-643z" glyph-name="K" horiz-adv-x="1353" unicode="K"/><glyph d="M1116 0h-981v1372h92v-1288h889v-84z" glyph-name="L" horiz-adv-x="1157" unicode="L"/><glyph d="M227 0h-92v1372h127l508 -971l117 -231h8l117 231l510 971h125v-1372h-93v1057l2 176h-8l-88 -176l-514 -975h-110l-514 975l-89 176h-8l2 -176v-1057z" glyph-name="M" horiz-adv-x="1781" unicode="M"/><glyph d="M227 0h-92v1372h103l796 -1028l160 -209h8l-2 207v1030h90v-1372h-100l-787 1014l-170 221h-8l2 -221v-1014z" glyph-name="N" horiz-adv-x="1427" unicode="N"/><glyph d="M756 -20q-195 0 -348.5 86.5t-241.5 248t-88 371.5q0 158 51 290.5t141 224t215 142t271 50.5t271.5 -50.5t215 -142t140.5 -224t51 -290.5t-51 -290.5t-140.5 -223.5t-215 -141.5t-271.5 -50.5zM756 70q274 0 428.5 161t154.5 455t-155 456.5t-428 162.5t-428.5 -162.5 t-155.5 -456.5t155 -455t429 -161z" glyph-name="O" horiz-adv-x="1513" unicode="O"/><glyph d="M227 0h-92v1372h602q223 0 361.5 -120.5t138.5 -331.5t-138.5 -332t-361.5 -121h-510v-467zM733 1288h-506v-737h506q412 0 412 369q0 368 -412 368z" glyph-name="P" horiz-adv-x="1277" unicode="P"/><glyph d="M756 -20q-195 0 -348.5 86.5t-241.5 248t-88 371.5q0 158 51 290.5t141 224t215 142t271 50.5t271.5 -50.5t215 -142t140.5 -224t51 -290.5q0 -283 -152.5 -470t-402.5 -226l184 -279h-100l-175 269h-32zM756 70q274 0 428.5 161t154.5 455t-155 456.5t-428 162.5 t-428.5 -162.5t-155.5 -456.5t155 -455t429 -161z" glyph-name="Q" horiz-adv-x="1513" unicode="Q"/><glyph d="M227 0h-92v1372h643q207 0 336 -104.5t129 -286.5q0 -175 -121.5 -279t-314.5 -104v-8q100 -30 178 -152l277 -438h-103l-264 412q-56 92 -130.5 131t-211.5 39h-326v-582zM227 1288v-626h551q371 0 371 313t-371 313h-551z" glyph-name="R" horiz-adv-x="1316" unicode="R"/><glyph d="M639 -20q-146 0 -258 35t-179.5 97t-101.5 141t-34 173v12h92v-24q0 -346 481 -346q432 0 432 268q0 125 -76.5 186.5t-251.5 100.5l-260 53q-70 15 -125 32.5t-109 47t-89.5 66.5t-57.5 91t-22 121q0 70 31 132.5t92 114t165 82t238 30.5q136 0 241.5 -35.5t169.5 -98 t96 -142t32 -171.5v-12h-92v24q0 345 -449 345q-432 0 -432 -259q0 -67 19 -113t63.5 -78.5t102.5 -53t151 -41.5l258 -53q90 -19 158 -45.5t124 -68t85.5 -103.5t29.5 -142q0 -72 -32 -136.5t-94 -116.5t-165 -82.5t-233 -30.5z" glyph-name="S" horiz-adv-x="1236" unicode="S"/><glyph d="M694 0h-90v1288h-584v84h1256v-84h-582v-1288z" glyph-name="T" horiz-adv-x="1298" unicode="T"/><glyph d="M725 -20q-273 0 -436.5 152.5t-163.5 432.5v807h92v-805q0 -253 128 -375t380 -122q254 0 382 122t128 375v805h90v-807q0 -280 -162.5 -432.5t-437.5 -152.5z" glyph-name="U" horiz-adv-x="1452" unicode="U"/><glyph d="M737 0h-125l-614 1372h104l570 -1280h8l569 1280h103z" glyph-name="V" horiz-adv-x="1349" unicode="V"/><glyph d="M594 0h-135l-422 1372h100l309 -1001l80 -277h9l88 277l350 1001h119l393 -1001l102 -277h8l68 277l266 1001h99l-365 -1372h-135l-379 963l-111 292h-12l-98 -292z" glyph-name="W" horiz-adv-x="2064" unicode="W"/><glyph d="M131 0h-115l580 688v8l-580 676h115l537 -618h8l534 618h115l-580 -674v-8l580 -690h-115l-534 633h-8z" glyph-name="X" horiz-adv-x="1341" unicode="X"/><glyph d="M680 0h-90v498l-592 874h106l418 -612l113 -164h6l111 164l413 612h109l-594 -870v-502z" glyph-name="Y" horiz-adv-x="1269" unicode="Y"/><glyph d="M1260 0h-1180v84l1024 1196v8h-987v84h1112v-84l-1028 -1196v-8h1059v-84z" glyph-name="Z" horiz-adv-x="1337" unicode="Z"/><glyph d="M430 -123h-295v1618h295v-80h-207v-1458h207v-80z" glyph-name="bracketleft" horiz-adv-x="450" unicode="["/><glyph d="M793 -41h-97l-737 1454h96z" glyph-name="backslash" horiz-adv-x="751" unicode="\"/><glyph d="M-16 -43h206v1458h-206v80h292v-1618h-292v80z" glyph-name="bracketright" horiz-adv-x="454" unicode="]"/><glyph d="M111 573h-86l387 799h110l387 -799h-86l-352 715h-8z" glyph-name="asciicircum" horiz-adv-x="933" unicode="^"/><glyph d="M758 -72h-738v72h738v-72z" glyph-name="underscore" horiz-adv-x="778" unicode="_"/><glyph d="M406 -20q-148 0 -238 66.5t-90 184.5q0 217 323 254l498 58v90q0 165 -78.5 238t-257.5 73q-370 0 -370 -289v-10h-91v10q0 157 124 264t341 107q107 0 189 -30t131 -83.5t73.5 -121t24.5 -148.5v-643h-80v285h-6q-49 -145 -180 -225t-313 -80zM168 238q0 -183 252 -183 q132 0 238 42.5t173.5 135.5t67.5 224v18l-465 -53q-140 -14 -203 -54t-63 -130z" glyph-name="a" horiz-adv-x="1114" unicode="a"/><glyph d="M215 0h-80v1372h92v-651h6q37 136 152.5 220.5t292.5 84.5q233 0 364.5 -145.5t131.5 -376.5q0 -234 -132.5 -379t-375.5 -145q-168 0 -286.5 86.5t-156.5 238.5h-8v-305zM227 483q0 -194 115.5 -307t310.5 -113q100 0 175.5 23t133.5 73.5t88.5 137t30.5 207.5 q0 120 -30.5 206.5t-88 136t-132 72.5t-171.5 23q-204 0 -318 -116.5t-114 -321.5v-21z" glyph-name="b" horiz-adv-x="1232" unicode="b"/><glyph d="M598 -20q-232 0 -376 148t-144 376q0 227 144 374.5t376 147.5q133 0 244 -50t177 -142t66 -207v-13h-90v11q0 149 -104 234t-293 85q-219 0 -324.5 -115.5t-105.5 -324.5t105.5 -325t324.5 -116q189 0 293 84.5t104 233.5v12h90v-12q0 -115 -66 -207.5t-177.5 -143 t-243.5 -50.5z" glyph-name="c" horiz-adv-x="1165" unicode="c"/><glyph d="M565 -20q-238 0 -372 146t-134 378q0 150 58 267.5t171.5 186t266.5 68.5q173 0 289 -84.5t153 -220.5h9v651h90v-1372h-78v305h-8q-38 -151 -158.5 -238t-286.5 -87zM152 504q0 -441 426 -441q192 0 310 113.5t118 306.5v21q0 204 -116 321t-317 117q-421 0 -421 -438z" glyph-name="d" horiz-adv-x="1232" unicode="d"/><glyph d="M598 -20q-238 0 -379 146t-141 378q0 229 141 375.5t379 146.5q216 0 351.5 -123.5t135.5 -339.5q0 -54 -10 -92h-909q6 -195 112.5 -303.5t317.5 -108.5q190 0 287.5 70.5t97.5 198.5v12h90v-12q0 -153 -135.5 -250.5t-337.5 -97.5zM596 948q-212 0 -318 -108t-112 -303 h833q2 16 2 47q0 176 -106.5 270t-298.5 94z" glyph-name="e" horiz-adv-x="1163" unicode="e"/><glyph d="M297 0h-92v926h-166v80h166q10 185 116.5 275.5t294.5 90.5h117v-78h-129q-156 0 -233.5 -67.5t-73.5 -220.5h436v-80h-436v-926z" glyph-name="f" horiz-adv-x="753" unicode="f"/><glyph d="M565 76q-222 0 -354.5 133.5t-132.5 341.5q0 209 137 342t367 133q164 0 283 -76t151 -209h6v265h80v-928q0 -118 -36.5 -206t-104 -139.5t-155.5 -76.5t-198 -25q-128 0 -232.5 42.5t-167.5 126t-63 192.5h91q0 -281 374 -281q216 0 309 82.5t93 282.5v274h-8 q-35 -122 -152 -198t-287 -76zM170 551q0 -107 31.5 -185t89 -122.5t129.5 -65t162 -20.5q199 0 314.5 104t115.5 283v39q0 164 -115 262t-303 98q-93 0 -167.5 -20.5t-133.5 -65.5t-91 -122.5t-32 -184.5z" glyph-name="g" horiz-adv-x="1236" unicode="g"/><glyph d="M227 0h-92v1372h92v-674h6q14 65 46 122.5t83.5 104.5t127.5 74t169 27q207 0 317.5 -124.5t110.5 -328.5v-573h-90v580q0 187 -89 275.5t-271 88.5q-107 0 -186.5 -35.5t-128 -101t-72 -152t-23.5 -194.5v-461z" glyph-name="h" horiz-adv-x="1218" unicode="h"/><glyph d="M227 1145h-92v227h92v-227zM227 0h-92v1006h92v-1006z" glyph-name="i" unicode="i"/><glyph d="M229 1145h-90v227h90v-227zM-49 -348h-86v82h96q88 0 133 39.5t45 128.5v1104h90v-1080q0 -140 -77.5 -207t-200.5 -67z" glyph-name="j" horiz-adv-x="366" unicode="j"/><glyph d="M227 0h-92v1372h92v-805h377l365 439h104l-395 -478l395 -528h-106l-365 485h-375v-485z" glyph-name="k" horiz-adv-x="1099" unicode="k"/><glyph d="M227 0h-92v1372h92v-1372z" glyph-name="l" unicode="l"/><glyph d="M227 0h-92v1006h80v-301h6q24 139 125 230t277 91q162 0 261 -90.5t126 -245.5h8q11 68 41 126.5t78 106.5t122 75.5t164 27.5q193 0 298.5 -125t105.5 -328v-573h-90v580q0 183 -82.5 273.5t-251.5 90.5q-377 0 -377 -463v-481h-90v580q0 364 -332 364 q-195 0 -286 -116.5t-91 -346.5v-481z" glyph-name="m" horiz-adv-x="1957" unicode="m"/><glyph d="M227 0h-92v1006h80v-318h8q30 140 145 239t289 99q104 0 187.5 -36t135.5 -99t79.5 -144t27.5 -174v-573h-92v580q0 174 -88 269t-268 95q-197 0 -304.5 -122.5t-107.5 -340.5v-481z" glyph-name="n" horiz-adv-x="1216" unicode="n"/><glyph d="M616 -20q-160 0 -283 68t-189 187t-66 269q0 227 148.5 374.5t389.5 147.5q240 0 389.5 -147.5t149.5 -374.5q0 -228 -149.5 -376t-389.5 -148zM616 61q222 0 335.5 118t113.5 325q0 205 -113.5 322.5t-335.5 117.5q-221 0 -334.5 -117.5t-113.5 -322.5q0 -207 113 -325 t335 -118z" glyph-name="o" horiz-adv-x="1232" unicode="o"/><glyph d="M227 -348h-92v1354h80v-285h16q36 136 153.5 220.5t291.5 84.5q231 0 364.5 -146t133.5 -376q0 -232 -134 -378t-372 -146q-164 0 -284 86t-157 229v-643zM227 483q0 -193 117.5 -306.5t308.5 -113.5q98 0 173.5 23t134 73t89.5 137t31 208q0 438 -422 438 q-201 0 -316.5 -117t-115.5 -321v-21z" glyph-name="p" horiz-adv-x="1232" unicode="p"/><glyph d="M565 -20q-238 0 -372 146t-134 378q0 230 133.5 376t364.5 146q173 0 289 -84t153 -221h19v285h78v-1354h-90v643q-40 -146 -159 -230.5t-282 -84.5zM152 504q0 -441 426 -441q192 0 310 113.5t118 306.5v21q0 204 -116 321t-317 117q-421 0 -421 -438z" glyph-name="q" horiz-adv-x="1232" unicode="q"/><glyph d="M227 0h-92v1006h80v-275h8q25 128 117.5 211.5t243.5 83.5q84 0 151 -30t107 -81t61 -114.5t21 -134.5v-76h-90v67q0 147 -65.5 218t-209.5 71q-167 0 -249.5 -106t-82.5 -305v-535z" glyph-name="r" horiz-adv-x="972" unicode="r"/><glyph d="M557 -20q-227 0 -352 90.5t-125 261.5v4h90v-10q0 -145 90.5 -206t296.5 -61q184 0 262 47t78 150q0 90 -58 131.5t-200 63.5l-264 38q-143 22 -219 81.5t-76 177.5q0 131 118 204.5t312 73.5q212 0 337.5 -91t125.5 -261v-4h-90v10q0 136 -85.5 202t-289.5 66 q-177 0 -257.5 -47.5t-80.5 -152.5q0 -88 52.5 -128t189.5 -61l256 -39q157 -23 238 -83.5t81 -176.5q0 -137 -119 -208.5t-311 -71.5z" glyph-name="s" horiz-adv-x="1064" unicode="s"/><glyph d="M721 0h-207q-149 0 -229 70t-80 235v621h-187v80h187v258h92v-258h424v-80h-424v-643q0 -113 57 -156t183 -43h184v-84z" glyph-name="t" horiz-adv-x="761" unicode="t"/><glyph d="M559 -20q-104 0 -187 36t-135 98.5t-79 143.5t-27 174v574h90v-580q0 -174 89 -268.5t270 -94.5q197 0 305 122t108 341v480h90v-1006h-79v317h-7q-32 -140 -147.5 -238.5t-290.5 -98.5z" glyph-name="u" horiz-adv-x="1218" unicode="u"/><glyph d="M625 0h-109l-489 1006h96l444 -916h8l443 916h96z" glyph-name="v" horiz-adv-x="1140" unicode="v"/><glyph d="M477 0h-112l-338 1006h94l248 -736l53 -180h8l68 184l301 732h114l304 -732l67 -182h8l51 178l248 736h95l-340 -1006h-113l-293 719l-80 205h-8l-78 -205z" glyph-name="w" horiz-adv-x="1712" unicode="w"/><glyph d="M135 0h-108l479 506v6l-479 494h108l438 -443h9l436 443h108l-481 -490v-8l481 -508h-110l-438 459h-7z" glyph-name="x" horiz-adv-x="1153" unicode="x"/><glyph d="M250 -348h-115v84h121q81 0 121.5 27.5t75.5 99.5l65 141l-502 1002h99l323 -646l121 -249h8l119 249l309 646h97l-562 -1170q-47 -100 -112 -142t-168 -42z" glyph-name="y" horiz-adv-x="1118" unicode="y"/><glyph d="M1061 0h-1002v82l633 631l213 205v8l-213 -2h-602v82h940v-82l-674 -666l-178 -170v-8l178 2h705v-82z" glyph-name="z" horiz-adv-x="1120" unicode="z"/><glyph d="M481 -123h-24q-232 0 -232 234v421q0 60 -21.5 81.5t-82.5 21.5h-80v102h80q61 0 82.5 21.5t21.5 81.5v422q0 233 232 233h24v-86h-32q-75 0 -105.5 -30t-30.5 -113v-422q0 -154 -129 -154v-8q129 0 129 -154v-422q0 -83 30.5 -113t105.5 -30h32v-86z" glyph-name="braceleft" horiz-adv-x="503" unicode="{"/><glyph d="M223 -205h-88v1782h88v-1782z" glyph-name="bar" horiz-adv-x="360" unicode="|"/><glyph d="M23 1495h24q234 0 234 -233v-422q0 -60 21.5 -81.5t82.5 -21.5h80v-102h-80q-61 0 -82.5 -21.5t-21.5 -81.5v-421q0 -234 -234 -234h-24v86h32q76 0 107 30t31 113v422q0 154 129 154v8q-129 0 -129 154v422q0 83 -31 113t-107 30h-32v86z" glyph-name="braceright" horiz-adv-x="505" unicode="}"/><glyph d="M236 518h-80v164q0 34 7 62.5t24 56t51.5 43.5t83.5 16q15 0 31 -3t28.5 -6.5t29.5 -12.5t27 -14t28.5 -18t26 -18.5t29 -21.5t27.5 -21l74 -51q81 -62 115 -78q36 -16 69 -16q44 0 65 25t21 77v156h82v-164q0 -73 -37.5 -124.5t-122.5 -51.5q-42 0 -85.5 17.5t-66 32.5 t-69.5 50l-90 64q-6 4 -26 20t-26.5 21t-23.5 17t-26 16.5t-23.5 11t-27.5 8.5t-27 2q-88 0 -88 -102v-158z" glyph-name="asciitilde" horiz-adv-x="1116" unicode="~"/><glyph glyph-name="nbspace" horiz-adv-x="399"/><glyph d="M82 1024h102v-256h-102v256zM96 573h76q0 -134 8 -422t8 -356v-143h-108v143q0 68 8 356.5t8 421.5z" glyph-name="exclamdown" horiz-adv-x="268" unicode="¡"/><glyph d="M608 -205h-86v189q-201 25 -322.5 168.5t-121.5 351.5q0 207 121.5 350t322.5 168v207h86v-203q131 -2 239.5 -52.5t173 -141.5t64.5 -205v-13h-90v11q0 149 -104 234t-293 85q-219 0 -324.5 -115.5t-105.5 -324.5t105.5 -325t324.5 -116q189 0 293 84.5t104 233.5v12h90 v-12q0 -173 -140.5 -287t-336.5 -114v-185z" glyph-name="cent" horiz-adv-x="1126" unicode="¢"/><glyph d="M858 641h-506l49 -76q99 -153 99 -248q0 -75 -47.5 -135t-116.5 -92v-6h856v-84h-1131v84h60q126 0 213.5 63t87.5 162q0 47 -22.5 96t-69.5 121l-76 115h-193v80h140q-92 144 -92 283q0 78 31.5 146.5t94 123.5t166.5 87t238 32q140 0 247 -36t172 -100t97.5 -146.5 t32.5 -180.5v-51h-90v41q0 196 -107.5 292.5t-351.5 96.5q-440 0 -440 -314q0 -52 17 -105.5t33.5 -84t49.5 -84.5h559v-80z" glyph-name="sterling" horiz-adv-x="1251" unicode="£"/><glyph d="M684 0h-90v473h-569v80h532l-151 221h-381v82h325l-350 516h111l356 -526l172 -260h8l168 260l352 526h111l-350 -516h327v-82h-383l-151 -221h534v-80h-571v-473z" glyph-name="yen" horiz-adv-x="1277" unicode="¥"/><glyph d="M190 768h-88v809h88v-809zM190 -205h-88v809h88v-809z" glyph-name="brokenbar" horiz-adv-x="292" unicode="¦"/><glyph d="M524 -20q-222 0 -344.5 90.5t-122.5 261.5v6h90v-12q0 -68 17 -115.5t59 -83.5t116.5 -53t184.5 -17q174 0 255 42.5t81 136.5q0 74 -56 113.5t-183 60.5l-273 41q-147 23 -226 81.5t-79 163.5q0 85 59 140.5t166 72.5v6q-103 20 -164 73.5t-61 144.5q0 122 115 191 t297 69q228 0 354.5 -91t126.5 -262v-4h-90v11q0 69 -17.5 116.5t-61 83t-121 52t-193.5 16.5q-165 0 -242.5 -43t-77.5 -139q0 -77 55.5 -114.5t184.5 -55.5l276 -41q301 -42 301 -234q0 -90 -62.5 -150.5t-168.5 -74.5v-8q106 -23 168.5 -77t62.5 -140q0 -122 -118.5 -190 t-307.5 -68zM385 520l92 -14q111 -15 184.5 -10.5t117.5 32t62.5 62.5t18.5 82q0 82 -57.5 121.5t-194.5 58.5l-104 14q-106 12 -177.5 7.5t-114.5 -30t-61 -59.5t-18 -79q0 -85 56.5 -123.5t195.5 -61.5z" glyph-name="section" horiz-adv-x="983" unicode="§"/><glyph d="M776 8q-162 0 -297 50.5t-227 140t-142.5 215t-50.5 272.5t50.5 272.5t142.5 215t227 140t297 50.5t297 -50.5t227 -140t142.5 -215t50.5 -272.5t-50.5 -272.5t-142.5 -215t-227 -140t-297 -50.5zM776 84q313 0 473 160t160 442t-160 442t-473 160q-314 0 -474.5 -160 t-160.5 -442t160.5 -442t474.5 -160zM782 315q-175 0 -287 103.5t-112 267.5t112 267.5t287 103.5q159 0 265 -80.5t106 -194.5v-16h-80v12q0 105 -79.5 155t-211.5 50q-148 0 -233.5 -72.5t-85.5 -224.5t85.5 -224.5t233.5 -72.5q132 0 211.5 50t79.5 155v12h80v-16 q0 -114 -106 -194.5t-265 -80.5z" glyph-name="copyright" horiz-adv-x="1552" unicode="©"/><glyph d="M182 1073q-48 0 -76 21.5t-28 60.5q0 69 94 78l119 14v21q0 35 -15 51t-61 16q-44 0 -58 -14.5t-14 -46.5v-4h-63v6q0 52 37.5 84.5t101.5 32.5t98.5 -35t34.5 -94v-185h-55v54h-4q-13 -26 -42 -43t-69 -17zM137 1157q0 -35 60 -35q39 0 68.5 19t29.5 63l-111 -14 q-28 -3 -37.5 -10.5t-9.5 -22.5z" glyph-name="ordfeminine" horiz-adv-x="430" unicode="ª"/><glyph d="M516 666l410 301v-97l-338 -241v-8l338 -242v-96l-410 301v82zM25 666l409 301v-97l-338 -241v-8l338 -242v-96l-409 301v82z" glyph-name="guillemotleft" horiz-adv-x="987" unicode="«"/><glyph d="M549 557h-488v80h488v-80z" glyph-name="softhyphen" horiz-adv-x="1228" unicode="­"/><glyph d="M391 719q-157 0 -253.5 92.5t-96.5 226.5q0 135 96.5 227.5t253.5 92.5q158 0 254 -92.5t96 -227.5t-96 -227t-254 -92zM391 780q127 0 207 63t80 195q0 133 -80 195.5t-207 62.5q-81 0 -143 -24.5t-102 -84t-40 -149.5q0 -68 22.5 -118.5t62.5 -80.5t90 -44.5t110 -14.5 zM299 899h-53v287h186q119 0 119 -90q0 -36 -22.5 -56t-57.5 -22v-4q18 -6 28.5 -16.5t24.5 -36.5l37 -62h-63l-31 53q-19 33 -32 43.5t-42 10.5h-94v-107zM299 1137v-88h141q32 0 44 9.5t12 33.5q0 27 -11.5 36t-44.5 9h-141z" glyph-name="registered" horiz-adv-x="782" unicode="®"/><glyph d="M238 1036q-78 0 -127.5 52t-49.5 126t49.5 126.5t127.5 52.5q79 0 128.5 -52.5t49.5 -126.5t-49 -126t-129 -52zM238 1104q108 0 108 110q0 111 -108 111q-109 0 -109 -111q0 -110 109 -110z" glyph-name="degree" horiz-adv-x="477" unicode="°"/><glyph d="M838 223h-758v80h336v342h-336v82h336v338h86v-338h336v-82h-336v-342h336v-80z" glyph-name="plusminus" horiz-adv-x="919" unicode="±"/><glyph d="M680 696h-606v23q0 110 51.5 169.5t163.5 98.5l141 49q95 34 133.5 64t38.5 86q0 67 -48 101t-169 34q-127 0 -186.5 -42t-59.5 -132v-14h-78v16q0 101 84.5 172.5t241.5 71.5q138 0 214.5 -58.5t76.5 -148.5q0 -79 -54 -123.5t-171 -85.5l-138 -47q-84 -31 -121.5 -66.5 t-37.5 -97.5l184 2h340v-72z" glyph-name="twosuperior" horiz-adv-x="718" unicode="²"/><glyph d="M395 686q-165 0 -250.5 61t-85.5 158v23h76v-23q0 -77 57 -112t201 -35q113 0 169 29t56 106q0 76 -51.5 100.5t-179.5 24.5h-166v65h150q126 0 172.5 22t46.5 95q0 60 -45 90.5t-162 30.5q-136 0 -192 -35t-56 -112v-21h-76v21q0 96 85 157.5t241 61.5q125 0 205 -46.5 t80 -134.5q0 -134 -138 -151v-10q76 -8 121 -50t45 -116q0 -96 -88 -147.5t-215 -51.5z" glyph-name="threesuperior" horiz-adv-x="739" unicode="³"/><glyph d="M692 0h-90v553h-117q-92 0 -171 25.5t-140.5 75.5t-97 131t-35.5 184q0 100 35.5 178t97 126.5t140.5 73.5t171 25h207v-1372zM1108 0h-90v1372h90v-1372z" glyph-name="paragraph" horiz-adv-x="1243" unicode="¶"/><glyph d="M186 512h-106v258h106v-258z" glyph-name="periodcentered" horiz-adv-x="266" unicode="·"/><glyph d="M295 686h-80v531h-205v71h96q64 0 89.5 18t31.5 66h68v-686z" glyph-name="onesuperior" horiz-adv-x="466" unicode="¹"/><glyph d="M236 1073q-69 0 -113.5 46.5t-44.5 113.5t44.5 113.5t113.5 46.5q71 0 115 -46t44 -114t-44 -114t-115 -46zM236 1133q98 0 98 100t-98 100q-97 0 -97 -100t97 -100z" glyph-name="ordmasculine" horiz-adv-x="473" unicode="º"/><glyph d="M471 584l-410 -301v96l338 242v8l-338 241v97l410 -301v-82zM963 584l-410 -301v96l338 242v8l-338 241v97l410 -301v-82z" glyph-name="guillemotright" horiz-adv-x="987" unicode="»"/><glyph d="M324 686h-80v531h-205v71h94q65 0 90 18t33 66h68v-686zM119 0h-94l1165 1372h94zM1188 0h-80v141h-483v58l475 487h88v-471h139v-74h-139v-141zM739 215h369v365h-8l-361 -357v-8z" glyph-name="onequarter" horiz-adv-x="1368" unicode="¼"/><glyph d="M324 686h-80v531h-205v71h94q65 0 90 18t33 66h68v-686zM119 0h-94l1165 1372h94zM1466 0h-606v23q0 110 51.5 169.5t163.5 98.5l142 49q95 35 133.5 64t38.5 85q0 68 -48.5 102t-169.5 34q-126 0 -185.5 -42t-59.5 -132v-15h-78v17q0 100 84 171.5t242 71.5 q138 0 214 -58.5t76 -148.5q0 -79 -54 -123t-171 -85l-137 -48q-86 -32 -124 -67t-38 -96l186 2h340v-72z" glyph-name="onehalf" horiz-adv-x="1490" unicode="½"/><glyph d="M377 686q-163 0 -248.5 61t-85.5 158v23h76v-23q0 -77 57 -112t201 -35q113 0 169 29t56 106q0 76 -51.5 100.5t-179.5 24.5h-166v65h147q126 0 173.5 22t47.5 95q0 60 -44.5 90.5t-161.5 30.5q-136 0 -192 -35t-56 -112v-21h-76v21q0 97 84.5 158t241.5 61 q125 0 204.5 -46.5t79.5 -134.5q0 -63 -34 -102.5t-103 -48.5v-10q76 -8 121 -50t45 -116q0 -65 -44 -111t-111.5 -67t-149.5 -21zM279 0h-95l1166 1372h94zM1294 -2h-80v141h-481v58l473 487h88v-471h140v-74h-140v-141zM846 213h368v365h-6l-362 -357v-8z" glyph-name="threequarters" horiz-adv-x="1509" unicode="¾"/><glyph d="M547 1024h100v-256h-100v256zM555 586h90v-64q0 -71 -32.5 -120.5t-118.5 -88.5l-150 -69q-121 -60 -176 -117.5t-55 -151.5q0 -59 20 -105t65 -81.5t124 -54.5t190 -19q248 0 357.5 88t109.5 265v28h90v-35q0 -90 -33.5 -167t-100 -136.5t-175.5 -93t-250 -33.5 q-124 0 -219.5 27t-153 75t-86 108t-28.5 130q0 65 22.5 119t64.5 95t88.5 70.5t108.5 57.5l144 66q61 27 82.5 54.5t21.5 82.5v70z" glyph-name="questiondown" horiz-adv-x="1089" unicode="¿"/><glyph d="M750 1495h-95l-276 248h119zM115 0h-99l627 1372h125l627 -1372h-99l-202 436h-779zM629 1114l-275 -594h701l-275 594l-73 168h-9z" glyph-name="Agrave" horiz-adv-x="1413" unicode="À"/><glyph d="M756 1495h-92l251 248h119zM115 0h-99l627 1372h125l627 -1372h-99l-202 436h-779zM629 1114l-275 -594h701l-275 594l-73 168h-9z" glyph-name="Aacute" horiz-adv-x="1413" unicode="Á"/><glyph d="M494 1495h-99l267 266h90l264 -266h-96l-209 207h-11zM115 0h-99l627 1372h125l627 -1372h-99l-202 436h-779zM629 1114l-275 -594h701l-275 594l-73 168h-9z" glyph-name="Acircumflex" horiz-adv-x="1413" unicode="Â"/><glyph d="M506 1548h-68v64q0 149 127 149q40 0 71.5 -17t68.5 -48l38 -33q54 -47 101 -47q65 0 65 84v59h66v-65q0 -68 -31 -108t-90 -40q-73 0 -143 66l-41 33q-50 47 -101 47q-63 0 -63 -84v-60zM115 0h-99l627 1372h125l627 -1372h-99l-202 436h-779zM629 1114l-275 -594h701 l-275 594l-73 168h-9z" glyph-name="Atilde" horiz-adv-x="1413" unicode="Ã"/><glyph d="M903 1495h-88v231h88v-231zM598 1495h-88v231h88v-231zM115 0h-99l627 1372h125l627 -1372h-99l-202 436h-779zM629 1114l-275 -594h701l-275 594l-73 168h-9z" glyph-name="Adieresis" horiz-adv-x="1413" unicode="Ä"/><glyph d="M115 0h-99l611 1337q-62 19 -96.5 66t-34.5 113q0 86 58 138t153 52q94 0 152.5 -52t58.5 -138q0 -65 -36 -112.5t-98 -68.5l611 -1335h-99l-202 436h-779zM707 1389q143 0 143 127q0 126 -143 126q-146 0 -146 -126q0 -127 146 -127zM629 1114l-275 -594h701l-275 594 l-73 168h-9z" glyph-name="Aring" horiz-adv-x="1413" unicode="Å"/><glyph d="M109 0h-111l1073 1372h1028v-84h-913v-557h882v-82h-882v-565h913v-84h-1003v436h-643zM1090 1245l-572 -725h578v725h-6z" glyph-name="AE" horiz-adv-x="2187" unicode="Æ"/><glyph d="M807 -399h-148v67h148q39 0 61.5 14.5t22.5 53.5q0 40 -22 53.5t-62 13.5h-123v179q-132 11 -244 66t-192 145.5t-125 217t-45 275.5q0 158 50.5 290.5t139 224t212.5 142t268 50.5q165 0 299.5 -60t214 -173t79.5 -259v-22h-96v22q0 190 -131 297t-366 107 q-269 0 -422.5 -162.5t-153.5 -456.5t153.5 -455t422.5 -161q236 0 366.5 106t130.5 297v21h96v-21q0 -147 -79 -260.5t-212 -173t-296 -59.5v-107h53q73 0 115.5 -36.5t42.5 -98.5q0 -64 -42 -100.5t-116 -36.5z" glyph-name="Ccedilla" horiz-adv-x="1421" unicode="Ç"/><glyph d="M680 1495h-94l-277 248h119zM1139 0h-1004v1372h1004v-84h-912v-557h881v-82h-881v-565h912v-84z" glyph-name="Egrave" horiz-adv-x="1226" unicode="È"/><glyph d="M686 1495h-92l252 248h119zM1139 0h-1004v1372h1004v-84h-912v-557h881v-82h-881v-565h912v-84z" glyph-name="Eacute" horiz-adv-x="1226" unicode="É"/><glyph d="M422 1495h-96l266 266h90l264 -266h-96l-209 207h-10zM1139 0h-1004v1372h1004v-84h-912v-557h881v-82h-881v-565h912v-84z" glyph-name="Ecircumflex" horiz-adv-x="1226" unicode="Ê"/><glyph d="M834 1495h-91v231h91v-231zM528 1495h-88v231h88v-231zM1139 0h-1004v1372h1004v-84h-912v-557h881v-82h-881v-565h912v-84z" glyph-name="Edieresis" horiz-adv-x="1226" unicode="Ë"/><glyph d="M225 1495h-94l-278 248h120zM227 0h-92v1372h92v-1372z" glyph-name="Igrave" unicode="Ì"/><glyph d="M231 1495h-92l250 248h121zM227 0h-92v1372h92v-1372z" glyph-name="Iacute" unicode="Í"/><glyph d="M-33 1495h-96l264 266h92l265 -266h-97l-209 207h-10zM227 0h-92v1372h92v-1372z" glyph-name="Icircumflex" unicode="Î"/><glyph d="M377 1495h-88v231h88v-231zM74 1495h-88v231h88v-231zM227 0h-92v1372h92v-1372z" glyph-name="Idieresis" unicode="Ï"/><glyph d="M797 0h-572v645h-205v82h205v645h572q304 0 481.5 -186t177.5 -500t-177.5 -500t-481.5 -186zM823 645h-506v-561h480q279 0 422 154.5t143 447.5t-143 447.5t-422 154.5h-480v-561h506v-82z" glyph-name="Eth" horiz-adv-x="1533" unicode="Ð"/><glyph d="M514 1548h-68v64q0 149 127 149q40 0 71 -16.5t71 -48.5l37 -33q54 -47 100 -47q66 0 66 84v59h65v-65q0 -68 -31 -108t-90 -40q-70 0 -143 66l-41 33q-50 47 -100 47q-64 0 -64 -84v-60zM227 0h-92v1372h103l796 -1028l160 -209h8l-2 207v1030h90v-1372h-100l-787 1014 l-170 221h-8l2 -221v-1014z" glyph-name="Ntilde" horiz-adv-x="1427" unicode="Ñ"/><glyph d="M799 1495h-92l-279 248h119zM756 -20q-195 0 -348.5 86.5t-241.5 248t-88 371.5q0 158 51 290.5t141 224t215 142t271 50.5t271.5 -50.5t215 -142t140.5 -224t51 -290.5t-51 -290.5t-140.5 -223.5t-215 -141.5t-271.5 -50.5zM756 70q274 0 428.5 161t154.5 455 t-155 456.5t-428 162.5t-428.5 -162.5t-155.5 -456.5t155 -455t429 -161z" glyph-name="Ograve" horiz-adv-x="1513" unicode="Ò"/><glyph d="M807 1495h-94l252 248h118zM756 -20q-195 0 -348.5 86.5t-241.5 248t-88 371.5q0 158 51 290.5t141 224t215 142t271 50.5t271.5 -50.5t215 -142t140.5 -224t51 -290.5t-51 -290.5t-140.5 -223.5t-215 -141.5t-271.5 -50.5zM756 70q274 0 428.5 161t154.5 455t-155 456.5 t-428 162.5t-428.5 -162.5t-155.5 -456.5t155 -455t429 -161z" glyph-name="Oacute" horiz-adv-x="1513" unicode="Ó"/><glyph d="M543 1495h-97l265 266h90l266 -266h-98l-207 207h-10zM756 -20q-195 0 -348.5 86.5t-241.5 248t-88 371.5q0 158 51 290.5t141 224t215 142t271 50.5t271.5 -50.5t215 -142t140.5 -224t51 -290.5t-51 -290.5t-140.5 -223.5t-215 -141.5t-271.5 -50.5zM756 70 q274 0 428.5 161t154.5 455t-155 456.5t-428 162.5t-428.5 -162.5t-155.5 -456.5t155 -455t429 -161z" glyph-name="Ocircumflex" horiz-adv-x="1513" unicode="Ô"/><glyph d="M555 1548h-66v64q0 69 30.5 109t94.5 40q40 0 71 -16.5t71 -48.5l39 -33q54 -47 100 -47q66 0 66 84v59h65v-65q0 -68 -32 -108t-91 -40q-70 0 -143 66l-41 33q-50 47 -98 47q-32 0 -49 -18.5t-17 -65.5v-60zM756 -20q-195 0 -348.5 86.5t-241.5 248t-88 371.5 q0 158 51 290.5t141 224t215 142t271 50.5t271.5 -50.5t215 -142t140.5 -224t51 -290.5t-51 -290.5t-140.5 -223.5t-215 -141.5t-271.5 -50.5zM756 70q274 0 428.5 161t154.5 455t-155 456.5t-428 162.5t-428.5 -162.5t-155.5 -456.5t155 -455t429 -161z" glyph-name="Otilde" horiz-adv-x="1513" unicode="Õ"/><glyph d="M952 1495h-88v231h88v-231zM649 1495h-90v231h90v-231zM756 -20q-195 0 -348.5 86.5t-241.5 248t-88 371.5q0 158 51 290.5t141 224t215 142t271 50.5t271.5 -50.5t215 -142t140.5 -224t51 -290.5t-51 -290.5t-140.5 -223.5t-215 -141.5t-271.5 -50.5zM756 70 q274 0 428.5 161t154.5 455t-155 456.5t-428 162.5t-428.5 -162.5t-155.5 -456.5t155 -455t429 -161z" glyph-name="Odieresis" horiz-adv-x="1513" unicode="Ö"/><glyph d="M762 434l-60 -61l-256 254l-251 -252l-58 57l252 252l-254 254l62 61l254 -254l251 252l58 -57l-252 -252z" glyph-name="multiply" horiz-adv-x="897" unicode="×"/><glyph d="M756 -20q-266 0 -447 155l-153 -174l-58 51l156 176q-176 195 -176 498q0 158 51 290.5t141 224t215 142t271 50.5q255 0 436 -148l147 166l56 -51l-148 -166q187 -197 187 -508q0 -158 -51 -290.5t-140.5 -223.5t-215 -141.5t-271.5 -50.5zM172 686q0 -274 137 -436 l830 936q-150 119 -383 119q-273 0 -428.5 -162.5t-155.5 -456.5zM756 70q274 0 428.5 161t154.5 455q0 287 -145 447l-829 -936q148 -127 391 -127z" glyph-name="Oslash" horiz-adv-x="1513" unicode="Ø"/><glyph d="M768 1495h-92l-279 248h119zM725 -20q-273 0 -436.5 152.5t-163.5 432.5v807h92v-805q0 -253 128 -375t380 -122q254 0 382 122t128 375v805h90v-807q0 -280 -162.5 -432.5t-437.5 -152.5z" glyph-name="Ugrave" horiz-adv-x="1452" unicode="Ù"/><glyph d="M776 1495h-94l252 248h119zM725 -20q-273 0 -436.5 152.5t-163.5 432.5v807h92v-805q0 -253 128 -375t380 -122q254 0 382 122t128 375v805h90v-807q0 -280 -162.5 -432.5t-437.5 -152.5z" glyph-name="Uacute" horiz-adv-x="1452" unicode="Ú"/><glyph d="M512 1495h-96l264 266h90l266 -266h-96l-209 207h-10zM725 -20q-273 0 -436.5 152.5t-163.5 432.5v807h92v-805q0 -253 128 -375t380 -122q254 0 382 122t128 375v805h90v-807q0 -280 -162.5 -432.5t-437.5 -152.5z" glyph-name="Ucircumflex" horiz-adv-x="1452" unicode="Û"/><glyph d="M922 1495h-88v231h88v-231zM618 1495h-90v231h90v-231zM725 -20q-273 0 -436.5 152.5t-163.5 432.5v807h92v-805q0 -253 128 -375t380 -122q254 0 382 122t128 375v805h90v-807q0 -280 -162.5 -432.5t-437.5 -152.5z" glyph-name="Udieresis" horiz-adv-x="1452" unicode="Ü"/><glyph d="M686 1495h-94l252 248h119zM680 0h-90v498l-592 874h106l418 -612l113 -164h6l111 164l413 612h109l-594 -870v-502z" glyph-name="Yacute" horiz-adv-x="1269" unicode="Ý"/><glyph d="M227 0h-92v1372h92v-233h512q223 0 361.5 -121t138.5 -332t-138.5 -332t-361.5 -121h-512v-233zM735 1057h-508v-740h508q412 0 412 369q0 371 -412 371z" glyph-name="Thorn" horiz-adv-x="1277" unicode="Þ"/><glyph d="M193 0h-91v905q0 237 142.5 353t412.5 116q231 0 357.5 -92.5t126.5 -243.5q0 -119 -86 -202t-252 -107v-10q181 -21 279 -114.5t98 -231.5q0 -177 -125 -275t-355 -98h-254v84h248q212 0 302.5 71t90.5 226q0 149 -106 223t-305 74h-230v82h199q195 0 300.5 69 t105.5 201q0 63 -19.5 108.5t-64 80t-122.5 52t-190 17.5q-254 0 -358 -86.5t-104 -296.5v-905z" glyph-name="germandbls" horiz-adv-x="1218" unicode="ß"/><glyph d="M621 1147h-89l-278 266h115zM406 -20q-148 0 -238 66.5t-90 184.5q0 217 323 254l498 58v90q0 165 -78.5 238t-257.5 73q-370 0 -370 -289v-10h-91v10q0 157 124 264t341 107q107 0 189 -30t131 -83.5t73.5 -121t24.5 -148.5v-643h-80v285h-6q-49 -145 -180 -225 t-313 -80zM168 238q0 -183 252 -183q132 0 238 42.5t173.5 135.5t67.5 224v18l-465 -53q-140 -14 -203 -54t-63 -130z" glyph-name="agrave" horiz-adv-x="1114" unicode="à"/><glyph d="M612 1147h-88l252 266h115zM406 -20q-148 0 -238 66.5t-90 184.5q0 217 323 254l498 58v90q0 165 -78.5 238t-257.5 73q-370 0 -370 -289v-10h-91v10q0 157 124 264t341 107q107 0 189 -30t131 -83.5t73.5 -121t24.5 -148.5v-643h-80v285h-6q-49 -145 -180 -225t-313 -80 zM168 238q0 -183 252 -183q132 0 238 42.5t173.5 135.5t67.5 224v18l-465 -53q-140 -14 -203 -54t-63 -130z" glyph-name="aacute" horiz-adv-x="1114" unicode="á"/><glyph d="M356 1147h-96l264 266h90l265 -266h-97l-209 207h-8zM406 -20q-148 0 -238 66.5t-90 184.5q0 217 323 254l498 58v90q0 165 -78.5 238t-257.5 73q-370 0 -370 -289v-10h-91v10q0 157 124 264t341 107q107 0 189 -30t131 -83.5t73.5 -121t24.5 -148.5v-643h-80v285h-6 q-49 -145 -180 -225t-313 -80zM168 238q0 -183 252 -183q132 0 238 42.5t173.5 135.5t67.5 224v18l-465 -53q-140 -14 -203 -54t-63 -130z" glyph-name="acircumflex" horiz-adv-x="1114" unicode="â"/><glyph d="M367 1200h-66v68q0 67 31 106t96 39q28 0 55 -11t41.5 -21.5t42.5 -32.5l37 -33q54 -47 101 -47q65 0 65 84v59h66v-65q0 -68 -31 -108t-90 -40q-71 0 -144 66l-41 32q-28 24 -49 35.5t-49 11.5q-65 0 -65 -79v-64zM406 -20q-148 0 -238 66.5t-90 184.5q0 217 323 254 l498 58v90q0 165 -78.5 238t-257.5 73q-370 0 -370 -289v-10h-91v10q0 157 124 264t341 107q107 0 189 -30t131 -83.5t73.5 -121t24.5 -148.5v-643h-80v285h-6q-49 -145 -180 -225t-313 -80zM168 238q0 -183 252 -183q132 0 238 42.5t173.5 135.5t67.5 224v18l-465 -53 q-140 -14 -203 -54t-63 -130z" glyph-name="atilde" horiz-adv-x="1114" unicode="ã"/><glyph d="M766 1147h-88v231h88v-231zM461 1147h-88v231h88v-231zM406 -20q-148 0 -238 66.5t-90 184.5q0 217 323 254l498 58v90q0 165 -78.5 238t-257.5 73q-370 0 -370 -289v-10h-91v10q0 157 124 264t341 107q107 0 189 -30t131 -83.5t73.5 -121t24.5 -148.5v-643h-80v285h-6 q-49 -145 -180 -225t-313 -80zM168 238q0 -183 252 -183q132 0 238 42.5t173.5 135.5t67.5 224v18l-465 -53q-140 -14 -203 -54t-63 -130z" glyph-name="adieresis" horiz-adv-x="1114" unicode="ä"/><glyph d="M569 1114q-90 0 -145 49.5t-55 130.5q0 82 55 131.5t145 49.5t145.5 -50t55.5 -131t-55.5 -130.5t-145.5 -49.5zM569 1169q140 0 140 125t-140 125q-139 0 -139 -125t139 -125zM406 -20q-148 0 -238 66.5t-90 184.5q0 217 323 254l498 58v90q0 165 -78.5 238t-257.5 73 q-370 0 -370 -289v-10h-91v10q0 157 124 264t341 107q107 0 189 -30t131 -83.5t73.5 -121t24.5 -148.5v-643h-80v285h-6q-49 -145 -180 -225t-313 -80zM168 238q0 -183 252 -183q132 0 238 42.5t173.5 135.5t67.5 224v18l-465 -53q-140 -14 -203 -54t-63 -130z" glyph-name="aring" horiz-adv-x="1114" unicode="å"/><glyph d="M416 -20q-155 0 -251.5 67.5t-96.5 185.5q0 217 325 254l516 56v90q0 165 -81 238t-269 73q-377 0 -377 -289v-12h-90v12q0 75 31 142t88.5 118t148 81t201.5 30q172 0 274.5 -67t139.5 -183q63 117 179.5 183.5t272.5 66.5q218 0 354 -123.5t136 -339.5q0 -54 -10 -92 h-910q6 -195 112.5 -303.5t317.5 -108.5q190 0 287.5 70.5t97.5 198.5v12h91v-12q0 -153 -135.5 -250.5t-337.5 -97.5q-186 0 -315 90t-179 247h-6q-34 -112 -115 -190t-182 -112.5t-217 -34.5zM1427 948q-212 0 -318 -108t-112 -303h834q2 16 2 47q0 175 -107 269.5 t-299 94.5zM160 240q0 -185 270 -185q96 0 178 24t149 72t107.5 128t46.5 184q-2 4 -2 12l-485 -53q-135 -13 -199.5 -53t-64.5 -129z" glyph-name="ae" horiz-adv-x="1974" unicode="æ"/><glyph d="M598 -20q-232 0 -376 148t-144 376q0 227 144 374.5t376 147.5q133 0 244 -50t177 -142t66 -207v-13h-90v11q0 149 -104 234t-293 85q-219 0 -324.5 -115.5t-105.5 -324.5t105.5 -325t324.5 -116q189 0 293 84.5t104 233.5v12h90v-12q0 -158 -119 -268t-300 -129v-111h55 q73 0 115.5 -36.5t42.5 -98.5q0 -64 -42 -100.5t-116 -36.5h-148v67h148q39 0 61.5 14.5t22.5 53.5q0 40 -22 53.5t-62 13.5h-123v177z" glyph-name="ccedilla" horiz-adv-x="1165" unicode="ç"/><glyph d="M633 1147h-86l-281 266h115zM598 -20q-238 0 -379 146t-141 378q0 229 141 375.5t379 146.5q216 0 351.5 -123.5t135.5 -339.5q0 -54 -10 -92h-909q6 -195 112.5 -303.5t317.5 -108.5q190 0 287.5 70.5t97.5 198.5v12h90v-12q0 -153 -135.5 -250.5t-337.5 -97.5zM596 948 q-212 0 -318 -108t-112 -303h833q2 16 2 47q0 176 -106.5 270t-298.5 94z" glyph-name="egrave" horiz-adv-x="1163" unicode="è"/><glyph d="M625 1147h-88l251 266h117zM598 -20q-238 0 -379 146t-141 378q0 229 141 375.5t379 146.5q216 0 351.5 -123.5t135.5 -339.5q0 -54 -10 -92h-909q6 -195 112.5 -303.5t317.5 -108.5q190 0 287.5 70.5t97.5 198.5v12h90v-12q0 -153 -135.5 -250.5t-337.5 -97.5zM596 948 q-212 0 -318 -108t-112 -303h833q2 16 2 47q0 176 -106.5 270t-298.5 94z" glyph-name="eacute" horiz-adv-x="1163" unicode="é"/><glyph d="M369 1147h-97l265 266h90l266 -266h-98l-207 207h-10zM598 -20q-238 0 -379 146t-141 378q0 229 141 375.5t379 146.5q216 0 351.5 -123.5t135.5 -339.5q0 -54 -10 -92h-909q6 -195 112.5 -303.5t317.5 -108.5q190 0 287.5 70.5t97.5 198.5v12h90v-12 q0 -153 -135.5 -250.5t-337.5 -97.5zM596 948q-212 0 -318 -108t-112 -303h833q2 16 2 47q0 176 -106.5 270t-298.5 94z" glyph-name="ecircumflex" horiz-adv-x="1163" unicode="ê"/><glyph d="M778 1147h-88v231h88v-231zM475 1147h-90v231h90v-231zM598 -20q-238 0 -379 146t-141 378q0 229 141 375.5t379 146.5q216 0 351.5 -123.5t135.5 -339.5q0 -54 -10 -92h-909q6 -195 112.5 -303.5t317.5 -108.5q190 0 287.5 70.5t97.5 198.5v12h90v-12 q0 -153 -135.5 -250.5t-337.5 -97.5zM596 948q-212 0 -318 -108t-112 -303h833q2 16 2 47q0 176 -106.5 270t-298.5 94z" glyph-name="edieresis" horiz-adv-x="1163" unicode="ë"/><glyph d="M217 1147h-88l-279 266h115zM211 0h-90v1024h90v-1024z" glyph-name="igrave" horiz-adv-x="331" unicode="ì"/><glyph d="M209 1147h-88l252 266h114zM211 0h-90v1024h90v-1024z" glyph-name="iacute" horiz-adv-x="331" unicode="í"/><glyph d="M-47 1147h-98l266 266h90l264 -266h-96l-209 207h-10zM211 0h-90v1024h90v-1024z" glyph-name="icircumflex" horiz-adv-x="331" unicode="î"/><glyph d="M362 1147h-88v231h88v-231zM57 1147h-88v231h88v-231zM211 0h-90v1024h90v-1024z" glyph-name="idieresis" horiz-adv-x="331" unicode="ï"/><glyph d="M539 -20q-259 0 -406 116t-147 314q0 192 144.5 306.5t395.5 114.5q205 0 334 -80t170 -216h12q-3 305 -303 581l-428 -112l-16 63l385 100q-133 110 -301 205h123q150 -78 272 -180l365 96l16 -63l-321 -84q296 -274 296 -596q0 -127 -33.5 -228t-102.5 -177.5 t-184.5 -118t-270.5 -41.5zM541 66q230 0 348.5 89.5t118.5 264.5q0 156 -125 244t-342 88q-228 0 -346.5 -86.5t-118.5 -251.5q0 -348 465 -348z" glyph-name="eth" horiz-adv-x="1198" unicode="ð"/><glyph d="M410 1200h-66v68q0 66 32 105.5t95 39.5q28 0 55 -11t41.5 -21.5t42.5 -32.5l39 -33q54 -47 101 -47q65 0 65 84v59h66v-65q0 -68 -32 -108t-91 -40q-71 0 -144 66l-39 32q-20 17 -32 25t-30 15t-36 7q-67 0 -67 -79v-64zM227 0h-92v1006h80v-318h8q30 140 145 239 t289 99q104 0 187.5 -36t135.5 -99t79.5 -144t27.5 -174v-573h-92v580q0 174 -88 269t-268 95q-197 0 -304.5 -122.5t-107.5 -340.5v-481z" glyph-name="ntilde" horiz-adv-x="1216" unicode="ñ"/><glyph d="M668 1147h-88l-279 266h115zM616 -20q-160 0 -283 68t-189 187t-66 269q0 227 148.5 374.5t389.5 147.5q240 0 389.5 -147.5t149.5 -374.5q0 -228 -149.5 -376t-389.5 -148zM616 61q222 0 335.5 118t113.5 325q0 205 -113.5 322.5t-335.5 117.5q-221 0 -334.5 -117.5 t-113.5 -322.5q0 -207 113 -325t335 -118z" glyph-name="ograve" horiz-adv-x="1232" unicode="ò"/><glyph d="M659 1147h-88l252 266h115zM616 -20q-160 0 -283 68t-189 187t-66 269q0 227 148.5 374.5t389.5 147.5q240 0 389.5 -147.5t149.5 -374.5q0 -228 -149.5 -376t-389.5 -148zM616 61q222 0 335.5 118t113.5 325q0 205 -113.5 322.5t-335.5 117.5q-221 0 -334.5 -117.5 t-113.5 -322.5q0 -207 113 -325t335 -118z" glyph-name="oacute" horiz-adv-x="1232" unicode="ó"/><glyph d="M403 1147h-98l266 266h91l264 -266h-97l-208 207h-11zM616 -20q-160 0 -283 68t-189 187t-66 269q0 227 148.5 374.5t389.5 147.5q240 0 389.5 -147.5t149.5 -374.5q0 -228 -149.5 -376t-389.5 -148zM616 61q222 0 335.5 118t113.5 325q0 205 -113.5 322.5t-335.5 117.5 q-221 0 -334.5 -117.5t-113.5 -322.5q0 -207 113 -325t335 -118z" glyph-name="ocircumflex" horiz-adv-x="1232" unicode="ô"/><glyph d="M414 1200h-68v68q0 66 32 105.5t97 39.5q28 0 55 -11t41.5 -21.5t42.5 -32.5l37 -33q54 -47 101 -47q65 0 65 84v59h66v-65q0 -68 -31 -108t-90 -40q-71 0 -144 66l-40 32q-54 47 -99 47q-65 0 -65 -79v-64zM616 -20q-160 0 -283 68t-189 187t-66 269q0 227 148.5 374.5 t389.5 147.5q240 0 389.5 -147.5t149.5 -374.5q0 -228 -149.5 -376t-389.5 -148zM616 61q222 0 335.5 118t113.5 325q0 205 -113.5 322.5t-335.5 117.5q-221 0 -334.5 -117.5t-113.5 -322.5q0 -207 113 -325t335 -118z" glyph-name="otilde" horiz-adv-x="1232" unicode="õ"/><glyph d="M813 1147h-90v231h90v-231zM508 1147h-88v231h88v-231zM616 -20q-160 0 -283 68t-189 187t-66 269q0 227 148.5 374.5t389.5 147.5q240 0 389.5 -147.5t149.5 -374.5q0 -228 -149.5 -376t-389.5 -148zM616 61q222 0 335.5 118t113.5 325q0 205 -113.5 322.5t-335.5 117.5 q-221 0 -334.5 -117.5t-113.5 -322.5q0 -207 113 -325t335 -118z" glyph-name="odieresis" horiz-adv-x="1232" unicode="ö"/><glyph d="M528 913h-98v254h98v-254zM858 645h-758v82h758v-82zM528 205h-98v254h98v-254z" glyph-name="divide" horiz-adv-x="956" unicode="÷"/><glyph d="M616 -20q-210 0 -352 114l-117 -127l-49 47l117 125q-137 143 -137 365q0 227 148.5 374.5t389.5 147.5q191 0 332 -98l101 108l51 -47l-99 -106q154 -145 154 -379q0 -228 -149.5 -376t-389.5 -148zM168 504q0 -193 98 -309l629 677q-107 72 -279 72 q-221 0 -334.5 -117.5t-113.5 -322.5zM616 61q222 0 335.5 118t113.5 325q0 211 -115 323l-635 -680q116 -86 301 -86z" glyph-name="oslash" horiz-adv-x="1232" unicode="ø"/><glyph d="M657 1147h-86l-280 266h115zM559 -20q-104 0 -187 36t-135 98.5t-79 143.5t-27 174v574h90v-580q0 -174 89 -268.5t270 -94.5q197 0 305 122t108 341v480h90v-1006h-79v317h-7q-32 -140 -147.5 -238.5t-290.5 -98.5z" glyph-name="ugrave" horiz-adv-x="1218" unicode="ù"/><glyph d="M649 1147h-88l252 266h117zM559 -20q-104 0 -187 36t-135 98.5t-79 143.5t-27 174v574h90v-580q0 -174 89 -268.5t270 -94.5q197 0 305 122t108 341v480h90v-1006h-79v317h-7q-32 -140 -147.5 -238.5t-290.5 -98.5z" glyph-name="uacute" horiz-adv-x="1218" unicode="ú"/><glyph d="M393 1147h-96l264 266h90l267 -266h-99l-207 207h-10zM559 -20q-104 0 -187 36t-135 98.5t-79 143.5t-27 174v574h90v-580q0 -174 89 -268.5t270 -94.5q197 0 305 122t108 341v480h90v-1006h-79v317h-7q-32 -140 -147.5 -238.5t-290.5 -98.5z" glyph-name="ucircumflex" horiz-adv-x="1218" unicode="û"/><glyph d="M803 1147h-88v231h88v-231zM498 1147h-88v231h88v-231zM559 -20q-104 0 -187 36t-135 98.5t-79 143.5t-27 174v574h90v-580q0 -174 89 -268.5t270 -94.5q197 0 305 122t108 341v480h90v-1006h-79v317h-7q-32 -140 -147.5 -238.5t-290.5 -98.5z" glyph-name="udieresis" horiz-adv-x="1218" unicode="ü"/><glyph d="M596 1147h-88l252 266h117zM250 -348h-115v84h121q81 0 121.5 27.5t75.5 99.5l65 141l-502 1002h99l323 -646l121 -249h8l119 249l309 646h97l-562 -1170q-47 -100 -112 -142t-168 -42z" glyph-name="yacute" horiz-adv-x="1118" unicode="ý"/><glyph d="M209 -348h-92v1720h92v-661q39 147 161 231t289 84q233 0 363.5 -145.5t130.5 -376.5q0 -233 -130.5 -378.5t-363.5 -145.5q-167 0 -290 86t-160 229v-643zM209 483q0 -193 120 -306.5t316 -113.5q418 0 418 441q0 438 -418 438q-196 0 -316 -113t-120 -307v-39z" glyph-name="thorn" horiz-adv-x="1214" unicode="þ"/><glyph d="M750 1147h-88v231h88v-231zM446 1147h-90v231h90v-231zM250 -348h-115v84h121q81 0 121.5 27.5t75.5 99.5l65 141l-502 1002h99l323 -646l121 -249h8l119 249l309 646h97l-562 -1170q-47 -100 -112 -142t-168 -42z" glyph-name="ydieresis" horiz-adv-x="1118" unicode="ÿ"/><glyph d="M963 1595h-512v68h512v-68zM115 0h-99l627 1372h125l627 -1372h-99l-202 436h-779zM629 1114l-275 -594h701l-275 594l-73 168h-9z" glyph-name="Amacron" horiz-adv-x="1413" unicode="Ā"/><glyph d="M825 1247h-512v68h512v-68zM406 -20q-148 0 -238 66.5t-90 184.5q0 217 323 254l498 58v90q0 165 -78.5 238t-257.5 73q-370 0 -370 -289v-10h-91v10q0 157 124 264t341 107q107 0 189 -30t131 -83.5t73.5 -121t24.5 -148.5v-643h-80v285h-6q-49 -145 -180 -225t-313 -80 zM168 238q0 -183 252 -183q132 0 238 42.5t173.5 135.5t67.5 224v18l-465 -53q-140 -14 -203 -54t-63 -130z" glyph-name="amacron" horiz-adv-x="1114" unicode="ā"/><glyph d="M707 1475q-110 0 -178 57.5t-68 157.5v18h76v-20q0 -72 40.5 -108t129.5 -36q91 0 130.5 35.5t39.5 108.5v20h73v-18q0 -100 -66.5 -157.5t-176.5 -57.5zM115 0h-99l627 1372h125l627 -1372h-99l-202 436h-779zM629 1114l-275 -594h701l-275 594l-73 168h-9z" glyph-name="Abreve" horiz-adv-x="1413" unicode="Ă"/><glyph d="M569 1126q-110 0 -177.5 57.5t-67.5 157.5v54h75v-56q0 -72 40.5 -108.5t129.5 -36.5q91 0 130.5 36t39.5 109v56h76v-54q0 -100 -68 -157.5t-178 -57.5zM406 -20q-148 0 -238 66.5t-90 184.5q0 217 323 254l498 58v90q0 165 -78.5 238t-257.5 73q-370 0 -370 -289v-10 h-91v10q0 157 124 264t341 107q107 0 189 -30t131 -83.5t73.5 -121t24.5 -148.5v-643h-80v285h-6q-49 -145 -180 -225t-313 -80zM168 238q0 -183 252 -183q132 0 238 42.5t173.5 135.5t67.5 224v18l-465 -53q-140 -14 -203 -54t-63 -130z" glyph-name="abreve" horiz-adv-x="1114" unicode="ă"/><glyph d="M115 0h-99l627 1372h125l627 -1372l-84 -109q-32 -41 -46 -67t-14 -53q0 -38 27 -61t84 -23h129v-70h-135q-88 0 -136.5 35.5t-48.5 101.5q0 34 16 68t28 48t45 50l69 80h-33l-202 436h-779zM629 1114l-275 -594h701l-275 594l-73 168h-9z" glyph-name="Aogonek" horiz-adv-x="1413" unicode="Ą"/><glyph d="M406 -20q-148 0 -238 66.5t-90 184.5q0 217 323 254l498 58v90q0 165 -78.5 238t-257.5 73q-370 0 -370 -289v-10h-91v10q0 157 124 264t341 107q107 0 189 -30t131 -83.5t73.5 -121t24.5 -148.5v-643l-86 -109q-32 -42 -45.5 -67.5t-13.5 -52.5q0 -38 26.5 -61t83.5 -23 h129v-70h-133q-88 0 -137 35.5t-49 101.5q0 14 2.5 27t5 23t9.5 23t11 20t14.5 20t14.5 17.5t16 18.5t15 17l70 80h-13v285h-6q-49 -145 -180 -225t-313 -80zM168 238q0 -183 252 -183q132 0 238 42.5t173.5 135.5t67.5 224v18l-465 -53q-140 -14 -203 -54t-63 -130z" glyph-name="aogonek" horiz-adv-x="1114" unicode="ą"/><glyph d="M760 1495h-92l252 248h118zM748 -20q-144 0 -267.5 50.5t-212.5 141.5t-139.5 223.5t-50.5 290.5t50.5 290.5t139 224t212.5 142t268 50.5q165 0 299.5 -60t214 -173t79.5 -259v-22h-96v22q0 190 -131 297t-366 107q-269 0 -422.5 -162.5t-153.5 -456.5t153.5 -455 t422.5 -161q236 0 366.5 106t130.5 297v21h96v-21q0 -147 -79 -260.5t-213.5 -173t-300.5 -59.5z" glyph-name="Cacute" horiz-adv-x="1421" unicode="Ć"/><glyph d="M666 1147h-88l253 266h115zM598 -20q-232 0 -376 148t-144 376q0 227 144 374.5t376 147.5q133 0 244 -50t177 -142t66 -207v-13h-90v11q0 149 -104 234t-293 85q-219 0 -324.5 -115.5t-105.5 -324.5t105.5 -325t324.5 -116q189 0 293 84.5t104 233.5v12h90v-12 q0 -115 -66 -207.5t-177.5 -143t-243.5 -50.5z" glyph-name="cacute" horiz-adv-x="1165" unicode="ć"/><glyph d="M498 1495h-99l267 266h90l264 -266h-96l-209 207h-10zM748 -20q-144 0 -267.5 50.5t-212.5 141.5t-139.5 223.5t-50.5 290.5t50.5 290.5t139 224t212.5 142t268 50.5q165 0 299.5 -60t214 -173t79.5 -259v-22h-96v22q0 190 -131 297t-366 107q-269 0 -422.5 -162.5 t-153.5 -456.5t153.5 -455t422.5 -161q236 0 366.5 106t130.5 297v21h96v-21q0 -147 -79 -260.5t-213.5 -173t-300.5 -59.5z" glyph-name="Ccircumflex" horiz-adv-x="1421" unicode="Ĉ"/><glyph d="M410 1147h-97l265 266h90l266 -266h-96l-209 207h-11zM598 -20q-232 0 -376 148t-144 376q0 227 144 374.5t376 147.5q133 0 244 -50t177 -142t66 -207v-13h-90v11q0 149 -104 234t-293 85q-219 0 -324.5 -115.5t-105.5 -324.5t105.5 -325t324.5 -116q189 0 293 84.5 t104 233.5v12h90v-12q0 -115 -66 -207.5t-177.5 -143t-243.5 -50.5z" glyph-name="ccircumflex" horiz-adv-x="1165" unicode="ĉ"/><glyph d="M756 1495h-90v231h90v-231zM748 -20q-144 0 -267.5 50.5t-212.5 141.5t-139.5 223.5t-50.5 290.5t50.5 290.5t139 224t212.5 142t268 50.5q165 0 299.5 -60t214 -173t79.5 -259v-22h-96v22q0 190 -131 297t-366 107q-269 0 -422.5 -162.5t-153.5 -456.5t153.5 -455 t422.5 -161q236 0 366.5 106t130.5 297v21h96v-21q0 -147 -79 -260.5t-213.5 -173t-300.5 -59.5z" glyph-name="Cdotaccent" horiz-adv-x="1421" unicode="Ċ"/><glyph d="M668 1147h-90v231h90v-231zM598 -20q-232 0 -376 148t-144 376q0 227 144 374.5t376 147.5q133 0 244 -50t177 -142t66 -207v-13h-90v11q0 149 -104 234t-293 85q-219 0 -324.5 -115.5t-105.5 -324.5t105.5 -325t324.5 -116q189 0 293 84.5t104 233.5v12h90v-12 q0 -115 -66 -207.5t-177.5 -143t-243.5 -50.5z" glyph-name="cdotaccent" horiz-adv-x="1165" unicode="ċ"/><glyph d="M924 1761h96l-264 -266h-90l-267 266h99l207 -207h10zM748 -20q-144 0 -267.5 50.5t-212.5 141.5t-139.5 223.5t-50.5 290.5t50.5 290.5t139 224t212.5 142t268 50.5q165 0 299.5 -60t214 -173t79.5 -259v-22h-96v22q0 190 -131 297t-366 107q-269 0 -422.5 -162.5 t-153.5 -456.5t153.5 -455t422.5 -161q236 0 366.5 106t130.5 297v21h96v-21q0 -147 -79 -260.5t-213.5 -173t-300.5 -59.5z" glyph-name="Ccaron" horiz-adv-x="1421" unicode="Č"/><glyph d="M668 1147h-90l-265 266h99l206 -207h11l207 207h98zM598 -20q-232 0 -376 148t-144 376q0 227 144 374.5t376 147.5q133 0 244 -50t177 -142t66 -207v-13h-90v11q0 149 -104 234t-293 85q-219 0 -324.5 -115.5t-105.5 -324.5t105.5 -325t324.5 -116q189 0 293 84.5 t104 233.5v12h90v-12q0 -115 -66 -207.5t-177.5 -143t-243.5 -50.5z" glyph-name="ccaron" horiz-adv-x="1165" unicode="č"/><glyph d="M967 1761h96l-266 -266h-90l-265 266h97l209 -207h10zM709 0h-572v1372h572q304 0 481.5 -186t177.5 -500t-177.5 -500t-481.5 -186zM709 1288h-480v-1204h480q279 0 422 154.5t143 447.5t-143 447.5t-422 154.5z" glyph-name="Dcaron" horiz-adv-x="1445" unicode="Ď"/><glyph d="M565 -20q-238 0 -372 146t-134 378q0 150 58 267.5t171.5 186t266.5 68.5q173 0 289 -84.5t153 -220.5h9v651h90v-1372h-78v305h-8q-38 -151 -158.5 -238t-286.5 -87zM1217 987h-17v51h17q18 0 25 6.5t7 28.5v51h-43v248h97v-297q0 -43 -22.5 -65.5t-63.5 -22.5zM152 504 q0 -441 426 -441q192 0 310 113.5t118 306.5v21q0 204 -116 321t-317 117q-421 0 -421 -438z" glyph-name="dcaron" horiz-adv-x="1280" unicode="ď"/><glyph d="M797 0h-572v645h-205v82h205v645h572q304 0 481.5 -186t177.5 -500t-177.5 -500t-481.5 -186zM823 645h-506v-561h480q279 0 422 154.5t143 447.5t-143 447.5t-422 154.5h-480v-561h506v-82z" glyph-name="Dcroat" horiz-adv-x="1533" unicode="Đ"/><glyph d="M557 -20q-235 0 -366.5 134t-131.5 349q0 212 130.5 346.5t355.5 134.5q176 0 295.5 -83.5t156.5 -211.5h9v477h-564v78h564v168h90v-168h159v-78h-159v-1126h-78v291h-8q-36 -143 -160 -227t-293 -84zM152 463q0 -400 417 -400q196 0 316.5 102t120.5 277v21 q0 175 -120.5 286t-322.5 111q-411 0 -411 -397z" glyph-name="dcroat" horiz-adv-x="1271" unicode="đ"/><glyph d="M893 1595h-514v68h514v-68zM1139 0h-1004v1372h1004v-84h-912v-557h881v-82h-881v-565h912v-84z" glyph-name="Emacron" horiz-adv-x="1226" unicode="Ē"/><glyph d="M838 1247h-512v68h512v-68zM598 -20q-238 0 -379 146t-141 378q0 229 141 375.5t379 146.5q216 0 351.5 -123.5t135.5 -339.5q0 -54 -10 -92h-909q6 -195 112.5 -303.5t317.5 -108.5q190 0 287.5 70.5t97.5 198.5v12h90v-12q0 -153 -135.5 -250.5t-337.5 -97.5zM596 948 q-212 0 -318 -108t-112 -303h833q2 16 2 47q0 176 -106.5 270t-298.5 94z" glyph-name="emacron" horiz-adv-x="1163" unicode="ē"/><glyph d="M637 1475q-112 0 -179 57.5t-67 157.5v18h74v-20q0 -72 41.5 -108t130.5 -36q91 0 130.5 35.5t39.5 108.5v20h74v-18q0 -100 -67 -157.5t-177 -57.5zM1139 0h-1004v1372h1004v-84h-912v-557h881v-82h-881v-565h912v-84z" glyph-name="Ebreve" horiz-adv-x="1226" unicode="Ĕ"/><glyph d="M582 1126q-110 0 -177 57.5t-67 157.5v54h74v-56q0 -72 40.5 -108.5t129.5 -36.5q91 0 130.5 36t39.5 109v56h75v-54q0 -100 -67.5 -157.5t-177.5 -57.5zM598 -20q-238 0 -379 146t-141 378q0 229 141 375.5t379 146.5q216 0 351.5 -123.5t135.5 -339.5q0 -54 -10 -92 h-909q6 -195 112.5 -303.5t317.5 -108.5q190 0 287.5 70.5t97.5 198.5v12h90v-12q0 -153 -135.5 -250.5t-337.5 -97.5zM596 948q-212 0 -318 -108t-112 -303h833q2 16 2 47q0 176 -106.5 270t-298.5 94z" glyph-name="ebreve" horiz-adv-x="1163" unicode="ĕ"/><glyph d="M682 1495h-90v231h90v-231zM1139 0h-1004v1372h1004v-84h-912v-557h881v-82h-881v-565h912v-84z" glyph-name="Edotaccent" horiz-adv-x="1226" unicode="Ė"/><glyph d="M627 1147h-90v231h90v-231zM598 -20q-238 0 -379 146t-141 378q0 229 141 375.5t379 146.5q216 0 351.5 -123.5t135.5 -339.5q0 -54 -10 -92h-909q6 -195 112.5 -303.5t317.5 -108.5q190 0 287.5 70.5t97.5 198.5v12h90v-12q0 -153 -135.5 -250.5t-337.5 -97.5zM596 948 q-212 0 -318 -108t-112 -303h833q2 16 2 47q0 176 -106.5 270t-298.5 94z" glyph-name="edotaccent" horiz-adv-x="1163" unicode="ė"/><glyph d="M1108 649h-881v-565h912v-84l-86 -109q-31 -41 -44.5 -67t-13.5 -53q0 -84 109 -84h129v-70h-133q-88 0 -137.5 35.5t-49.5 101.5q0 14 2.5 27t5 23t9.5 23t11 20t14.5 20t14.5 17.5t16 18.5t15 17l70 80h-936v1372h1004v-84h-912v-557h881v-82z" glyph-name="Eogonek" horiz-adv-x="1226" unicode="Ę"/><glyph d="M598 -20q-238 0 -379 146t-141 378q0 229 141 375.5t379 146.5q216 0 351.5 -123.5t135.5 -339.5q0 -54 -10 -92h-909q6 -195 112.5 -303.5t317.5 -108.5q190 0 287.5 70.5t97.5 198.5v12h90v-12q0 -134 -105 -226t-272 -116l-73 -95q-32 -41 -46 -67t-14 -53 q0 -38 27 -61t84 -23h129v-70h-135q-88 0 -136.5 35.5t-48.5 101.5q0 34 15.5 67.5t28 48.5t44.5 50l52 60h-23zM596 948q-212 0 -318 -108t-112 -303h833q2 16 2 47q0 176 -106.5 270t-298.5 94z" glyph-name="eogonek" horiz-adv-x="1163" unicode="ę"/><glyph d="M850 1761h96l-264 -266h-90l-266 266h96l209 -207h10zM1139 0h-1004v1372h1004v-84h-912v-557h881v-82h-881v-565h912v-84z" glyph-name="Ecaron" horiz-adv-x="1226" unicode="Ě"/><glyph d="M627 1147h-90l-265 266h99l207 -207h10l207 207h98zM598 -20q-238 0 -379 146t-141 378q0 229 141 375.5t379 146.5q216 0 351.5 -123.5t135.5 -339.5q0 -54 -10 -92h-909q6 -195 112.5 -303.5t317.5 -108.5q190 0 287.5 70.5t97.5 198.5v12h90v-12q0 -153 -135.5 -250.5 t-337.5 -97.5zM596 948q-212 0 -318 -108t-112 -303h833q2 16 2 47q0 176 -106.5 270t-298.5 94z" glyph-name="ecaron" horiz-adv-x="1163" unicode="ě"/><glyph d="M537 1495h-97l265 266h90l266 -266h-98l-209 207h-9zM739 -20q-142 0 -264 50.5t-209.5 141.5t-137.5 223.5t-50 290.5t51 290.5t140 224t213 142t268 50.5q166 0 301 -60t215 -172.5t80 -257.5v-18h-97v18q0 188 -131 295t-368 107q-270 0 -424 -162.5t-154 -456.5 t153.5 -455t422.5 -161q246 0 376.5 110t130.5 326v76h-573v77h664v-659h-78v301h-8q-54 -166 -194.5 -243.5t-326.5 -77.5z" glyph-name="Gcircumflex" horiz-adv-x="1454" unicode="Ĝ"/><glyph d="M389 1147h-96l264 266h90l266 -266h-98l-209 207h-8zM565 76q-222 0 -354.5 133.5t-132.5 341.5q0 209 137 342t367 133q164 0 283 -76t151 -209h6v265h80v-928q0 -118 -36.5 -206t-104 -139.5t-155.5 -76.5t-198 -25q-128 0 -232.5 42.5t-167.5 126t-63 192.5h91 q0 -281 374 -281q216 0 309 82.5t93 282.5v274h-8q-35 -122 -152 -198t-287 -76zM170 551q0 -107 31.5 -185t89 -122.5t129.5 -65t162 -20.5q199 0 314.5 104t115.5 283v39q0 164 -115 262t-303 98q-93 0 -167.5 -20.5t-133.5 -65.5t-91 -122.5t-32 -184.5z" glyph-name="gcircumflex" horiz-adv-x="1236" unicode="ĝ"/><glyph d="M750 1475q-110 0 -178 57.5t-68 157.5v18h76v-20q0 -72 40.5 -108t129.5 -36q91 0 130.5 35.5t39.5 108.5v20h75v-18q0 -100 -67.5 -157.5t-177.5 -57.5zM739 -20q-142 0 -264 50.5t-209.5 141.5t-137.5 223.5t-50 290.5t51 290.5t140 224t213 142t268 50.5 q166 0 301 -60t215 -172.5t80 -257.5v-18h-97v18q0 188 -131 295t-368 107q-270 0 -424 -162.5t-154 -456.5t153.5 -455t422.5 -161q246 0 376.5 110t130.5 326v76h-573v77h664v-659h-78v301h-8q-54 -166 -194.5 -243.5t-326.5 -77.5z" glyph-name="Gbreve" horiz-adv-x="1454" unicode="Ğ"/><glyph d="M602 1126q-110 0 -178 57.5t-68 157.5v54h76v-56q0 -72 40.5 -108.5t129.5 -36.5q91 0 130.5 36t39.5 109v56h76v-54q0 -100 -68 -157.5t-178 -57.5zM565 76q-222 0 -354.5 133.5t-132.5 341.5q0 209 137 342t367 133q164 0 283 -76t151 -209h6v265h80v-928 q0 -118 -36.5 -206t-104 -139.5t-155.5 -76.5t-198 -25q-128 0 -232.5 42.5t-167.5 126t-63 192.5h91q0 -281 374 -281q216 0 309 82.5t93 282.5v274h-8q-35 -122 -152 -198t-287 -76zM170 551q0 -107 31.5 -185t89 -122.5t129.5 -65t162 -20.5q199 0 314.5 104t115.5 283 v39q0 164 -115 262t-303 98q-93 0 -167.5 -20.5t-133.5 -65.5t-91 -122.5t-32 -184.5z" glyph-name="gbreve" horiz-adv-x="1236" unicode="ğ"/><glyph d="M795 1495h-90v231h90v-231zM739 -20q-142 0 -264 50.5t-209.5 141.5t-137.5 223.5t-50 290.5t51 290.5t140 224t213 142t268 50.5q166 0 301 -60t215 -172.5t80 -257.5v-18h-97v18q0 188 -131 295t-368 107q-270 0 -424 -162.5t-154 -456.5t153.5 -455t422.5 -161 q246 0 376.5 110t130.5 326v76h-573v77h664v-659h-78v301h-8q-54 -166 -194.5 -243.5t-326.5 -77.5z" glyph-name="Gdotaccent" horiz-adv-x="1454" unicode="Ġ"/><glyph d="M647 1147h-90v231h90v-231zM565 76q-222 0 -354.5 133.5t-132.5 341.5q0 209 137 342t367 133q164 0 283 -76t151 -209h6v265h80v-928q0 -118 -36.5 -206t-104 -139.5t-155.5 -76.5t-198 -25q-128 0 -232.5 42.5t-167.5 126t-63 192.5h91q0 -281 374 -281q216 0 309 82.5 t93 282.5v274h-8q-35 -122 -152 -198t-287 -76zM170 551q0 -107 31.5 -185t89 -122.5t129.5 -65t162 -20.5q199 0 314.5 104t115.5 283v39q0 164 -115 262t-303 98q-93 0 -167.5 -20.5t-133.5 -65.5t-91 -122.5t-32 -184.5z" glyph-name="gdotaccent" horiz-adv-x="1236" unicode="ġ"/><glyph d="M739 -20q-142 0 -264 50.5t-209.5 141.5t-137.5 223.5t-50 290.5t51 290.5t140 224t213 142t268 50.5q166 0 301 -60t215 -172.5t80 -257.5v-18h-97v18q0 188 -131 295t-368 107q-270 0 -424 -162.5t-154 -456.5t153.5 -455t422.5 -161q246 0 376.5 110t130.5 326v76 h-573v77h664v-659h-78v301h-8q-54 -166 -194.5 -243.5t-326.5 -77.5zM563 -410h-82l170 267h105z" glyph-name="Gcommaaccent" horiz-adv-x="1454" unicode="Ģ"/><glyph d="M668 1413h75l-165 -266h-103zM565 76q-222 0 -354.5 133.5t-132.5 341.5q0 209 137 342t367 133q164 0 283 -76t151 -209h6v265h80v-928q0 -118 -36.5 -206t-104 -139.5t-155.5 -76.5t-198 -25q-128 0 -232.5 42.5t-167.5 126t-63 192.5h91q0 -281 374 -281 q216 0 309 82.5t93 282.5v274h-8q-35 -122 -152 -198t-287 -76zM170 551q0 -107 31.5 -185t89 -122.5t129.5 -65t162 -20.5q199 0 314.5 104t115.5 283v39q0 164 -115 262t-303 98q-93 0 -167.5 -20.5t-133.5 -65.5t-91 -122.5t-32 -184.5z" glyph-name="gcommaaccent" horiz-adv-x="1236" unicode="ģ"/><glyph d="M483 1495h-96l264 266h90l267 -266h-99l-207 207h-10zM227 0h-92v1372h92v-639h938v639h90v-1372h-90v651h-938v-651z" glyph-name="Hcircumflex" horiz-adv-x="1392" unicode="Ĥ"/><glyph d="M-33 1495h-96l264 266h90l267 -266h-99l-207 207h-10zM227 0h-92v1372h92v-674h6q14 65 46 122.5t83.5 104.5t127.5 74t169 27q207 0 317.5 -124.5t110.5 -328.5v-573h-90v580q0 187 -89 275.5t-271 88.5q-107 0 -186.5 -35.5t-128 -101t-72 -152t-23.5 -194.5v-461z" glyph-name="hcircumflex" horiz-adv-x="1218" unicode="ĥ"/><glyph d="M227 0h-92v1061h-198v84h198v227h92v-227h938v227h90v-227h201v-84h-201v-1061h-90v651h-938v-651zM227 733h938v328h-938v-328z" glyph-name="Hbar" horiz-adv-x="1392" unicode="Ħ"/><glyph d="M217 0h-90v1126h-145v78h145v168h90v-168h576v-78h-576v-546h8q29 138 140 232.5t294 94.5q204 0 312 -124.5t108 -329.5v-453h-90v461q0 187 -86.5 274.5t-263.5 87.5q-215 0 -318.5 -129.5t-103.5 -351.5v-342z" glyph-name="hbar" horiz-adv-x="1189" unicode="ħ"/><glyph d="M-20 1548h-66v64q0 69 30.5 109t94.5 40q28 0 55.5 -11t42.5 -21.5t43 -32.5l39 -33q54 -47 100 -47q66 0 66 84v59h66v-65q0 -68 -32 -108t-91 -40q-71 0 -144 66l-39 33q-54 47 -100 47q-32 0 -48.5 -18.5t-16.5 -65.5v-60zM227 0h-92v1372h92v-1372z" glyph-name="Itilde" unicode="Ĩ"/><glyph d="M-37 1200h-67v68q0 66 32 105.5t97 39.5q28 0 55 -11t41.5 -21.5t42.5 -32.5l37 -33q54 -47 100 -47q66 0 66 84v59h65v-65q0 -68 -31 -108t-90 -40q-70 0 -143 66l-41 32q-28 24 -49 35.5t-49 11.5q-66 0 -66 -79v-64zM211 0h-90v1024h90v-1024z" glyph-name="itilde" horiz-adv-x="331" unicode="ĩ"/><glyph d="M438 1595h-514v68h514v-68zM227 0h-92v1372h92v-1372z" glyph-name="Imacron" unicode="Ī"/><glyph d="M422 1247h-512v68h512v-68zM211 0h-90v1024h90v-1024z" glyph-name="imacron" horiz-adv-x="331" unicode="ī"/><glyph d="M182 1475q-111 0 -178 57.5t-67 157.5v18h73v-20q0 -72 41 -108t131 -36t130 36t40 108v20h74v-18q0 -100 -67 -157.5t-177 -57.5zM227 0h-92v1372h92v-1372z" glyph-name="Ibreve" unicode="Ĭ"/><glyph d="M166 1126q-110 0 -178 57.5t-68 157.5v54h76v-56q0 -72 40.5 -108.5t129.5 -36.5q91 0 130.5 36t39.5 109v56h74v-54q0 -100 -67 -157.5t-177 -57.5zM211 0h-90v1024h90v-1024z" glyph-name="ibreve" horiz-adv-x="331" unicode="ĭ"/><glyph d="M322 -383h-134q-88 0 -137 35.5t-49 101.5q0 34 15.5 67.5t28 48.5t44.5 50l70 80h-25v1372h92v-1372l-86 -109q-32 -42 -45.5 -67.5t-13.5 -52.5q0 -38 27 -61t84 -23h129v-70z" glyph-name="Iogonek" unicode="Į"/><glyph d="M227 1145h-92v227h92v-227zM322 -383h-134q-88 0 -137 35.5t-49 101.5q0 34 15.5 67.5t28 48.5t44.5 50l70 80h-25v1006h92v-1006l-86 -109q-32 -42 -45.5 -67.5t-13.5 -52.5q0 -38 27 -61t84 -23h129v-70z" glyph-name="iogonek" unicode="į"/><glyph d="M227 1495h-92v231h92v-231zM227 0h-92v1372h92v-1372z" glyph-name="Idotaccent" unicode="İ"/><glyph d="M211 0h-90v1024h90v-1024z" glyph-name="dotlessi" horiz-adv-x="331" unicode="ı"/><glyph d="M227 0h-92v1372h92v-1372zM948 -20q-137 0 -241 39t-165.5 107.5t-91.5 155.5t-30 191v72h94v-82q0 -195 104.5 -294t329.5 -99q224 0 329 99t105 292v911h93v-901q0 -103 -30 -189.5t-91.5 -155t-165 -107.5t-240.5 -39z" glyph-name="IJ" horiz-adv-x="1601" unicode="Ĳ"/><glyph d="M227 1145h-92v227h92v-227zM592 1145h-90v227h90v-227zM227 0h-92v1006h92v-1006zM313 -348h-86v82h97q88 0 133 39.5t45 128.5v1104h90v-1080q0 -140 -78 -207t-201 -67z" glyph-name="ij" horiz-adv-x="729" unicode="ĳ"/><glyph d="M862 1495h-96l264 266h90l266 -266h-98l-207 207h-10zM586 -20q-137 0 -241 39t-165.5 107.5t-92 155.5t-30.5 191v72h95v-82q0 -195 104.5 -294t329.5 -99q224 0 329 99t105 292v911h92v-901q0 -103 -30 -189.5t-91 -155t-164.5 -107.5t-240.5 -39z" glyph-name="Jcircumflex" horiz-adv-x="1239" unicode="Ĵ"/><glyph d="M-31 1147h-96l264 266h90l267 -266h-97l-209 207h-10zM-49 -348h-86v82h96q88 0 133 39.5t45 128.5v1104h90v-1080q0 -140 -77.5 -207t-200.5 -67z" glyph-name="jcircumflex" horiz-adv-x="366" unicode="ĵ"/><glyph d="M227 0h-92v1372h92v-645h525l454 645h107l-482 -680l486 -692h-107l-454 643h-529v-643zM575 -410h-79l170 267h104z" glyph-name="Kcommaaccent" horiz-adv-x="1353" unicode="Ķ"/><glyph d="M227 0h-92v1372h92v-805h377l365 439h104l-395 -478l395 -528h-106l-365 485h-375v-485zM381 -410h-78l168 267h100z" glyph-name="kcommaaccent" horiz-adv-x="1099" unicode="ķ"/><glyph d="M229 1495h-94l252 248h119zM1116 0h-981v1372h92v-1288h889v-84z" glyph-name="Lacute" horiz-adv-x="1157" unicode="Ĺ"/><glyph d="M233 1495h-94l252 248h119zM227 0h-92v1372h92v-1372z" glyph-name="lacute" unicode="ĺ"/><glyph d="M1116 0h-981v1372h92v-1288h889v-84zM485 -410h-82l170 267h107z" glyph-name="Lcommaaccent" horiz-adv-x="1157" unicode="Ļ"/><glyph d="M227 0h-92v1372h92v-1372zM35 -410h-76l166 267h100z" glyph-name="lcommaaccent" unicode="ļ"/><glyph d="M1116 0h-981v1372h92v-1288h889v-84zM707 967h-21v57h21q19 0 26.5 7t7.5 30v53h-47v258h107v-309q0 -48 -25 -72t-69 -24z" glyph-name="Lcaron" horiz-adv-x="1157" unicode="Ľ"/><glyph d="M227 0h-92v1372h92v-1372zM334 987h-17v51h19q17 0 25 7t8 28v51h-43v248h94v-297q0 -43 -22.5 -65.5t-63.5 -22.5z" glyph-name="lcaron" horiz-adv-x="401" unicode="ľ"/><glyph d="M225 1495h-92v231h92v-231zM1116 0h-981v1372h92v-1288h889v-84z" glyph-name="Ldot" horiz-adv-x="1157" unicode="Ŀ"/><glyph d="M227 0h-92v1372h92v-1372zM428 571h-90v230h90v-230z" glyph-name="ldot" horiz-adv-x="397" unicode="ŀ"/><glyph d="M1219 0h-979v711l-220 -88v90l220 88v571h90v-534l510 206v-90l-510 -206v-664h889v-84z" glyph-name="Lslash" horiz-adv-x="1259" unicode="Ł"/><glyph d="M332 0h-90v786l-224 -135l-38 68l262 160v493h90v-438l186 113l39 -68l-225 -137v-842z" glyph-name="lslash" horiz-adv-x="536" unicode="ł"/><glyph d="M764 1495h-92l252 248h118zM227 0h-92v1372h103l796 -1028l160 -209h8l-2 207v1030h90v-1372h-100l-787 1014l-170 221h-8l2 -221v-1014z" glyph-name="Nacute" horiz-adv-x="1427" unicode="Ń"/><glyph d="M655 1147h-88l254 266h115zM227 0h-92v1006h80v-318h8q30 140 145 239t289 99q104 0 187.5 -36t135.5 -99t79.5 -144t27.5 -174v-573h-92v580q0 174 -88 269t-268 95q-197 0 -304.5 -122.5t-107.5 -340.5v-481z" glyph-name="nacute" horiz-adv-x="1216" unicode="ń"/><glyph d="M227 0h-92v1372h103l796 -1028l160 -209h8l-2 207v1030h90v-1372h-100l-787 1014l-170 221h-8l2 -221v-1014zM569 -410h-82l170 267h107z" glyph-name="Ncommaaccent" horiz-adv-x="1427" unicode="Ņ"/><glyph d="M227 0h-92v1006h80v-318h8q30 140 145 239t289 99q104 0 187.5 -36t135.5 -99t79.5 -144t27.5 -174v-573h-92v580q0 174 -88 269t-268 95q-197 0 -304.5 -122.5t-107.5 -340.5v-481zM467 -410h-76l166 267h100z" glyph-name="ncommaaccent" horiz-adv-x="1216" unicode="ņ"/><glyph d="M928 1761h96l-264 -266h-90l-267 266h99l209 -207h8zM227 0h-92v1372h103l796 -1028l160 -209h8l-2 207v1030h90v-1372h-100l-787 1014l-170 221h-8l2 -221v-1014z" glyph-name="Ncaron" horiz-adv-x="1427" unicode="Ň"/><glyph d="M657 1147h-90l-264 266h98l207 -207h10l207 207h99zM227 0h-92v1006h80v-318h8q30 140 145 239t289 99q104 0 187.5 -36t135.5 -99t79.5 -144t27.5 -174v-573h-92v580q0 174 -88 269t-268 95q-197 0 -304.5 -122.5t-107.5 -340.5v-481z" glyph-name="ncaron" horiz-adv-x="1216" unicode="ň"/><glyph d="M1061 -348h-70v86h80q74 0 100.5 22t26.5 90v140l-745 960l-220 285h-8l2 -285v-950h-92v1372h103l753 -973l203 -264h8l-2 262v975h90v-1495q0 -125 -57.5 -175t-171.5 -50z" glyph-name="Eng" horiz-adv-x="1427" unicode="Ŋ"/><glyph d="M209 0h-92v1006h80v-318h8q30 140 145 239t289 99q104 0 187 -36t135 -99t79 -144t27 -174v-653q0 -70 -22 -123t-61 -84t-88 -46t-108 -15h-86v82h97q88 0 133 39.5t45 128.5v678q0 174 -88 269t-268 95q-197 0 -304.5 -122.5t-107.5 -340.5v-481z" glyph-name="eng" horiz-adv-x="1179" unicode="ŋ"/><glyph d="M1012 1595h-512v68h512v-68zM756 -20q-195 0 -348.5 86.5t-241.5 248t-88 371.5q0 158 51 290.5t141 224t215 142t271 50.5t271.5 -50.5t215 -142t140.5 -224t51 -290.5t-51 -290.5t-140.5 -223.5t-215 -141.5t-271.5 -50.5zM756 70q274 0 428.5 161t154.5 455 t-155 456.5t-428 162.5t-428.5 -162.5t-155.5 -456.5t155 -455t429 -161z" glyph-name="Omacron" horiz-adv-x="1513" unicode="Ō"/><glyph d="M872 1247h-512v68h512v-68zM616 -20q-160 0 -283 68t-189 187t-66 269q0 227 148.5 374.5t389.5 147.5q240 0 389.5 -147.5t149.5 -374.5q0 -228 -149.5 -376t-389.5 -148zM616 61q222 0 335.5 118t113.5 325q0 205 -113.5 322.5t-335.5 117.5q-221 0 -334.5 -117.5 t-113.5 -322.5q0 -207 113 -325t335 -118z" glyph-name="omacron" horiz-adv-x="1232" unicode="ō"/><glyph d="M756 1475q-110 0 -177 57.5t-67 157.5v18h74v-20q0 -72 40.5 -108t129.5 -36q91 0 131.5 35.5t40.5 108.5v20h73v-18q0 -100 -67 -157.5t-178 -57.5zM756 -20q-195 0 -348.5 86.5t-241.5 248t-88 371.5q0 158 51 290.5t141 224t215 142t271 50.5t271.5 -50.5t215 -142 t140.5 -224t51 -290.5t-51 -290.5t-140.5 -223.5t-215 -141.5t-271.5 -50.5zM756 70q274 0 428.5 161t154.5 455t-155 456.5t-428 162.5t-428.5 -162.5t-155.5 -456.5t155 -455t429 -161z" glyph-name="Obreve" horiz-adv-x="1513" unicode="Ŏ"/><glyph d="M616 1126q-111 0 -178 57.5t-67 157.5v54h75v-56q0 -72 40.5 -108.5t129.5 -36.5q91 0 130.5 36t39.5 109v56h74v-54q0 -100 -67 -157.5t-177 -57.5zM616 -20q-160 0 -283 68t-189 187t-66 269q0 227 148.5 374.5t389.5 147.5q240 0 389.5 -147.5t149.5 -374.5 q0 -228 -149.5 -376t-389.5 -148zM616 61q222 0 335.5 118t113.5 325q0 205 -113.5 322.5t-335.5 117.5q-221 0 -334.5 -117.5t-113.5 -322.5q0 -207 113 -325t335 -118z" glyph-name="obreve" horiz-adv-x="1232" unicode="ŏ"/><glyph d="M913 1495h-84l218 248h106zM635 1495h-82l215 248h106zM756 -20q-195 0 -348.5 86.5t-241.5 248t-88 371.5q0 158 51 290.5t141 224t215 142t271 50.5t271.5 -50.5t215 -142t140.5 -224t51 -290.5t-51 -290.5t-140.5 -223.5t-215 -141.5t-271.5 -50.5zM756 70 q274 0 428.5 161t154.5 455t-155 456.5t-428 162.5t-428.5 -162.5t-155.5 -456.5t155 -455t429 -161z" glyph-name="Ohungarumlaut" horiz-adv-x="1513" unicode="Ő"/><glyph d="M797 1147h-84l217 266h106zM518 1147h-82l215 266h107zM616 -20q-160 0 -283 68t-189 187t-66 269q0 227 148.5 374.5t389.5 147.5q240 0 389.5 -147.5t149.5 -374.5q0 -228 -149.5 -376t-389.5 -148zM616 61q222 0 335.5 118t113.5 325q0 205 -113.5 322.5t-335.5 117.5 q-221 0 -334.5 -117.5t-113.5 -322.5q0 -207 113 -325t335 -118z" glyph-name="ohungarumlaut" horiz-adv-x="1232" unicode="ő"/><glyph d="M2089 0h-1317q-329 0 -511.5 184.5t-182.5 501.5t182.5 501.5t511.5 184.5h1317v-84h-911v-557h880v-82h-880v-565h911v-84zM772 84h313v1204h-313q-303 0 -451.5 -153.5t-148.5 -448.5t148.5 -448.5t451.5 -153.5z" glyph-name="OE" horiz-adv-x="2177" unicode="Œ"/><glyph d="M616 -20q-160 0 -283 68t-189 187t-66 269q0 227 148.5 374.5t389.5 147.5q173 0 303 -80t191 -217q57 137 180.5 217t294.5 80q218 0 354 -123.5t136 -339.5q0 -50 -11 -92h-909q6 -195 112.5 -303.5t317.5 -108.5q190 0 287.5 70.5t97.5 198.5v12h90v-12 q0 -153 -135.5 -250.5t-337.5 -97.5q-173 0 -297 79t-182 217q-60 -136 -189 -216t-303 -80zM1585 948q-212 0 -318 -108t-112 -303h834q2 16 2 47q0 175 -107 269.5t-299 94.5zM616 61q222 0 335.5 118t113.5 325q0 205 -113.5 322.5t-335.5 117.5q-221 0 -334.5 -117.5 t-113.5 -322.5q0 -207 113 -325t335 -118z" glyph-name="oe" horiz-adv-x="2152" unicode="œ"/><glyph d="M745 1495h-92l252 248h119zM227 0h-92v1372h643q207 0 336 -104.5t129 -286.5q0 -175 -121.5 -279t-314.5 -104v-8q100 -30 178 -152l277 -438h-103l-264 412q-56 92 -130.5 131t-211.5 39h-326v-582zM227 1288v-626h551q371 0 371 313t-371 313h-551z" glyph-name="Racute" horiz-adv-x="1316" unicode="Ŕ"/><glyph d="M571 1147h-86l252 266h115zM227 0h-92v1006h80v-275h8q25 128 117.5 211.5t243.5 83.5q84 0 151 -30t107 -81t61 -114.5t21 -134.5v-76h-90v67q0 147 -65.5 218t-209.5 71q-167 0 -249.5 -106t-82.5 -305v-535z" glyph-name="racute" horiz-adv-x="972" unicode="ŕ"/><glyph d="M227 0h-92v1372h643q207 0 336 -104.5t129 -286.5q0 -175 -121.5 -279t-314.5 -104v-8q100 -30 178 -152l277 -438h-103l-264 412q-56 92 -130.5 131t-211.5 39h-326v-582zM227 1288v-626h551q371 0 371 313t-371 313h-551zM551 -410h-82l170 267h106z" glyph-name="Rcommaaccent" horiz-adv-x="1316" unicode="Ŗ"/><glyph d="M227 0h-92v1006h80v-275h8q25 128 117.5 211.5t243.5 83.5q84 0 151 -30t107 -81t61 -114.5t21 -134.5v-76h-90v67q0 147 -65.5 218t-209.5 71q-167 0 -249.5 -106t-82.5 -305v-535zM39 -410h-78l168 267h100z" glyph-name="rcommaaccent" horiz-adv-x="972" unicode="ŗ"/><glyph d="M909 1761h97l-265 -266h-90l-266 266h98l209 -207h8zM227 0h-92v1372h643q207 0 336 -104.5t129 -286.5q0 -175 -121.5 -279t-314.5 -104v-8q100 -30 178 -152l277 -438h-103l-264 412q-56 92 -130.5 131t-211.5 39h-326v-582zM227 1288v-626h551q371 0 371 313t-371 313 h-551z" glyph-name="Rcaron" horiz-adv-x="1316" unicode="Ř"/><glyph d="M573 1147h-90l-264 266h98l207 -207h11l206 207h99zM227 0h-92v1006h80v-275h8q25 128 117.5 211.5t243.5 83.5q84 0 151 -30t107 -81t61 -114.5t21 -134.5v-76h-90v67q0 147 -65.5 218t-209.5 71q-167 0 -249.5 -106t-82.5 -305v-535z" glyph-name="rcaron" horiz-adv-x="972" unicode="ř"/><glyph d="M659 1495h-94l252 248h119zM639 -20q-146 0 -258 35t-179.5 97t-101.5 141t-34 173v12h92v-24q0 -346 481 -346q432 0 432 268q0 125 -76.5 186.5t-251.5 100.5l-260 53q-70 15 -125 32.5t-109 47t-89.5 66.5t-57.5 91t-22 121q0 70 31 132.5t92 114t165 82t238 30.5 q136 0 241.5 -35.5t169.5 -98t96 -142t32 -171.5v-12h-92v24q0 345 -449 345q-432 0 -432 -259q0 -67 19 -113t63.5 -78.5t102.5 -53t151 -41.5l258 -53q90 -19 158 -45.5t124 -68t85.5 -103.5t29.5 -142q0 -72 -32 -136.5t-94 -116.5t-165 -82.5t-233 -30.5z" glyph-name="Sacute" horiz-adv-x="1236" unicode="Ś"/><glyph d="M563 1147h-88l252 266h115zM557 -20q-227 0 -352 90.5t-125 261.5v4h90v-10q0 -145 90.5 -206t296.5 -61q184 0 262 47t78 150q0 90 -58 131.5t-200 63.5l-264 38q-143 22 -219 81.5t-76 177.5q0 131 118 204.5t312 73.5q212 0 337.5 -91t125.5 -261v-4h-90v10 q0 136 -85.5 202t-289.5 66q-177 0 -257.5 -47.5t-80.5 -152.5q0 -88 52.5 -128t189.5 -61l256 -39q157 -23 238 -83.5t81 -176.5q0 -137 -119 -208.5t-311 -71.5z" glyph-name="sacute" horiz-adv-x="1064" unicode="ś"/><glyph d="M395 1495h-96l264 266h90l267 -266h-97l-209 207h-10zM639 -20q-146 0 -258 35t-179.5 97t-101.5 141t-34 173v12h92v-24q0 -346 481 -346q432 0 432 268q0 125 -76.5 186.5t-251.5 100.5l-260 53q-70 15 -125 32.5t-109 47t-89.5 66.5t-57.5 91t-22 121q0 70 31 132.5 t92 114t165 82t238 30.5q136 0 241.5 -35.5t169.5 -98t96 -142t32 -171.5v-12h-92v24q0 345 -449 345q-432 0 -432 -259q0 -67 19 -113t63.5 -78.5t102.5 -53t151 -41.5l258 -53q90 -19 158 -45.5t124 -68t85.5 -103.5t29.5 -142q0 -72 -32 -136.5t-94 -116.5t-165 -82.5 t-233 -30.5z" glyph-name="Scircumflex" horiz-adv-x="1236" unicode="Ŝ"/><glyph d="M305 1147h-96l264 266h92l264 -266h-96l-209 207h-10zM557 -20q-227 0 -352 90.5t-125 261.5v4h90v-10q0 -145 90.5 -206t296.5 -61q184 0 262 47t78 150q0 90 -58 131.5t-200 63.5l-264 38q-143 22 -219 81.5t-76 177.5q0 131 118 204.5t312 73.5q212 0 337.5 -91 t125.5 -261v-4h-90v10q0 136 -85.5 202t-289.5 66q-177 0 -257.5 -47.5t-80.5 -152.5q0 -88 52.5 -128t189.5 -61l256 -39q157 -23 238 -83.5t81 -176.5q0 -137 -119 -208.5t-311 -71.5z" glyph-name="scircumflex" horiz-adv-x="1064" unicode="ŝ"/><glyph d="M639 -20v-107h55q72 0 115 -36.5t43 -98.5q0 -64 -42.5 -100.5t-115.5 -36.5h-149v67h147q86 0 86 68q0 40 -22.5 53.5t-63.5 13.5h-123v179q-128 8 -226.5 46.5t-158 99t-89 135.5t-29.5 163v12h92v-24q0 -346 481 -346q432 0 432 268q0 125 -76.5 186.5t-251.5 100.5 l-260 53q-70 15 -125 32.5t-109 47t-89.5 66.5t-57.5 91t-22 121q0 70 31 132.5t92 114t165 82t238 30.5q136 0 241.5 -35.5t169.5 -98t96 -142t32 -171.5v-12h-92v24q0 345 -449 345q-432 0 -432 -259q0 -67 19 -113t63.5 -78.5t102.5 -53t151 -41.5l258 -53 q90 -19 158 -45.5t124 -68t85.5 -103.5t29.5 -142q0 -72 -32 -136.5t-94 -116.5t-165 -82.5t-233 -30.5z" glyph-name="Scedilla" horiz-adv-x="1236" unicode="Ş"/><glyph d="M647 -399h-149v67h147q86 0 86 68q0 40 -22.5 53.5t-63.5 13.5h-123v177q-212 8 -327 97.5t-115 254.5v4h90v-10q0 -145 90.5 -206t296.5 -61q184 0 262 47t78 150q0 90 -58 131.5t-200 63.5l-264 38q-143 22 -219 81.5t-76 177.5q0 131 118 204.5t312 73.5 q212 0 337.5 -91t125.5 -261v-4h-90v10q0 136 -85.5 202t-289.5 66q-177 0 -257.5 -47.5t-80.5 -152.5q0 -88 52.5 -128t189.5 -61l256 -39q157 -23 238 -83.5t81 -176.5q0 -131 -109 -202.5t-288 -77.5v-107h57q72 0 114 -36.5t42 -98.5q0 -64 -42 -100.5t-114 -36.5z" glyph-name="scedilla" horiz-adv-x="1064" unicode="ş"/><glyph d="M823 1761h97l-265 -266h-92l-264 266h96l209 -207h10zM639 -20q-146 0 -258 35t-179.5 97t-101.5 141t-34 173v12h92v-24q0 -346 481 -346q432 0 432 268q0 125 -76.5 186.5t-251.5 100.5l-260 53q-70 15 -125 32.5t-109 47t-89.5 66.5t-57.5 91t-22 121q0 70 31 132.5 t92 114t165 82t238 30.5q136 0 241.5 -35.5t169.5 -98t96 -142t32 -171.5v-12h-92v24q0 345 -449 345q-432 0 -432 -259q0 -67 19 -113t63.5 -78.5t102.5 -53t151 -41.5l258 -53q90 -19 158 -45.5t124 -68t85.5 -103.5t29.5 -142q0 -72 -32 -136.5t-94 -116.5t-165 -82.5 t-233 -30.5z" glyph-name="Scaron" horiz-adv-x="1236" unicode="Š"/><glyph d="M565 1147h-92l-264 266h98l207 -207h10l207 207h98zM557 -20q-227 0 -352 90.5t-125 261.5v4h90v-10q0 -145 90.5 -206t296.5 -61q184 0 262 47t78 150q0 90 -58 131.5t-200 63.5l-264 38q-143 22 -219 81.5t-76 177.5q0 131 118 204.5t312 73.5q212 0 337.5 -91 t125.5 -261v-4h-90v10q0 136 -85.5 202t-289.5 66q-177 0 -257.5 -47.5t-80.5 -152.5q0 -88 52.5 -128t189.5 -61l256 -39q157 -23 238 -83.5t81 -176.5q0 -137 -119 -208.5t-311 -71.5z" glyph-name="scaron" horiz-adv-x="1064" unicode="š"/><glyph d="M694 0h-82v-127h56q73 0 115 -36.5t42 -98.5q0 -64 -41.5 -100.5t-115.5 -36.5h-150v67h148q86 0 86 68q0 40 -22.5 53.5t-63.5 13.5h-123v203h61v1282h-584v84h1256v-84h-582v-1288z" glyph-name="Tcedilla" horiz-adv-x="1298" unicode="Ţ"/><glyph d="M721 0h-139v-127h57q73 0 115.5 -36.5t42.5 -98.5q0 -64 -42 -100.5t-116 -36.5h-150v67h148q86 0 86 68q0 40 -22.5 53.5t-63.5 13.5h-123v197q-149 0 -229 70t-80 235v621h-187v80h187v258h92v-258h424v-80h-424v-643q0 -113 57 -156t183 -43h184v-84z" glyph-name="tcedilla" horiz-adv-x="761" unicode="ţ"/><glyph d="M862 1761h96l-264 -266h-90l-266 266h98l209 -207h8zM694 0h-90v1288h-584v84h1256v-84h-582v-1288z" glyph-name="Tcaron" horiz-adv-x="1298" unicode="Ť"/><glyph d="M446 1124h-16v52h19q17 0 24.5 6t7.5 26v54h-43v247h94v-297q0 -43 -22.5 -65.5t-63.5 -22.5zM721 0h-207q-149 0 -229 70t-80 235v621h-187v80h187v258h92v-258h424v-80h-424v-643q0 -113 57 -156t183 -43h184v-84z" glyph-name="tcaron" horiz-adv-x="751" unicode="ť"/><glyph d="M694 0h-90v731h-356v84h356v473h-584v84h1256v-84h-582v-473h357v-84h-357v-731z" glyph-name="Tbar" horiz-adv-x="1298" unicode="Ŧ"/><glyph d="M721 0h-207q-149 0 -229 70t-80 235v264h-187v76h187v285h-187v76h187v258h92v-258h424v-76h-424v-285h424v-76h-424v-286q0 -113 57 -156t183 -43h184v-84z" glyph-name="tbar" horiz-adv-x="761" unicode="ŧ"/><glyph d="M524 1548h-65v64q0 69 30.5 109t94.5 40q28 0 55 -10.5t43.5 -22t42.5 -32.5l39 -33q54 -47 100 -47q66 0 66 84v59h65v-65q0 -68 -32 -108t-91 -40q-70 0 -143 66l-41 33q-50 47 -98 47q-32 0 -49 -18.5t-17 -65.5v-60zM725 -20q-273 0 -436.5 152.5t-163.5 432.5v807 h92v-805q0 -253 128 -375t380 -122q254 0 382 122t128 375v805h90v-807q0 -280 -162.5 -432.5t-437.5 -152.5z" glyph-name="Utilde" horiz-adv-x="1452" unicode="Ũ"/><glyph d="M403 1200h-65v68q0 67 31 106t96 39q28 0 55 -11t41.5 -21.5t42.5 -32.5l37 -33q57 -47 102 -47q66 0 66 84v59h65v-65q0 -68 -31.5 -108t-90.5 -40q-71 0 -144 66l-41 32q-28 24 -49 35.5t-49 11.5q-66 0 -66 -79v-64zM559 -20q-104 0 -187 36t-135 98.5t-79 143.5 t-27 174v574h90v-580q0 -174 89 -268.5t270 -94.5q197 0 305 122t108 341v480h90v-1006h-79v317h-7q-32 -140 -147.5 -238.5t-290.5 -98.5z" glyph-name="utilde" horiz-adv-x="1218" unicode="ũ"/><glyph d="M981 1595h-512v68h512v-68zM725 -20q-273 0 -436.5 152.5t-163.5 432.5v807h92v-805q0 -253 128 -375t380 -122q254 0 382 122t128 375v805h90v-807q0 -280 -162.5 -432.5t-437.5 -152.5z" glyph-name="Umacron" horiz-adv-x="1452" unicode="Ū"/><glyph d="M862 1247h-512v68h512v-68zM559 -20q-104 0 -187 36t-135 98.5t-79 143.5t-27 174v574h90v-580q0 -174 89 -268.5t270 -94.5q197 0 305 122t108 341v480h90v-1006h-79v317h-7q-32 -140 -147.5 -238.5t-290.5 -98.5z" glyph-name="umacron" horiz-adv-x="1218" unicode="ū"/><glyph d="M725 1475q-110 0 -177 57.5t-67 157.5v18h74v-20q0 -72 40.5 -108t129.5 -36q91 0 131.5 35.5t40.5 108.5v20h74v-18q0 -100 -67 -157.5t-179 -57.5zM725 -20q-273 0 -436.5 152.5t-163.5 432.5v807h92v-805q0 -253 128 -375t380 -122q254 0 382 122t128 375v805h90v-807 q0 -280 -162.5 -432.5t-437.5 -152.5z" glyph-name="Ubreve" horiz-adv-x="1452" unicode="Ŭ"/><glyph d="M606 1126q-110 0 -177 57.5t-67 157.5v54h74v-56q0 -72 40.5 -108.5t129.5 -36.5q91 0 130.5 36t39.5 109v56h76v-54q0 -100 -68 -157.5t-178 -57.5zM559 -20q-104 0 -187 36t-135 98.5t-79 143.5t-27 174v574h90v-580q0 -174 89 -268.5t270 -94.5q197 0 305 122t108 341 v480h90v-1006h-79v317h-7q-32 -140 -147.5 -238.5t-290.5 -98.5z" glyph-name="ubreve" horiz-adv-x="1218" unicode="ŭ"/><glyph d="M725 1454q-91 0 -148 50.5t-57 133.5t57 134t148 51q92 0 148.5 -51t56.5 -134t-56.5 -133.5t-148.5 -50.5zM725 1513q141 0 141 125t-141 125q-139 0 -139 -125t139 -125zM725 -20q-273 0 -436.5 152.5t-163.5 432.5v807h92v-805q0 -253 128 -375t380 -122 q254 0 382 122t128 375v805h90v-807q0 -280 -162.5 -432.5t-437.5 -152.5z" glyph-name="Uring" horiz-adv-x="1452" unicode="Ů"/><glyph d="M606 1114q-90 0 -145 49.5t-55 130.5q0 82 55 131.5t145 49.5q91 0 146 -49.5t55 -131.5t-55 -131t-146 -49zM606 1169q139 0 139 125t-139 125t-139 -125t139 -125zM559 -20q-104 0 -187 36t-135 98.5t-79 143.5t-27 174v574h90v-580q0 -174 89 -268.5t270 -94.5 q197 0 305 122t108 341v480h90v-1006h-79v317h-7q-32 -140 -147.5 -238.5t-290.5 -98.5z" glyph-name="uring" horiz-adv-x="1218" unicode="ů"/><glyph d="M883 1495h-84l217 248h106zM604 1495h-82l215 248h107zM725 -20q-273 0 -436.5 152.5t-163.5 432.5v807h92v-805q0 -253 128 -375t380 -122q254 0 382 122t128 375v805h90v-807q0 -280 -162.5 -432.5t-437.5 -152.5z" glyph-name="Uhungarumlaut" horiz-adv-x="1452" unicode="Ű"/><glyph d="M786 1147h-81l215 266h106zM510 1147h-84l215 266h109zM559 -20q-104 0 -187 36t-135 98.5t-79 143.5t-27 174v574h90v-580q0 -174 89 -268.5t270 -94.5q197 0 305 122t108 341v480h90v-1006h-79v317h-7q-32 -140 -147.5 -238.5t-290.5 -98.5z" glyph-name="uhungarumlaut" horiz-adv-x="1218" unicode="ű"/><glyph d="M725 -20q-273 0 -436.5 152.5t-163.5 432.5v807h92v-805q0 -253 128 -375t380 -122q254 0 382 122t128 375v805h90v-807q0 -250 -130.5 -398.5t-356.5 -178.5l-74 -97q-32 -40 -45.5 -66t-13.5 -54q0 -38 26.5 -61t83.5 -23h129v-70h-135q-88 0 -136 35.5t-48 101.5 q0 34 15.5 67.5t28 48.5t44.5 50l53 60h-41z" glyph-name="Uogonek" horiz-adv-x="1452" unicode="Ų"/><glyph d="M559 -20q-104 0 -187 36t-135 98.5t-79 143.5t-27 174v574h90v-580q0 -174 89 -268.5t270 -94.5q197 0 305 122t108 341v480h90v-1006l-86 -109q-32 -42 -45.5 -67.5t-13.5 -52.5q0 -38 27 -61t84 -23h129v-70h-134q-88 0 -137 35.5t-49 101.5q0 14 2.5 27t5 23t9.5 23 t11 20t14.5 20t14.5 17.5t16 18.5t15 17l70 80h-12v317h-7q-32 -140 -147.5 -238.5t-290.5 -98.5z" glyph-name="uogonek" horiz-adv-x="1218" unicode="ų"/><glyph d="M819 1495h-96l266 266h90l264 -266h-96l-209 207h-10zM594 0h-135l-422 1372h100l309 -1001l80 -277h9l88 277l350 1001h119l393 -1001l102 -277h8l68 277l266 1001h99l-365 -1372h-135l-379 963l-111 292h-12l-98 -292z" glyph-name="Wcircumflex" horiz-adv-x="2064" unicode="Ŵ"/><glyph d="M643 1147h-96l264 266h90l264 -266h-96l-209 207h-8zM477 0h-112l-338 1006h94l248 -736l53 -180h8l68 184l301 732h114l304 -732l67 -182h8l51 178l248 736h95l-340 -1006h-113l-293 719l-80 205h-8l-78 -205z" glyph-name="wcircumflex" horiz-adv-x="1712" unicode="ŵ"/><glyph d="M422 1495h-96l264 266h90l266 -266h-98l-207 207h-10zM680 0h-90v498l-592 874h106l418 -612l113 -164h6l111 164l413 612h109l-594 -870v-502z" glyph-name="Ycircumflex" horiz-adv-x="1269" unicode="Ŷ"/><glyph d="M340 1147h-96l264 266h90l266 -266h-98l-207 207h-10zM250 -348h-115v84h121q81 0 121.5 27.5t75.5 99.5l65 141l-502 1002h99l323 -646l121 -249h8l119 249l309 646h97l-562 -1170q-47 -100 -112 -142t-168 -42z" glyph-name="ycircumflex" horiz-adv-x="1118" unicode="ŷ"/><glyph d="M831 1495h-88v231h88v-231zM528 1495h-90v231h90v-231zM680 0h-90v498l-592 874h106l418 -612l113 -164h6l111 164l413 612h109l-594 -870v-502z" glyph-name="Ydieresis" horiz-adv-x="1269" unicode="Ÿ"/><glyph d="M721 1495h-94l252 248h118zM1260 0h-1180v84l1024 1196v8h-987v84h1112v-84l-1028 -1196v-8h1059v-84z" glyph-name="Zacute" horiz-adv-x="1337" unicode="Ź"/><glyph d="M604 1147h-88l252 266h115zM1061 0h-1002v82l633 631l213 205v8l-213 -2h-602v82h940v-82l-674 -666l-178 -170v-8l178 2h705v-82z" glyph-name="zacute" horiz-adv-x="1120" unicode="ź"/><glyph d="M715 1495h-90v231h90v-231zM1260 0h-1180v84l1024 1196v8h-987v84h1112v-84l-1028 -1196v-8h1059v-84z" glyph-name="Zdotaccent" horiz-adv-x="1337" unicode="Ż"/><glyph d="M606 1147h-92v231h92v-231zM1061 0h-1002v82l633 631l213 205v8l-213 -2h-602v82h940v-82l-674 -666l-178 -170v-8l178 2h705v-82z" glyph-name="zdotaccent" horiz-adv-x="1120" unicode="ż"/><glyph d="M883 1761h98l-266 -266h-90l-265 266h97l209 -207h10zM1260 0h-1180v84l1024 1196v8h-987v84h1112v-84l-1028 -1196v-8h1059v-84z" glyph-name="Zcaron" horiz-adv-x="1337" unicode="Ž"/><glyph d="M606 1147h-92l-264 266h98l207 -207h10l207 207h98zM1061 0h-1002v82l633 631l213 205v8l-213 -2h-602v82h940v-82l-674 -666l-178 -170v-8l178 2h705v-82z" glyph-name="zcaron" horiz-adv-x="1120" unicode="ž"/><glyph d="M80 -348h-100l14 84h92q112 0 171.5 49.5t78.5 153.5l123 706h-228l15 82h227l62 348q53 297 354 297h94l-14 -84h-99q-110 0 -167 -49t-76 -154l-64 -358h307l-14 -82h-307l-121 -696q-52 -297 -348 -297z" glyph-name="florin" horiz-adv-x="962" unicode="ƒ"/><glyph d="M1647 1495h-95l252 248h119zM109 0h-111l1073 1372h1028v-84h-913v-557h882v-82h-882v-565h913v-84h-1003v436h-643zM1090 1245l-572 -725h578v725h-6z" glyph-name="AEacute" horiz-adv-x="2187" unicode="Ǽ"/><glyph d="M1036 1147h-88l252 266h115zM416 -20q-155 0 -251.5 67.5t-96.5 185.5q0 217 325 254l516 56v90q0 165 -81 238t-269 73q-377 0 -377 -289v-12h-90v12q0 75 31 142t88.5 118t148 81t201.5 30q172 0 274.5 -67t139.5 -183q63 117 179.5 183.5t272.5 66.5q218 0 354 -123.5 t136 -339.5q0 -54 -10 -92h-910q6 -195 112.5 -303.5t317.5 -108.5q190 0 287.5 70.5t97.5 198.5v12h91v-12q0 -153 -135.5 -250.5t-337.5 -97.5q-186 0 -315 90t-179 247h-6q-34 -112 -115 -190t-182 -112.5t-217 -34.5zM1427 948q-212 0 -318 -108t-112 -303h834 q2 16 2 47q0 175 -107 269.5t-299 94.5zM160 240q0 -185 270 -185q96 0 178 24t149 72t107.5 128t46.5 184q-2 4 -2 12l-485 -53q-135 -13 -199.5 -53t-64.5 -129z" glyph-name="aeacute" horiz-adv-x="1974" unicode="ǽ"/><glyph d="M807 1495h-94l252 248h118zM756 -20q-266 0 -447 155l-153 -174l-58 51l156 176q-176 195 -176 498q0 158 51 290.5t141 224t215 142t271 50.5q255 0 436 -148l147 166l56 -51l-148 -166q187 -197 187 -508q0 -158 -51 -290.5t-140.5 -223.5t-215 -141.5t-271.5 -50.5z M172 686q0 -274 137 -436l830 936q-150 119 -383 119q-273 0 -428.5 -162.5t-155.5 -456.5zM756 70q274 0 428.5 161t154.5 455q0 287 -145 447l-829 -936q148 -127 391 -127z" glyph-name="Oslashacute" horiz-adv-x="1513" unicode="Ǿ"/><glyph d="M659 1147h-88l252 266h115zM616 -20q-210 0 -352 114l-117 -127l-49 47l117 125q-137 143 -137 365q0 227 148.5 374.5t389.5 147.5q191 0 332 -98l101 108l51 -47l-99 -106q154 -145 154 -379q0 -228 -149.5 -376t-389.5 -148zM168 504q0 -193 98 -309l629 677 q-107 72 -279 72q-221 0 -334.5 -117.5t-113.5 -322.5zM616 61q222 0 335.5 118t113.5 325q0 211 -115 323l-635 -680q116 -86 301 -86z" glyph-name="oslashacute" horiz-adv-x="1232" unicode="ǿ"/><glyph d="M639 -20q-146 0 -258 35t-179.5 97t-101.5 141t-34 173v12h92v-24q0 -346 481 -346q432 0 432 268q0 125 -76.5 186.5t-251.5 100.5l-260 53q-70 15 -125 32.5t-109 47t-89.5 66.5t-57.5 91t-22 121q0 70 31 132.5t92 114t165 82t238 30.5q136 0 241.5 -35.5t169.5 -98 t96 -142t32 -171.5v-12h-92v24q0 345 -449 345q-432 0 -432 -259q0 -67 19 -113t63.5 -78.5t102.5 -53t151 -41.5l258 -53q90 -19 158 -45.5t124 -68t85.5 -103.5t29.5 -142q0 -72 -32 -136.5t-94 -116.5t-165 -82.5t-233 -30.5zM539 -410h-82l170 267h106z" glyph-name="Scommaaccent" horiz-adv-x="1236" unicode="Ș"/><glyph d="M557 -20q-227 0 -352 90.5t-125 261.5v4h90v-10q0 -145 90.5 -206t296.5 -61q184 0 262 47t78 150q0 90 -58 131.5t-200 63.5l-264 38q-143 22 -219 81.5t-76 177.5q0 131 118 204.5t312 73.5q212 0 337.5 -91t125.5 -261v-4h-90v10q0 136 -85.5 202t-289.5 66 q-177 0 -257.5 -47.5t-80.5 -152.5q0 -88 52.5 -128t189.5 -61l256 -39q157 -23 238 -83.5t81 -176.5q0 -137 -119 -208.5t-311 -71.5zM403 -410h-75l166 267h102z" glyph-name="scommaaccent" horiz-adv-x="1064" unicode="ș"/><glyph d="M694 0h-90v1288h-584v84h1256v-84h-582v-1288zM512 -410h-82l170 267h107z" glyph-name="Tcommaaccent" horiz-adv-x="1298" unicode="Ț"/><glyph d="M721 0h-207q-149 0 -229 70t-80 235v621h-187v80h187v258h92v-258h424v-80h-424v-643q0 -113 57 -156t183 -43h184v-84zM395 -410h-76l168 267h101z" glyph-name="tcommaaccent" horiz-adv-x="761" unicode="ț"/><glyph d="M-49 -348h-86v82h96q88 0 133 39.5t45 128.5v1104h90v-1080q0 -140 -77.5 -207t-200.5 -67z" glyph-name="dotlessj" horiz-adv-x="366" unicode="ȷ"/><glyph d="M367 1147h-88l-279 266h115z" glyph-name="gravecomb" horiz-adv-x="593" unicode="̀"/><glyph d="M324 1147h-88l251 266h117z" glyph-name="acutecomb" horiz-adv-x="593" unicode="́"/><glyph d="M270 1147h-96l264 266h90l267 -266h-99l-209 207h-8z" glyph-name="circumflexcomb" horiz-adv-x="956" unicode="̂"/><glyph d="M150 1200h-66v68q0 66 32 105.5t95 39.5q28 0 55 -11t41.5 -21.5t42.5 -32.5l39 -33q54 -47 100 -47q66 0 66 84v59h66v-65q0 -68 -32 -108t-91 -40q-71 0 -144 66l-39 32q-20 17 -32 25t-30 15t-36 7q-67 0 -67 -79v-64z" glyph-name="tildecomb" horiz-adv-x="702" unicode="̃"/><glyph d="M598 1247h-512v68h512v-68z" glyph-name="macroncomb" horiz-adv-x="684" unicode="̄"/><glyph d="M326 1126q-112 0 -179 57.5t-67 157.5v54h76v-56q0 -72 40.5 -108.5t129.5 -36.5q91 0 130.5 36t39.5 109v56h73v-54q0 -100 -66.5 -157.5t-176.5 -57.5z" glyph-name="brevecomb" horiz-adv-x="651" unicode="̆"/><glyph d="M188 1147h-90v231h90v-231z" glyph-name="dotaccentcomb" horiz-adv-x="286" unicode="̇"/><glyph d="M526 1147h-88v231h88v-231zM223 1147h-90v231h90v-231z" glyph-name="dieresiscomb" horiz-adv-x="661" unicode="̈"/><glyph d="M281 1114q-91 0 -146 49t-55 131t55 131.5t146 49.5q90 0 145 -49.5t55 -131.5q0 -81 -55 -130.5t-145 -49.5zM281 1169q139 0 139 125t-139 125q-140 0 -140 -125t140 -125z" glyph-name="ringcomb" horiz-adv-x="559" unicode="̊"/><glyph d="M612 1147h-84l215 266h109zM334 1147h-82l215 266h106z" glyph-name="hungarumlautcomb" horiz-adv-x="806" unicode="̋"/><glyph d="M528 1147h-90l-264 266h98l207 -207h8l209 207h99z" glyph-name="caroncomb" horiz-adv-x="956" unicode="̌"/><glyph d="M768 1413h76l-166 -266h-100z" glyph-name="commaturnedabovecomb" horiz-adv-x="1236" unicode="̒"/><glyph d="M88 -410h-76l166 267h101z" glyph-name="commaaccentcomb" horiz-adv-x="448" unicode="̦"/><glyph d="M356 -399h-149v67h147q41 0 63.5 14.5t22.5 53.5q0 40 -22 53.5t-64 13.5h-123v203h68v-133h57q73 0 115.5 -36.5t42.5 -98.5q0 -64 -42 -100.5t-116 -36.5z" glyph-name="cedillacomb" horiz-adv-x="475" unicode="̧"/><glyph d="M418 -383h-133q-88 0 -136.5 35.5t-48.5 101.5q0 11 1.5 21.5t3.5 19.5t6.5 19t7 16.5t9.5 17l10 15t11.5 15t11.5 14t13 15t12 13.5l70 80h68l-84 -109q-32 -41 -46 -67t-14 -53q0 -38 26.5 -61t82.5 -23h129v-70z" glyph-name="ogonekcomb" horiz-adv-x="497" unicode="̨"/><glyph d="M1040 1126h-811v78h811v-78z" glyph-name="strokeshortcomb" horiz-adv-x="1271" unicode="̵"/><glyph d="M578 979l-539 -328l-39 68l539 328z" glyph-name="slashshortcomb" horiz-adv-x="577" unicode="̷"/><glyph d="M1098 991l-953 -1022l-49 47l953 1022z" glyph-name="slashlongcomb" horiz-adv-x="1193" unicode="̸"/><glyph d="M1077 1495h-94l-276 248h118zM594 0h-135l-422 1372h100l309 -1001l80 -277h9l88 277l350 1001h119l393 -1001l102 -277h8l68 277l266 1001h99l-365 -1372h-135l-379 963l-111 292h-12l-98 -292z" glyph-name="Wgrave" horiz-adv-x="2064" unicode="Ẁ"/><glyph d="M907 1147h-88l-278 266h114zM477 0h-112l-338 1006h94l248 -736l53 -180h8l68 184l301 732h114l304 -732l67 -182h8l51 178l248 736h95l-340 -1006h-113l-293 719l-80 205h-8l-78 -205z" glyph-name="wgrave" horiz-adv-x="1712" unicode="ẁ"/><glyph d="M1083 1495h-92l252 248h119zM594 0h-135l-422 1372h100l309 -1001l80 -277h9l88 277l350 1001h119l393 -1001l102 -277h8l68 277l266 1001h99l-365 -1372h-135l-379 963l-111 292h-12l-98 -292z" glyph-name="Wacute" horiz-adv-x="2064" unicode="Ẃ"/><glyph d="M899 1147h-88l252 266h117zM477 0h-112l-338 1006h94l248 -736l53 -180h8l68 184l301 732h114l304 -732l67 -182h8l51 178l248 736h95l-340 -1006h-113l-293 719l-80 205h-8l-78 -205z" glyph-name="wacute" horiz-adv-x="1712" unicode="ẃ"/><glyph d="M1231 1495h-90v231h90v-231zM926 1495h-88v231h88v-231zM594 0h-135l-422 1372h100l309 -1001l80 -277h9l88 277l350 1001h119l393 -1001l102 -277h8l68 277l266 1001h99l-365 -1372h-135l-379 963l-111 292h-12l-98 -292z" glyph-name="Wdieresis" horiz-adv-x="2064" unicode="Ẅ"/><glyph d="M1053 1147h-88v231h88v-231zM748 1147h-89v231h89v-231zM477 0h-112l-338 1006h94l248 -736l53 -180h8l68 184l301 732h114l304 -732l67 -182h8l51 178l248 736h95l-340 -1006h-113l-293 719l-80 205h-8l-78 -205z" glyph-name="wdieresis" horiz-adv-x="1712" unicode="ẅ"/><glyph d="M434 1548h-65v64q0 69 30.5 109t94.5 40q41 0 72.5 -16.5t68.5 -48.5l39 -33q54 -47 100 -47q66 0 66 84v59h65v-65q0 -68 -32 -108t-91 -40q-70 0 -143 66l-39 33q-54 47 -100 47q-32 0 -49 -18.5t-17 -65.5v-60zM1139 0h-1004v1372h1004v-84h-912v-557h881v-82h-881 v-565h912v-84z" glyph-name="Etilde" horiz-adv-x="1226" unicode="Ẽ"/><glyph d="M379 1200h-66v68q0 67 31 106t96 39q28 0 55 -10.5t42.5 -21.5t42.5 -33l36 -33q57 -47 103 -47q65 0 65 84v59h66v-65q0 -68 -32 -108t-91 -40q-70 0 -143 66l-41 32q-54 47 -99 47q-65 0 -65 -79v-64zM598 -20q-238 0 -379 146t-141 378q0 229 141 375.5t379 146.5 q216 0 351.5 -123.5t135.5 -339.5q0 -54 -10 -92h-909q6 -195 112.5 -303.5t317.5 -108.5q190 0 287.5 70.5t97.5 198.5v12h90v-12q0 -153 -135.5 -250.5t-337.5 -97.5zM596 948q-212 0 -318 -108t-112 -303h833q2 16 2 47q0 176 -106.5 270t-298.5 94z" glyph-name="etilde" horiz-adv-x="1163" unicode="ẽ"/><glyph d="M678 1495h-92l-279 248h119zM680 0h-90v498l-592 874h106l418 -612l113 -164h6l111 164l413 612h109l-594 -870v-502z" glyph-name="Ygrave" horiz-adv-x="1269" unicode="Ỳ"/><glyph d="M606 1147h-88l-280 266h116zM250 -348h-115v84h121q81 0 121.5 27.5t75.5 99.5l65 141l-502 1002h99l323 -646l121 -249h8l119 249l309 646h97l-562 -1170q-47 -100 -112 -142t-168 -42z" glyph-name="ygrave" horiz-adv-x="1118" unicode="ỳ"/><glyph d="M434 1548h-65v64q0 69 30.5 109t94.5 40q28 0 55 -10.5t43.5 -22t42.5 -32.5l37 -33q30 -25 51 -36t49 -11q66 0 66 84v59h67v-65q0 -68 -32 -108t-91 -40q-70 0 -143 66l-41 33q-50 47 -100 47q-64 0 -64 -84v-60zM680 0h-90v498l-592 874h106l418 -612l113 -164h6 l111 164l413 612h109l-594 -870v-502z" glyph-name="Ytilde" horiz-adv-x="1269" unicode="Ỹ"/><glyph d="M350 1200h-65v68q0 66 32 105.5t95 39.5q28 0 55 -11t41.5 -21.5t42.5 -32.5l39 -33q54 -47 100 -47q66 0 66 84v59h65v-65q0 -68 -32 -108t-91 -40q-70 0 -143 66l-39 32q-20 17 -32 25t-30 15t-36 7q-68 0 -68 -79v-64zM250 -348h-115v84h121q81 0 121.5 27.5 t75.5 99.5l65 141l-502 1002h99l323 -646l121 -249h8l119 249l309 646h97l-562 -1170q-47 -100 -112 -142t-168 -42z" glyph-name="ytilde" horiz-adv-x="1118" unicode="ỹ"/><glyph d="M817 557h-756v80h756v-80z" glyph-name="endash" horiz-adv-x="878" unicode="–"/><glyph d="M1298 557h-1237v80h1237v-80z" glyph-name="emdash" horiz-adv-x="1359" unicode="—"/><glyph d="M156 1446h20v-53h-20q-20 0 -27.5 -7.5t-7.5 -29.5v-53h47v-261h-107v312q0 92 95 92z" glyph-name="quoteleft" horiz-adv-x="229" unicode="‘"/><glyph d="M74 969h-21v55h21q20 0 27.5 7t7.5 30v53h-48v258h107v-309q0 -94 -94 -94z" glyph-name="quoteright" horiz-adv-x="229" unicode="’"/><glyph d="M74 -143h-21v53h21q20 0 27.5 7.5t7.5 29.5v53h-48v258h107v-309q0 -92 -94 -92z" glyph-name="quotesinglbase" horiz-adv-x="473" unicode="‚"/><glyph d="M156 1446h20v-53h-20q-20 0 -27.5 -7.5t-7.5 -29.5v-53h47v-261h-107v312q0 92 95 92zM365 1446h20v-53h-20q-20 0 -27.5 -7.5t-7.5 -29.5v-53h47v-261h-107v312q0 92 95 92z" glyph-name="quotedblleft" horiz-adv-x="438" unicode="“"/><glyph d="M283 969h-21v55h21q20 0 27 6.5t7 30.5v53h-47v258h107v-309q0 -94 -94 -94zM74 969h-21v55h21q20 0 27.5 7t7.5 30v53h-48v258h107v-309q0 -94 -94 -94z" glyph-name="quotedblright" horiz-adv-x="438" unicode="”"/><glyph d="M74 -143h-21v53h21q20 0 27.5 7.5t7.5 29.5v53h-48v258h107v-309q0 -92 -94 -92zM283 -143h-21v53h21q19 0 26.5 7t7.5 30v53h-47v258h107v-309q0 -92 -94 -92z" glyph-name="quotedblbase" horiz-adv-x="438" unicode="„"/><glyph d="M524 0h-92v946h-391v82h391v344h92v-344h394v-82h-394v-946z" glyph-name="dagger" horiz-adv-x="958" unicode="†"/><glyph d="M524 0h-92v342h-391v82h391v522h-391v82h391v344h92v-344h394v-82h-394v-522h394v-82h-394v-342z" glyph-name="daggerdbl" horiz-adv-x="958" unicode="‡"/><glyph d="M244 502q-78 0 -131.5 50t-53.5 134t53.5 134t131.5 50q79 0 132.5 -50t53.5 -134t-53.5 -134t-132.5 -50z" glyph-name="bullet" horiz-adv-x="489" unicode="•"/><glyph d="M186 0h-106v258h106v-258zM504 0h-107v258h107v-258zM821 -2h-106v260h106v-260z" glyph-name="ellipsis" horiz-adv-x="901" unicode="…"/><glyph d="M395 715q-83 0 -149 28.5t-106.5 77t-61.5 108.5t-21 126q0 65 21 124t61.5 107.5t106.5 77.5t149 29t148.5 -29t105.5 -77.5t61 -107.5t21 -124q0 -66 -21 -126t-61 -108.5t-105.5 -77t-148.5 -28.5zM270 0h-94l1165 1372h95zM395 788q256 0 256 267q0 264 -256 264 q-258 0 -258 -264q0 -267 258 -267zM2009 -20q-83 0 -149 28.5t-106.5 76.5t-61.5 108t-21 126q0 65 21 124t61.5 107.5t106.5 77.5t149 29t149 -29t106.5 -77.5t61.5 -107.5t21 -124q0 -66 -21 -126t-61.5 -108t-106.5 -76.5t-149 -28.5zM1219 -20q-83 0 -149 28.5 t-106.5 76.5t-61.5 108t-21 126q0 65 21 124t61.5 107.5t106.5 77.5t149 29t148.5 -29t105.5 -77.5t60.5 -107.5t20.5 -124q0 -66 -20.5 -125.5t-60.5 -108t-105.5 -77t-148.5 -28.5zM2009 53q258 0 258 266q0 265 -258 265q-256 0 -256 -265q0 -266 256 -266zM1219 53 q256 0 256 266q0 265 -256 265q-258 0 -258 -265q0 -266 258 -266z" glyph-name="perthousand" horiz-adv-x="2404" unicode="‰"/><glyph d="M25 666l409 301v-97l-338 -241v-8l338 -242v-96l-409 301v82z" glyph-name="guilsinglleft" horiz-adv-x="495" unicode="‹"/><glyph d="M471 584l-410 -301v96l338 242v8l-338 241v97l410 -301v-82z" glyph-name="guilsinglright" horiz-adv-x="495" unicode="›"/><glyph d="M-381 0h-94l1165 1372h94z" glyph-name="fraction" horiz-adv-x="309" unicode="⁄"/><glyph d="M399 666q-165 0 -261.5 102.5t-96.5 259.5t97 261t261 104q163 0 260 -104t97 -261q0 -156 -97 -259t-260 -103zM399 739q134 0 205.5 72t71.5 217q0 147 -71 219t-206 72q-276 0 -276 -291q0 -289 276 -289z" glyph-name="zero.superior" horiz-adv-x="796" unicode="⁰"/><glyph d="M582 686h-80v141h-482v58l474 487h88v-471h139v-74h-139v-141zM135 901h367v365h-6l-361 -357v-8z" glyph-name="four.superior" horiz-adv-x="778" unicode="⁴"/><glyph d="M999 516h-663q39 -211 178.5 -321.5t372.5 -110.5h370v-84h-370q-258 0 -427.5 137.5t-215.5 378.5h-224v74h213q-4 62 -4 96t4 96h-213v74h224q46 241 215.5 378.5t427.5 137.5h370v-84h-370q-234 0 -373.5 -110t-177.5 -322h663v-74h-673q-4 -62 -4 -96t4 -96h673v-74z" glyph-name="Euro" horiz-adv-x="1318" unicode="€"/><glyph d="M1094 0h-113l-330 426q-44 56 -88 90t-109 55t-149 21h-207v80h447q309 0 309 272h-756v78h756v272h-756v78h1065v-78h-219v-272h219v-78h-219q-3 -163 -101.5 -250.5t-277.5 -85.5v-8q52 -14 92.5 -49.5t87.5 -97.5z" glyph-name="indianrupee" horiz-adv-x="1259" unicode="₹"/><glyph d="M618 961h-69v411h90l182 -321h6l179 321h92v-411h-70v223l2 86h-8l-164 -283h-72l-163 283h-7l2 -82v-227zM272 961h-71v346h-197v65h467v-65h-199v-346z" glyph-name="trademark" horiz-adv-x="1138" unicode="™"/><glyph d="M838 645h-758v82h758v-82z" glyph-name="minus" horiz-adv-x="917" unicode="−"/><glyph d="M162 389h-82v164q0 83 49 129v4h-49v166q0 33 8 62.5t25.5 56t51.5 42t81 15.5q18 0 35.5 -3t36.5 -11t31 -13.5t34 -20.5t30.5 -21t33.5 -25.5t32 -24.5l72 -49q77 -61 111 -77q36 -17 69 -17q88 0 88 102v156h80v-162q0 -81 -47 -131v-4h47v-162q0 -74 -37.5 -126 t-120.5 -52q-17 0 -34 3t-29.5 5.5t-31 11.5t-26 12t-28 16.5t-24 15.5t-26.5 18.5t-24 17.5l-90 66q-79 64 -112 79q-34 17 -66 17q-88 0 -88 -104v-156zM735 467q88 0 88 104v140q-34 -27 -88 -27q-31 0 -59 7t-60.5 26.5t-45 28t-52.5 38.5l-92 68q-34 27 -46.5 37 t-39.5 27t-48.5 23.5t-45.5 6.5q-90 0 -90 -104v-140q34 27 96 27q38 0 81 -19.5t66.5 -37t75.5 -58.5l74 -51l22 -16.5t23 -17.5t21 -15.5t24 -15.5t22.5 -12t24.5 -11t23.5 -5.5t25.5 -2.5z" glyph-name="approxequal" horiz-adv-x="978" unicode="≈"/><glyph d="M838 438h-519l-133 -174l-63 45l98 129h-141v80h203l256 336h-459v80h520l133 174l64 -45l-99 -129h140v-80h-201l-256 -336h457v-80z" glyph-name="notequal" horiz-adv-x="917" unicode="≠"/><glyph d="M819 203h-758v82h680v8l-680 344v98l758 383v-96l-669 -332v-8l669 -330v-149z" glyph-name="lessequal" horiz-adv-x="899" unicode="≤"/><glyph d="M838 203h-758v149l672 330v8l-672 332v96l758 -383v-98l-678 -344v-8h678v-82z" glyph-name="greaterequal" horiz-adv-x="899" unicode="≥"/><glyph d="M721 0h-207q-149 0 -229 70t-80 235v621h-187v80h187v258h92v-258h592v258h90v-258h426v-80h-426v-643q0 -112 58 -155.5t184 -43.5h184v-84h-207q-149 0 -229 70t-80 235v621h-592v-643q0 -113 57 -156t183 -43h184v-84z" glyph-name="t_t" horiz-adv-x="1445"/><glyph d="M557 -20q-235 0 -366.5 134t-131.5 349q0 212 130.5 346.5t355.5 134.5q176 0 295.5 -83.5t156.5 -211.5h9v723h90v-1372h-78v291h-8q-36 -143 -160 -227t-293 -84zM152 463q0 -400 417 -400q196 0 316.5 102t120.5 277v21q0 175 -120.5 286t-322.5 111q-411 0 -411 -397 z" glyph-name="d.component" horiz-adv-x="1271"/><glyph d="M217 0h-90v1372h90v-792h8q29 138 140 232.5t294 94.5q204 0 312 -124.5t108 -329.5v-453h-90v461q0 187 -86.5 274.5t-263.5 87.5q-215 0 -318.5 -129.5t-103.5 -351.5v-342z" glyph-name="h.component" horiz-adv-x="1189"/><glyph d="M479 987h-18v51h18q19 0 26 6.5t7 28.5v51h-43v248h94v-297q0 -88 -84 -88z" glyph-name="caroncomb.alt" horiz-adv-x="1024"/><glyph d="M526 1495h-88v231h88v-231zM223 1495h-90v231h90v-231z" glyph-name="dieresiscomb.case" horiz-adv-x="661"/><glyph d="M188 1495h-90v231h90v-231z" glyph-name="dotaccentcomb.case" horiz-adv-x="286"/><glyph d="M356 1495h-94l-276 248h118z" glyph-name="gravecomb.case" horiz-adv-x="593"/><glyph d="M334 1495h-92l252 248h118z" glyph-name="acutecomb.case" horiz-adv-x="593"/><glyph d="M588 1495h-84l217 248h106zM311 1495h-84l215 248h109z" glyph-name="hungarumlautcomb.case" horiz-adv-x="806"/><glyph d="M541 967h-21v57h21q20 0 27 6.5t7 30.5v53h-47v258h107v-309q0 -96 -94 -96z" glyph-name="caroncomb.alt.case" horiz-adv-x="1155"/><glyph d="M270 1495h-96l264 266h90l267 -266h-99l-209 207h-8z" glyph-name="circumflexcomb.case" horiz-adv-x="974"/><glyph d="M705 1761h96l-264 -266h-91l-266 266h99l206 -207h11z" glyph-name="caroncomb.case" horiz-adv-x="974"/><glyph d="M326 1475q-112 0 -179 57.5t-67 157.5v18h76v-20q0 -72 40.5 -108t129.5 -36q91 0 130.5 35.5t39.5 108.5v20h73v-18q0 -100 -66.5 -157.5t-176.5 -57.5z" glyph-name="brevecomb.case" horiz-adv-x="651"/><glyph d="M281 1454q-92 0 -148.5 50.5t-56.5 133.5t56.5 134t148.5 51q91 0 147.5 -51t56.5 -134t-56.5 -133.5t-147.5 -50.5zM281 1513q139 0 139 125t-139 125q-142 0 -142 -125t142 -125z" glyph-name="ringcomb.case" horiz-adv-x="559"/><glyph d="M152 1548h-68v64q0 149 127 149q28 0 55 -10.5t43.5 -22t42.5 -32.5l37 -33q54 -47 100 -47q66 0 66 84v59h66v-65q0 -68 -31 -108t-90 -40q-71 0 -144 66l-41 33q-50 47 -100 47q-63 0 -63 -84v-60z" glyph-name="tildecomb.case" horiz-adv-x="702"/><glyph d="M598 1595h-512v68h512v-68z" glyph-name="macroncomb.case" horiz-adv-x="684"/><glyph d="M135 -410h-82l170 267h107z" glyph-name="commaaccentcomb.case" horiz-adv-x="448"/><glyph d="M319 -399h-147v67h147q39 0 61.5 14.5t22.5 53.5q0 40 -22 53.5t-62 13.5h-122v203h69v-133h53q73 0 115.5 -36.5t42.5 -98.5q0 -64 -42 -100.5t-116 -36.5z" glyph-name="cedillacomb.case" horiz-adv-x="475"/><glyph d="M418 -383h-135q-88 0 -136.5 35.5t-48.5 101.5q0 34 15.5 67.5t28 48.5t44.5 50l70 80h66l-84 -109q-32 -41 -46 -67t-14 -53q0 -38 27 -61t84 -23h129v-70z" glyph-name="ogonekcomb.case" horiz-adv-x="497"/><glyph d="M1167 645h-802v82h802v-82z" glyph-name="strokeshortcomb.case" horiz-adv-x="1533"/><glyph d="M1540 1061h-1520v84h1520v-84z" glyph-name="strokelongcomb.case" horiz-adv-x="1560"/><glyph d="M1040 954l-821 -331v90l821 331v-90z" glyph-name="slashshortcomb.case" horiz-adv-x="1261"/><glyph d="M1395 1360l-1239 -1399l-58 51l1241 1399z" glyph-name="slashlongcomb.case" horiz-adv-x="1513"/><glyph d="M217 0v1434h442v-1434h-442zM752 1016v418h442v-418h-442zM1284 0v1434h445v-1434h-445zM1819 1016v418h442v-418h-442zM2351 0v1434h445v-1434h-445zM2886 1016v418h442v-418h-442zM2886 506v420h442v-420h-442z" glyph-name="ITF" horiz-adv-x="3543"/></font>
</defs>
</svg>
